<?xml version="1.0" encoding="utf-8"?>
<!-- Generator: Adobe Illustrator 19.0.0, SVG Export Plug-In . SVG Version: 6.00 Build 0)  -->
<!DOCTYPE svg PUBLIC "-//W3C//DTD SVG 1.1//EN" "http://www.w3.org/Graphics/SVG/1.1/DTD/svg11.dtd">
<svg version="1.1" id="Layer_1" xmlns="http://www.w3.org/2000/svg" xmlns:xlink="http://www.w3.org/1999/xlink" x="0px" y="0px"
	 viewBox="-101 365.5 407.7 63.5" style="enable-background:new -101 365.5 407.7 63.5;" xml:space="preserve">
<g>
	<path d="M14.6,389.4L14.6,389.4c-1.9-7.5-6.8-24.1-18.8-24.1c-12.8,0-15.3,16.1-15.3,35.6c0,17.9,3,28.3,14.3,28.3
		c11.7,0,18.2-14.8,19.8-25.1h0.1v24c-2-1.6-3.5-2.3-5.1-2.3c-5.3,0-7.6,4.1-16.1,4.1c-12.1,0-25.4-13.3-25.4-29.7
		c0-23,17.1-35.6,27.1-35.6c6.5,0,10.6,3.6,14.3,3.6c1.6,0,3.2-0.7,5.1-2L14.6,389.4L14.6,389.4z"/>
	<path d="M39.3,395.4v32.8h7c8.6,0,13-2.2,13-17.1c0-15-6.7-15.8-12.7-15.8h-7.3V395.4z M48,394.7c6.3,0,9.3-2.6,9.3-14.8
		c0-11.5-4.2-13.5-15.2-13.5h-2.9v28.3H48L48,394.7z M45.7,365.6c12.3,0,22.6,5.6,22.6,15.5c0,8.2-6.1,11.9-14.1,14
		c8.5,2,16.6,6.2,16.6,15.6c0,11.2-9.9,18.4-23.6,18.4H17v-0.7h10.1v-61.9H17v-0.9H45.7L45.7,365.6z"/>
	<path d="M110,366.1v22.1h-0.2v-0.5c0-3.7-5.2-22.4-16.9-22.4c-7.8,0-10.7,5.6-10.7,11.5c0,18.5,33.3,8.9,33.3,32
		c0,11.9-10.4,21-18.8,21c-7.1,0-13.1-4.1-17-4.1c-1.5,0-2.9,0.6-4.6,2v-23.8h0.2v0.3c0.1,2.6,5.7,24.8,20.5,24.8
		c6.8,0,12.6-4.3,12.6-12.1c0-17.5-32.7-9.4-32.7-31.9c0-9.3,6.2-20.5,17.2-20.5c5.2,0,8.4,2.9,11.9,2.9c2.5,0,4.2-1.5,5.3-2.7
		C110,364.8,110,365.6,110,366.1L110,366.1z"/>
	<path d="M-68.3,416.3c-14.9,0-25.7-9.5-30.3-19.1c4.6-9.5,15.4-19,30.3-19s25.7,9.5,30.4,19C-42.6,406.9-53.5,416.3-68.3,416.3
		L-68.3,416.3z M-68.3,364.2c-18.2,0-32.7,14.9-32.7,33c0,18.3,14.5,33.1,32.7,33.1c18.3,0,32.6-14.9,32.6-33.1
		C-35.8,379.1-50.1,364.2-68.3,364.2L-68.3,364.2z M-68.3,379.7c-9.7,0-17.6,7.9-17.6,17.5c0,9.8,7.9,17.6,17.6,17.6
		s17.5-7.8,17.5-17.6C-50.9,387.6-58.7,379.7-68.3,379.7L-68.3,379.7z"/>
	<path d="M163.7,429v-0.6l-10-26.2h0.7c4.9,0,7.2-2.4,7.2-7.4v-21.9c0-5-2.3-7.4-7.2-7.4h-30.1V429h14.1v-51.5h9v16.1H140v11.3
		l8.8,24.1H163.7L163.7,429z"/>
	<path d="M186.9,407.5h-7l3.5-21.6L186.9,407.5L186.9,407.5z M204.5,429v-0.2l-13.4-63.3h-15.5l-13.4,63.3v0.2h14.1l1.5-9.5h11
		l1.5,9.5H204.5L204.5,429z"/>
	<path d="M228.8,413.6c0,2.6-1.4,3.4-3.9,3.4h-6.1v-39.5h6.1c2.5,0,3.9,0.8,3.9,3.4V413.6L228.8,413.6z M243,416.4v-38.2
		c0-8.5-4.5-12.7-13-12.7h-25.3V429H230C238.5,429,243,424.9,243,416.4L243,416.4z"/>
	<polygon points="248.6,429 262.8,429 262.8,365.5 248.6,365.5 	"/>
	<path d="M292.5,417h-10.1v-39.5h10.1V417L292.5,417z M306.7,421.6v-48.7c0-5-2.3-7.4-7.2-7.4h-24c-4.9,0-7.1,2.4-7.1,7.4v48.7
		c0,5,2.2,7.4,7.1,7.4h24C304.3,429,306.7,426.6,306.7,421.6L306.7,421.6z"/>
</g>
</svg>
