<?xml version="1.0" encoding="utf-8"?>
<!-- Generator: Adobe Illustrator 19.1.0, SVG Export Plug-In . SVG Version: 6.00 Build 0)  -->
<svg version="1.1" id="Layer_1" xmlns="http://www.w3.org/2000/svg" xmlns:xlink="http://www.w3.org/1999/xlink" x="0px" y="0px"
	 viewBox="0 0 500 52.4" enable-background="new 0 0 500 52.4" xml:space="preserve">
<path fill="#231F20" d="M191.1,33c-1.7,0.3-2.8,0.7-3.2,1.8c-0.3,0.8-0.4,2.4-0.4,4.1l0,7.9c-2.9,2-7.4,4.6-12.6,4.6
	c-8.5,0-15.9-7-16-19.7c0-11,5.7-20,16.4-20.1c4.4,0,7,1.9,8.2,3.1c0.7-0.7,1.1-1.2,1.6-2l1.1,0l0,12h-1.1c-1-5.7-4-11.5-9.5-11.5
	c-6.5,0-8.9,8.4-8.9,18.5c0,11.2,3,17.9,8.8,17.8c2.3,0,3.6-1,4.1-2.4c0.4-0.9,0.5-4.2,0.5-6.6c0-2.5-0.2-5.1-0.6-5.9
	c-0.5-1-1.7-1.5-3.5-1.6v-1l15,0"/>
<path fill="#231F20" d="M126.3,50.2l-0.8,0c-0.5-0.6-1.2-1.2-1.8-1.7c-1.4,1.1-3.8,2.9-8.2,2.9c-9.2,0-16.5-6.8-16.6-19.7
	c0-10.2,5.5-19.9,16.2-20c4.6,0,6.8,1.6,8.4,3.1c0.8-0.7,1.2-1.3,1.7-2l0.9,0l0,12h-1c-1.4-6.9-4.5-11.5-9.5-11.5c-6.8,0-9,9-9,18.7
	c0,10.3,2.6,17.7,9.1,17.7c5.1,0,8.4-5.2,9.3-11.3l1,0"/>
<path fill="#231F20" d="M98.1,51.2l-15.9,0v-1c1.9-0.3,3-0.8,3.7-2.1c0.5-0.8,0.6-3.2,0.6-5.4L86.5,21c0-2.5,0-4.5-0.6-5.5
	c-0.7-1.2-1.4-1.6-3.6-1.9l0-1l15.7,0l0,1c-2.1,0.4-3.1,0.6-3.7,2.3c-0.4,1.2-0.4,3.3-0.4,4.9l0.1,22.3c0,2,0,4.4,0.4,5.1
	c0.6,1.2,1.8,1.6,3.9,1.9"/>
<path fill="#231F20" d="M80.2,51.2l-16.1,0.1l0-1c2.5-0.2,3.7-1,4.1-1.9c0.2-0.5,0.4-2.8,0.4-4.5l0-11.1l-12.7,0l0,10.5
	c0,2.1-0.1,4.7,0.4,5.4c0.7,1.1,1.6,1.3,3.3,1.6l0,1l-15.3,0.1l0-1c1.8-0.2,3.1-0.8,3.7-1.8c0.4-0.7,0.6-3.2,0.6-6l-0.1-20.7
	c0-2.5,0-5.3-0.5-6.2c-0.7-1.2-1.6-1.6-3.7-1.9v-1l15.5-0.1l0,1c-2,0.3-4,0.9-4,4.3l0,12.8l12.7-0.1l0-10.9c0-1.3-0.1-3-0.5-3.9
	c-0.7-1.7-2-1.9-3.9-2.2v-1l15.8-0.1l0,1c-1.7,0.3-3.1,0.9-3.6,2.4c-0.4,1-0.5,3.8-0.5,5.9l0.1,21.6c0,2,0.2,4,0.5,4.6
	c0.6,1.4,1.7,1.8,3.8,2.1"/>
<path fill="#231F20" d="M41.3,21.5h-1.4c-1.6-8-6.1-13.4-11.9-13.3c-7.6,0-11.6,10.1-11.5,21.2c0,12.1,3.7,20.8,11.7,20.8
	c6,0,10.6-6.4,11.7-13.6l1.4,0l0.1,13.8h-1.2c-0.7-0.9-1.4-1.8-1.9-2.3c-1.3,1.2-4.8,4.3-10.3,4.3c-10.8,0-19.4-7.9-19.4-23.3
	c0-12.2,6.4-23,19-23c6.1,0,8.4,2.1,10.5,3.8c0.8-0.9,1.3-1.5,2-2.5l1.4,0"/>
<path fill="#231F20" d="M224.5,31.2c0,13.5-8.3,20-15.9,20c-7.5,0-15.9-7-15.9-19.7c-0.1-13.1,8.6-19.8,16.3-19.8
	C217.4,11.6,224.4,19.4,224.5,31.2 M216.7,31.3c0-8.7-1.8-18.3-8.1-18.3c-6.5,0-8.2,9.4-8.1,18.6c0,9.7,2.1,18.2,8.4,18.2
	C215,49.8,216.7,40.2,216.7,31.3z"/>
<path fill="#231F20" d="M161.7,51l-15.6,0l0-1c1.8-0.3,3.3-0.7,3.3-2.4c0-0.5-0.1-1.4-0.5-2.7l-2-7.9l-9.4,0l-2,6.7
	c-0.6,1.9-0.7,3-0.7,3.7c0,1.9,1.8,2.2,3.9,2.5l0,1l-11.1,0l0-1c2-0.4,3-1.1,3.4-1.6c0.3-0.5,1.1-1.9,2.2-5.6c0,0,5.8-19.1,8.1-27.2
	l-0.8-1c1.7-0.7,5.2-2.2,6.9-3.4l0.1,0l8.4,30.3c0.6,2.2,1.1,3.6,1.6,4.9c0.7,1.6,2.2,3.2,4.3,3.3 M146.2,35.1
	c-1.5-6.1-2.9-11.4-3.8-15.1h-0.1L138,35.1L146.2,35.1z"/>
<path fill="#231F20" d="M493.1,39.8c0,6.3-4.8,10.6-11.8,10.6c-5.3,0-8-1.8-8.9-2.4c-0.4,0.6-0.7,1.2-1.1,2l-0.9,0l-0.1-10.7l1.1,0
	c1.1,4.7,4.3,9.7,9.9,9.7c3.3,0,6-2.8,6-6.7c0-4.2-3.4-7-7.3-9.4c-4.4-2.6-9.1-5.1-9.2-11.7c0-6.9,5.4-10.4,11.1-10.5
	c4.8,0,6.9,2,7.6,2.5c0.4-0.6,0.8-1.1,1.2-1.9l0.9,0l0,10.4l-1.1,0c-1.7-6-4.5-9.4-8.7-9.4c-3.4,0-5.7,2.6-5.7,5.5
	c0,4.3,3.6,6.5,7.8,9.1C488.5,29.6,493.1,33.1,493.1,39.8"/>
<path fill="#231F20" d="M468.6,39.3L466.8,50l-40.9,0.1l0-1c1.8-0.2,3.5-1.1,4-2.5c0.3-1,0.1-2,0-3.4l-1.5-26
	c-3.3,10.7-6.7,21.4-10.2,32h-1c-5-16.1-8.8-27.8-10-31l-1.3,21c-0.1,1.7-0.1,3.1-0.1,4.3c0,3.6,1.2,5.2,4.6,5.7l0,1l-28.1,0.1l0-1
	c1.8-0.3,3-0.8,3.7-2.1c0.5-0.8,0.5-3.4,0.5-5.7l0-20.7c0-2.5,0-5.3-0.5-6.2c-0.7-1.2-2.4-1.7-3.6-1.9v-1l15.5,0l0,1
	c-1,0.2-3.1,0.6-3.7,2.3c-0.4,1.3-0.4,3.3-0.4,4.9l0.1,22.4c0,2,0,4.4,0.3,5.1c0.6,1.2,1.8,1.7,3.6,1.9c3.6-0.7,5-3.1,5.5-10.4
	l1-15.1c0.1-2.1,0.3-4.3,0.3-6.2c0-4-3-4.5-4.2-4.8v-1l12.8,0l7,23c4.4-13.5,7-21.2,7.4-23.1l12.2,0l0,1c-3,0.3-3.8,1.6-3.9,4.1
	c0,0.9,0,2.1,0.1,3.6l1.5,23c0.1,1.9,0.3,3.3,0.6,3.9c0.6,1,1.2,1.8,3.7,2c1.6-0.3,3.1-0.9,3.7-2c0.5-0.9,0.7-3.4,0.6-5.8l0-20.7
	c0-2.5,0-5.6-0.6-6.6c-0.5-0.7-1.8-1.3-3.5-1.5l0-1l23.3-0.1l2.1,8.8l-1,0.3c-2-3.6-3.2-5.6-4.9-6.8c-0.8-0.6-2.1-1-5.3-1
	c-1,0-2.3,0.1-2.9,0.2l0.1,16.8c0.4,0,2,0,3.3-0.4c2.1-0.7,3-2.5,3.5-7.2l1,0l0.1,16.8l-0.9,0c-0.4-2.1-1.4-5.8-3.3-7.2
	c-0.9-0.7-2.6-0.7-3.7-0.7l0,11.3c0,2.3,0.1,4.1,0.5,5.1c0.4,1,1.5,1.4,3.5,1.4c0.8,0,1.6-0.1,3-0.3c3.1-0.6,4.6-3,7-9.1"/>
<path fill="#231F20" d="M380.6,17.1l-1.2,0.2c-1.2-3.6-2.5-6.5-3.5-7.7c-1.2-1.6-2.5-2.1-4.7-2.1c-2.2-0.1-2.8-0.1-5.4-0.1l0.1,33.4
	c0,2.4,0,5,0.5,5.8c0.9,1.8,2.7,2.4,4.7,2.7l0,1l-18.7,0.1l0-1c2.2-0.4,3.7-0.6,5-2.8c0.5-0.9,0.6-4,0.5-6.7l-0.1-32.4
	c-2.5,0-3.2,0-5.4,0.1c-2.2,0.1-3.5,0.7-4.7,2.3c-0.9,1.2-2.3,4.6-3.2,7.6l-1.1-0.2l1.3-12.3c1.3,0.4,2.8,0.9,5,0.8l24.4-0.1
	c1.9,0,3.6-0.6,5-1.2"/>
<path fill="#231F20" d="M349.8,31.7l-8.8,2.7c-0.8,0.3-2.2,1-2.9,1.8l-0.1,0l0-4.9l8.5-2.7c1.5-0.5,2.5-0.9,3.2-1.7h0.1"/>
<path fill="#231F20" d="M336.3,12.8c-2.5,0.3-3.8,1.2-4.4,3.3c-0.3,1.1-0.5,4.4-0.5,7.6l0.1,27.1l-1.5,0
	c-8.3-12.8-12.3-19.2-19.6-30.6l0.1,18.7c0,3.6,0.2,6.4,0.6,7.8c0.6,1.6,2.4,2.3,4.4,2.7l0,1l-12.1,0l0-1c1.2-0.2,3.2-0.8,3.8-2.3
	c0.7-1.5,0.9-4.1,0.9-8.2L308,25.7c0-4.1,0.1-3.5-0.1-7.6c-0.2-4.1-2.7-4.9-4.3-5.2c-1.8,0.4-3.3,1.3-3.9,3.3
	c-0.3,1.1-0.5,5-0.5,8.3l0,11.4c0,9.8-2,15.1-11.8,15.2c-10.3,0-13-5.6-13-13.9l-0.1-16c0-2.5,0-5.3-0.5-6.2
	c-0.7-1.2-2.3-1.7-3.6-1.9l0-1l15.1-0.1l0,1c-2.6,0.4-3.7,1.5-3.7,4.8l0.1,19c0,9.4,2.3,11.9,7,11.9c5.7,0,8.2-2.8,8.2-12.9l0-11.3
	c0-2.8-0.1-6.4-0.4-8c-0.5-2-2.3-3.1-4.7-3.6v-1l22-0.1L329,36.3l0-12.5c0-2.8,0-5.7-0.3-7.2c-0.5-2-1.8-3.3-4.9-3.7l0-1l12.6,0"/>
<path fill="#231F20" d="M269.8,38.6c0,7.5-5.9,12.5-13.7,12.5c-5.5,0-8.9-2-10.2-2.8c-0.4,0.7-0.8,1.2-1.3,2.2l-1,0l0-12.5l1.2,0
	c1.2,5.4,4.9,11.1,11.3,11.1c3.9,0,7.1-2.9,7-7.9c0-5-3.8-8.2-8.4-11c-5.1-3.1-10.6-6-10.6-13c0-8.8,7-12,13-12
	c4.9,0,7.9,2.2,8.6,2.9c0.6-0.8,0.9-1.2,1.4-2.2h1.1l0.1,12.3l-1.4,0c-1.9-7.1-4.9-10.9-9.8-10.9c-4,0-6.9,2.8-6.9,6.2
	c0,4.9,4.4,7.5,9.3,10.4C264.5,27,269.8,30.8,269.8,38.6"/>
<rect id="SVGID_7_" x="6.9" y="3" fill="none" width="486.2" height="49.4"/>
</svg>
