<?xml version="1.0" encoding="utf-8"?>
<!-- Generator: Adobe Illustrator 19.1.0, SVG Export Plug-In . SVG Version: 6.00 Build 0)  -->
<svg version="1.1" id="Layer_1" xmlns="http://www.w3.org/2000/svg" xmlns:xlink="http://www.w3.org/1999/xlink" x="0px" y="0px"
	 viewBox="0 0 521.9 52.5" enable-background="new 0 0 521.9 52.5" xml:space="preserve">
<g>
	<path d="M12.9,12.6c0-3.4-1.1-5.1-3.4-5.1c-0.4,0-0.9,0-1.4,0.1C7.3,7.8,6.7,7.8,6.3,7.8c-1.4,0-2.1-0.7-2.1-2.2c0-1.6,1-2.4,3-2.4
		c0.2,0,0.5,0,0.9,0.1l3.6,0.5C13,4,14.5,4.1,16,4.1c1.3,0,2.5-0.1,3.8-0.2l4.4-0.5c0.9-0.1,2-0.1,3.4-0.1c4.1,0,7.5,0.6,10.3,1.8
		c3.6,1.5,6.5,4.2,8.6,8c2.1,3.8,3.1,8.2,3.1,13.2c0,4.4-0.8,8.4-2.5,11.9c-1.7,3.5-3.9,6.1-6.8,7.8c-3.5,2-7.7,3-12.6,3
		c-1,0-2,0-3-0.1l-4.7-0.4c-1.6-0.1-3.2-0.2-4.9-0.2c-1.5,0-2.7,0.1-3.7,0.2l-3.2,0.5c-0.1,0-0.2,0-0.5,0.1c-0.2,0-0.4,0-0.5,0
		c-1.9,0-2.9-0.8-2.9-2.4c0-0.6,0.2-1.2,0.6-1.6c0.4-0.4,0.9-0.6,1.5-0.6c0.5,0,1.1,0.1,1.8,0.2c0.3,0.1,0.8,0.1,1.4,0.1
		c2.3,0,3.4-1.7,3.4-5.1V12.6z M18.6,11.9v28.5c0,2.1,1,3.3,3,3.8c0.7,0.2,2.6,0.3,5.7,0.3c5.4,0,9.3-1.5,11.8-4.4
		c2.9-3.5,4.4-8.1,4.4-13.9c0-4.5-0.9-8.3-2.7-11.4c-1.8-3.1-4.2-5.1-7.3-6c-2-0.6-4.4-0.9-7.2-0.9c-3.6,0-5.7,0.2-6.5,0.6
		C19,8.8,18.6,10,18.6,11.9z"/>
	<path d="M62.2,12.6c0-3.3-1.1-5-3.4-5c-0.6,0-1.1,0-1.4,0.1c-0.7,0.1-1.3,0.2-1.8,0.2c-0.6,0-1.1-0.2-1.5-0.6
		c-0.4-0.4-0.6-1-0.6-1.6c0-1.6,0.9-2.4,2.8-2.4c0,0,0.4,0,1,0.1C64,3.8,67.1,4,66.7,4h0.7l16.2-0.5c0.3,0,1.5-0.1,3.5-0.2
		c0.7,0,1.4-0.1,2-0.1c2.3,0,3.5,1,3.5,3.1c0,0.4-0.1,1.5-0.2,3.4c-0.1,1.4-0.1,2.8-0.1,4c0,1.6,0,2.7,0.1,3.3
		c0.1,1.3,0.2,2.3,0.2,2.9c0,1.7-0.8,2.6-2.4,2.6c-1.6,0-2.4-1.2-2.4-3.6v-3.5c0-3.8-0.8-6-2.4-6.7c-1.2-0.5-4.2-0.7-9.1-0.7
		c-3.2,0-5.1,0.1-5.7,0.2c-1.9,0.5-2.9,1.8-2.9,4.1v3c0,0.4,0,0.9,0,1.5c0,0.6,0,1.1,0,1.4v0.9c0,1.8,0.4,2.8,1.2,3.1
		c0.3,0.1,0.8,0.1,1.6,0.1h2.7c2.8,0,4.2-1,4.2-2.9c0-0.5-0.1-1.2-0.2-2.1c-0.1-0.9-0.2-1.6-0.2-2.3c0-1.8,0.8-2.7,2.4-2.7
		c1.6,0,2.4,1,2.4,2.9c0,0.4-0.1,1.8-0.4,4.2c-0.2,2.1-0.4,3.9-0.4,5.5c0,0.9,0.1,2.5,0.3,4.8c0,0.4,0.2,1.2,0.3,2.4
		c0.1,1,0.2,1.8,0.2,2.4c0,1.6-0.8,2.4-2.4,2.4c-1.6,0-2.4-0.9-2.4-2.8c0-0.5,0.1-1.2,0.2-2.2c0.1-0.9,0.2-1.7,0.2-2.2
		c0-1.9-1.3-2.9-3.9-2.9h-3c-1.3,0-2.1,0.2-2.4,0.7c-0.3,0.5-0.4,1.4-0.4,2.9v4.2c0,0.7,0,1.7,0.1,2.9c0,1.5,0.1,2.5,0.1,3
		c0,1.8,0.4,2.9,1.1,3.4c0.5,0.3,1.7,0.5,3.5,0.5h9.2c2.7,0,4.5-0.4,5.5-1.2c1-0.8,1.5-2.3,1.5-4.4c0-0.7,0-1.7-0.1-3
		c-0.1-1.3-0.1-2.3-0.1-3c0-2,0.8-3,2.4-3c1.7,0,2.5,1,2.5,3.1c0,0.8,0,2.1-0.1,3.7c-0.1,1.7-0.1,2.9-0.1,3.7c0,0.6,0,1.6,0.1,2.8
		c0.1,1.2,0.1,2.2,0.1,2.8c0,2.1-1,3.2-3.1,3.2c-0.5,0-1.3,0-2.4-0.1c-0.5,0-1.5-0.1-3-0.1c0.3,0-1.4,0-5.3-0.1
		c-3.8-0.1-7.1-0.1-9.9-0.1c-4.2,0-8.4,0.1-12.4,0.4c-0.2,0-0.4,0-0.6,0.1c-0.2,0-0.4,0-0.4,0c-1.9,0-2.8-0.8-2.8-2.4
		c0-1.4,0.7-2.2,2.1-2.2c0.2,0,0.8,0,1.8,0.1c0.5,0.1,1,0.2,1.4,0.2c2.3,0,3.4-1.7,3.4-5.1V12.6z"/>
	<path d="M132.9,41l-2.4-6.6c-0.3-0.7-0.6-1.2-0.8-1.4c-0.3-0.2-0.9-0.3-1.8-0.3h-12c-0.9,0-1.5,0.2-1.9,0.5
		c-0.3,0.3-0.8,1.2-1.3,2.6l-2,5.2c-0.2,0.5-0.3,1-0.3,1.4c0,1.4,0.9,2.2,2.6,2.2c0.5,0,1.1,0,1.9-0.1c0.8-0.1,1.5-0.1,1.9-0.1
		c1.8,0,2.8,0.8,2.8,2.4c0,1.5-1,2.2-3,2.2c-0.4,0-0.9,0-1.5-0.1l-3.4-0.4c-0.6-0.1-1.7-0.1-3.1-0.1c-1.6,0-2.7,0-3.3,0.1l-2.8,0.3
		c-1.3,0.1-2.2,0.2-2.8,0.2c-1.8,0-2.6-0.7-2.6-2.2c0-1.6,0.9-2.4,2.6-2.4c0.4,0,0.6,0.1,0.8,0.3h0.9c1.2,0,2.1-0.5,2.8-1.4
		c0.3-0.4,0.7-1.4,1.4-3.2L118,5.9c0.7-1.9,2.1-2.9,4.3-2.9c2.1,0,3.4,0.9,4.1,2.8l12.1,33.5c0.8,2.1,1.5,3.5,2.1,4.2
		c0.6,0.7,1.5,1,2.7,1c0.4,0,0.6,0,0.8-0.1l1.9-0.2c1.7,0,2.6,0.7,2.6,2.2c0,1.6-0.9,2.4-2.6,2.4c-0.5,0-1.1-0.1-2-0.2
		c-2.8-0.4-5-0.5-6.4-0.5c-1.7,0-4.4,0.2-8.1,0.5c-0.9,0.1-1.7,0.1-2.2,0.1c-1.8,0-2.7-0.8-2.7-2.3c0-1.5,1-2.3,3-2.3
		c0.4,0,1,0,1.8,0.1c0.8,0.1,1.4,0.1,1.8,0.1c1.5,0,2.2-0.6,2.2-1.8C133.5,42.6,133.3,42,132.9,41z M128.1,27.2L122,8.6l-6.2,18.7
		c-0.1,0.3-0.1,0.4-0.1,0.5c0,0.4,0.3,0.6,1,0.6h10.8c0.5,0,0.8-0.2,0.8-0.5C128.2,27.7,128.1,27.5,128.1,27.2z"/>
	<path d="M158.1,12.6c0-3.4-1.1-5.1-3.4-5.1c-0.4,0-0.9,0-1.4,0.1c-0.8,0.1-1.4,0.2-1.8,0.2c-1.4,0-2.1-0.7-2.1-2.2
		c0-1.6,1-2.4,3-2.4c0.2,0,0.5,0,0.9,0.1l3.6,0.5c1.4,0.2,2.8,0.3,4.3,0.3c1.3,0,2.5-0.1,3.8-0.2l4.4-0.5c0.9-0.1,2-0.1,3.4-0.1
		c4.1,0,7.5,0.6,10.3,1.8c3.6,1.5,6.5,4.2,8.6,8c2.1,3.8,3.1,8.2,3.1,13.2c0,4.4-0.8,8.4-2.5,11.9c-1.7,3.5-3.9,6.1-6.8,7.8
		c-3.5,2-7.7,3-12.6,3c-1,0-2,0-3-0.1l-4.7-0.4c-1.6-0.1-3.2-0.2-4.9-0.2c-1.5,0-2.7,0.1-3.7,0.2l-3.2,0.5c-0.1,0-0.2,0-0.5,0.1
		c-0.2,0-0.4,0-0.5,0c-1.9,0-2.9-0.8-2.9-2.4c0-0.6,0.2-1.2,0.6-1.6c0.4-0.4,0.9-0.6,1.5-0.6c0.5,0,1.1,0.1,1.8,0.2
		c0.3,0.1,0.8,0.1,1.4,0.1c2.3,0,3.4-1.7,3.4-5.1V12.6z M163.8,11.9v28.5c0,2.1,1,3.3,3,3.8c0.7,0.2,2.6,0.3,5.7,0.3
		c5.4,0,9.3-1.5,11.8-4.4c2.9-3.5,4.4-8.1,4.4-13.9c0-4.5-0.9-8.3-2.7-11.4c-1.8-3.1-4.2-5.1-7.3-6c-2-0.6-4.4-0.9-7.2-0.9
		c-3.6,0-5.7,0.2-6.5,0.6C164.2,8.8,163.8,10,163.8,11.9z"/>
	<path d="M213.1,38.8c0,2.6,0.3,4.2,0.8,4.7c0.4,0.4,0.9,0.6,1.6,0.7c0.7,0.1,2.1,0.1,4.4,0.1h6c3.1,0,5.2-0.4,6.2-1.2
		c1-0.8,1.6-2.5,1.6-5c0-0.7,0-1.4-0.1-2.3c-0.1-1.7-0.1-2.8-0.1-3.1c0-2,0.8-2.9,2.4-2.9c1.9,0,2.8,0.9,2.8,2.7c0,0.5,0,1-0.1,1.3
		l-0.5,3.4c-0.1,1-0.2,2-0.2,3.1c0,0.6,0.1,1.6,0.2,2.8c0.1,1.2,0.2,2.2,0.2,2.8c0,2-1.1,3-3.4,3c-0.5,0-1.5-0.1-3.1-0.2
		c-1.1-0.1-2.8-0.2-5-0.2h-5.1h-10.8c-1.1,0-2.9,0.1-5.4,0.3c-0.4,0-1,0-1.9,0.1c-0.9,0.1-1.6,0.1-2.1,0.1c-1.9,0-2.8-0.8-2.8-2.4
		c0-1.4,0.7-2.2,2.1-2.2c0.4,0,0.9,0.1,1.6,0.2c0.7,0.1,1.3,0.2,1.6,0.2c2.3,0,3.4-1.7,3.4-5.1V12.6c0-3.3-1.1-5-3.4-5
		c-0.6,0-1.1,0-1.4,0.1c-0.7,0.1-1.3,0.2-1.8,0.2c-0.6,0-1.1-0.2-1.5-0.6c-0.4-0.4-0.6-1-0.6-1.6c0-1.6,1-2.4,2.9-2.4
		c0.3,0,0.6,0,1,0.1l3.6,0.4c2,0.2,3.4,0.3,4.4,0.3c1.2,0,2.6-0.1,4.3-0.3l3.1-0.4c0.4,0,0.7-0.1,0.9-0.1c2,0,3,0.8,3,2.4
		c0,0.6-0.2,1.2-0.6,1.6c-0.4,0.4-0.9,0.6-1.5,0.6c-0.5,0-1.1-0.1-1.8-0.2c-0.3-0.1-0.8-0.1-1.4-0.1c-2.3,0-3.4,1.7-3.4,5V38.8z"/>
	<path d="M250.4,12.6c0-3.3-1.2-5-3.4-5c-0.6,0-1.1,0-1.4,0.1c-0.7,0.1-1.3,0.2-1.8,0.2c-0.6,0-1.1-0.2-1.5-0.6
		c-0.4-0.4-0.6-1-0.6-1.6c0-1.6,1-2.4,3-2.4c0.3,0,0.6,0,0.9,0.1l3.6,0.5c1.4,0.2,2.7,0.3,4.2,0.3c1.4,0,2.9-0.1,4.6-0.3l3-0.4
		c0.4,0,0.7-0.1,0.9-0.1c2,0,3,0.8,3,2.4c0,0.6-0.2,1.2-0.6,1.6c-0.4,0.4-0.9,0.6-1.5,0.6c-0.5,0-1.1-0.1-1.8-0.2
		c-0.3-0.1-0.8-0.1-1.4-0.1c-2.3,0-3.4,1.7-3.4,5v27.1c0,3.4,1.1,5.1,3.4,5.1c0.4,0,0.8,0,1.4-0.1c0.9-0.1,1.5-0.2,1.8-0.2
		c1.4,0,2.1,0.7,2.1,2.2c0,1.6-1,2.4-3,2.4c-0.1,0-0.2,0-0.5,0c-0.2,0-0.3-0.1-0.5-0.1l-3.5-0.5c-1.2-0.2-2.4-0.3-3.7-0.3
		c-1.9,0-3.6,0.1-5.1,0.3l-3.1,0.5c-0.1,0-0.2,0-0.5,0.1c-0.2,0-0.4,0-0.5,0c-1.9,0-2.9-0.8-2.9-2.4c0-1.4,0.7-2.2,2.1-2.2
		c0.2,0,0.8,0,1.8,0.1c0.5,0.1,1,0.2,1.4,0.2c2.3,0,3.4-1.7,3.4-5.1V12.6z"/>
	<path d="M286.2,6.3l18.2,37.8V16.9c0-3.5,0-5.5-0.1-5.8c-0.4-2.3-1.5-3.5-3.4-3.5c-0.4,0-0.9,0.1-1.6,0.2c-0.7,0.1-1.3,0.2-1.6,0.2
		c-0.6,0-1.1-0.2-1.5-0.6c-0.4-0.4-0.6-0.9-0.6-1.5c0-1.6,1-2.4,3-2.4c0.4,0,0.7,0,0.9,0.1l3,0.4c1.4,0.2,2.6,0.3,3.8,0.3
		c1.2,0,2.7-0.1,4.7-0.4c0.7-0.1,1.5-0.2,2.4-0.3c0.1,0,0.2,0,0.5-0.1c0.2,0,0.3,0,0.5,0c1.9,0,2.9,0.8,2.9,2.3
		c0,1.5-0.9,2.3-2.8,2.3c-0.3,0-0.6,0-0.8,0h-0.7c-1.4,0-2.3,0.3-2.7,0.9c-0.4,0.6-0.7,1.9-0.8,3.8v3.8v6.9v18
		c0,3.1-0.4,5.3-1.1,6.5c-0.7,1.3-1.9,1.9-3.6,1.9c-2.2,0-4.1-1.6-5.6-4.7L281.4,8.2v31.4c0,3.4,1.1,5.1,3.4,5.1
		c0.4,0,0.9,0,1.6-0.1c0.7-0.1,1.3-0.1,1.6-0.1c1.4,0,2.2,0.7,2.2,2.2c0,1.5-1,2.3-3,2.3c-0.1,0-0.2,0-0.4,0c-0.2,0-0.4-0.1-0.5-0.1
		l-2.8-0.4c-1.5-0.2-3-0.3-4.3-0.3c-1.2,0-2.7,0.1-4.5,0.3l-3.3,0.4c-0.1,0-0.2,0-0.5,0.1c-0.2,0-0.4,0-0.5,0
		c-1.9,0-2.9-0.8-2.9-2.4c0-1.4,0.7-2.1,2.2-2.1c0.2,0,0.8,0,1.8,0.1c0.5,0.1,1,0.2,1.4,0.2c2.3,0,3.4-1.7,3.4-5.1v-4.7v-6v-5.8
		V12.6c0-3.4-1.2-5.1-3.5-5.1c-0.3,0-0.8,0-1.3,0.1c-0.9,0.1-1.5,0.2-1.9,0.2c-1.4,0-2.1-0.7-2.1-2.2c0-1.6,1-2.4,2.9-2.4
		c0.3,0,0.6,0,1.1,0.1c2.2,0.2,4,0.3,5.2,0.3c0.7,0,1.7-0.1,3-0.2c1.4-0.1,2.4-0.2,3-0.2c1.4,0,2.3,0.5,2.8,1.4L286.2,6.3z"/>
	<path d="M328,12.6c0-3.3-1.1-5-3.4-5c-0.6,0-1.1,0-1.4,0.1c-0.7,0.1-1.3,0.2-1.8,0.2c-0.6,0-1.1-0.2-1.5-0.6
		c-0.4-0.4-0.6-1-0.6-1.6c0-1.6,0.9-2.4,2.8-2.4c0,0,0.4,0,1,0.1c6.7,0.5,9.9,0.7,9.4,0.7h0.7l16.2-0.5c0.3,0,1.5-0.1,3.5-0.2
		c0.7,0,1.4-0.1,2-0.1c2.3,0,3.5,1,3.5,3.1c0,0.4-0.1,1.5-0.2,3.4c-0.1,1.4-0.1,2.8-0.1,4c0,1.6,0,2.7,0.1,3.3
		c0.2,1.3,0.2,2.3,0.2,2.9c0,1.7-0.8,2.6-2.4,2.6c-1.6,0-2.4-1.2-2.4-3.6v-3.5c0-3.8-0.8-6-2.4-6.7c-1.2-0.5-4.2-0.7-9.1-0.7
		c-3.2,0-5.1,0.1-5.7,0.2c-1.9,0.5-2.9,1.8-2.9,4.1v3c0,0.4,0,0.9,0,1.5c0,0.6,0,1.1,0,1.4v0.9c0,1.8,0.4,2.8,1.2,3.1
		c0.3,0.1,0.8,0.1,1.6,0.1h2.7c2.8,0,4.2-1,4.2-2.9c0-0.5-0.1-1.2-0.2-2.1c-0.1-0.9-0.2-1.6-0.2-2.3c0-1.8,0.8-2.7,2.4-2.7
		c1.6,0,2.4,1,2.4,2.9c0,0.4-0.1,1.8-0.4,4.2c-0.2,2.1-0.4,3.9-0.4,5.5c0,0.9,0.1,2.5,0.3,4.8c0,0.4,0.2,1.2,0.3,2.4
		c0.1,1,0.2,1.8,0.2,2.4c0,1.6-0.8,2.4-2.4,2.4c-1.6,0-2.4-0.9-2.4-2.8c0-0.5,0.1-1.2,0.2-2.2c0.1-0.9,0.2-1.7,0.2-2.2
		c0-1.9-1.3-2.9-3.9-2.9h-3c-1.3,0-2.1,0.2-2.4,0.7c-0.3,0.5-0.4,1.4-0.4,2.9v4.2c0,0.7,0,1.7,0.1,2.9c0,1.5,0.1,2.5,0.1,3
		c0,1.8,0.4,2.9,1.1,3.4c0.5,0.3,1.7,0.5,3.5,0.5h9.2c2.7,0,4.5-0.4,5.5-1.2c1-0.8,1.5-2.3,1.5-4.4c0-0.7,0-1.7-0.1-3
		c-0.1-1.3-0.1-2.3-0.1-3c0-2,0.8-3,2.4-3c1.7,0,2.5,1,2.5,3.1c0,0.8,0,2.1-0.1,3.7c-0.1,1.7-0.1,2.9-0.1,3.7c0,0.6,0,1.6,0.1,2.8
		c0.1,1.2,0.1,2.2,0.1,2.8c0,2.1-1,3.2-3.1,3.2c-0.5,0-1.3,0-2.4-0.1c-0.5,0-1.5-0.1-3-0.1c0.3,0-1.4,0-5.3-0.1
		c-3.8-0.1-7.1-0.1-9.9-0.1c-4.2,0-8.4,0.1-12.4,0.4c-0.2,0-0.4,0-0.6,0.1c-0.2,0-0.4,0-0.4,0c-1.9,0-2.8-0.8-2.8-2.4
		c0-1.4,0.7-2.2,2.1-2.2c0.2,0,0.8,0,1.8,0.1c0.5,0.1,1,0.2,1.4,0.2c2.3,0,3.4-1.7,3.4-5.1V12.6z"/>
	<path d="M372.5,49.8c-1.2,0-2.2-0.4-3-1.3s-1.2-1.8-1.2-3c0-1.2,0.4-2.2,1.2-3s1.8-1.3,3-1.3c1.2,0,2.2,0.4,3,1.3
		c0.8,0.8,1.2,1.8,1.2,3c0,1.2-0.4,2.2-1.2,3C374.7,49.4,373.7,49.8,372.5,49.8z"/>
	<path d="M404.1,26.4c0-1.8,1.1-2.8,3.4-3.1c-0.2-1.6-1-2.8-2.3-3.7c-1.3-0.9-2.9-1.4-5-1.4c-3.1,0-5.6,1.2-7.5,3.7
		c-1.9,2.5-2.8,5.8-2.8,9.9c0,4.2,0.9,7.6,2.7,10c1.8,2.4,4.2,3.6,7.4,3.6c2,0,3.7-0.6,5.2-1.7c1.5-1.1,2.5-2.7,3-4.7
		c0.4-1.6,0.7-2.5,0.8-2.7c0.5-0.9,1.2-1.4,2.2-1.4c0.8,0,1.4,0.2,1.9,0.7c0.5,0.5,0.7,1.1,0.7,1.9c0,1.1-0.4,2.5-1.1,4.1
		c-0.7,1.6-1.6,2.9-2.6,3.9c-2.7,2.8-6.1,4.3-10.3,4.3c-4.6,0-8.3-1.6-11.1-4.9c-2.8-3.2-4.2-7.5-4.2-12.8c0-5.6,1.5-10.1,4.4-13.4
		c2.9-3.4,6.8-5,11.6-5c3.6,0,6.6,1,9,2.9c2.4,2,3.6,4.5,3.6,7.5c0,1.7-0.5,3-1.4,4.1c-0.9,1.1-2.1,1.6-3.6,1.6
		c-1.1,0-2.1-0.3-2.8-1S404.1,27.4,404.1,26.4z"/>
	<path d="M434.5,49.8c-4.7,0-8.5-1.6-11.4-4.9c-2.8-3.3-4.3-7.7-4.3-13.2c0-5.5,1.4-9.9,4.3-13.2c2.9-3.3,6.7-4.9,11.5-4.9
		c4.9,0,8.8,1.6,11.6,4.8c2.8,3.2,4.3,7.6,4.3,13.1c0,5.5-1.5,9.9-4.4,13.3C443.2,48.2,439.3,49.8,434.5,49.8z M434.8,18.2
		c-3.2,0-5.6,1.1-7.4,3.3c-1.8,2.2-2.8,5.3-3,9.4v0.9c0,4.2,0.9,7.6,2.7,10c1.8,2.4,4.3,3.6,7.5,3.6c3.3,0,5.9-1.2,7.7-3.6
		c1.9-2.4,2.8-5.8,2.8-10C445.1,22.7,441.7,18.2,434.8,18.2z"/>
	<path d="M466,16.9v2c1.6-1.9,3.2-3.3,4.6-4c1.4-0.7,3.2-1.1,5.4-1.1c4.4,0,7.7,1.7,9.7,5.1c1.5-1.9,3.1-3.2,4.7-4
		c1.6-0.8,3.6-1.2,6.1-1.2c2.6,0,4.9,0.5,6.9,1.6c2.3,1.2,3.8,2.9,4.7,5.2c0.6,1.5,0.9,3.8,0.9,7v6.6v5.1c0,1.9,0,3,0.1,3.4
		c0.2,1.6,0.8,2.4,1.7,2.4c0.3,0,0.8-0.1,1.4-0.2c0.6-0.2,1.1-0.2,1.4-0.2c1.6,0,2.3,0.7,2.3,2c0,1.6-0.9,2.4-2.7,2.4
		c-0.7,0-1.7-0.1-3.1-0.2c-1.4-0.2-2.4-0.2-3.1-0.2c-0.8,0-1.9,0.1-3.3,0.2c-1.5,0.2-2.6,0.2-3.3,0.2c-1.9,0-2.8-0.8-2.8-2.4
		c0-1.4,0.7-2,2.2-2c0.2,0,0.6,0,1.4,0.1c0.3,0.1,0.6,0.1,1.1,0.1c0.8,0,1.3-0.4,1.5-1.2c0.2-0.8,0.3-2.7,0.4-5.7v-4.1v-4.5
		c0-3.1-0.2-5.4-0.7-6.8c-0.5-1.4-1.4-2.5-2.7-3.3s-2.8-1.2-4.4-1.2c-3.2,0-5.4,1.1-6.7,3.3c-1,1.8-1.5,4.8-1.5,9.2v4.8
		c0,4.2,0.1,6.9,0.3,7.9c0.2,1.1,0.7,1.6,1.6,1.6c0.3,0,0.7,0,1.2-0.1c0.5-0.1,0.9-0.1,1.2-0.1c0.6,0,1.2,0.2,1.6,0.6
		c0.4,0.4,0.6,0.9,0.6,1.6c0,1.5-1.1,2.2-3.2,2.2c-0.7,0-1.7-0.1-3-0.3c-1.3-0.2-2.3-0.3-3-0.3c-0.9,0-2,0.1-3.1,0.3
		c-1.1,0.2-2.1,0.3-3,0.3c-1.8,0-2.8-0.8-2.8-2.3c0-1.4,0.7-2.1,2-2.1c0.5,0,0.9,0.1,1.1,0.2c0.6,0.2,1.1,0.3,1.4,0.3
		c1.1,0,1.6-1.2,1.7-3.5l0.2-3.2c0-1,0-2,0-2.9c0-0.8,0-1.2,0-1.3v-5.6c0-3.9-0.5-6.7-1.6-8.2c-1.1-1.5-2.9-2.3-5.6-2.3
		c-3,0-5.3,1.1-6.8,3.3c-1.3,1.8-2,4.8-2,9.2v9c0,1.8,0,2.9,0.1,3.2c0.2,1.5,0.7,2.3,1.5,2.3c0.2,0,0.7-0.1,1.4-0.4
		c0.1,0,0.2,0,0.4-0.1c0.2,0,0.3,0,0.5,0c1.8,0,2.6,0.7,2.6,2.2c0,1.4-1,2.2-3,2.2c-0.8,0-1.7-0.1-2.8-0.2c-1.5-0.2-2.8-0.3-3.9-0.3
		c-0.5,0-1.5,0.1-3,0.2c-1.9,0.2-3.1,0.3-3.5,0.3c-1.8,0-2.7-0.8-2.7-2.3c0-1.4,0.9-2.1,2.6-2.1c0.1,0,0.2,0,0.4,0
		c0.2,0,0.3,0.1,0.4,0.1l1.7,0.3c0,0,0.1,0.1,0.3,0.1c1.2,0,1.9-1.1,2-3.3v-3.9V27.5c0-3.8-0.1-6.2-0.3-7.2
		c-0.2-0.9-0.8-1.4-1.7-1.4c-0.2,0-0.8,0.1-1.9,0.3c-0.5,0.1-0.8,0.1-1.1,0.1c-1.7,0-2.5-0.7-2.5-2.2c0-1.5,0.9-2.3,2.8-2.3
		c0.5,0,1.2,0,2,0.1c0.9,0.1,1.6,0.1,2.2,0.1c0.2,0,0.5,0,0.7,0s0.4,0,0.5,0l1.6-0.3h0.2C465.5,14.9,466,15.6,466,16.9z"/>
</g>
</svg>
