<?xml version="1.0" encoding="utf-8"?>
<!-- Generator: Adobe Illustrator 19.1.0, SVG Export Plug-In . SVG Version: 6.00 Build 0)  -->
<svg version="1.1" id="Layer_1" xmlns="http://www.w3.org/2000/svg" xmlns:xlink="http://www.w3.org/1999/xlink" x="0px" y="0px"
	 viewBox="0 0 167.8 54.8" style="enable-background:new 0 0 167.8 54.8;" xml:space="preserve">
<style type="text/css">
	.st0{fill-rule:evenodd;clip-rule:evenodd;fill:#ED1C24;}
	.st1{fill-rule:evenodd;clip-rule:evenodd;fill:#FFFFFF;}
</style>
<g>
	<path class="st0" d="M7.6,50.7H4v0.7h19.8V38.9h-0.6c0,0,0,7.2-2.4,9.6c-2,2-4.1,2.2-7.6,2.2v-23c0,0,2.4-0.2,3.6,1
		c1.8,1.8,2,4.2,2,7.4h0.6V18.5h-0.6c0,3.2-0.2,5.6-2,7.4c-1.2,1.2-3.6,1-3.6,1V5.1c3.5,0,5.1,0.2,7.1,2.2c2.4,2.4,2.4,9.6,2.4,9.6
		h0.6V4.4H4v0.7h3.6V50.7L7.6,50.7z"/>
	<path class="st0" d="M60.2,5.1v45.6c3.5,0,5.6-0.2,7.6-2.2c2.4-2.4,2.4-9.6,2.4-9.6h0.6v12.5H51v-0.7h3.6V5.1H51V4.4h12.4v0.7
		L60.2,5.1L60.2,5.1z"/>
	<path class="st0" d="M106.9,5.1v45.6c3.5,0,5.6-0.2,7.6-2.2c2.4-2.4,2.4-9.6,2.4-9.6h0.6v12.5H97.7v-0.7h3.6V5.1h-3.6V4.4h12.4v0.7
		L106.9,5.1L106.9,5.1z"/>
	<path class="st0" d="M148,50.7h-3.6v0.7h19.8V38.9h-0.6c0,0,0,7.2-2.4,9.6c-2,2-4.1,2.2-7.6,2.2v-23c0,0,2.4-0.2,3.6,1
		c1.8,1.8,2,4.2,2,7.4h0.6V18.5h-0.6c0,3.2-0.2,5.6-2,7.4c-1.2,1.2-3.6,1-3.6,1V5.1c3.5,0,5.1,0.2,7.1,2.2c2.4,2.4,2.4,9.6,2.4,9.6
		h0.6V4.4h-19.3v0.7h3.6V50.7L148,50.7z"/>
	<path class="st1" d="M161.5,49.4c0-0.6,0.5-1.1,1.1-1.1c0.6,0,1.1,0.5,1.1,1.1c0,0.6-0.5,1.1-1.1,1.1C162,50.5,161.5,50,161.5,49.4
		L161.5,49.4z M163.6,49.4c0-0.5-0.4-1-1-1c-0.6,0-1,0.4-1,1c0,0.6,0.4,1,1,1C163.1,50.4,163.6,50,163.6,49.4L163.6,49.4z
		 M163.1,50.1H163l-0.4-0.6h-0.3v0.6h-0.1v-1.2h0.5c0.3,0,0.4,0.1,0.4,0.3c0,0.2-0.2,0.3-0.4,0.3L163.1,50.1L163.1,50.1z
		 M162.6,49.3c0.2,0,0.5,0,0.5-0.2c0-0.2-0.2-0.2-0.3-0.2h-0.4v0.4H162.6L162.6,49.3z"/>
</g>
</svg>
