<?xml version="1.0" encoding="utf-8"?>
<!-- Generator: Adobe Illustrator 19.1.0, SVG Export Plug-In . SVG Version: 6.00 Build 0)  -->
<svg version="1.1" id="Layer_1" xmlns="http://www.w3.org/2000/svg" xmlns:xlink="http://www.w3.org/1999/xlink" x="0px" y="0px"
	 viewBox="0 0 500 125.5" enable-background="new 0 0 500 125.5" xml:space="preserve">
<g>
	<g>
		<path fill-rule="evenodd" clip-rule="evenodd" d="M301.1,39.5c-7.6,0-13.5,1.7-19.5,5c0-17.6,0-33.6,0.5-39.1L245.9,12v3.3
			l3.8,0.6c4.9,1.1,6.5,3.9,7.6,10.5c1.1,13.2,0.5,83.8,0,95.3c9.7,2.2,20,3.9,30.3,3.9c28.7,0,46-18.2,46-46.8
			C333.5,56.1,319.5,39.5,301.1,39.5z M288.7,119.4c-2.2,0-4.9,0-6.5-0.6c-0.5-7.7-1.1-40.2-0.5-68.9c3.2-1.1,5.4-1.7,8.1-1.7
			c11.9,0,18.4,14.3,18.4,32C308.1,102.4,300,119.4,288.7,119.4z M77.1,15.8c14.6,0,22.2,9.4,27.6,25.9l5.4-1.7l-0.5-32.5H14.4v5
			l5.4,0.6c7,1.1,9.7,5.5,10.8,16c1.6,19.8,1.1,55.7,0,72.7c-1.1,10.5-3.8,15.4-10.8,16l-5.4,1.1v4.4h61.1v-4.4l-6.5-1.1
			c-7-0.5-9.7-5.5-10.8-16c-0.5-7.2-1.1-18.7-1.1-33.1l13,0.6c8.1,0,11.9,6.6,13.5,16h4.9V46.2h-4.9c-1.6,9.4-5.4,16-13.5,16
			l-13,0.6c0-18.7,0.5-36.4,1.1-46.8H77.1z M140.4,38.4c-27,0-42.2,19.8-42.2,43.5c0,24.8,13.5,43.5,40.6,43.5
			c27,0,42.2-19.8,42.2-43.5C181,57.2,167.5,38.4,140.4,38.4z M139.9,120c-10.8,0-16.2-17.1-16.2-38c0-21.5,3.2-38,15.1-38
			c11.4,0,16.8,17.1,16.8,38C155.6,103.5,152.3,120,139.9,120z M415.8,78.1c0-22.6-10.8-39.7-33.5-39.7c-27.6,0-41.7,21.5-41.7,44.1
			c0,25.4,17.3,43,41.7,43c15.1,0,27-7.7,32.5-15.4l-2.2-2.8c-5.4,3.9-9.7,6.1-18.4,6.1c-19.5,0-29.2-14.9-28.7-35.3H415.8z
			 M380.1,44c9.2,0,10.8,16.5,10.8,27.6l-25.4,0.6C366,59.4,370.9,44,380.1,44z M465,73.7c-15.1-6.1-20.6-9.9-20.6-17.1
			c0-7.2,4.9-12.1,11.4-12.1c9.7,0,16.2,6.1,21.1,20.9l3.8-1.1l-0.5-21.5c-6.5-2.8-15.1-4.4-24.9-4.4c-20,0-32.5,12.1-32.5,26.5
			c0,14.3,9.2,20.4,22.2,24.8c13.5,5,17.3,8.8,17.3,15.4c0,6.6-4.9,12.7-13.5,12.7c-10.3,0-17.9-6.1-23.8-22.6l-3.8,1.1l0.5,24.2
			c6.5,2.8,18.4,5,28.7,5c21.1,0,34.6-11,34.6-28.1C485,85.8,479.1,79.2,465,73.7z M217.2,57.7l0.5-19.3l-36.2,7.2v3.3l3.8,0.6
			c4.9,0.6,7,3.3,7.6,10.5c1.1,13.2,0.5,36.4,0,47.9c-0.5,6.6-2.7,9.9-7.6,10.5l-3.8,0.6v4.4h50.3v-4.4l-6.5-0.6
			c-5.4-0.6-7-3.9-7.6-10.5c-1.1-10.5-1.1-31.4-0.5-44.6c2.7-3.9,14.6-7.2,25.4,0l8.7-22.6C242.1,35.1,225.9,37.9,217.2,57.7z"/>
	</g>
</g>
</svg>
