<?xml version="1.0" encoding="utf-8"?>
<!-- Generator: Adobe Illustrator 19.0.0, SVG Export Plug-In . SVG Version: 6.00 Build 0)  -->
<!DOCTYPE svg PUBLIC "-//W3C//DTD SVG 1.1//EN" "http://www.w3.org/Graphics/SVG/1.1/DTD/svg11.dtd">
<svg version="1.1" id="Layer_1" xmlns="http://www.w3.org/2000/svg" xmlns:xlink="http://www.w3.org/1999/xlink" x="0px" y="0px"
	 viewBox="-65 310 481 174" style="enable-background:new -65 310 481 174;" xml:space="preserve">
<path d="M-63.8,345.4c10.9,0.1,21.7,0,32.5,0l0.6,0.6c0.1,11.5,0,23.1,0,34.6c1.4,0.8,3,0.6,4.6,0.6c8.7,0,17.4,0,26.1,0
	c2,0.5,1.9-2,2-3.2c-0.6-4,0.3-8-0.3-12.1c0.3-6.9-0.4-13.8,0.5-20.6c11.1,0.2,22.2,0.1,33.2,0c0,34.7,0,69.5,0,104.2
	c-11.1-0.1-22.1-0.2-33.2,0.1c-1.2-2.8,0.2-5.8-0.5-8.6c0.1-10.9,0.4-21.8-0.1-32.7c-3.3-0.5-6.5-0.1-9.8-0.1
	c-4.7-1.2-9.4,0.5-14.1,0c-2.8-0.8-5.6-0.1-8.4,0.3c-0.3,13.5,0.1,27.1-0.2,40.7l-0.6,0.4c-10.8,0-21.5-0.1-32.3,0
	c-1-1.3-0.4-3.1-0.6-4.6c-0.2-30,0.1-60,0-90C-64.1,351.7-64.8,348.5-63.8,345.4z"/>
<path d="M49.4,345.3c11.1,0.1,22.2,0,33.3,0l0.6,0.5c0.2,33.4,0,66.8,0.1,100.1c-0.1,1.1,0.6,3.9-1.5,3.5c-10.8-0.1-21.7,0-32.6,0
	C49.4,414.8,49.4,380.1,49.4,345.3z"/>
<path d="M90.3,345.3c32.5,0.2,64.9,0,97.4,0.1l0.7,0.2c0.2,8.7-0.1,17.4,0.1,26.1c-0.4,0.1-1.1,0.3-1.4,0.4c-9.7,0-19.5,0-29.2,0
	c-1,0-1.8,0.4-2.4,1.4c0.2,25.3,0.2,50.6,0,75.9c-10.9,0.2-21.8,0-32.7,0.1l-0.5-0.6c0-25.3,0-50.7,0-76l-0.4-0.7
	c-10.6-0.3-21.3,0.1-31.9-0.2c-0.4-8.3-0.1-16.7-0.1-25.1C90,346.5,90.2,345.7,90.3,345.3z"/>
<path d="M194.3,345.3l0.6-0.5c26-0.2,52.1,0,78.1-0.1c0.4,0.2,1.2,0.5,1.6,0.6c0,7.8-0.1,15.6,0,23.4c-0.4,0.1-1.2,0.4-1.6,0.6
	c-14.9,0-29.9,0-44.8,0c-1,2.4-0.4,5.1-0.5,7.6c0.2,2.6-0.5,5.3,0.5,7.7c12.9,0,25.9,0,38.8,0c0.3,0.3,0.8,0.9,1.1,1.2
	c0.1,6.7,0,13.4,0,20.2c0.4,1.9-1.9,2.1-3.2,2.2c-10.7-0.3-21.3,0-32-0.1c-1.7,0-3.9-0.5-5.2,0.7c-0.2,13.6,0.1,27.2-0.2,40.8
	c-11.1,0-22.2,0-33.3,0c-1.5-4.5,0.4-9.1-0.4-13.6c0.4-10.4-0.6-20.7,0.2-31.1c-0.4-4.3-0.4-8.6-0.4-13c0.5-11.3-0.5-22.6,0.4-34
	C193.9,353.8,193.3,349.4,194.3,345.3z"/>
<path d="M279.4,345.3l0.6-0.5c9.7-0.2,19.4,0,29.1-0.1c1.5,0,3.2-0.2,4.6,0.7c0,33-0.2,66,0.1,99l1.1-0.3
	c10.9-15.9,21.3-32.1,32-48.2c0-0.4-0.1-1.1-0.2-1.5c-9.9-15.4-19.9-30.6-30-45.9c-0.7-1.1-1.3-2.1-1.5-3.4l0.7-0.4
	c11.7-0.1,23.5,0,35.2-0.1c2.9,1.3,3,5.1,5.1,7.1c4.2,7.5,8.5,14.9,12.8,22.3l0.9,0.3c2.8-3.6,4.5-7.9,6.7-11.9
	c3.1-5,5.9-10.1,8.6-15.4c0.6-1.4,2.1-2.7,3.7-2.5c9,0.1,18-0.1,27,0.1v12c-2.2,4.7-5.4,8.8-8.1,13.2c-4.9,8.2-10.6,16-15.6,24.2
	c-0.2,0.5-0.5,1.4-0.6,1.9c7.8,12.6,16.5,24.7,24.3,37.3v16.6c-9-0.3-18,0-27-0.1c-2.2-1.8-3.1-4.8-4.7-7.1
	c-5.1-7.9-9.9-16.1-14.9-24.1c-2.3-0.1-2.3,3.3-3.4,4.7c-5.5,7.9-10.3,16.3-15.3,24.5c-0.6,1-1.4,2.2-2.7,2c-22.9,0-45.8,0-68.6,0
	C279.3,414.9,279.2,380.1,279.4,345.3z"/>
</svg>
