<?xml version="1.0" encoding="utf-8"?>
<!-- Generator: Adobe Illustrator 19.1.0, SVG Export Plug-In . SVG Version: 6.00 Build 0)  -->
<svg version="1.1" id="Layer_1" xmlns="http://www.w3.org/2000/svg" xmlns:xlink="http://www.w3.org/1999/xlink" x="0px" y="0px"
	 viewBox="0 0 690.9 93.8" enable-background="new 0 0 690.9 93.8" xml:space="preserve">
<g>
	<path d="M612.9,69.7c-2.8,2.1-7.5,6.3-10.1,8.9l-9.4-8.4v-0.5c1.2-0.3,1.5-1.5,1.5-2.9V44.1c-2.2-1.6-6.6-5.4-9-7.6l-3,2.7v27.7
		l2.3,2.1c0.4,0.4,1,1,1.8,1c1,0,1.7-0.4,2.7-1.2l1,1c-2.6,1.8-7.3,5.8-10.2,8.9l-9.4-8.5v-0.4c1-0.3,1.5-1,1.5-2.4V44.2
		c-2.2-1.7-7-5.8-9-7.7l-3,2.6v27.8l2.2,1.9c0.8,0.7,1.3,1.1,2.1,1.1c1,0,1.6-0.2,2.6-1.2l1,1c-3,2.3-7.2,6.1-10.2,8.9l-9.4-8.3
		v-0.5c1-0.3,1.5-1.1,1.5-2.7V39.6l-2.4-1.9c-0.6-0.5-1.2-0.8-1.7-0.8c-0.8,0-1.6,0.4-2.6,1.3l-1-1.2c2.8-1.9,7.2-5.9,10.3-8.8
		l8.2,7.7l8.8-7.7c4.1,3.4,9,7.5,11.9,9.2l10.5-9.2c3.9,3.2,11.1,8.9,14.7,11.1v0.4c-1,0.3-1.7,1.1-1.7,2.7v24.4l1.9,1.8
		c0.7,0.6,1.4,1.3,2.3,1.3c1,0,1.8-0.6,2.7-1.3L612.9,69.7z"/>
	<path d="M543.8,16.3l-3.5,3.1c-2.8,2.5-5.1,3.6-7.2,3.6c-1.7,0-3.2-0.8-4.9-2.3c-0.6-0.5-1.2-1-2-1c-0.9,0-1.7,0.4-2.5,1.2l-1-1
		L533,11l5.2,4.6c0.6,0.5,1.4,0.9,2.2,0.9c0.9,0,1.8-0.5,2.4-1.2L543.8,16.3z"/>
	<path d="M545.8,69.7c-2.6,2.1-7.7,6.5-10.2,9l-9.4-8.4v-0.5c1-0.3,1.5-1.2,1.5-2.4V39.5l-2.2-1.7c-0.6-0.5-1-0.9-1.8-0.9
		c-0.9,0-1.9,0.4-2.7,1.2l-1-1.1c2.6-1.9,7.3-5.8,10.3-8.9l9.4,8.1v0.4c-0.8,0.3-1.7,1-1.7,2.5v27.8l2.4,2.2
		c0.6,0.5,1.3,0.9,2.1,0.9c0.9,0,1.6-0.4,2.4-1.2L545.8,69.7z"/>
	<path d="M364.6,69.7c-2.5,1.9-7,5.8-10.2,9l-9.4-8.5v-0.5c0.8-0.3,1.4-1.2,1.4-2.7V22.7l-2.5-1.9c-0.5-0.4-1.1-0.8-1.6-0.8
		c-1.1,0-1.9,0.7-2.6,1.5l-1-1.1c3.1-2.3,7.6-6.2,10.4-9.1l9.4,8.1v0.3c-0.9,0.3-1.7,1.6-1.7,3v44.2l2.5,2.3
		c0.6,0.5,1.4,0.8,2.1,0.8c0.8,0,1.7-0.6,2.3-1.2L364.6,69.7z"/>
	<path d="M263.1,69.7c-2.8,2-7.8,6.4-10.2,8.9l-9.4-8.3v-0.5c0.9-0.3,1.5-1.1,1.5-3.1V44.2c-2.3-1.8-6.7-5.5-9-7.7l-3,2.6v27.8
		l2.8,2.4c1.1,1,2.8,0.8,4.2-0.5l0.9,1c-2.9,2.1-7.5,6.2-10.2,8.9l-9.4-8.3v-0.5c1-0.4,1.5-1.2,1.5-2.6V39.5l-2.5-1.8
		c-0.6-0.4-0.9-0.8-1.5-0.8c-1.2,0-2,0.6-2.7,1.2l-1-1.1c2.5-1.8,6.6-5.3,10.3-8.8l8.2,7.7l8.8-7.7c3.1,2.7,10.9,8.6,14.7,11.2v0.4
		c-1.4,0.4-1.7,1.4-1.7,2v25.1l2.9,2.7c0.5,0.5,2.2,0.7,3.9-1L263.1,69.7z"/>
	<path d="M682.6,66.2c-6.4,3.1-14.5,8.3-19.2,12.5c-2.7-2.2-6.2-4.4-10.4-4.4c-3.9,0-5.1,1.4-5.1,2.7c0,0.8,1.2,0.7,1.2,1.9
		c0,0.5-0.6,1.2-1.3,1.2c-0.9,0-1.8-1-1.8-2.6c0-2.6,1.5-5.9,6.2-11.2l8.1-8.9L650,52.1v-0.5c0.8-0.2,1.1-0.9,1.1-1.9v-7.7
		c0-0.8-0.5-1.6-1.1-2v-0.6c6.7-3.3,14.3-7.6,18.7-11.3c1.2,1.3,4.4,3.1,7.7,3.1c2.8,0,3.1-0.8,3.1-1.8c0-0.5-0.4-0.7-0.4-1.1
		c0-0.7,0.4-1,1-1c0.8,0,1.5,0.6,1.5,2.2c0,4.1-3.9,9.2-10.3,9.2c-4.6,0-7.4-1.4-9.3-3.7l-0.4,0.3v11.3l6.3,3l2.7-2.7l12.1,6.2v0.5
		c-0.6,0.3-1,0.9-1,1.6v8.8c0,1.2,0.5,1.5,1,1.8V66.2z M671.2,70.7V57.8l-6-2.8l-12.6,13.3l0.2,0.1c2-1.1,5-1.6,9.1-1.6
		c3.2,0,7.1,1.8,9.1,4L671.2,70.7z"/>
	<path d="M647.1,44.5l-20.2,12.7v8c2.5,0.9,7.9,3.7,10.6,5.2l5.1-4.9c0.3-1.5,0.8-2.9,2.3-2.9c0.7,0,1.1,0.6,1.1,1.2
		c0,0.7-0.4,1.3-0.8,1.6l-13.2,13.1c-3.8-2.4-12.4-6.9-16.9-8.8v-0.5c0.9-0.3,1.3-1.3,1.3-2.3V42c0-1.1-0.6-2.1-1.4-2.2v-0.5
		c5.9-2.8,13.7-7.3,19.8-11.1C638.6,33.4,643.8,40.5,647.1,44.5z M637.3,48.4c-2.8-3.5-7.6-9.8-10.2-13.9l-0.2,0.1v20.4L637.3,48.4z
		"/>
	<path d="M521.6,13.2c0,6.8-4.6,10.1-10.2,11v43.4c3.2-2.3,5.7-5.4,7-8.6c0.1-0.3,0.2-0.6,0.2-0.8c0-0.5-0.4-0.7-0.4-1.3
		c0-0.6,0.1-1.3,1-1.3c0.7,0,1.2,0.6,1.2,1.3c0,10.4-7.6,23.7-28.8,23.7c-15.2,0-27.6-11.4-27.6-27.4c0-21.3,17.7-28.8,29.6-31.4
		c-4-0.7-9.6-1.6-14.8-1.6c-10,0-13.1,4.7-13.9,8.1l-1-0.5c0.2-4.8,4.4-18,17.4-18c12.7,0,20.9,5.3,30.8,5.3c6.5,0,7.7-2.9,8.3-6
		l1.1,0.4C521.4,9.9,521.6,12.4,521.6,13.2z M509.7,68.8V24.4c-0.5,0-1,0.1-1.6,0.1c-2.1,0-4-0.4-6.5-0.9c-3.1,1.5-6,4.8-6,9.9
		c0,9.6,5.4,11.8,5.4,21.5c0,7.6-6.4,13.2-11.6,15.8c2.8,1.1,6,1.5,9.2,1.5C502.3,72.2,507.3,70.5,509.7,68.8z M499.2,23.1l-1.7-0.3
		c-10.5,2-22.7,11.3-22.7,26.7c0,10.1,5.4,17.1,13,20.6c2.3-1.6,4.8-4.5,4.8-9.5c0-9-5.8-13.9-5.8-22.1
		C486.8,32.3,490.8,26.9,499.2,23.1z"/>
	<path d="M432.7,66.2c-6.4,3.1-14.5,8.3-19.2,12.5c-2.7-2.2-6.2-4.4-10.4-4.4c-3.9,0-5.1,1.4-5.1,2.7c0,0.8,1.2,0.7,1.2,1.9
		c0,0.5-0.6,1.2-1.3,1.2c-0.9,0-1.8-1-1.8-2.6c0-2.6,1.5-5.9,6.2-11.2l8.1-8.9L400,52.1v-0.6c0.8-0.2,1.1-0.8,1.1-1.8v-7.7
		c0-1-0.3-1.6-1.1-2v-0.6c6.7-3.3,14.3-7.6,18.7-11.3c1.2,1.3,4.4,3.1,7.7,3.1c2.8,0,3.1-0.8,3.1-1.8c0-0.5-0.4-0.8-0.4-1.1
		c0-0.7,0.4-1,1-1c0.8,0,1.5,0.6,1.5,2.2c0,4.1-4,9.2-10.3,9.2c-4.6,0-7.4-1.4-9.3-3.7l-0.4,0.3v11.3l6.3,3l2.7-2.7l12.1,6.2v0.6
		c-0.6,0.3-1,0.9-1,1.6v8.6c0,1.2,0.4,1.6,1,1.8V66.2z M421.3,70.7V57.8l-6-2.8l-12.6,13.3l0.2,0.1c2-1.1,5-1.6,9.1-1.6
		c3.2,0,7.1,1.8,9.1,4L421.3,70.7z"/>
	<path d="M397.8,44.5l-20.2,12.7v8c2.5,0.9,7.9,3.7,10.6,5.2l5.1-4.9c0.3-1.5,0.8-2.9,2.3-2.9c0.7,0,1.1,0.6,1.1,1.2
		c0,0.7-0.3,1.3-0.7,1.6l-13.3,13.1c-3.8-2.4-12.4-6.9-16.9-8.8v-0.5c0.7-0.3,1.3-1.3,1.3-2.3V42c0-1.1-0.6-2.1-1.4-2.2v-0.5
		c5.9-2.8,13.7-7.3,19.8-11.1C389.2,33.4,394.4,40.5,397.8,44.5z M388,48.4c-2.8-3.5-7.6-9.8-10.2-13.9l-0.2,0.1v20.4L388,48.4z"/>
	<path d="M340.5,44.5l-20.3,12.7v8c2.5,0.9,7.9,3.7,10.6,5.2l5.1-4.9c0.3-1.6,0.8-2.9,2.4-2.9c0.7,0,1,0.6,1,1.2
		c0,0.7-0.3,1.3-0.7,1.6l-13.3,13.2c-3.8-2.4-12.4-7-16.9-8.9v-0.5c0.7-0.3,1.3-1.3,1.3-2.3V42c0-1.1-0.6-2.1-1.4-2.2v-0.5
		c5.9-2.8,13.8-7.3,19.9-11.1C331.9,33.4,337.1,40.5,340.5,44.5z M330.6,48.4c-2.8-3.5-7.6-9.8-10.2-13.9l-0.2,0.1v20.4L330.6,48.4z
		"/>
	<path d="M304.8,75c-0.3,10.9-5.3,18.8-15.4,18.8c-7.9,0-12.9-4.2-20.1-4.2c-4.2,0-6.5,1.4-7.7,2.9l-1.1-1
		c1.5-7.5,6.6-12.2,13.7-12.2c7.8,0,12.8,5,21.1,5c3.8,0,6.1-1.8,7.2-4.7l-0.1-0.2c-1.2,0.4-2.5,0.6-3.7,0.6c-4.3,0-8.1-2.9-8.9-7.8
		c-2,1.4-6.1,4.6-8.1,6.3c-5-3.2-12.7-7.3-16.6-9.1V69c0.8-0.3,1.4-1.1,1.4-2.1V42.2c0-1.5-0.6-2.2-1.6-2.4v-0.4
		c7-2.7,14.8-7.4,19.8-11.3c4.4,3.5,11.6,8.5,16.3,11.2v0.4c-0.6,0.3-1.2,1-1.2,2.4v27.2c0,3.4,0.8,5.2,3.3,5.2c0.4,0,0.8,0,1.3-0.1
		L304.8,75z M289.3,70.6V44.1c-2.7-1.8-9.1-6.4-12.3-8.9l-0.4,0.3v29.3c3.5,1.7,9.6,5.4,11.4,6.8L289.3,70.6z"/>
	<path d="M219,70.5c-2.9,5-5.9,8.8-10.3,8.8c-3.5,0-5.9-2-7.2-5.7l-5.7-16.6h-22.2l-3.2,9.3c3.6,0.3,6.8,2.4,7.7,2.4
		c1,0,1.9-0.8,2.9-2.6l1.4,0.9L175,78.7c-2-1.7-5.2-3.6-9.4-3.6c-5.7,0-9.3,1.5-12,3.6l-1-0.3c1.3-6.2,6.4-11.6,15.3-12.2l15.4-45.2
		l-0.5-1.6c-1.1-3.2-3.2-4.9-5.5-4.9c-2.4,0-3.6,1.1-4.4,1.9l-0.7-0.6c0.6-3.6,3.9-7.5,8.9-7.5c4.2,0,7,2,8.6,4.5h0.2
		c0.7-1.9,2.1-3.5,3.6-3.6l0.3,0.4c-0.5,0.4-1.2,2.1-1.2,4c0,0.9,0.2,1.9,0.5,2.8l18.2,53.8c0.4,1.3,1.3,1.9,2.3,1.9
		c1.5,0,2.4-0.9,3.6-2.6L219,70.5z M193.6,50.3l-8.8-26h-0.2l-8.8,26H193.6z"/>
	<path d="M132.8,66.2c-6.4,3.1-14.5,8.3-19.2,12.5c-2.7-2.2-6.2-4.4-10.4-4.4c-3.9,0-5.1,1.4-5.1,2.7c0,0.8,1.2,0.7,1.2,1.9
		c0,0.5-0.6,1.2-1.3,1.2c-0.9,0-1.8-1-1.8-2.6c0-2.6,1.5-5.9,6.2-11.2l8.1-8.9l-10.3-5.3v-0.6c0.8-0.2,1.1-0.8,1.1-1.8v-7.7
		c0-0.8-0.5-1.6-1.1-2v-0.6c6.7-3.3,14.3-7.6,18.7-11.3c1.2,1.3,4.4,3.1,7.7,3.1c2.8,0,3.1-0.8,3.1-1.8c0-0.5-0.4-0.8-0.4-1.1
		c0-0.7,0.4-1,1-1c0.8,0,1.5,0.6,1.5,2.2c0,4.1-3.4,9.2-10.3,9.2c-4.6,0-7.4-1.4-9.3-3.7l-0.4,0.3v11.3l6.3,3l2.7-2.7l12.1,6.2v0.7
		c-0.6,0.3-1,0.9-1,1.6v8.5c0,1.2,0.5,1.5,1,1.8V66.2z M121.4,70.7V57.8l-6-2.8l-12.6,13.3l0.2,0.1c2-1.1,5-1.6,9.1-1.6
		c3.2,0,7.1,1.8,9.1,4L121.4,70.7z"/>
	<path d="M94.5,67.4c-5.7,2.3-15.2,7.7-19.7,11.3c-5.1-3.4-11.9-8.5-16.5-11.2v-0.6c1-0.3,1.3-1.3,1.3-2.6V42.9c0-2-0.4-2.8-1.5-3
		v-0.5c6.8-2.7,13.6-6.5,19.7-11.3c4.2,3.4,12,8.4,16.4,11.2v0.5C93.3,40.1,93,40.9,93,42v22.6c0,1.2,0.7,2,1.5,2.3V67.4z
		 M82.6,71.5v-28c-3.6-2.2-9.2-6-12.1-8.3L70,35.5v27.8c3.9,2.2,9,5.9,12.3,8.4L82.6,71.5z"/>
	<path d="M56.7,62.7l-8.3,15.9c-3.2-2.7-7.9-4.7-14.1-4.7c-9.3,0-20.9,2.4-24.2,4.5L9,77.3c3.6-3.2,7.5-11.5,7.5-21.3
		c0-10.5-6-15.4-6-25.8c0-10.7,4.8-16.6,13.6-21.1l1,1c-3.2,2.6-4.8,5.8-5.1,9.7L35.3,7.2c2.8,2.7,7.3,5.8,11.4,5.8
		c3.1,0,4.7-0.6,4.7-2c0-0.7-0.6-0.9-0.6-1.4c0-0.7,0.5-1,1.1-1c0.8,0,1.4,1,1.4,2.1c0,5.7-5.9,10.6-12,10.6c-2,0-3.7-0.2-5.2-0.6
		v43.5c0.9-0.1,1.7-0.2,2.3-0.2c5.7,0,10.8,2.4,12.2,2.4c2,0,2.7-1.4,4.3-4.5L56.7,62.7z M34.5,64.3V19.9c-2.3-1-4.2-2.6-6.1-4.8
		L19.9,22c0,12.8,6.7,18.5,6.7,28.8c0,7.2-5.1,14.7-9,18.5l0.3,0.1C23.1,66.5,29.8,64.9,34.5,64.3z"/>
	<path d="M690.9,76.5"/>
</g>
</svg>
