<?xml version="1.0" encoding="utf-8"?>
<!-- Generator: Adobe Illustrator 19.0.0, SVG Export Plug-In . SVG Version: 6.00 Build 0)  -->
<!DOCTYPE svg PUBLIC "-//W3C//DTD SVG 1.1//EN" "http://www.w3.org/Graphics/SVG/1.1/DTD/svg11.dtd">
<svg version="1.1" id="Layer_1" xmlns="http://www.w3.org/2000/svg" xmlns:xlink="http://www.w3.org/1999/xlink" x="0px" y="0px"
	 viewBox="-55 327 500 140" style="enable-background:new -55 327 500 140;" xml:space="preserve">
<path d="M104.3,329.2c2.5-1.7,5.7-1.3,8.5-1.1c4.1,2.2,6,7.6,4.1,11.9c-7.1,19.9-17,38.6-24.3,58.4c-3.4,8.9-6.3,18.1-7,27.6
	c-0.2,4.1,0.3,8.3,2.3,11.9c2.1,3.9,6.6,6.1,11,6.2c8.2-0.6,15.8-5.1,20.8-11.5c2.5-3.3,4.6-7.8,3.1-11.9c-1.3-4-6.2-4.8-9.8-4.3
	c-7.2,1.2-13.1,6.5-16.8,12.6c1.6,3.2,3.7,6.1,5.1,9.3c-3.9-1.3-8.6-3.3-9.9-7.6c-1.8-4.2,0.6-8.7,3.6-11.6
	c5.9-5.9,14.7-9.7,23.1-7.7c4.5,0.8,8.7,3.7,10.1,8.1c1.4,5.4,0.3,11.3-2.6,16.1c-4.5,7.3-12,13-20.5,14.7
	c-6.4,1.3-13.6-0.3-18.1-5.3c-5-5.3-6.1-13-6.1-20c0.6-16.4,6.3-32.2,13.3-46.9c5.6-12.4,11.9-24.4,16.5-37.2
	c1.1-2.2,0.7-4.6-0.3-6.7c-6,0.5-11,4.2-16.1,7.1c-8.3,5.4-16.8,11.4-21.7,20.3c-2.6,4.2-4.1,9-7,13c0.3-7.3,3.8-14.1,8.1-19.8
	C81.9,344.1,92.9,336,104.3,329.2z"/>
<path d="M-32.3,340.7c1.6-1.8,4.3-1.1,6.3-0.3c7.7,3.2,11.5,11.7,12.5,19.5c1,6.8-1.8,13.4-1.1,20.1c0.3,3.6,4.2,5.5,7.5,5.7
	c6,0.4,12.2-1.1,18.2,0.7c4.7,1,8.7,4.9,9.5,9.6c0.3,3-1.6,5.6-2.9,8.1c1.5,2.4,3.4,4.9,3,7.9c0.1,2.8-1.7,5.1-3.2,7.3
	c0.7,2.7,1.7,5.5,0.8,8.3c-0.9,2.1-2.4,3.8-3.4,5.7c-0.6,2.8-0.2,6-1.9,8.4c-3.2,4.6-8.4,7.8-14,8.4c-7,0.8-14-1.3-21-0.5
	c-4.9,0.8-7.4,8-12.8,5.8c-5.2-1.8-9.2-6-12.2-10.5c-3.9-5.9-7-12.5-8-19.6v-3.1c1.1-4.7,4.5-8.3,6.9-12.2c4.6-6.8,7.8-14.5,11-22
	c3.4-8,6.1-16.5,7.4-25.1c1-5.6-1.1-11-3.1-16.1C-33.4,344.9-34.3,342.2-32.3,340.7z"/>
<path d="M58.2,386.9c-0.2-7.3-5.8-15-1.3-22c2.9,2.4,4.6,5.9,5.5,9.4c3.4,12,4.9,24.4,6.1,36.7c1.2,11.3,1.6,22.6,1,34
	c-0.4,3.9-0.7,8.3-3.5,11.4c-3.1,0.2-4.1-3.5-5.8-5.4c1-0.6,2.1-1.2,3.1-1.9c1.1-13.4,1.8-26.9-0.4-40.2c-1-6.2-2.1-12.4-3.8-18.5
	c-1.7,6-1.8,12.3-2.4,18.4c-0.3,3.9,0.2,7.9-1.1,11.6C54.5,409.4,55.3,397.9,58.2,386.9z"/>
<path d="M228.5,391.6c1.5-1.3,3.5,0.6,3.3,2.3c0.6,5-3.8,8.2-5.5,12.4c-3.8,8.5-5.6,17.7-6.5,26.9c-0.6,4,3.4,6.6,6.8,7.4
	c9.8,2.6,20.1,0.3,29.7-2.1c2.3-0.9,2.6,1.8,2.4,3.4c0,2-2.1,2.8-3.6,3.6c-8.6,3.5-18.1,3.9-27.2,3c-4-0.7-8.4-1.9-10.9-5.4
	c-3-4-2.9-9.4-2.3-14.1c1.3-9.1,5.2-17.5,8.2-26.1C224.5,399,225.7,394.7,228.5,391.6z"/>
<path d="M140.4,413.4c5.3-3.4,11.1-6.9,17.7-6.8c2.7,0.1,6.1,0.6,7.4,3.4c0.9,2.8-1.2,5.3-2.5,7.6c-0.2-2.1-0.2-4.1-0.6-6.2
	c-1.1-1.3-2.8-0.9-4.2-0.5c-4.3,1.3-8,3.9-11.5,6.6c-3.2,2.5-6.5,5.1-8.5,8.6c3.8,4.5,9.8,6.8,13.1,11.8c6.2,8.4,4.9,19.6,2.4,29.1
	h-5c-0.6-1.2-1.7-2.5-1.3-4c0.9-5.6,4.3-11.1,2.4-16.9c-1.8-6-7.8-8.8-12.2-12.5c-3.2-2.5-6.8-6.2-5.8-10.7
	C133,418.7,136.8,415.8,140.4,413.4z"/>
<path d="M194.1,438.8c-3.6-4.8-9.3-7.5-14.7-9.7c2.6-4.8,3.4-11,0.4-15.8c-1.3-2.1-3.5-5.2-6.3-3.6c-8.9,3.9-10.9,17.4-3.2,23.6
	c-2,1.5-4.1,2.8-6.3,3.9c-0.5,1-1,2-1.6,3c1.2,2.5,3.1,6.5,6.5,5.2c3.4-2.1,4.7-6.2,7.1-9.2c4.7,1,9.4,2.8,13,6
	c2.4,2.4-0.3,5.8,0.6,8.6c0.8,1.9,2.7,3.1,4.7,3C197.3,449.2,197.4,443,194.1,438.8z M174.1,427.2c-1.3-0.7-3.2-1.3-2.8-3.2
	c0.4-3.1,2.6-5.9,5.2-7.5c0.5,0,1.5,0.1,2,0.1C178.5,420.6,176.6,424.3,174.1,427.2z"/>
<path d="M305.5,414.5c-2.5-2.7-6.6-3-10-2c-4.8,1.3-9.4,3.1-13.8,5.2c1.3-9.5,0.9-19.1,0.8-28.6c-0.5-9.8-1.8-19.8-5.5-29
	c-3.4-7.8-12.7-13.6-21.3-11.2c-8.5,3.3-16.7,8.8-20.9,17.1c-3.2,7-2.1,15-3,22.5c0.4,0,1.3,0,1.7,0c0.2-6,0.6-12.5,4.2-17.5
	c3.7-5.2,8.4-10,14.2-13c4.6-2.3,10.3-3.3,15-0.7c3.7,2.1,5.7,6.1,6.9,10c2.1,7.1,3.9,14.4,3.8,21.8c-0.1,10.8,0.4,21.8-1.3,32.5
	c-5.5,6.1-13.5,12.9-10.8,22.1c0.7,3.1,4.1,2.1,6.4,1.6c1.5,1.4,3,2.8,4.5,4.2c5.1,0.2,10.5,0.6,15.4-1.5c8.9-3.8,15.2-12.6,16.6-22
	C308.9,422,308.5,417.5,305.5,414.5z M301.7,428.5c-3.2,6.6-9.2,11.8-16.3,13.8c-4,1-8.2,1.1-12.3,1.4c4.2-4.8,6.6-10.8,7.7-17
	c4.9-3.5,10.2-6.7,16.2-7.9c1.8-0.3,3.6,0.6,5.3,1C303.4,422.6,303.2,425.7,301.7,428.5z"/>
<path d="M443.7,389.6c-7.7,2.2-15.8,1.9-23.7,2.6c-10.3,0.4-20.7,1.2-31,1.5c-11,0.8-22.2,1.4-33.1-0.2c-3.8-0.4-7.2-2.5-11-3
	c-1.3,2.6-0.7,5.7-0.3,8.4c1.1,5.3,2.5,10.6,5.4,15.2c2,3.6,4.6,7.7,3.2,11.9c-1.7,4.2-4.6,7.7-7.2,11.3c-1-3.2-2.5-6.1-4.8-8.5
	c0-3.4,0.4-7.3-2-10.2c-3-3.4-8.3-4.4-12.3-2.6c-5.7,3.6-6.4,11.7-3.1,17.2c0.8,0.2,2.5,0.7,3.3,0.9c-4,2-8.6,1.9-12.8,3.1
	c-0.5,2.3-0.2,5,2,6.4c8,1,15-3.8,21.6-7.6c2.5,3.5,1.5,9.4,5.9,11.4c4.2,1.3,5.9-3.2,7.7-5.9c3.7-6.5,8.5-13.7,6.2-21.5
	c-1.5-7-8-12-7.8-19.5c25.3,1.4,50.7,1.1,76-0.1c5-0.4,10-0.9,14.8-2c1.8-0.3,3.1-1.7,4.2-3.1v-1.8
	C444.6,392.1,444.2,390.9,443.7,389.6z M336.2,427.4c-2.8-0.5-5.6-0.8-8.5-1.2c1.7-4.8,7.5-4.8,11.2-2.4
	C338,425,337.1,426.2,336.2,427.4z"/>
<path d="M241.9,426c1.6-0.8,3.1-1.9,4.6-2.8c1.8,2.7,2.9,6.8-0.2,9c-4,1.9-8.8,2.3-13.2,2c-2.6-1.8-2.3-5.8-1.1-8.3
	C235.2,425.5,238.6,426.4,241.9,426z"/>
<path d="M377,431.6c3.4-0.9,8.1-1,10.1,2.5c1.4,1.6-0.8,2.8-1.9,3.7c-1.4-1.1-2.6-2.3-4.1-3.3c-1.2,0.4-2.3,0.8-3.5,1.3
	c-0.6,2.5-0.6,5.1,0,7.6c1.1,0.4,2.3,0.7,3.5,1c1.9-0.8,3.2-3.7,5.5-2.8c1.8,1.2,0.7,3.4-0.5,4.5c-2.3,2.3-6,1.9-9,1.4
	C370.5,445.1,370.7,434.2,377,431.6z"/>
<path d="M408.9,431.9c1.5-1.6,3.5-0.4,4.9,0.7c1.7-0.8,3.5-1.4,5.3-2.1c1.3,0.9,2.5,1.7,3.8,2.6c2.9-2.4,8.4-3.2,10.5,0.7
	c0.6,4.6,0.2,9.2,0.2,13.8c-1.4,0.1-2.8,0.1-4.1,0.1c-1.1-4.5,0.8-9.7-2.2-13.6c-1.2,0.9-2.4,1.6-3.4,2.7c-0.5,3.6-0.1,7.2-0.4,10.8
	c-1.5,0-3,0-4.5-0.1c-0.3-4.5,1.1-9.5-1.7-13.4c-1.2,0.8-2.5,1.6-3.5,2.6c-0.7,3.6-0.2,7.3-0.4,10.9c-1.5-0.1-3.2,0.4-4.5-0.6
	C408.5,442,408.5,436.9,408.9,431.9z"/>
<path d="M405.2,435.8c-1.2-3.3-4.7-5.1-8.1-4.8c-8.7-0.8-11,12.9-3.7,16.2c3.3,0.8,7.7,1.2,10.2-1.6
	C406.1,443.1,406.3,439,405.2,435.8z M398.1,444.6c-4.5,0.1-5.9-6.6-2.8-9.2c1-1.1,2.2-1.3,3.6-0.6
	C402.2,437,401.9,442.9,398.1,444.6z"/>
<path d="M363.2,444.9c1.1-0.9,2-2.7,3.7-2.4c1.3,0.3,2.1,1.6,3.1,2.4c-1.1,1-2,3.1-3.8,2.8C364.7,447.5,364.1,445.8,363.2,444.9z"/>
</svg>
