<svg xmlns="http://www.w3.org/2000/svg" xmlns:xlink="http://www.w3.org/1999/xlink" version="1.1" x="0px" y="0px" viewBox="0 0 486.1 92.7" enable-background="new 0 0 486.1 92.7" xml:space="preserve"><style>.style0{fill:	#0A0A0A;}</style><path d="M330.8 23.1h-6.7c1-4.8 0.4-10.2-4-12.9c-2.6-1.8-6.7-2-9.4-0.4c-2.2 1.2-4.1 3.4-4.4 5.9 c-0.4 3.5 1.1 6.3 3.2 8.9L326 43.3c4.6 5.8 4.7 15.5 1 21.8c-3.5 7.7-11.4 12-19.7 11.7c-6.6 0-11.4-4.1-17.7-4.7 c-0.9 0-1.6 0.7-2 1.5l-0.4 1.5l-4.9 1.7l-7.8-22.5l6.7-2.2c2.7 7.3 10 14.4 18.2 14.6c4.8 0.5 9.3-1.5 11.7-5.7 c2.7-4.8 0.3-10.4-2.8-14.2c-7.1-8.8-17.4-16.2-16.7-28.2c0.3-6.2 3.4-11.9 8.9-15.5c4-2.5 9.2-3.4 14.2-2.3 c3.4 0.7 6.3 2.3 9.9 2.4c1.5 0 2.9-1.1 3.5-2.5l0.2-0.6h6.1L330.8 23.1z" class="style0"/><path d="M150.6 59.4c0 1 0.5 1.6 1.1 2.2c0.8 0.7 1.8 0.9 2.8 1.1l-0.8 5.4h-24.3l0.9-5.6c2.3 0 4.7-0.9 5.6-3.2 l0.9-3.8l5.3-30.6c0.1-0.9 0.1-2.1-0.6-2.8c-0.7-0.9-2-0.8-2.9-0.5c-0.3 0.2-0.8 0.3-1.2 0.3l-2.8-4.9l25.1-16.3L150.6 59.4z" class="style0"/><path d="M185 8.6c1.2 2.9 0.1 6.1-2.1 8.3c-2.8 2.9-6.6 4.3-10.6 3.9c-1.6-0.3-3.5-1.4-4.1-3.1 c-0.9-3.5 0.6-6.7 3.5-8.9C175.2 6.1 182.2 3.3 185 8.6z" class="style0"/><path d="M124.1 59.1l9.3-58.3l-24.5 15.7l2.9 4.9c1.1-0.3 2.4-1 3.5-0.2c0.7 0.4 0.9 1.1 0.9 1.9l-6 36l-0.5 1.2 c-1.1 1.9-3.1 2.4-5.3 2.2c-0.3 1.8-0.9 3.8-1 5.6c2.5 0.1 4.8 0.3 6.8 1.6c1 0.9 1.7 2 1.7 3.3c0.2 2.3-0.8 4.2-2.6 5.7 c-6.4 4.5-16.2 2.5-22.9-0.1c-15-6.4-27-22.2-28.1-38.3c4.7-1 8.7-3.5 12.1-7.3c4.6-5.2 6.3-13.6 3-19.9c-1.9-4.3-6.3-8.4-10.5-10 C51.1-1.5 35.9 0 22.9 1.1c-7.8 1.4-16 2.7-21.3 9.3C0 13-0.6 16.8 0.7 19.5c1.6 3.2 5 4.7 8.5 4.2c2.8-0.3 5.8-2.3 6.5-5.2 c0.7-2.6-0.5-4.8-2.5-6.3c3.4-3 7.7-3.7 12.2-3.7v0.1L16.2 60l-1 2.2c-2.2 3.5-6.2 3.7-10 3.3l-1.2 7.4h34.2 c0.3-2.3 0.9-4.6 1.1-6.8c-1.6-0.3-3.3-0.5-4.7-1.5c-1.4-0.9-2.1-2.5-1.8-4.3l3-17.2l0.2-0.3H41c4.3 15 14 29.5 28.1 38.8 c13.4 8.5 33.1 13.7 48.3 5.7c3.5-2 6.6-5.4 6.4-9.6c0.4-4.6-4.2-7.3-7.4-9.3c3.6-0.2 7.3-0.1 11-0.1c0.3-2 0.8-3.9 0.8-5.8 c-1.4-0.2-2.7-0.4-3.7-1.6C124.3 60.4 123.9 59.8 124.1 59.1z M37.3 35.7L42 8c5.9 0.1 11.8 0.4 15.3 5.7c2.1 2.9 1.9 7.9 0.4 11.1 C54.2 32.9 45.7 35.8 37.3 35.7z" class="style0"/><path d="M176.5 57.9c-0.3 1.3 0.2 2.3 0.8 3.4c1.3 1.3 2.9 1.6 4.7 1.7c-0.3 1.7-0.5 3.5-0.8 5.2l-25.6 0.1l0.8-5.3 c2.6-0.2 5.4-0.8 6.4-3.5l2.5-15.2c0-0.8-0.5-1.6-1.3-1.9c-0.9-0.5-2.1-0.2-2.9 0.3l-2.9-5.6l24.6-15.2L176.5 57.9z" class="style0"/><path d="M481.3 45.6c-1.7-0.9-4.1-0.4-5.6 0.5c-1.6 1.3-2.8 3.1-2.6 5.3c0.1 2 2.2 2.9 3.7 3.6l-1.8 2.1 c-2 2-5 2.5-7.7 1.6c-4-1.5-6-5.7-6.6-9.3l25.5-12.3c-0.5-3.4-1.6-6.5-3.2-9.4c-3.6-6.7-11.6-8.4-18.5-6.3 c-9.7 2.8-16.7 13.1-17.7 22.6c-1 8.5 2 16.6 9.4 21.1c6.3 3.7 15.7 2.8 21.7-1.1c4.3-3.4 7.3-7.9 7-13.4 C484.4 48.6 483.4 46.4 481.3 45.6z M464.6 28.9c2.1-0.8 5.1-0.8 6.3 1.6c1 2 1.3 4.1 1.3 6.6L460 42.7 C459.7 37.7 460 31.9 464.6 28.9z" class="style0"/><path d="M441.7 60.4c-0.6-0.7-1-1.5-0.9-2.4c1.1-9.6 3.6-18.5 4.1-28.4c-0.1-3-1.5-6-4.4-7.4 c-7.8-3.2-14 2.6-19.5 7.6l-0.2 0.1l1.3-9.3l-23.4 15.1c-1.6-4.7-4.2-9.8-9.1-12.1c-6.9-3.5-15.7-1.1-21.4 3.4 c-9.4 6.7-12.3 17.5-10.4 28.5c-3.6 1.6-6.6 5.6-11.1 3.9c-2.2-1.4-2.8-3.9-2.3-6.4l3.2-19.3c3.8 0.3 8.1-0.7 11.3 1.1l3.2-8.8 L349 25.7c0.3-3.7 1.2-7.5 1.5-11.1l-21.5 14l-0.7 4.8l6.3 0.1l-2.8 15.5c-0.8 4.5-1.6 9.8-0.2 14.3c1 3.5 4.7 6.4 8.3 6.7 c8.4 0.5 14.8-4.1 21.2-8.7c5.6 5.4 13 9.2 21 6.4c9.9-4 15.2-14.4 16.5-24.3c1.5-1.2 3-2.9 5.1-2.2c0.7 0.4 1.4 1.2 1.3 2.1 l-2.3 14.9l-0.9 1.9c-1.6 1.7-3.7 2-6 1.8l-0.9 6.3h24.4l0.7-6.7c-1 0-1.8-0.4-2.6-0.9c-0.7-0.6-0.9-1.3-1-2.2l2.3-14.5 c0.4-3.5 2.4-7.2 6-8.4c1.7-0.5 3.7-0.3 5 1.2c0.8 1 1 2.3 0.8 3.7l-2.7 17.3l-0.6 1.6c-1.1 1.8-3 2.7-5.1 2.5 c-0.3 2.2-0.5 4.3-0.8 6.5h23.7c0.3-2.2 0.6-4.3 1-6.5C444.2 61.6 442.9 61.4 441.7 60.4z M384.5 47.6c-1.3 4.7-1.5 9.8-5.4 13.1 c-1.5 1-3.8 1-5.4 0.1c-3.3-2.8-2.6-7.6-2.4-11.7c0.9-6.6 1.3-13.4 5.7-18.6c1.4-1.3 3.4-2.1 5.3-1.4c0.9 0.3 1.8 1 2.2 2 C386.4 36.2 385.2 42.4 384.5 47.6z" class="style0"/><path d="M108.8 31.4c-1.5-2.9-4.1-6-7.1-7.6c-6.9-3.7-16.2-1.8-22.1 2.6c-8.9 5.8-13.7 15.4-12 25.8 C68.8 59 74 66.1 80.9 68.1c8.5 2.1 16.2-1.6 21.9-7.9C110.2 52.8 113.4 41.2 108.8 31.4z M95.1 50.1c-1.4 4.3-2 10.6-7.7 11.5 c-1.8 0.2-3.8-0.3-4.8-2c-1.9-5.1-0.4-11.1 0.3-16.3c1.2-4.8 2.1-10.1 6.6-13.3c2.1-1.2 5.3-0.8 6.4 1.6 C98.1 37.5 96.1 44.3 95.1 50.1z" class="style0"/><path d="M274.5 30c-5-5.9-11.3-9-19-8.1c-7.4 0.3-14.5 4.8-17.7 11.7c-2.5 5.1-2.4 12.5 1.2 17c0.7 1 1.7 2 2.3 3 c-1.1 0.3-2.2 0.7-3.2 1.3c-2.8 1.6-4.1 4.5-5 7.2c-0.9 0-1.6-0.3-2.3-0.6c-1.5-0.7-2.2-2.2-2.2-3.8l3.7-25.8 c0.3-2.7-0.6-4.9-2.5-6.7c-2.6-2.3-6.5-2.7-9.8-1.8c-4.8 1.6-8.5 6-12.5 9.4l1.3-11l-24.5 15.5c1 1.6 2.2 3.2 3.3 4.7 c0.9-0.3 2.1-0.6 3-0.3c0.8 0.4 1.5 1.1 1.3 2.1c-0.9 5.5-1.6 11.1-3 16.6c-1 1.7-2.8 2.6-4.8 2.6l-0.9 5.3h22.9l0.8-5.5 c-1-0.3-1.9-0.7-2.7-1.4c-0.5-0.6-0.9-1.3-0.9-2.2l2.5-14.7c0.4-2.7 2-5.1 4.3-6.8c1.6-1 3.8-1.7 5.6-1c1.6 0.9 2.1 2.7 2 4.3 l-2.9 18l-0.4 1.1c-1.3 1.8-3.3 2.6-5.4 2.7l-0.8 5.4l24.3 0.1c-5 2.8-12.5 6.4-12.8 13.2c0.2 2.4 1.7 4.4 3.8 6 c10.2 7 26.6 6.8 37 0.4c7.2-4 14.8-11.1 16-19.4c0.1-1.9-0.7-3.5-2.2-4.7c-5.4-3.5-12.9-2.2-19.3-1.6c-2.8 0.1-6.8 1.1-8.6-1.7 c-0.7-1.4-0.5-3.4 0.2-4.6c1.7 0.5 3.5 1 5.4 1.3c7.6 1 14.5-1.6 18.8-7.9c3.3-4.1 3.4-9.5 6.6-13.6c2.1-2.4 5.3-2.4 8.5-2.2l3-12 C282.7 21.2 277.5 24.8 274.5 30z M256.4 72.9c1.6 0.2 3.2 0.7 4 2.2c0.5 1.4 0 3-1 4.1c-5.6 5.1-12.7 6.8-20.5 6.2 c-2.3-0.4-4.8-1.3-6.2-3.6c-1.4-2.8-0.5-6.4 1.3-8.8l2-2.2C241.8 74.3 249.6 73.8 256.4 72.9z M260.6 44.9c-0.9 2-1.8 4.4-4.1 5.4 c-1.6 0.5-3.5 0.1-4.7-1.1c-2.8-3.3-1.2-8.5-0.8-12.4c1-3 1.9-6.8 5.4-7.9c2-0.4 4.1 0.3 5.1 2.2C263.3 35.5 261.7 40.6 260.6 44.9z " class="style0"/></svg>