<?xml version="1.0" encoding="utf-8"?>
<!-- Generator: Adobe Illustrator 19.1.0, SVG Export Plug-In . SVG Version: 6.00 Build 0)  -->
<svg version="1.1" id="Layer_1" xmlns="http://www.w3.org/2000/svg" xmlns:xlink="http://www.w3.org/1999/xlink" x="0px" y="0px"
	 viewBox="0 0 500 73.1" enable-background="new 0 0 500 73.1" xml:space="preserve">
<path fill="#231F20" d="M41.2,55.5c6.3-1.5,11.5-5.7,15-12.2l1.2,0.4c-2.5,11.2-13,19.4-24.8,19.4c-14,0-24.9-10.2-24.9-23.4
	c0-6.3,2.3-12.7,6.4-17.6c2.4-2.9,3.9-4.1,8.6-7.3c-1.8-0.2-2.5-0.2-3.6-0.2c-7,0-8.4,1.7-11.5,8.7l-1.2-0.6
	c2.4-10.6,6.3-15,16.5-15c2.7,0,5.7,0.2,9.3,0.8l5.6,0.9c6,1,8,1.2,10.2,1.2c3.6,0,6.5-1.5,8.2-4.4l1.2,0.4
	c-0.6,7-5.6,11.2-13.4,11.2c-0.9,0-1.5,0-2.9-0.2 M19.9,19.8c-3,4.3-4.9,10.1-4.9,15.3c0,6.3,2.5,11.7,7.4,16.3
	c3.2-2.4,3.5-3.3,3.5-11.8V14.9C22.8,16.5,21.7,17.4,19.9,19.8z M34.1,16.4v20.3c0,3.6-0.4,6.1-1.2,7.5c-1.1,1.9-2.5,3.3-7.8,7.7
	l-0.9,0.7c3.8,2.4,7.4,3.6,11.5,3.6c1.3,0,2-0.1,3.8-0.3V17.4C37.1,17,36.5,16.9,34.1,16.4z"/>
<path fill="none" stroke="#231F20" stroke-width="0.3535" d="M41.2,55.5c6.3-1.5,11.5-5.7,15-12.2l1.2,0.4
	c-2.5,11.2-13,19.4-24.8,19.4c-14,0-24.9-10.2-24.9-23.4c0-6.3,2.3-12.7,6.4-17.6c2.4-2.9,3.9-4.1,8.6-7.3c-1.8-0.2-2.5-0.2-3.6-0.2
	c-7,0-8.4,1.7-11.5,8.7l-1.2-0.6c2.4-10.6,6.3-15,16.5-15c2.7,0,5.7,0.2,9.3,0.8l5.6,0.9c6,1,8,1.2,10.2,1.2c3.6,0,6.5-1.5,8.2-4.4
	l1.2,0.4c-0.6,7-5.6,11.2-13.4,11.2c-0.9,0-1.5,0-2.9-0.2V55.5z M19.9,19.8c-3,4.3-4.9,10.1-4.9,15.3c0,6.3,2.5,11.7,7.4,16.3
	c3.2-2.4,3.5-3.3,3.5-11.8V14.9C22.8,16.5,21.7,17.4,19.9,19.8z M34.1,16.4v20.3c0,3.6-0.4,6.1-1.2,7.5c-1.1,1.9-2.5,3.3-7.8,7.7
	l-0.9,0.7c3.8,2.4,7.4,3.6,11.5,3.6c1.3,0,2-0.1,3.8-0.3V17.4C37.1,17,36.5,16.9,34.1,16.4z"/>
<path fill="#231F20" d="M91.6,55.3V25.9l0-0.1c4.6-2,8.4-4,12.7-6.6l9.9,12.7L99.4,43.9v7.4c3.2,1.5,4,1.9,7,3.6l5.8-3.9l0.8,1.1
	L101.3,60c-3.4-2-6.8-3.6-9.8-4.5 M107.7,34.5L99.4,24v17.3L107.7,34.5z"/>
<path fill="none" stroke="#231F20" stroke-width="0.3535" d="M91.6,55.3V25.9l0-0.1c4.6-2,8.4-4,12.7-6.6l9.9,12.7L99.4,43.9v7.4
	c3.2,1.5,4,1.9,7,3.6l5.8-3.9l0.8,1.1L101.3,60c-3.4-2-6.8-3.6-9.8-4.5L91.6,55.3z M107.7,34.5L99.4,24v17.3L107.7,34.5z"/>
<path fill="#231F20" d="M470.8,55.3V25.9l0-0.1c4.6-2,8.4-4,12.7-6.6l9.9,12.7l-14.7,12.1v7.4c3.2,1.5,4,1.9,7,3.6l5.8-3.9l0.8,1.1
	L480.6,60c-3.4-2-6.8-3.6-9.8-4.5 M486.9,34.5L478.7,24v17.3L486.9,34.5z"/>
<path fill="none" stroke="#231F20" stroke-width="0.3535" d="M470.8,55.3V25.9l0-0.1c4.6-2,8.4-4,12.7-6.6l9.9,12.7l-14.7,12.1v7.4
	c3.2,1.5,4,1.9,7,3.6l5.8-3.9l0.8,1.1L480.6,60c-3.4-2-6.8-3.6-9.8-4.5L470.8,55.3z M486.9,34.5L478.7,24v17.3L486.9,34.5z"/>
<path fill="#231F20" d="M134.8,53.4c4.8-4.8,5.7-10.5,5.7-10.7c0.1-2.5-0.1-3.3-0.1-3.3c-0.3-4.5-2.7-8-6.4-8c-2.3,0-4,1.1-4.9,3.3
	l-1.5-0.4c0.8-5.3,3.6-8.2,7.9-8.2c1.2,0,1.7,0.1,3.7,0.5c0.3-5.9,1.1-8.2,3.9-11.2c1.9-2,2.9-2.8,6.1-4.9c-3.8,1.1-5.3,1.3-7.4,1.3
	c-1.6,0-3.2-0.2-5.3-0.8c-1.3-0.4-2.3-0.6-3-0.6c-2.3,0-4,1.8-4.4,4.9h-1.8c0.7-6.9,4.4-11,10-11c1.5,0,3.1,0.2,4.9,0.6l4.6,1.1
	c1.1,0.2,2.3,0.4,3.6,0.4c3.3,0,5.3-0.5,8.9-2.3l1.3,1.9c-5.1,2.3-8.3,4.4-10.6,7.3c-2.2,2.7-2.7,4.7-2.7,10.4v14.2
	c0,4.3,0.1,5.8-1.2,8.1c0,0-0.7,1.2-2.2,2.4c-1.4,1.1-2.9,1.8-4.5,2.6C137.7,51.8,134.8,53.4,134.8,53.4 M141.6,52.3
	c3.2-1.2,4.2-2.2,6-3.8c3.2-2.8,4.2-5.8,4.2-11.7V25.2c0-10.6,2.2-14,11-17.7c3.1-1.2,4.8-1.9,9.2-3.5l11,14.9l-8.7,6.4l9.8,4.8v1.1
	c-1.3,0.6-1.5,1.1-1.5,4.2v15.3c-5.2,0.7-10.9,2.6-15.5,5c-2.8,1.5-3.9,2.2-6.5,4.4c-5.5-3.6-9.4-4.8-15-4.8c-7.2,0-11,3.6-12.8,5.9
	c0,0-2.5,3.1-1.7,5.5l-0.3,0c-0.8-0.6-1.6-1.8-1.6-3.1c0-2.8,2.4-6.2,5.4-8.3L135,55c1.7-1.2,3.8-1.9,6.3-2.8
	c2.6-0.9,6.7-1.6,6.7-1.6c3.3-0.8,4.6-1,7.1-1c2.9,0,4.3,0.2,7.7,1.2V20.6h1.7v9.6l11.5-8.5l-10-13.6c-5.1,1.9-6.4,3.9-6.4,10.1
	v14.8c0,7.4-1.4,10.8-5.6,13.8c-1.1,0.8-2.4,1.7-4,2.6c-0.4,0.2-2.3,1.2-3.1,1.6L141.6,52.3z M174.7,43v-5.7v-2v-1.5l-7-3.5l-3,2.2
	v3v1.9V43v1.9v6.5c1.5,0.6,1.9,0.8,3.4,1.6l0.8-0.4c2.9-1.3,3.6-1.5,5.8-2.2v-5.5V43z"/>
<path fill="none" stroke="#231F20" stroke-width="0.3535" d="M134.8,53.4c4.8-4.8,5.7-10.5,5.7-10.7c0.1-2.5-0.1-3.3-0.1-3.3
	c-0.3-4.5-2.7-8-6.4-8c-2.3,0-4,1.1-4.9,3.3l-1.5-0.4c0.8-5.3,3.6-8.2,7.9-8.2c1.2,0,1.7,0.1,3.7,0.5c0.3-5.9,1.1-8.2,3.9-11.2
	c1.9-2,2.9-2.8,6.1-4.9c-3.8,1.1-5.3,1.3-7.4,1.3c-1.6,0-3.2-0.2-5.3-0.8c-1.3-0.4-2.3-0.6-3-0.6c-2.3,0-4,1.8-4.4,4.9h-1.8
	c0.7-6.9,4.4-11,10-11c1.5,0,3.1,0.2,4.9,0.6l4.6,1.1c1.1,0.2,2.3,0.4,3.6,0.4c3.3,0,5.3-0.5,8.9-2.3l1.3,1.9
	c-5.1,2.3-8.3,4.4-10.6,7.3c-2.2,2.7-2.7,4.7-2.7,10.4v14.2c0,4.3,0.1,5.8-1.2,8.1c0,0-0.7,1.2-2.2,2.4c-1.4,1.1-2.9,1.8-4.5,2.6
	C137.7,51.8,134.8,53.4,134.8,53.4z M141.6,52.3c3.2-1.2,4.2-2.2,6-3.8c3.2-2.8,4.2-5.8,4.2-11.7V25.2c0-10.6,2.2-14,11-17.7
	c3.1-1.2,4.8-1.9,9.2-3.5l11,14.9l-8.7,6.4l9.8,4.8v1.1c-1.3,0.6-1.5,1.1-1.5,4.2v15.3c-5.2,0.7-10.9,2.6-15.5,5
	c-2.8,1.5-3.9,2.2-6.5,4.4c-5.5-3.6-9.4-4.8-15-4.8c-7.2,0-11,3.6-12.8,5.9c0,0-2.5,3.1-1.7,5.5l-0.3,0c-0.8-0.6-1.6-1.8-1.6-3.1
	c0-2.8,2.4-6.2,5.4-8.3L135,55c1.7-1.2,3.8-1.9,6.3-2.8c2.6-0.9,6.7-1.6,6.7-1.6c3.3-0.8,4.6-1,7.1-1c2.9,0,4.3,0.2,7.7,1.2V20.6
	h1.7v9.6l11.5-8.5l-10-13.6c-5.1,1.9-6.4,3.9-6.4,10.1v14.8c0,7.4-1.4,10.8-5.6,13.8c-1.1,0.8-2.4,1.7-4,2.6
	c-0.4,0.2-2.3,1.2-3.1,1.6L141.6,52.3z M174.7,43v-5.7v-2v-1.5l-7-3.5l-3,2.2v3v1.9V43v1.9v6.5c1.5,0.6,1.9,0.8,3.4,1.6l0.8-0.4
	c2.9-1.3,3.6-1.5,5.8-2.2v-5.5V43z"/>
<path fill="#231F20" d="M188.4,53.6v-28c4.4-1.4,7.9-3.4,11.4-6.6c4.3,3.1,7.7,4.6,12.8,5.8v26.7v1.5v0.5c-6.2,2.7-8.8,4.1-11.7,6.5
	c-4.2-3.2-8.2-5.1-12.5-5.8 M196.3,49.8l8.4,3.7V29l-8.4-3.6V49.8z"/>
<path fill="none" stroke="#231F20" stroke-width="0.3535" d="M188.4,53.6v-28c4.4-1.4,7.9-3.4,11.4-6.6c4.3,3.1,7.7,4.6,12.8,5.8
	v26.7v1.5v0.5c-6.2,2.7-8.8,4.1-11.7,6.5c-4.2-3.2-8.2-5.1-12.5-5.8L188.4,53.6z M196.3,49.8l8.4,3.7V29l-8.4-3.6V49.8z"/>
<path fill="#231F20" d="M263.6,53.6v-28c4.4-1.4,7.9-3.4,11.4-6.6c4.3,3.1,7.7,4.6,12.8,5.8v26.7v1.5v0.5c-6.1,2.7-8.8,4.1-11.7,6.5
	c-4.2-3.2-8.2-5.1-12.5-5.8 M271.5,49.8l8.4,3.7V29l-8.4-3.6V49.8z"/>
<path fill="none" stroke="#231F20" stroke-width="0.3535" d="M263.6,53.6v-28c4.4-1.4,7.9-3.4,11.4-6.6c4.3,3.1,7.7,4.6,12.8,5.8
	v26.7v1.5v0.5c-6.1,2.7-8.8,4.1-11.7,6.5c-4.2-3.2-8.2-5.1-12.5-5.8L263.6,53.6z M271.5,49.8l8.4,3.7V29l-8.4-3.6V49.8z"/>
<path fill="#231F20" d="M248.1,54.6V23.5h-5.9l1.1-1.5l12.7-15V19h6.7v4.4h-6.7v27.4c1.8,1.2,2.2,1.5,3.8,2.8l4.1-1.8l1.2,1.3
	L255,60c-1.9-2.1-4.3-2-6.9-3.1"/>
<path fill="none" stroke="#231F20" stroke-width="0.3535" d="M248.1,54.6V23.5h-5.9l1.1-1.5l12.7-15V19h6.7v4.4h-6.7v27.4
	c1.8,1.2,2.2,1.5,3.8,2.8l4.1-1.8l1.2,1.3L255,60c-1.9-2.1-4.3-2-6.9-3.1L248.1,54.6z"/>
<path fill="#231F20" d="M290.5,24.7l7.3-5.6l0.7,0.6c3.2,2.8,3.8,3.7,3.8,6.6v1l10-8.2l5.9,5.8l0.8,0.6v21.1c0,5.2,0.3,6.5,1.9,6.5
	c0.6,0,1-0.2,1.9-1c0.1-0.1,0.3-0.2,0.6-0.5l1,1.5L316,60l-0.9-0.8c-3.7-3.4-4-4.1-4-11.1V27.9l-3.2-3.2l-5.6,4.6v22.2l2.8,2.9
	l-7,5.7l-6.8-5.9l3.2-2.8V30.7c0-4.4-0.3-5.1-1.9-5.1c-0.3,0-0.7,0.1-1.2,0.4 M291.5,25.9c-0.2,0.1-0.5,0.3-0.8,0.4l-0.9-1.2
	l0.7-0.5"/>
<path fill="none" stroke="#231F20" stroke-width="0.3535" d="M290.5,24.7l7.3-5.6l0.7,0.6c3.2,2.8,3.8,3.7,3.8,6.6v1l10-8.2l5.9,5.8
	l0.8,0.6v21.1c0,5.2,0.3,6.5,1.9,6.5c0.6,0,1-0.2,1.9-1c0.1-0.1,0.3-0.2,0.6-0.5l1,1.5L316,60l-0.9-0.8c-3.7-3.4-4-4.1-4-11.1V27.9
	l-3.2-3.2l-5.6,4.6v22.2l2.8,2.9l-7,5.7l-6.8-5.9l3.2-2.8V30.7c0-4.4-0.3-5.1-1.9-5.1c-0.3,0-0.7,0.1-1.2,0.4 M291.5,25.9
	c-0.2,0.1-0.5,0.3-0.8,0.4l-0.9-1.2l0.7-0.5"/>
<path fill="#231F20" d="M376.5,19.7c9.4,0.6,15.3,6.6,15.3,15.1c0,12.8-14.8,25-30.2,25c-12.6,0-22-8.6-22-20.3
	c0-4.9,1.9-10.7,4.8-14.5c3.3-4.5,9.2-9.8,21.8-19.7l1.6-1.3c6.6,3.7,12,5.4,17,5.4c1.2,0,1.9-0.1,3.4-0.4l0.6,0.9 M347.1,34.4
	c0,5,1.3,8.9,4.4,13.5c2.4-2.8,2.6-3.5,2.6-9.3V17.8C349.4,22.6,347.1,28,347.1,34.4z M368.3,23.5l9.6-7.6c-3.6-0.9-6.5-1.7-9.6-2.8
	L368.3,23.5z M366.6,24.8l0-12.4c-1.1-0.4-2.2-0.8-3.4-1.3l-1.3-0.5v17.9v2.8v6.1c0,3.1-0.2,4.1-1,5c-0.9,1-2.4,2.4-4.8,4.2
	l-3.6,2.8c3.4,4,8.5,6.6,14,6.9V28.6L366.6,24.8z M383.6,46.1c1.3-2.8,1.7-4.7,1.8-7.5c0-2.2-0.2-2.1-0.2-2.1
	c-1.1-5.7-5.8-9.7-11.6-9.7c-1.8,0-2.8,0.2-5.3,1.1v8.7v2.1v7.5v2.3v7.8c6.6-0.3,11.7-3.4,14.3-8.4L383.6,46.1z"/>
<path fill="none" stroke="#231F20" stroke-width="0.3535" d="M376.5,19.7c9.4,0.6,15.3,6.6,15.3,15.1c0,12.8-14.8,25-30.2,25
	c-12.6,0-22-8.6-22-20.3c0-4.9,1.9-10.7,4.8-14.5c3.3-4.5,9.2-9.8,21.8-19.7l1.6-1.3c6.6,3.7,12,5.4,17,5.4c1.2,0,1.9-0.1,3.4-0.4
	l0.6,0.9L376.5,19.7z M347.1,34.4c0,5,1.3,8.9,4.4,13.5c2.4-2.8,2.6-3.5,2.6-9.3V17.8C349.4,22.6,347.1,28,347.1,34.4z M368.3,23.5
	l9.6-7.6c-3.6-0.9-6.5-1.7-9.6-2.8L368.3,23.5z M366.6,24.8l0-12.4c-1.1-0.4-2.2-0.8-3.4-1.3l-1.3-0.5v17.9v2.8v6.1
	c0,3.1-0.2,4.1-1,5c-0.9,1-2.4,2.4-4.8,4.2l-3.6,2.8c3.4,4,8.5,6.6,14,6.9V28.6L366.6,24.8z M383.6,46.1c1.3-2.8,1.7-4.7,1.8-7.5
	c0-2.2-0.2-2.1-0.2-2.1c-1.1-5.7-5.8-9.7-11.6-9.7c-1.8,0-2.8,0.2-5.3,1.1v8.7v2.1v7.5v2.3v7.8c6.6-0.3,11.7-3.4,14.3-8.4
	L383.6,46.1z"/>
<path fill="#231F20" d="M435.3,51.6v1.5v0.5c-6.1,2.7-8.8,4.1-11.7,6.5c-4.9-3.7-9.5-5.7-14.7-6.1v-1c1.9-1.5,2.3-2.5,2.3-9V25.6
	c4.4-1.4,7.9-3.4,11.4-6.6c4.3,3.1,7.7,4.6,12.8,5.8 M418.9,49.8l8.4,3.7V29l-8.4-3.6V49.8z"/>
<path fill="none" stroke="#231F20" stroke-width="0.3535" d="M435.3,51.6v1.5v0.5c-6.1,2.7-8.8,4.1-11.7,6.5
	c-4.9-3.7-9.5-5.7-14.7-6.1v-1c1.9-1.5,2.3-2.5,2.3-9V25.6c4.4-1.4,7.9-3.4,11.4-6.6c4.3,3.1,7.7,4.6,12.8,5.8V51.6z M418.9,49.8
	l8.4,3.7V29l-8.4-3.6V49.8z"/>
<path fill="#231F20" d="M244.4,21.1l-1.6,0.5c-2,0.4-4.8,0.4-4.8,0.4c-3.2,0-6.5-0.9-10.4-2.9c-2.8,3.7-5.5,5.5-10.6,7.1v14.2
	l7.5,4.2l-6.2,8.8c-0.5,0.2-0.9,0.5-1.4,0.8l-0.3,0.2c-3,2.1-5.4,5.6-5.4,8.3c0,1.3,0.8,2.5,1.6,3.1l0.3,0c-0.8-2.3,1.7-5.5,1.7-5.5
	c0.1-0.1,0.2-0.3,0.4-0.4l0,0c2.8-2.2,5.1-3.1,8-3.1c3,0,5.7,0.9,9.1,3.1c3.4-3.1,6.9-5,11.2-6.3V38l-8.1-4.6 M224.9,25.4
	c2.5,1.6,5.6,2.6,8.6,2.6c0.8,0,1.3-0.1,3-0.2l-7.6,10.8l-4-2.3V25.4z M235.4,53.2c-3.3-1.8-5.4-2.4-7.9-2.4c-1.5,0-2.5,0.1-4.2,0.6
	l0,0c0,0-0.1,0-0.1,0c-0.4,0.1-0.7,0.2-1.2,0.4l8.6-12.1l4.8,2.6V53.2z"/>
<path fill="none" stroke="#231F20" stroke-width="0.3535" d="M244.4,21.1l-1.6,0.5c-2,0.4-4.8,0.4-4.8,0.4c-3.2,0-6.5-0.9-10.4-2.9
	c-2.8,3.7-5.5,5.5-10.6,7.1v14.2l7.5,4.2l-6.2,8.8c-0.5,0.2-0.9,0.5-1.4,0.8l-0.3,0.2c-3,2.1-5.4,5.6-5.4,8.3c0,1.3,0.8,2.5,1.6,3.1
	l0.3,0c-0.8-2.3,1.7-5.5,1.7-5.5c0.1-0.1,0.2-0.3,0.4-0.4l0,0c2.8-2.2,5.1-3.1,8-3.1c3,0,5.7,0.9,9.1,3.1c3.4-3.1,6.9-5,11.2-6.3V38
	l-8.1-4.6L244.4,21.1z M224.9,25.4c2.5,1.6,5.6,2.6,8.6,2.6c0.8,0,1.3-0.1,3-0.2l-7.6,10.8l-4-2.3V25.4z M235.4,53.2
	c-3.3-1.8-5.4-2.4-7.9-2.4c-1.5,0-2.5,0.1-4.2,0.6l0,0c0,0-0.1,0-0.1,0c-0.4,0.1-0.7,0.2-1.2,0.4l8.6-12.1l4.8,2.6V53.2z"/>
<path fill="#231F20" d="M92.8,52.7l-4.1,2.2c-1.6-1.4-2.8-2.6-4.6-3.8l0.3-6V31.2c0-6.7-0.9-8.5-5.7-12.1l-11.2,9.1V21h0v-5.7
	c0-4.8,0.9-6.5,4.8-8.8l-0.5-1c-4.4,0.8-7.2,2.3-9.4,4.9c-2.4-2.2-3.9-3.2-5.9-4l-0.6,1.1c2.8,2.3,3.5,4,3.5,8.1v6.5h0v29.9L56,54.5
	l6.8,5.6l7.1-5.3l-2.5-3V30.2l6.1-5c2.2,1.8,2.6,2.8,2.6,6.3V45v0v0.7c0,5.2-0.2,6.1-2.4,7.8v1c3.6,1,6.9,2.9,9.5,5.7L94,54"/>
<path fill="none" stroke="#231F20" stroke-width="0.3535" d="M92.8,52.7l-4.1,2.2c-1.6-1.4-2.8-2.6-4.6-3.8l0.3-6V31.2
	c0-6.7-0.9-8.5-5.7-12.1l-11.2,9.1V21h0v-5.7c0-4.8,0.9-6.5,4.8-8.8l-0.5-1c-4.4,0.8-7.2,2.3-9.4,4.9c-2.4-2.2-3.9-3.2-5.9-4
	l-0.6,1.1c2.8,2.3,3.5,4,3.5,8.1v6.5h0v29.9L56,54.5l6.8,5.6l7.1-5.3l-2.5-3V30.2l6.1-5c2.2,1.8,2.6,2.8,2.6,6.3V45v0v0.7
	c0,5.2-0.2,6.1-2.4,7.8v1c3.6,1,6.9,2.9,9.5,5.7L94,54L92.8,52.7z"/>
<path fill="#231F20" d="M409.9,52.5l-1.7,1.3l-3.9-2.8V21h0v-5.6c0-5.8,0.6-7.4,4.1-10L408,4.1c-3.6,1-6.8,2.8-9,5.3
	c-2.3-2.1-3.3-2.7-6.3-3.9l-0.4,1.2c3.2,1.8,4,3.5,4,9.1v12.7h0v26.3l0.1,0.5c2.6,1,4.7,2.5,6.9,4.8l7.7-6.2"/>
<path fill="none" stroke="#231F20" stroke-width="0.3535" d="M409.9,52.5l-1.7,1.3l-3.9-2.8V21h0v-5.6c0-5.8,0.6-7.4,4.1-10L408,4.1
	c-3.6,1-6.8,2.8-9,5.3c-2.3-2.1-3.3-2.7-6.3-3.9l-0.4,1.2c3.2,1.8,4,3.5,4,9.1v12.7h0v26.3l0.1,0.5c2.6,1,4.7,2.5,6.9,4.8l7.7-6.2
	L409.9,52.5z"/>
<path fill="#231F20" d="M459.7,19.1l-11.5,9.5V17h0V15c0-5.7,0.9-7.8,4.4-10l-0.2-0.9c-4.1,0.6-6.3,1.8-9.1,4.8
	c-2.7-2.1-3.7-2.7-6-3.4l-0.5,1c3,2.5,3.6,3.8,3.6,8v3.2h0v35.6l0,0.4c5.1,1.2,9.5,3.4,12.8,6.4c3.2-2.8,6.8-4.9,12.1-6.9V31
	C465.1,24.4,464.5,23.2,459.7,19.1 M457.1,53.6l-8.9-3.9V30.6l6.5-5.5c1.9,1.7,2.4,3.1,2.4,7.1V53.6z"/>
<path fill="none" stroke="#231F20" stroke-width="0.3535" d="M459.7,19.1l-11.5,9.5V17h0V15c0-5.7,0.9-7.8,4.4-10l-0.2-0.9
	c-4.1,0.6-6.3,1.8-9.1,4.8c-2.7-2.1-3.7-2.7-6-3.4l-0.5,1c3,2.5,3.6,3.8,3.6,8v3.2h0v35.6l0,0.4c5.1,1.2,9.5,3.4,12.8,6.4
	c3.2-2.8,6.8-4.9,12.1-6.9V31C465.1,24.4,464.5,23.2,459.7,19.1z M457.1,53.6l-8.9-3.9V30.6l6.5-5.5c1.9,1.7,2.4,3.1,2.4,7.1V53.6z"
	/>
<rect id="SVGID_7_" x="5.5" y="2.7" fill="none" width="488.5" height="64.4"/>
</svg>
