<?xml version="1.0" encoding="utf-8"?>
<!-- Generator: Adobe Illustrator 19.0.0, SVG Export Plug-In . SVG Version: 6.00 Build 0)  -->
<!DOCTYPE svg PUBLIC "-//W3C//DTD SVG 1.1//EN" "http://www.w3.org/Graphics/SVG/1.1/DTD/svg11.dtd">
<svg version="1.1" id="Layer_1" xmlns="http://www.w3.org/2000/svg" xmlns:xlink="http://www.w3.org/1999/xlink" x="0px" y="0px"
	 viewBox="0 0 626.1 194.6" style="enable-background:new 0 0 626.1 194.6;" xml:space="preserve">
<style type="text/css">
	.st0{fill:#090909;}
	.st1{fill:#191919;}
	.st2{fill:#1D1D1D;}
</style>
<g id="qTb9qS_1_">
	<g id="XMLID_27_">
		<path id="XMLID_165_" class="st0" d="M167.9,98c-0.2-23.1,3.7-42.9,13.4-61.5C206-11.2,265.1-7.6,290.5,21.3
			c12.3,14,18.6,30.6,21.3,48.5c3.8,24.8,2.9,49.4-5.8,73.3c-7.5,20.7-20.2,37-41.9,43.6c-21.1,6.4-42.1,5.6-61.5-6.5
			c-16-10-24.3-25.6-29.4-43.1C169.2,123.6,167.6,109.7,167.9,98z M277.8,90.7c-0.3-5.4-0.4-9.9-0.8-14.3c-1.2-11.1-3-22-8.6-32
			c-5.8-10.2-14.6-15.8-26.3-16.3c-14.3-0.6-24.8,6.9-31,22.1c-7.1,17.5-7.9,35.9-7.6,54.4c0.2,12.5,1.7,24.9,7,36.4
			c6.3,13.8,16.6,21.1,32.2,20.2c14.1-0.8,23-8.4,28.2-20.9C277.7,124.2,277.6,107,277.8,90.7z"/>
		<path id="XMLID_164_" class="st0" d="M492.4,64.9c-3.8,0-7.7-0.3-11.5,0.1c-4,0.3-5.4-1.1-5.9-5.1c-1.7-11.9-6.9-21.8-18-27.7
			c-15.5-8.3-33.6-3.3-43.2,11.6c-5.9,9.2-8.4,19.5-9.6,30.1c-2.2,19.1-1.8,38.2,2.8,57c1.3,5.2,3.1,10.1,5.9,14.7
			c7.9,13.1,20,16.7,34.3,15c14.6-1.8,21.5-11.9,25.8-24.5c0.8-2.5,1.8-5.1,1.9-7.7c0.1-4.2,1.9-5.2,5.9-5.1
			c8.5,0.3,17,0.1,25.5,0.1c2.2,0,3.9,0.1,3.6,3.1c-2.6,26-17.1,52.4-45.4,60.5c-26.9,7.7-52.6,4.3-73.8-15.9
			c-11.1-10.5-16.8-24.2-19.9-38.9c-5.6-26.4-6.1-52.8,2.3-78.8c9.5-29.4,28.8-48.7,60.2-52.5c37.3-4.5,72.7,16.4,76.1,59.7
			c0.3,3.9-1.1,4.6-4.4,4.4C500.7,64.7,496.6,64.9,492.4,64.9C492.4,64.9,492.4,64.9,492.4,64.9z"/>
		<path id="XMLID_163_" class="st0" d="M519.1,94.8c0-29,0.1-58-0.1-87c0-4.2,0.7-5.7,5.4-5.6c32,0.2,64,0.2,96,0
			c4.6,0,5.7,1.4,5.5,5.7c-0.3,6-0.3,12,0,18c0.2,3.6-1,4.4-4.5,4.4c-21-0.2-42,0-63-0.2c-4.4-0.1-5.6,1-5.5,5.5
			c0.3,12.7,0.3,25.3,0,38c-0.1,4.1,1.3,4.9,5,4.9c18.3-0.2,36.7,0.1,55-0.2c4.3-0.1,5.3,1.2,5.1,5.3c-0.3,6.1-0.2,12.3,0,18.5
			c0.1,3.3-1,4.3-4.2,4.2c-18.7-0.1-37.3,0.1-56-0.1c-4-0.1-5,1.1-4.9,5c0.2,14.5,0.3,29,0,43.5c-0.1,4,1.3,4.6,4.8,4.6
			c21-0.1,42,0,63-0.2c4.1,0,5.6,0.9,5.3,5.2c-0.4,6.1-0.3,12.3,0,18.5c0.2,3.8-1,4.7-4.7,4.7c-32.7-0.1-65.3-0.2-98,0
			c-3.6,0-4.4-1.1-4.3-4.5C519.1,153.4,519.1,124.1,519.1,94.8z"/>
		<path id="XMLID_162_" class="st0" d="M108.6,131.8C119.9,89.7,131,48.3,142,6.8c0.9-3.5,2.3-4.7,6-4.6c8.7,0.3,17.3,0.2,26,0.1
			c3.1,0,4.5,0.2,3.3,4.1c-13.9,48.7-27.7,97.6-41.5,146.3c-2.8,9.9-5.8,19.7-8.4,29.6c-0.9,3.6-2.4,5.1-6.4,4.9
			c-8.7-0.3-17.3-0.4-26,0c-4.4,0.2-5.9-1.5-7-5.4C77.2,141.6,66,101.3,55,61C50,42.8,45,24.6,39.8,6.5c-1-3.5-0.5-4.3,3.1-4.2
			c9,0.2,18,0.3,27-0.1C73.7,2,75,3.5,75.8,6.9c10,39.3,20.1,78.7,30.2,118C106.6,127.1,106.8,129.4,108.6,131.8z"/>
		<path id="XMLID_161_" class="st0" d="M357.2,95.1c0,29-0.1,58,0.1,87c0,4-0.9,5.6-5.2,5.4c-8.2-0.3-16.3-0.2-24.5,0
			c-3.1,0-4.3-0.7-4.3-4.2c0.1-58.8,0.1-117.6,0-176.4c0-3.4,0.8-4.7,4.4-4.6c8.2,0.3,16.3,0.3,24.5,0c4-0.2,5,1.1,5,5
			c-0.1,28-0.1,56-0.1,84C357.2,92.5,357.2,93.8,357.2,95.1z"/>
		<path id="XMLID_157_" class="st1" d="M38,36c0,2.5,0.4,5-0.6,7.4c-1.4,3.3-3.8,5.3-6.8,2.6c-2.2-1.9-3.7,0.8-4.8,0
			c-4.1-2.8-8.4-0.2-12.4-0.8c-4.4-0.7-5-4.7-5.3-8.5c-0.3-3.2,1.3-6.8-2.8-9.1c-1-0.6-1.6-3.6,0.4-4.8c1.5-0.9,3.2-0.6,3.4,1.9
			c0.1,1.4,1.1,1.5,2.6,1.3c7.2-1.3,9.9,1,10.2,8.4c0,1-0.1,2,0,3c0,0.6,0,1.4,0.8,1.6c1.1,0.3,1.6-0.4,1.7-1.3
			c0.3-2.3,0.4-4.6,0.6-6.9c0.3-3.8,0.9-7.5,5.6-8.2c3.5-0.5,6.9,3.3,7.4,7.9C38.2,32.3,38,34.2,38,36z M34.2,34.8
			c-0.6-1.6,0.8-5-2-5c-2.3,0-0.9,3.3-1.3,5c0,0.2,0,0.3,0,0.5c0.3,1.9-1.3,5.2,1.4,5.3C34.6,40.6,33.8,37.1,34.2,34.8z M15,38.4
			c2.1-0.1,3-1.4,2.9-3.3c-0.1-1.9-1.1-3.2-3.1-3.1c-2,0.1-2.9,1.3-2.9,3.3C12,37.4,12.9,38.4,15,38.4z"/>
		<path id="XMLID_156_" class="st1" d="M9.5,166.3c-3.3-7.9-0.9-13.2,7.5-12.4c3.5,0.3,7,0.2,10.5,0c2.7-0.1,3.4,1.1,3.4,3.6
			c0,2.7-1.5,2.9-3.5,2.9c-3.2-0.1-6.3-0.2-9.5,0.1c-1.8,0.2-4.5,0.2-4.4,2.9c0.1,2.3,2.2,3,4.5,2.9c3.2-0.1,6.3,0.1,9.5-0.1
			c2.7-0.1,3.4,1.1,3.5,3.6c0.1,2.7-1.1,3.4-3.6,3.4c-8-0.1-15.9-0.1-23.9,0c-2.8,0.1-3.3-1.2-3.3-3.6c-0.1-2.7,1.1-3.5,3.6-3.3
			C5.4,166.4,7.2,166.3,9.5,166.3z"/>
		<path id="XMLID_153_" class="st2" d="M21.9,48.5c1.8,0,3.7,0.2,5.5-0.1c3.3-0.5,4,1.6,3.2,3.8c-1.1,3-0.6,5.5,0.2,8.4
			c0.9,3.6-0.1,7.1-4.3,8.4c-3.7,1.1-7.4-1.2-8.8-5.4c-0.5-1.4-0.6-2.9-0.8-4.4c-0.2-1.3,0.1-2.9-1.4-3.4c-0.5-0.2-1.6,0.4-2.1,0.9
			c-1.3,1.3-1,3,0,4.1c1.3,1.4,2.4,2.4,2,4.6c-0.4,2.9-1.4,3.4-3.8,1.9c-3.2-2.1-4.8-8-3.4-13.2c1.1-4.2,4-5.8,8.2-5.7
			C18.3,48.5,20.1,48.5,21.9,48.5z M26.6,59.3c-0.5-2.6-2.4-3.5-4.6-3.8c-1.2-0.2-1.8,0.6-1.5,1.9c0.5,2.1,1,4.4,3.7,4.5
			C25.7,61.9,26.5,60.7,26.6,59.3z"/>
		<path id="XMLID_150_" class="st1" d="M23.3,130.7c5.9,1.9,8.7,6.7,7.6,12.6c-1,5.2-5.7,8.5-12,8.2c-6.3-0.2-10.6-4-10.9-9.4
			c-0.4-6.3,2.5-10.3,8.4-11.6c2.9-0.6,5-0.4,4.6,3.4c-0.2,2.1-0.2,4.3,0,6.5c0.1,1.3-1,3.2,1.2,3.7c1.2,0.3,2.3-0.5,3-1.4
			c1.2-1.5,1.3-3.5-0.1-4.5C22.2,136.1,23,133.4,23.3,130.7z M16.9,140.7c-0.5-1.2,1-3.4-1.6-3.4c-1.7,0-2.7,1.4-2.8,3
			c-0.1,1.9,0.9,3.4,2.8,3.6C18,144.2,16.3,141.8,16.9,140.7z"/>
		<path id="XMLID_147_" class="st1" d="M23.3,2.7c6.3,2,9.4,8.1,7.3,14c-2,5.6-9.6,8.5-16,6c-5.2-2-7.5-6.5-6.4-12.5
			c0.7-4.2,5-7.7,9.7-8c2.4-0.2,3.4,0.6,3.2,3c-0.2,2.3-0.1,4.7,0,7c0.1,1.3-1,3.2,1.1,3.8c1.2,0.4,2.2-0.4,3-1.3
			c1.2-1.5,1.5-3.4,0-4.5C22.3,8.1,22.9,5.5,23.3,2.7z M16.9,13c-0.4-1.3,0.9-3.4-1.3-3.7c-2-0.2-3,1.4-3,3.2c0,1.8,1.1,3.3,3,3.4
			C17.8,16.1,16.4,14,16.9,13z"/>
		<path id="XMLID_146_" class="st2" d="M31.1,179.6c-0.1,5.6-1.9,7.5-6.8,7.6c-2.2,0.1-4.3,0-6.5,0c-1.7,0-3.4-0.5-4.1,2.2
			c-0.7,2.4-4.5,2-4.8,0.8c-0.7-3.8-3.6-3.3-5.9-3.8c-2.4-0.6-1.8-2.4-1.9-4c-0.1-1.9,1.2-2.1,2.6-2.1c2.4,0.1,4.6,0.5,4.6-3.2
			c0-1.7,2-1.3,3.2-1.3c1.6,0,2.6,0.5,2.4,2.3c-0.2,2.7,1.9,2.4,3.4,2.2c2.6-0.4,6.3,1.7,7.6-1.6c0.9-2.3,1.1-4,4-3.5
			C32.2,175.8,30.4,178.5,31.1,179.6z"/>
		<path id="XMLID_145_" class="st2" d="M20.2,110c-3.2-4.4-12.2-0.1-12.1-9.8c7.3,2.4,14.1,4.7,20.9,7c1.6,0.5,1.7,1.7,1.9,3.1
			c0.1,1.7-0.4,3-2,3.6c-6.1,2.1-12.2,4.2-18.3,6.3c-1.1,0.4-2.6,0.4-2.4-1.4c0.2-1.9-1.4-4.5,1.7-5.5C13.3,112.1,16.8,111,20.2,110
			z"/>
		<path id="XMLID_144_" class="st2" d="M16,82c4,0,8,0.1,12,0c2.2-0.1,2.9,0.9,2.8,3c-0.1,1.8,0.3,3.9-2.5,3.9c-8.7,0-17.3,0-26,0
			c-2.5,0-2.2-1.9-2.3-3.6C0,83.5,0,81.9,2.5,81.9C7,82,11.5,82,16,82C16,82,16,82,16,82z"/>
		<path id="XMLID_143_" class="st1" d="M15,71.2c4,0,7.9,0.1,11.9,0c2.7-0.1,3.8,0.8,3.9,3.6c0.1,3.2-1.4,3.4-3.9,3.4
			c-7.8-0.1-15.6-0.1-23.3,0C1.2,78.3,0,77.8,0,75c0-2.7,0.7-4,3.6-3.8C7.4,71.4,11.2,71.2,15,71.2z"/>
		<path id="XMLID_142_" class="st2" d="M19,99.1c-2.5,0-5-0.1-7.5,0C9,99.3,8,98.5,8.1,95.8c0.1-2.4,0.4-3.7,3.2-3.6
			c5.3,0.2,10.6,0.1,16,0c2.5-0.1,3.6,0.7,3.6,3.4c0.1,2.9-1.1,3.8-3.9,3.6C24.4,99,21.7,99.2,19,99.1C19,99.1,19,99.1,19,99.1z"/>
		<path id="XMLID_141_" class="st2" d="M3.8,99.1C1,99.5,0,98.4,0,95.8c0-2.3,0.3-3.7,3.2-3.7c2.5,0.1,3.7,0.7,3.5,3.4
			C6.6,97.7,6.8,99.8,3.8,99.1z"/>
	</g>
</g>
</svg>
