<?xml version="1.0" encoding="utf-8"?>
<!-- Generator: Adobe Illustrator 19.0.0, SVG Export Plug-In . SVG Version: 6.00 Build 0)  -->
<!DOCTYPE svg PUBLIC "-//W3C//DTD SVG 1.1//EN" "http://www.w3.org/Graphics/SVG/1.1/DTD/svg11.dtd">
<svg version="1.1" id="Layer_1" xmlns="http://www.w3.org/2000/svg" xmlns:xlink="http://www.w3.org/1999/xlink" x="0px" y="0px"
	 viewBox="116 146.9 488.3 196.1" style="enable-background:new 116 146.9 488.3 196.1;" xml:space="preserve">
<g>
	<path d="M308.7,185.9c0,7.5,0.2,8.7,4.3,9l2.3,0.2c0.3,0.3,0.3,1.6-0.2,1.7c-4.2-0.2-6.6-0.2-9.4-0.2s-5.4,0-9.9,0.2
		c-0.3-0.2-0.5-1.4,0-1.7l2.6-0.2c4.2-0.3,4.5-1.4,4.5-9v-32c0-2.3,0-2.3-2.1-2.3h-4.2c-3-0.2-6.9,0-8.7,1.7
		c-1.7,1.6-2.4,3.1-3.3,4.9c-0.5,0.5-1.6,0.2-1.9-0.5c1.2-3.1,2.3-7.8,2.8-10.6c0.2-0.2,1.2-0.2,1.4,0c0.3,2.3,2.8,2.3,6.1,2.3h29
		c3.8,0,4.5-0.2,5.6-2.1c0.3-0.2,1.2,0,1.2,0.2c-0.9,3-1.2,8.7-1,10.9c-0.3,0.5-1.6,0.5-1.9,0.2c-0.2-1.7-0.7-4.5-1.7-5.2
		c-1.6-1.2-4.3-1.7-8.3-1.7h-5c-2.1,0-2.1,0-2.1,2.4v31.8H308.7z"/>
	<path d="M348.3,173.6c-3.5,0-3.6,0.2-3.6,2.3V186c0,7.5,0.3,8.5,4.3,9l2.1,0.2c0.3,0.3,0.3,1.6-0.2,1.7c-3.8-0.2-6.3-0.2-9-0.2
		c-3.1,0-5.6,0.2-8.3,0.2c-0.3-0.2-0.5-1.4-0.2-1.7l1.2-0.2c4-0.7,4.2-1.4,4.2-9v-25.9c0-7.5-0.5-8.7-4.2-9l-1.9-0.2
		c-0.3-0.3-0.3-1.6,0.2-1.7c3.5,0,5.9,0.2,9,0.2c2.8,0,5.2,0,8.3-0.2c0.3,0.2,0.5,1.6,0.2,1.7l-1.4,0.2c-4.2,0.3-4.3,1.6-4.3,9v8.2
		c0,2.3,0.2,2.3,3.6,2.3h20.5c3.5,0,3.6,0,3.6-2.3v-8.2c0-7.5-0.2-8.7-4.3-9l-1.4-0.2c-0.3-0.3-0.3-1.6,0.2-1.7
		c3.3,0.2,5.7,0.2,8.7,0.2c2.8,0,5.2,0,8.5-0.2c0.3,0.2,0.5,1.6,0.2,1.7l-1.6,0.2c-4.2,0.5-4.3,1.6-4.3,9V186c0,7.5,0.2,8.5,4.3,9
		l1.7,0.2c0.3,0.3,0.3,1.6-0.2,1.7c-3.5-0.2-5.9-0.2-8.7-0.2c-3,0-5.6,0-8.7,0.2c-0.3-0.2-0.5-1.4-0.2-1.7l1.4-0.2
		c4.3-0.7,4.3-1.4,4.3-9v-10.1c0-2.1-0.2-2.3-3.6-2.3C368.8,173.6,348.3,173.6,348.3,173.6z"/>
	<path d="M396.6,160c0-7.5-0.2-8.5-4.3-9l-1.2-0.2c-0.3-0.3-0.3-1.6,0.2-1.7c3.1,0.2,5.6,0.2,8.5,0.2h13.5c4.5,0,8.9,0,9.7-0.2
		c0.3,1.2,0.9,6.4,1.2,9.6c-0.3,0.3-1.4,0.5-1.7,0.2c-1-3.3-1.7-5.9-5.4-6.8c-1.6-0.3-3.8-0.3-6.9-0.3H405c-2.1,0-2.1,0.2-2.1,3
		v14.4c0,2.1,0.2,2.1,2.4,2.1h4.2c3,0,5.2-0.2,6.1-0.3c0.9-0.3,1.4-0.7,1.7-2.4l0.5-3c0.3-0.3,1.6-0.3,1.9,0c0,1.7-0.3,4.5-0.3,7.3
		c0,2.6,0.3,5.4,0.3,6.9c-0.3,0.5-1.6,0.5-1.9,0l-0.7-2.8c-0.3-1.2-0.9-2.4-2.3-2.8c-1-0.3-2.8-0.3-5.6-0.3H405
		c-2.1,0-2.4,0-2.4,1.9v10.1c0,3.8,0.2,6.3,1.4,7.5c0.9,0.9,2.4,1.6,8.7,1.6c5.6,0,7.6-0.3,9.2-1c1.2-0.7,3.3-3.3,5-6.9
		c0.5-0.3,1.6-0.2,1.7,0.5c-0.5,2.4-2.3,8-3.3,9.9c-6.4-0.2-12.9-0.2-19.3-0.2h-6.4c-3.1,0-5.6,0-9.7,0.2c-0.3-0.2-0.5-1.4-0.2-1.7
		l2.4-0.2c4.2-0.3,4.5-1.4,4.5-9v-26.2h0V160z"/>
</g>
<g>
	<path d="M133.8,246.5c-3.5,0-3.6,0.2-3.6,2.3v10.1c0,7.5,0.3,8.5,4.3,9l2.1,0.2c0.3,0.3,0.3,1.6-0.2,1.7c-3.8-0.2-6.3-0.2-9-0.2
		c-3.1,0-5.6,0.2-8.3,0.2c-0.3-0.2-0.5-1.4-0.2-1.7l1.2-0.2c4-0.7,4.2-1.4,4.2-9V233c0-7.5-0.5-8.7-4.2-9l-1.9-0.2
		c-0.3-0.3-0.3-1.6,0.2-1.7c3.5,0,5.9,0.2,9,0.2c2.8,0,5.2,0,8.3-0.2c0.3,0.2,0.5,1.6,0.2,1.7l-1.4,0.2c-4.2,0.3-4.3,1.6-4.3,9v8.2
		c0,2.3,0.2,2.3,3.6,2.3h20.5c3.5,0,3.6,0,3.6-2.3V233c0-7.5-0.2-8.7-4.3-9h-1.4c-0.3-0.3-0.3-1.6,0.2-1.7c3.3,0.2,5.7,0.2,8.7,0.2
		c2.8,0,5.2,0,8.5-0.2c0.3,0.2,0.5,1.6,0.2,1.7l-1.6,0.2c-4.2,0.3-4.3,1.6-4.3,9v25.9c0,7.5,0.2,8.5,4.3,9l1.7,0.2
		c0.3,0.3,0.3,1.6-0.2,1.7c-3.5-0.2-5.9-0.2-8.7-0.2c-3,0-5.6,0-8.7,0.2c-0.3-0.2-0.5-1.4-0.2-1.7l1.4-0.2c4.3-0.7,4.3-1.4,4.3-9
		V249c0-2.1-0.2-2.3-3.6-2.3h-20.4V246.5z"/>
	<path d="M216.2,240.3c0-4.5-0.2-12.7-1.4-14.8c-0.5-0.9-1.7-1.4-3.6-1.6l-1.7-0.2c-0.3-0.5-0.3-1.4,0.2-1.7
		c2.8,0.2,5.4,0.2,8.2,0.2c3,0,4.9,0,7.5-0.2c0.5,0.3,0.5,1.2,0.2,1.7l-1.7,0.2c-1.7,0.2-3.1,0.9-3.6,1.7c-1,2.4-1,10.6-1,14.6v8.2
		c0,6.3-1,12.9-5,17.2c-3.1,3.3-8.3,5.2-13.7,5.2c-4.9,0-9.9-0.9-13.4-4c-3.8-3.1-5.6-8.3-5.6-16.8v-17c0-7.5-0.2-8.7-4.3-9
		l-1.7-0.2c-0.3-0.3-0.3-1.6,0.2-1.7c3.6,0.2,6.1,0.2,8.9,0.2c3,0,5.4,0,8.9-0.2c0.3,0.2,0.5,1.4,0.2,1.7l-1.7,0.2
		c-4.2,0.3-4.3,1.6-4.3,9v15.5c0,11.5,3.6,19.1,14.6,19.1c10.4,0,14.4-8.2,14.4-19.1L216.2,240.3L216.2,240.3z"/>
	<path d="M241.4,242.5c0,1.9,0.2,1.9,2.4,1.9h4.9c3,0,5.2-0.2,6.1-0.3c0.9-0.3,1.4-0.7,1.7-2.4l0.7-3c0.3-0.3,1.6-0.3,1.9,0
		c0,1.7-0.3,4.5-0.3,7.3c0,2.6,0.3,5.4,0.3,6.9c-0.3,0.3-1.4,0.3-1.9,0l-0.7-2.8c-0.3-1.2-0.9-2.3-2.3-2.8c-1-0.3-2.8-0.3-5.6-0.3
		h-4.9c-2.1,0-2.4,0-2.4,1.9v9.9c0,7.5,0.2,8.7,4.3,9l2.4,0.2c0.3,0.3,0.3,1.6-0.2,1.7c-4.2-0.2-6.6-0.2-9.6-0.2c-3.1,0-5.6,0-9,0.2
		c-0.3-0.2-0.5-1.4-0.2-1.7l1.7-0.2c4.2-0.5,4.3-1.4,4.3-9v-25.9c0-7.5-0.2-8.5-4.3-9l-1.2-0.2c-0.3-0.3-0.3-1.6,0.2-1.7
		c3,0.2,5.4,0.2,8.3,0.2h13.2c4.5,0,8.7,0,9.7-0.2c0,3.3,0,6.8,0.2,9.4c-0.2,0.3-1.2,0.7-1.7,0.2c-0.5-3.3-1.4-5.9-5-6.8
		c-1.6-0.3-4-0.3-6.9-0.3h-4.3c-2.1,0-2.1,0.2-2.1,3v15.1h0.3V242.5z"/>
	<path d="M280.1,242.5c0,1.9,0.2,1.9,2.4,1.9h4.9c3,0,5.2-0.2,6.1-0.3c0.9-0.3,1.4-0.7,1.7-2.4l0.7-3c0.3-0.3,1.6-0.3,1.9,0
		c0,1.7-0.3,4.5-0.3,7.3c0,2.6,0.3,5.4,0.3,6.9c-0.3,0.3-1.4,0.3-1.9,0l-0.7-2.8c-0.3-1.2-0.9-2.3-2.3-2.8c-1-0.3-2.8-0.3-5.6-0.3
		h-5c-2.1,0-2.4,0-2.4,1.9v9.9c0,7.5,0.2,8.7,4.3,9l2.4,0.2c0.3,0.3,0.3,1.6-0.2,1.7c-4.2-0.2-6.6-0.2-9.6-0.2c-3.1,0-5.6,0-9,0.2
		c-0.3-0.2-0.5-1.4-0.2-1.7l1.7-0.2c4.2-0.5,4.3-1.4,4.3-9v-25.9c0-7.5-0.2-8.5-4.3-9l-1.2-0.2c-0.3-0.3-0.3-1.6,0.2-1.7
		c3,0.2,5.4,0.2,8.3,0.2H290c4.5,0,8.7,0,9.7-0.2c0,3.3,0,6.8,0.2,9.4c-0.2,0.3-1.2,0.7-1.7,0.2c-0.5-3.3-1.4-5.9-5-6.8
		c-1.6-0.3-4-0.3-6.9-0.3H282c-2.1,0-2.1,0.2-2.1,3v15.1h0.2V242.5z"/>
	<path d="M312.8,233.1c0-7.6-0.2-8.9-4.3-9.2l-1.7-0.2c-0.3-0.3-0.3-1.6,0.2-1.7c3.6,0.2,6.1,0.2,9,0.2c3,0,5.4,0,8.9-0.2
		c0.3,0.2,0.5,1.6,0.2,1.7l-1.7,0.2c-4.2,0.3-4.3,1.6-4.3,9.2v25.5c0,7.6,0.2,8.7,4.3,9l1.7,0.2c0.3,0.3,0.3,1.6-0.2,1.7
		c-3.6-0.2-6.1-0.2-8.9-0.2c-3,0-5.4,0-9,0.2c-0.3-0.2-0.5-1.4-0.2-1.7l1.7-0.2c4.2-0.5,4.3-1.6,4.3-9V233.1z"/>
	<path d="M375.5,257.5c0,2.1,0,10.8,0.2,12.5c-0.2,0.3-0.5,0.9-1.4,0.9c-0.9-1.2-3-3.6-9.2-10.8l-16.7-18.9
		c-1.9-2.3-6.8-8.2-8.3-9.7h-0.2c-0.3,0.9-0.3,2.4-0.3,4.7v15.6c0,3.3,0,12.7,1.2,14.8c0.3,0.9,1.9,1.2,3.6,1.4l2.3,0.2
		c0.3,0.5,0.3,1.4-0.2,1.7c-3.3-0.2-5.7-0.2-8.3-0.2c-3,0-4.9,0-7.5,0.2c-0.5-0.3-0.5-1.4-0.2-1.7l1.9-0.2c1.6-0.2,2.8-0.7,3.1-1.4
		c1-2.6,0.9-11.3,0.9-14.8V231c0-2.1,0-3.5-1.6-5.2c-1-1-2.8-1.6-4.5-1.7l-1.2-0.2c-0.3-0.3-0.3-1.6,0.2-1.7c3,0.2,6.8,0.2,8.2,0.2
		c1.2,0,2.4,0,3.3-0.2c1.4,3.6,9.9,13.2,12.3,15.8l6.9,7.8c4.9,5.6,8.5,9.6,11.8,13h0.2c0.3-0.3,0.3-1.6,0.3-3v-15.5
		c0-3.3,0-12.7-1.4-14.8c-0.3-0.7-1.6-1-4.5-1.4l-1.2-0.2c-0.5-0.3-0.3-1.6,0.2-1.7c3.3,0.2,5.7,0.2,8.5,0.2c3.1,0,4.9,0,7.5-0.2
		c0.5,0.3,0.5,1.4,0.2,1.7l-1,0.2c-2.3,0.3-3.6,0.9-4,1.6c-1.2,2.6-1,11.5-1,14.8L375.5,257.5L375.5,257.5z"/>
	<path d="M430.4,262.3c0,3,0.3,4.5,1.7,5c0.2,0.2,0.2,0.7,0,0.9c-0.9,0-2.1,0.3-3.5,0.7c-3.8,1-9,1.9-12.9,1.9
		c-8.5,0-16.3-2.4-21.9-8c-4.3-4.3-6.6-9.9-6.6-16.3c0-6.1,2.1-12.3,6.4-17c4.9-5,12-8.3,22.7-8.3c4.2,0,7.8,0.9,9,1
		c1.4,0.3,3.6,0.9,4.5,0.7c0,2.4,0.3,6.1,1,10.4c-0.2,0.5-1.6,0.7-1.9,0.2c-2.1-7.8-7.5-10.2-14.8-10.2c-13.9,0-20,9.9-20,20.7
		c0,13.7,7.1,24.7,21.5,24.7c4.5,0,7.1-0.9,7.8-2.1c0.3-0.5,0.7-1.7,0.7-4.2v-3c0-6.1-0.2-6.4-4.7-6.9l-3.1-0.3
		c-0.5-0.3-0.5-1.6,0-1.7c2.1,0.2,6.1,0.2,10.2,0.2c2.8,0,5.2,0,7.6-0.2c0.5,0.3,0.5,1.4,0,1.7l-1.2,0.2c-3,0.3-3.1,2.4-3.1,6.1v4
		h0.6V262.3z"/>
	<path d="M463.9,258.8c0,7.5,0.2,8.7,4.3,9l2.3,0.2c0.3,0.3,0.3,1.6-0.2,1.7c-4.2-0.2-6.6-0.2-9.4-0.2c-3,0-5.4,0-9.9,0.2
		c-0.3-0.2-0.5-1.4,0-1.7l2.6-0.2c4.2-0.3,4.5-1.4,4.5-9v-32c0-2.3,0-2.3-2.1-2.3h-4c-3.1,0-6.9,0.2-8.9,1.7
		c-1.7,1.6-2.4,3.1-3.3,4.9c-0.5,0.3-1.6,0-1.9-0.5c1.2-3.3,2.3-7.8,2.8-10.6c0.2-0.2,1.2-0.2,1.4,0c0.3,2.3,2.8,2.3,6.1,2.3h29
		c3.8,0,4.5-0.2,5.6-2.1c0.3-0.2,1.2,0,1.2,0.2c-0.9,3-1.2,8.7-1,10.9c-0.3,0.5-1.6,0.5-1.9,0.2c-0.2-1.7-0.7-4.5-1.7-5.2
		c-1.6-1.2-4.3-1.7-8.3-1.7h-5c-2.1,0-2.1,0-2.1,2.4v31.8H463.9z"/>
	<path d="M485.9,246.5c0-14.4,10.8-25.4,25.5-25.4c16.5,0,24.8,12,24.8,24.7c0,14.4-11.1,25-24.8,25
		C495.5,270.8,485.9,259.4,485.9,246.5z M529,247.9c0-11.8-5.2-24.7-18.9-24.7c-7.5,0-17.2,5-17.2,20.8c0,10.6,5.2,24.3,19.3,24.3
		C520.8,268.6,529,262.1,529,247.9z"/>
	<path d="M587.3,257.5c0,2.1,0,10.8,0.2,12.5c-0.2,0.3-0.5,0.9-1.4,0.9c-0.9-1.2-3-3.6-9.2-10.8L560.2,241c-1.9-2.3-6.8-8.2-8.3-9.7
		h-0.2c-0.3,0.9-0.3,2.4-0.3,4.7v15.6c0,3.3,0,12.7,1.2,14.8c0.3,0.9,1.9,1.2,3.6,1.4l2.3,0.2c0.3,0.5,0.3,1.4-0.2,1.7
		c-3.3-0.2-5.7-0.2-8.3-0.2c-3,0-4.9,0-7.5,0.2c-0.5-0.3-0.5-1.4-0.2-1.7l1.9-0.2c1.6-0.2,2.8-0.7,3.1-1.4c1-2.6,0.9-11.3,0.9-14.8
		v-20.7c0-2.1,0-3.5-1.6-5.2c-1-1-2.8-1.6-4.5-1.7l-1.2-0.2c-0.3-0.3-0.3-1.6,0.2-1.7c3,0.2,6.8,0.2,8.2,0.2c1.2,0,2.4,0,3.3-0.2
		c1.4,3.6,9.9,13.2,12.3,15.8l6.9,7.8c4.9,5.6,8.5,9.6,11.8,13h0.2c0.3-0.3,0.3-1.6,0.3-3v-15.4c0-3.3,0-12.7-1.4-14.8
		c-0.3-0.7-1.6-1-4.5-1.4l-1.2-0.2c-0.5-0.3-0.3-1.6,0.2-1.7c3.3,0.2,5.7,0.2,8.5,0.2c3.1,0,4.9,0,7.5-0.2c0.5,0.3,0.5,1.4,0.2,1.7
		l-1,0.2c-2.3,0.3-3.6,0.9-4,1.6c-1.2,2.6-1,11.5-1,14.8L587.3,257.5L587.3,257.5z"/>
</g>
<g>
	<path d="M280.4,332.1c0,7.5,0.2,8.5,4.7,9l1.9,0.2c0.3,0.3,0.3,1.6-0.2,1.7c-4.2-0.2-6.4-0.2-9.4-0.2s-5.6,0-8.7,0.2
		c-0.3-0.2-0.5-1.4-0.2-1.7l1.6-0.2c4.2-0.5,4.3-1.4,4.3-9v-26.4c0-6.1-0.2-7.3-3.3-7.6l-2.6-0.3c-0.5-0.3-0.3-1.6,0.2-1.7
		c3.8-0.5,8.2-0.5,14.2-0.5c5.9,0,10.4,0.9,13.7,3c3.3,2.1,5.7,5.7,5.7,10.8c0,6.6-4.2,9.9-7.1,11.5c-3.1,1.6-6.9,2.1-9.9,2.1
		c-0.5-0.2-0.5-1.2,0-1.4c7.8-1.4,10.6-5.7,10.6-12c0-6.9-4.2-11.5-11.5-11.5c-3.8,0-3.8,0.3-3.8,2.6v31.6h-0.2V332.1z"/>
	<path d="M308,319.8c0-14.4,10.8-25.4,25.5-25.4c16.5,0,24.8,12,24.8,24.7c0,14.4-11.1,25-24.8,25C317.6,344.1,308,332.6,308,319.8z
		 M351.2,321.2c0-11.8-5.2-24.7-18.9-24.7c-7.5,0-17.2,5-17.2,20.8c0,10.6,5.2,24.3,19.3,24.3C343.1,341.8,351.2,335.4,351.2,321.2z
		"/>
	<path d="M377.8,344.1c-6.1,0-9.9-1.9-11.1-2.6c-0.9-1.6-1.7-6.6-1.9-10.1c0.3-0.5,1.4-0.7,1.7-0.2c1,3.6,4,10.8,12.3,10.8
		c6.1,0,9-4,9-8.2c0-3.1-0.7-6.6-5.9-10.1l-6.8-4.5c-3.6-2.4-7.8-6.4-7.8-12.3c0-6.8,5.4-12.3,14.6-12.3c2.3,0,4.9,0.3,6.6,0.9
		c0.9,0.3,1.9,0.3,2.4,0.3c0.7,1.7,1.2,5.7,1.2,8.7c-0.3,0.3-1.4,0.7-1.7,0.2c-0.9-3.5-3-8.2-9.7-8.2c-6.9,0-8.5,4.7-8.5,8
		c0,4.2,3.5,7.1,6.1,8.9l5.7,3.6c4.5,2.8,9,6.9,9,13.7C393.1,338.7,387,344.1,377.8,344.1z"/>
	<path d="M423.1,332.1c0,7.5,0.2,8.7,4.3,9l2.3,0.2c0.3,0.3,0.3,1.6-0.2,1.7c-4.2-0.2-6.6-0.2-9.4-0.2s-5.4,0-9.9,0.2
		c-0.3-0.2-0.5-1.4,0-1.7l2.6-0.2c4.2-0.3,4.5-1.4,4.5-9v-32c0-2.3,0-2.3-2.1-2.3h-4c-3.1,0-6.9,0.2-8.9,1.7
		c-1.7,1.6-2.4,3.1-3.3,4.9c-0.5,0.3-1.6,0-1.9-0.5c1.2-3.3,2.3-7.8,2.8-10.6c0.2-0.2,1.2-0.2,1.4,0c0.3,2.3,2.8,2.3,6.1,2.3h29
		c3.8,0,4.5-0.2,5.6-2.1c0.3-0.2,1.2,0,1.2,0.2c-0.9,3-1.2,8.7-1,10.9c-0.3,0.5-1.6,0.5-1.9,0.2c-0.2-1.7-0.7-4.5-1.7-5.2
		c-1.7-1.2-4.3-1.7-8.3-1.7h-5c-2.1,0-2.1,0-2.1,2.4v31.8H423.1z"/>
</g>
</svg>
