<?xml version="1.0" encoding="utf-8"?>
<!-- Generator: Adobe Illustrator 19.0.0, SVG Export Plug-In . SVG Version: 6.00 Build 0)  -->
<!DOCTYPE svg PUBLIC "-//W3C//DTD SVG 1.1//EN" "http://www.w3.org/Graphics/SVG/1.1/DTD/svg11.dtd">
<svg version="1.1" id="Layer_1" xmlns="http://www.w3.org/2000/svg" xmlns:xlink="http://www.w3.org/1999/xlink" x="0px" y="0px"
	 viewBox="0 0 2025.2 984.1" style="enable-background:new 0 0 2025.2 984.1;" xml:space="preserve">
<style type="text/css">
	.st0{stroke:#000000;stroke-width:2;stroke-miterlimit:10;}
</style>
<g id="AcIZkz_1_">
	<g id="XMLID_53_">
		<path id="XMLID_6_" d="M988.1,13.1C724.6,13.1,511,226.7,511,490.2s213.6,477.1,477.1,477.1s477.1-213.6,477.1-477.1
			S1251.6,13.1,988.1,13.1z M1431.7,498.1c-14.4,11.6-28.7,23.2-43.3,34.7c-2.8,2.2-3.3,3.4-0.8,6.4c13.2,15.8,26.2,31.9,39.5,48.3
			c-13.5,6.8-26.8,13.6-40,20.3c-5.3,2.7-10.6,5.6-16,8c-3.1,1.4-3.3,2.6-1.7,5.5c9.1,17.3,17.9,34.8,27,52.2c1.6,3,1.5,3.9-2.1,4.8
			c-18.8,4.7-37.6,9.8-56.3,14.7c-3,0.8-4.3,1.4-3.2,5.2c5.4,18.8,10.3,37.8,15.6,56.6c0.9,3.4,0.6,4.1-3,4.3
			c-19.5,0.8-38.9,1.9-58.4,2.7c-3.1,0.1-4.2,0.8-4,4.2c1.2,19.5,2.1,38.9,3.3,58.4c0.2,3.8-0.9,4.3-4.3,3.8
			c-19-3.2-38.1-6.1-57.1-9.5c-3.5-0.6-4.4-0.1-5,3.5c-2.9,20.5-6.2,41-9.4,62c-15.1-5.9-29.9-11.6-44.7-17.4
			c-4.6-1.8-9.4-3.4-13.8-5.6c-3.2-1.6-4.1-0.2-5.1,2.5c-6.8,18.3-13.8,36.6-20.7,54.9c-0.5,1.2-0.7,2.5-1.9,3.6
			c-17.2-11.3-34.4-22.6-51.5-34.1c-3.2-2.2-4.4-1.7-6.3,1.4c-10.1,16.2-20.6,32.2-30.7,48.4c-2.4,3.9-3.7,3.5-6.6,0.5
			c-13.2-13.7-26.7-27.1-39.9-40.7c-2.5-2.6-3.8-2.9-6.5-0.1c-13.4,13.9-27.1,27.5-40.6,41.4c-2.5,2.6-3.5,2.6-5.5-0.6
			c-10.3-16.5-21-32.7-31.3-49.2c-1.9-3-3.1-3.2-6-1.2c-16,10.8-32.2,21.2-48.2,32c-3.1,2.1-4.2,2.1-5.6-1.7
			c-6.7-18.2-13.8-36.3-20.4-54.5c-1.2-3.4-2.5-3.7-5.5-2.5c-17.9,7.1-35.8,14-53.7,21.1c-3.4,1.4-4.7,1.8-5.3-2.9
			c-2.6-19.4-5.8-38.8-8.7-58.2c-0.4-3-1.4-3.3-4.2-2.8c-20.5,3.5-41,6.8-62.2,10.3c0.6-11.4,1.2-22.5,1.8-33.6
			c0.5-10,1-20,1.7-29.9c0.2-2.6-0.6-3.3-3.2-3.4c-19.6-0.8-39.3-2-58.9-2.7c-3.8-0.1-4.2-0.9-3.2-4.5c5.3-18.7,10.1-37.5,15.4-56.1
			c1.2-4-0.1-4.7-3.4-5.5c-18.8-4.8-37.5-10-56.3-14.7c-3.3-0.8-3.6-1.6-2.1-4.4c9-17.2,17.7-34.6,26.8-51.7c1.8-3.3,1.7-4.7-2-6.5
			c-18.5-9.1-36.8-18.5-55.4-27.9c11.7-14.4,23.3-28.5,34.8-42.7c2.4-3,7-5.9,6.4-9c-0.5-2.9-5.2-5.1-8.2-7.5
			c-12.8-10.3-25.6-20.8-38.6-30.9c-4-3.1-3.3-4.6,0.2-7.3c14.7-11.5,29.1-23.4,43.7-34.9c3.1-2.4,3.7-3.8,0.9-7.2
			c-13.2-15.7-26-31.6-39.2-47.9c15.6-7.9,31-15.6,46.3-23.4c4.3-2.2,10.9-3.6,12.1-6.9c1.4-3.9-3.5-8.7-5.7-13.1
			c-7.2-14.2-14.4-28.4-21.9-42.5c-1.6-3.1-1.4-3.9,2.2-4.7c18.8-4.7,37.6-9.8,56.3-14.7c3.1-0.8,4.3-1.5,3.2-5.2
			c-5.4-18.8-10.2-37.8-15.5-56.6c-1-3.5-0.4-4.1,3.1-4.2c19.5-0.8,38.9-1.9,58.4-2.7c3.3-0.1,4.1-1,3.9-4.3
			c-1.2-19.5-2.1-38.9-3.3-58.4c-0.2-3.8,0.9-4.3,4.3-3.7c19.2,3.3,38.4,6.2,57.5,9.6c3.6,0.6,4-0.5,4.5-3.5
			c3-20.5,6.2-41.1,9.4-62.1c13.5,5.3,26.7,10.4,40,15.6c6.2,2.4,12.4,4.7,18.5,7.4c3.1,1.4,4.1,0.5,5.2-2.4
			c6.7-18.2,13.6-36.3,20.5-54.5c0.5-1.4,1.1-2.7,1.8-4.4c17.3,11.4,34.4,22.5,51.4,34c3.4,2.3,4.8,2.2,7.1-1.4
			c9.9-16,20.1-31.7,30.3-47.5c1-1.5,1.5-3.4,2.2-3.1c14.9,14.3,29.9,28.5,44.6,43c2.5,2.4,3.7,2.5,6.2,0
			c13.3-13.8,27-27.2,40.2-41.1c3.2-3.4,4.4-2.6,6.5,0.8c10,15.9,20.3,31.6,30.2,47.6c2.1,3.4,3.4,4.4,7.3,1.8
			c16.9-11.5,34-22.6,51.4-34c6.2,16.3,12.1,32.3,18.2,48.2c1.8,4.7,2.2,11.9,6.1,13.4c3.4,1.3,9.1-2.8,13.7-4.6
			c14.5-5.7,29-11.4,43.6-17c1.4-0.5,2.6-1.4,4.3-1.2c3.1,20.6,6.3,41.1,9.3,61.6c0.5,3.2,1.1,4.1,4.6,3.4
			c18.8-3.3,37.7-6.3,56.6-9.5c3.7-0.6,5.5-0.5,5.1,4.3c-1.3,19.3-2.2,38.6-3.3,57.9c-0.2,3,0.4,3.9,3.6,4.1
			c19.5,0.8,38.9,1.9,58.4,2.7c3.5,0.1,4.5,0.5,3.4,4.4c-5.4,18.8-10.2,37.8-15.6,56.6c-1,3.5,0.1,4.3,2.9,5
			c18.6,4.8,37.2,9.9,55.9,14.5c4.7,1.2,4.3,2.6,2.5,6.1c-8.8,16.7-17.2,33.7-26.2,50.4c-2.1,3.9-1.2,5.1,2.4,6.8
			c18.3,9,36.5,18.3,55.1,27.7c-10.2,12.6-20.3,24.9-30.4,37.3c-3.2,3.9-6.2,7.9-9.6,11.5c-2.1,2.3-1.8,3.5,0.6,5.4
			c14.8,11.7,29.4,23.5,44,35.3C1437,493.8,1437,493.8,1431.7,498.1z"/>
		<path id="XMLID_305_" d="M941.9,358.9c19.4-8.6,38.1-16.5,57.5-25.2c8.6-4.3,12.9-3.6,12.2,7.2c-0.7,38.1-0.7,76.9-0.7,115
			c0,7.9-2.9,11.5-9.3,15.1c-20.1,9.3-39.5,20.1-58.9,29.5c-7.9,3.6-8.6,7.2-1.4,12.2c28,21.6,58.9,30.9,94.2,22.3
			c11.5-2.9,20.1-8.6,18.7-23.7c-1.4-15.1-1.4-30.2,0-44.6c1.4-19.4-0.7-36.7-18.7-48.2c-6.5-4.3-7.9-9.3-0.7-13.7
			c29.5-19.4,17.3-48.9,19.4-75.5c0.7-5-2.9-5.8-6.5-5.8c-36.7-6.5-69-26.6-106.4-30.2c-4.3-0.7-8.6-1.4-12.2-1.4
			c-30.9-2.9-41.7,5.8-43.8,36.7c-27.3-15.1-33.1-43.1-13.7-66.9c33.1-39.5,66.9-41,122.2-23c17.3,5.8,35.2,12.2,52.5,17.3
			c8.6,2.2,16.5,1.4,24.4-0.7c15.8-5,18.7-12.9,10.1-27.3c34.5,1.4,51.8,31.6,33.8,61.1c-9.3,15.1-20.8,28-39.5,30.9
			c-12.9,1.4-17.3,8.6-15.8,20.8c0.7,5,0.7,10.8,0,15.8c-2.9,20.1,2.9,35.9,21.6,46c10.1,5.8,12.9,12.2,0,18
			c-19.4,9.3-24.4,25.2-22.3,45.3c1.4,17.3,0,34.5,0,55.4c21.6-15.1,36.7-33.8,53.9-51.8c0,84.1-80.5,143-161,119.3
			c-71.9-20.8-117.2-95.6-98.5-166.8c14.4-54.6,54.6-87,104.9-107.8c-13.7,18-33.1,30.9-43.8,51.8c-1.4,4.3-4.3,7.9-2.9,12.9
			c-16.5,37.4-8.6,73.3,8.6,107.8c2.9,5,2.9,15.1,12.2,11.5c7.9-2.9,18-5,17.3-18.7c-0.7-38.1,0-76.9,0-115
			C946.9,362.5,944.1,360.4,941.9,358.9z"/>
		<g id="XMLID_57_">
			<path id="XMLID_315_" d="M1077.9,616.8c7.9,0.2,17.6-0.4,27.3,0.5c26.2,2.3,31.2,28,21.1,43c-4.2,6.1-10.4,9.6-17.9,10.8
				c-6.2,1-12.6,0.6-18.9,0.6c-1.8,0-2.9,0.4-2.5,2.4c0,0.1,0,0.2,0,0.4c0.1,2.4-1,5.4,0.5,6.9c1.3,1.4,4.3,0.5,6.6,0.5
				c1.8,0,2.4,0.6,2.4,2.4c-0.1,4.7-0.1,9.2,0,13.9c0,1.7-0.5,2.2-2.2,2.2c-14.5,0-29,0-43.5,0c-1.6,0-2.2-0.4-2.2-2
				c0.1-4.7,0.1-9.5,0-14.1c0-1.7,0.5-2,2.2-2.2c5.5-0.1,5.5-0.1,5.5-5.5c0-12.7-0.1-25.4,0.1-38.1c0-2.6-0.7-3.1-3.1-3
				c-4.6,0.1-4.6,0-4.6-4.7c0-3.7,0.1-7.3,0-11c-0.1-2,0.5-2.6,2.6-2.6C1059.6,616.8,1067.9,616.8,1077.9,616.8z M1087.2,645
				c0,2.8,0.1,5.5,0,8.1c0,1.6,0.6,1.9,2,2c7.8,0.5,12.3-4.3,11.4-12c-0.6-5.4-7.5-9.9-12.5-8.1c-1.2,0.5-0.8,1.3-0.8,2
				C1087,639.7,1087.2,642.3,1087.2,645z"/>
			<path id="XMLID_314_" d="M750.3,632.5c0,4.4-0.1,8.9,0,13.2c0.1,2.2-0.5,3.1-2.8,3c-3.8-0.1-7.8-0.1-11.6,0
				c-1.6,0-2.5-0.2-2.6-2.2c-0.1-1.8-0.8-3.7-1.6-5.4c-1.3-3.5-3.4-6.4-7.5-6.7c-4.7-0.5-8.1,1.4-10.7,5.4c-5.6,9-5.3,23.1,1.2,31.5
				c5.9,7.7,15.6,9.8,24.3,6.5c3.2-1.2,6.1-3.1,9.2-4.8c1.3-0.7,1.9-0.7,1.9,1c0,6.4,0,12.8,0,19.2c0,1.2-0.5,1.9-1.6,2.4
				c-16.9,7.7-33.8,9-50.3-0.7c-10.9-6.5-16.4-16.8-18.6-29c-1.4-9.1-1-18.1,1.8-27.1c4.1-13.2,15.9-21.6,29-23.4
				c7.2-1,14-0.2,20.6,2.8c1.1,0.5,2.2,1.2,2.4-0.8c0.1-1,1.2-0.7,1.8-0.7c4.2,0,8.4,0,12.6,0c1.8,0,2.4,0.7,2.3,2.4
				C750.3,623.4,750.3,627.9,750.3,632.5z"/>
			<path id="XMLID_313_" d="M1255.5,677.7c0,7.3-0.1,13.5,0,19.8c0,2-0.6,2.6-2.6,2.6c-8.3-0.1-16.7-0.1-24.9,0
				c-1.8,0-2.4-0.5-2.3-2.3c0.1-3.4,0.1-6.7,0-10.1c-0.1-1.8,0.2-2.9,2.4-2.5c2,0.4,2.4-0.6,2.4-2.5c-0.1-16.2-0.1-32.4,0-48.5
				c0-2-0.6-2.9-2.6-2.5c-1.8,0.2-2.2-0.6-2-2.2c0.1-3.6,0.1-7.2,0-10.7c0-1.4,0.4-2.2,1.9-2c8.6,0.1,17.3,0.1,25.9,0
				c2.4,0,2,1.4,2,2.9c0,16.5,0,33,0,49.5c0,1.1,0,2.3,0,4.1c4.9-4.4,9.5-8.4,14-12.5c-0.4-0.2-0.5-0.5-0.6-0.5
				c-6.6-0.2-6.6-0.2-6.6-6.8c0-2.6-1.2-6,0.5-7.5s5-0.5,7.5-0.5c7.2-0.1,14.3,0,21.4-0.1c2.3,0,2.9,0.7,2.8,2.9
				c-0.1,3.4-0.1,6.7,0,10.1c0,1.6-0.5,2.3-1.9,1.9c-3.5-0.7-5.6,1.4-7.8,3.6c-2,2-5.8,4.1-5.9,6.2c-0.1,2.2,3.4,4.4,5.4,6.6
				c2.2,2.4,4.4,4.8,6.7,7.2c0.6,0.6,1.1,1.8,2.3,1.6c3.6-0.7,3.4,1.7,3.2,4c-0.1,2.9-0.1,5.6,0,8.5c0.1,2-0.7,2.4-2.5,2.4
				c-5.5-0.1-11.1-0.1-16.7,0c-1.8,0-2.9-0.5-4.1-1.8C1267.7,691.6,1262,685,1255.5,677.7z"/>
			<path id="XMLID_312_" d="M849.7,679.8c0-5.8,0-11.5,0-17.4c0-1.7-0.4-2.6-2.3-2.4c-1.8,0.2-2.4-0.7-2.4-2.4
				c0.1-3.5,0.1-6.9,0-10.4c0-1.6,0.5-2.4,2.2-2.2c2,0.2,2.5-0.7,2.5-2.5c-0.1-3.8,0.1-7.8-0.1-11.6c-0.1-2.4,0.8-3,3.1-3
				c6.5,0.1,13.1,0.1,19.5,0c2.2,0,3,0.6,2.9,2.9c-0.1,3.8,0,7.8-0.1,11.6c-0.1,2,0.6,2.8,2.6,2.8c4.6,0,4.6,0.1,4.6,4.7
				c0,2.5-0.1,5,0,7.5c0.1,2-0.5,2.8-2.6,2.8c-4.7,0-4.7,0.1-4.7,4.7c0,5.6,0.1,11.4,0,17c0,2.3,0.5,3.1,2.9,3.1
				c4.7-0.1,4.3-0.8,4.3,4.3c0,2.9-0.1,5.6,0,8.5c0,1.6-0.5,2.3-2.2,2.2c-9.5-0.1-18.9-0.1-28.4,0c-1.9,0-2.3-0.8-2.3-2.5
				C849.7,691.6,849.7,685.7,849.7,679.8z"/>
			<path id="XMLID_311_" d="M977.4,690.7c0-2.3,0.1-4.7,0-6.9c-0.1-1.6,0.5-2.4,2.2-2.2c1.1,0.1,2.2,0.1,3.1,0
				c3.4-0.4,6.1,0,7.8,3.8c1.3,3.2,4.7,3.7,7.8,3.1c3.5-0.6,4.8-4.2,2.6-6.9c-1-1.2-2.2-1.9-3.5-2.6c-3.7-1.8-7.3-3.7-10.9-5.5
				c-10.8-5.6-10.8-20,0.4-26.5c6.6-3.8,13.5-3.7,20.7-1.6c1.7,0.5,3,1.7,5.5,0c2.3-1.6,6.4-0.4,9.6-0.2c1,0,0.8,1.1,0.8,1.8
				c0,4.7,0,9.2,0,13.9c0,1.3-0.5,1.9-1.8,1.9c-1,0-1.9-0.1-2.9,0c-3.5,0.4-6,0-7.2-4.2c-1.1-3.7-3.8-4.7-7.2-4.1
				c-1.8,0.4-2.8,1.4-3.2,3c-0.6,1.4,0,2.6,1,3.7c1.2,1.3,2.9,2,4.4,2.9c4.2,2,8.7,3.6,12.7,6.2c10.2,6.6,9.7,21.4-1,27.6
				c-6.4,3.7-13.2,3.7-20.1,2.4c-2-0.4-4.1-1.2-6.1-1.7c-1.3-0.4-3.1-2.4-4,0.8c-0.2,0.8-1.9,0.4-3,0.4c-7.9,0-7.9,0-7.9-7.9
				C977.4,691.6,977.4,691.1,977.4,690.7z"/>
			<path id="XMLID_310_" d="M960.4,648.3c-0.4-2.8,0.7-3.5,2.8-3.2c3.2,0.4,7.4-1.3,9.3,0.7c1.8,1.9,0.5,6,0.5,9.1
				c0.1,3.1,0,6.4,0,9.5c0,1.7-0.5,2.3-2.2,2.2c-1.2-0.1-2.5-0.1-3.8,0c-3.6,0.4-6.4,0.1-7.3-4.3c-0.5-2.3-2.4-3.4-4.8-3.2
				c-2.6,0-4.7,1.1-5.9,3.5c-3.4,6.4-2.4,12.5,1.8,18c4,5.3,9.6,5.4,15.3,4.3c0.8-0.1,1.7-0.4,2.4-0.6c4.3-1.2,4.3-1.2,4.3,3.1
				c0,2.2-0.2,4.2,0,6.4c0.5,3-0.8,4.3-3.6,5.2c-8,2.5-16.3,3.4-24.6,1.7c-13.3-2.6-22.5-14-23-27.9c-0.2-5.9,1-11.3,3.8-16.3
				c6.5-11.5,19.8-15.5,31.5-9.3C958.2,647.1,958.9,647.6,960.4,648.3z"/>
			<path id="XMLID_309_" d="M1208.1,648.4c-0.5-3.2,1.4-3.4,3.6-3.1c2.9,0.2,6.7-1.2,8.5,0.6c2,1.9,0.5,5.8,0.6,8.7
				c0.1,3.2,0,6.5,0,9.8c0,1.6-0.4,2.4-2,2.2c-1.2-0.1-2.5-0.1-3.8,0c-3.5,0.2-6.5,0.4-7.3-4.2c-0.4-2.4-2.6-3.2-4.8-3.2
				c-2.6,0-4.9,1.2-6.1,3.7c-3,6.4-2.2,12.5,1.9,18c4,5.3,9.5,5.2,15.2,4.2c0.4-0.1,0.8-0.2,1.2-0.4c1.8-0.5,4.3-2,5.2-1.3
				c1.4,1.1,0.5,3.7,0.5,5.6c0.1,8.9,0.1,9.3-8.7,11c-12,2.4-23.6,2.2-33.4-6.9c-13.2-12.2-11.3-37.1,3.6-45.8
				c6.8-4,13.9-4.1,21.2-1.1C1204.9,646.9,1206.3,647.6,1208.1,648.4z"/>
			<path id="XMLID_308_" d="M785.1,652.8c2.5-2,4.8-3.8,7.1-5.6c1.4-1.1,3-1.9,4.8-2.4c7.5-2.4,8.9-1.4,8.9,6.2c0,3.2-0.1,6.5,0,9.7
				c0,1.6-0.5,2.3-2.2,2.3c-2.2,0-4.4,0.2-6.6,0.4c-7.8,0.5-11.9,4.7-12.1,12.3c0,1.4,0.1,3,0,4.4c-0.4,3.2,0,5.6,4.3,4.8
				c1.6-0.2,1.9,0.8,1.9,2.2c0,3.6,0,7.2,0,10.7c0,1.6-0.6,2.2-2.3,2.2c-10.5,0-21,0-31.5,0c-1.7,0-2.2-0.7-2-2.3
				c0.1-3.6,0.1-7.2,0-10.7c0-1.7,0.5-2.4,2.2-2.2c1.8,0.2,2.4-0.5,2.3-2.3c-0.1-6.7-0.1-13.4,0-20.1c0-1.7-0.4-2.6-2.3-2.4
				c-1.6,0.2-2.3-0.5-2.2-2.2c0.1-3.6,0.1-7.2,0-10.7c0-1.6,0.5-2.3,2.2-2.2c8.5,0.1,17,0.1,25.5,0c1.8,0,2.2,0.8,2,2.3
				C785.1,649,785.1,650.8,785.1,652.8z"/>
			<path id="XMLID_307_" d="M916.3,665c0,5.6,0,11.4,0,17c0,1.8,0.1,3.2,2.4,2.8c1.7-0.2,2.2,0.7,2,2.2c-0.1,3.6-0.1,7.2,0,10.7
				c0,1.7-0.5,2.2-2.2,2.2c-9.9-0.1-20,0-30,0c-1.4,0-2-0.5-2-1.9c0.1-3.7,0.1-7.3,0-11c0-1.7,0.7-2.3,2.3-2
				c1.9,0.2,2.2-0.8,2.2-2.4c-0.1-6.6-0.1-13.3,0-19.9c0-1.9-0.6-2.8-2.5-2.5c-1.6,0.2-1.9-0.6-1.9-2c0.1-3.6,0.1-7.2,0-10.7
				c-0.1-1.9,0.7-2.3,2.4-2.3c8.3,0.1,16.7,0.1,24.9,0c1.8,0,2.4,0.6,2.4,2.4C916.2,653.2,916.3,659.1,916.3,665z"/>
			<path id="XMLID_306_" d="M839.6,665.1c0,5.6,0,11.4,0,17c0,1.8,0.2,3.1,2.5,2.8c1.8-0.2,2.4,0.5,2.4,2.3c-0.1,3.5-0.1,6.9,0,10.4
				c0,1.7-0.5,2.4-2.3,2.4c-9.8-0.1-19.8-0.1-29.6,0c-1.8,0-2.4-0.5-2.4-2.3c0.1-3.5,0-6.9,0-10.4c0-1.4,0.1-2.6,2-2.4
				c2,0.2,2.2-0.8,2.2-2.5c0-6.6,0-13.3,0-19.9c0-1.6-0.2-2.6-2.2-2.5c-1.6,0.1-2-0.7-1.9-2.2c0-3.7,0-7.3,0-11
				c0-1.3,0.6-1.9,1.9-1.9c8.5,0,17,0,25.5,0c1.8,0,2,1,2,2.4C839.5,653.2,839.6,659.2,839.6,665.1z"/>
			<path id="XMLID_304_" d="M1163.7,665.5c0,5.8,0,11.5,0,17.4c0,1.8,0.2,2.9,2.4,2.5c2.3-0.4,2.6,0.7,2.5,2.6
				c-0.1,3.2-0.1,6.5,0,9.7c0,1.7-0.2,2.4-2.2,2.4c-9.9-0.1-20-0.1-30,0c-1.8,0-2-0.7-2-2.2c0.1-3.5,0.1-6.9,0-10.4
				c-0.1-1.7,0.4-2.5,2.3-2.3c1.7,0.2,2.2-0.5,2.2-2.2c-0.1-6.9-0.1-13.9,0-20.8c0-1.6-0.4-2.4-2.2-2.2s-2.4-0.5-2.3-2.3
				c0.1-3.6,0.1-7.2,0-10.7c0-1.6,0.5-1.9,2-1.9c8.4,0.1,16.8,0.1,25.2,0c2,0,2.2,0.8,2.2,2.4
				C1163.7,653.7,1163.7,659.6,1163.7,665.5z"/>
			<path id="XMLID_292_" d="M902.9,640.2c-8.1,0.7-14.9-4.7-14.9-12c0-7.9,7.3-14.1,15.5-13.1c3.5,0.5,6.7,1.7,9.2,4.3
				c3.2,3.6,4.8,7.7,3,12.3c-1.9,4.9-5.6,7.7-10.9,8.3C904.1,640,903.5,640,902.9,640.2z"/>
			<path id="XMLID_291_" d="M825.1,640.2c-6.6-0.1-11.5-3.2-13.3-8.6c-2-6,1.3-12.7,7.9-15.5c5.4-2.3,12.3-0.8,16.3,3.2
				c3.4,3.6,4.6,7.9,2.9,12.5c-1.7,4.7-5.4,7.3-10.3,8.1C827.5,640.2,826.3,640.2,825.1,640.2z"/>
			<path id="XMLID_290_" d="M1135.7,627.8c0.1-7.1,6.4-12.6,14.1-12.5c7.9,0.1,14,5.8,13.9,13.1c-0.1,7.1-6.2,12.2-14.4,12.2
				C1141.3,640.4,1135.6,635.1,1135.7,627.8z"/>
			<path id="XMLID_284_" d="M1028.1,650.4c3.5-5.8,6.9-11.5,10.5-17.5c-2.9-0.7-5.5-0.4-8.1-0.4c-1.8,0-2.4-0.6-2.3-2.4
				c0.1-3.7,0.1-7.3,0-11c0-1.9,0.6-2.6,2.5-2.5c3.7,0.1,7.3,0.1,11,0c1.4,0,2,0.5,2,1.9c-0.1,4.7,0,9.5,0,14.1
				c0,1.2-0.7,2.2-1.2,3.1c-2.2,3.7-4.3,7.4-6.4,11.3C1033.7,651.3,1033.7,651.3,1028.1,650.4z"/>
		</g>
		<g id="XMLID_62_">
			<path id="XMLID_63_" class="st0" d="M624.1,367.4l10.1,3.2l-5.1,17.8l47.1,14.8l-3.6,12.5l-47.1-14.8l-5.1,17.9l-10.1-3.2
				L624.1,367.4z"/>
			<path id="XMLID_65_" class="st0" d="M683.1,380.7l-53.4-28.1l5.6-11.5l20.3,10.7l10.4-21.6l-20.3-10.7l5.6-11.5l53.4,28.1
				l-5.6,11.5l-23.8-12.5l-10.4,21.6l23.8,12.5L683.1,380.7z"/>
			<path id="XMLID_67_" class="st0" d="M698.6,260.3L679,286.1l10,8.2l17.9-23.7l8.2,6.7L697.1,301l12.1,9.9l20.5-27l8.4,6.9
				l-28,36.9l-46.9-38.6l27.1-35.7L698.6,260.3z"/>
			<path id="XMLID_69_" class="st0" d="M724.2,219.8l10.6-7.9l43.6,21l-24.3-35.3l9.5-7l34.8,50.6l-10.1,7.5l-44.5-21.2l24.7,35.9
				l-9.5,7L724.2,219.8z"/>
			<path id="XMLID_71_" class="st0" d="M825.4,170.7l-28.5,14l5.5,11.9l26.2-12.9l4.5,9.8l-26.2,12.9l6.6,14.5l29.9-14.7l4.6,10.1
				l-40.9,20.1l-25.7-56.2l39.6-19.5L825.4,170.7z"/>
			<path id="XMLID_73_" class="st0" d="M846.3,151l16.8,32.1l4.2,9.1l-0.9-9.8l-2.8-36.4l12.7-3.7l16.1,32.3l4.3,9l-0.7-9.7
				l-1.7-36.9l12.2-3.5l0,64.6l-11.5,3.3l-16.4-33l-5.2-11l1.1,12.2l2.5,37l-11.2,3.2l-32.5-55.2L846.3,151z"/>
			<path id="XMLID_75_" class="st0" d="M977.4,124.8l14.1-1.4L975.3,164l2.2,23.2l-12.4,1.2l-2.2-23.2l-24.3-36.6l14.6-1.5
				l14.9,25.7L977.4,124.8z"/>
			<path id="XMLID_77_" class="st0" d="M1048.8,181.5c-4.7,4.6-11.3,6.8-19.8,6.4c-8.5-0.4-15-3.1-19.3-8.1
				c-5.8-6.2-8.5-14.9-8.1-26c0.4-11.4,3.8-19.8,10-25.2c4.7-4.6,11.3-6.8,19.8-6.4c8.5,0.4,15,3.1,19.3,8.1c5.8,6,8.5,14.6,8.1,26
				C1058.4,167.4,1055,175.8,1048.8,181.5z M1041.4,171.7c3-3.7,4.7-9,5-16c0.3-7-1-12.4-3.8-16.3c-2.8-3.9-6.6-6-11.6-6.2
				c-4.9-0.2-9,1.5-12,5.2s-4.8,9-5,16c-0.3,7,1,12.5,3.8,16.4c2.8,3.9,6.7,6,11.6,6.2C1034.3,177.1,1038.3,175.4,1041.4,171.7z"/>
			<path id="XMLID_80_" class="st0" d="M1114.7,138.3c1.9,1.5,3.5,3.3,4.6,5.5c0.9,1.8,1.5,3.8,1.8,5.8c0.3,2,0.2,4.2-0.3,6.6
				c-0.6,2.9-1.9,5.5-3.9,8c-2,2.5-4.7,3.9-8.2,4.3c2.4,1.8,4,3.8,4.7,6.1c0.7,2.3,0.6,5.6-0.3,9.9l-0.9,4.1
				c-0.6,2.8-0.9,4.7-0.9,5.7c0,1.6,0.5,3,1.5,4l-0.3,1.5l-13.5-3.2c-0.1-1.4-0.1-2.6-0.1-3.4c0-1.8,0.2-3.6,0.6-5.3l1.1-5.7
				c0.8-3.9,0.7-6.6-0.3-8.2c-1-1.6-3.1-2.8-6.5-3.6l-11.9-2.8l-5.1,23.8l-11.9-2.8l13-60.6l27.9,6.5
				C1109.8,135.6,1112.7,136.9,1114.7,138.3z M1087.6,141.4l-3.5,16.3l13.1,3.1c2.6,0.6,4.6,0.7,6.1,0.4c2.6-0.6,4.2-2.6,4.9-6
				c0.8-3.7,0.2-6.4-1.8-8.2c-1.1-1-2.9-1.8-5.4-2.4L1087.6,141.4z"/>
			<path id="XMLID_83_" class="st0" d="M1145.1,146.2l11.2,5.3l-10.2,23.3l31.2-13.3l14.7,7l-32.5,12.6l8.9,44.4l-14.6-7l-5.9-32.6
				l-8,3.2l-8.3,18.9l-11.2-5.3L1145.1,146.2z"/>
			<path id="XMLID_85_" class="st0" d="M1261.5,225.1l-7,8.2l-13.4-12.3l-32.5,38.3l-9.4-8.7l32.5-38.3l-13.5-12.4l7-8.2
				L1261.5,225.1z"/>
			<path id="XMLID_87_" class="st0" d="M1232.5,285.6l-8.1-9.8l45-40.7l8.1,9.8L1232.5,285.6z"/>
			<path id="XMLID_89_" class="st0" d="M1311.2,294.3l9.6,15.8l-50.4,33.2l-6.2-10.2l34.1-22.4c1-0.6,2.4-1.5,4.1-2.7
				c1.8-1.1,3.2-2,4.1-2.7l-48.4,17.9l-6.5-10.7l36.3-37.7c-1,0.6-2.3,1.5-4.1,2.7c-1.8,1.2-3.1,2.1-4.1,2.7l-34.1,22.4l-6.2-10.2
				l50.4-33.2l9.7,16l-33.8,35.6L1311.2,294.3z"/>
			<path id="XMLID_91_" class="st0" d="M1336.1,375.4l-12-30.5l-11.7,5l11,28l-9.6,4.1l-11-28l-14.2,6l12.6,31.9l-9.9,4.2
				l-17.2-43.6l55.2-23.5l16.7,42.2L1336.1,375.4z"/>
			<path id="XMLID_93_" class="st0" d="M1313.6,408.3c-2.5,1.1-4.3,2.4-5.3,3.9c-1.9,2.7-2.2,6.6-0.9,11.7c0.8,3,1.7,5.4,2.8,7.1
				c2.1,3.3,4.8,4.5,8.1,3.6c1.9-0.5,3.2-1.8,3.8-3.8c0.6-2,0.8-5.1,0.6-9.1l-0.3-6.9c-0.2-6.8,0.1-11.6,1.1-14.4
				c1.7-4.8,5.3-7.9,11-9.4c5.2-1.4,10-0.6,14.4,2.5c4.4,3.1,7.6,8.4,9.5,16.1c1.6,6.4,1.4,12.3-0.7,17.7c-2.1,5.4-6.2,9-12.3,10.9
				l-3-12.1c3.4-1.2,5.5-3.4,6.2-6.8c0.5-2.3,0.3-4.9-0.4-7.9c-0.8-3.3-2.1-5.8-3.9-7.5c-1.8-1.6-3.8-2.2-6-1.6
				c-2.1,0.6-3.4,1.9-3.9,4.2c-0.4,1.4-0.5,4.3-0.4,8.6l0.2,11.2c0.1,4.9-0.4,8.8-1.6,11.5c-1.8,4.3-5.3,7.2-10.5,8.5
				c-5.3,1.4-10.2,0.5-14.8-2.9c-4.6-3.3-7.8-8.9-9.7-16.6c-2-7.9-1.8-14.6,0.5-20.1c2.3-5.5,6.5-9,12.5-10.6L1313.6,408.3z"/>
		</g>
	</g>
</g>
</svg>
