<?xml version="1.0" encoding="utf-8"?>
<!-- Generator: Adobe Illustrator 18.1.1, SVG Export Plug-In . SVG Version: 6.00 Build 0)  -->
<!DOCTYPE svg PUBLIC "-//W3C//DTD SVG 1.1//EN" "http://www.w3.org/Graphics/SVG/1.1/DTD/svg11.dtd">
<svg version="1.1" id="Layer_1" xmlns="http://www.w3.org/2000/svg" xmlns:xlink="http://www.w3.org/1999/xlink" x="0px" y="0px"
	 viewBox="0 0 485.6 65.1" enable-background="new 0 0 485.6 65.1" xml:space="preserve">
<path fill-rule="evenodd" clip-rule="evenodd" d="M9.1,26c1-2.6,2.3-4.6,4-6.1c0.2-0.1,0.5-0.2,0.7-0.2c0.2,0,0.8,0,1.8,0
	c0.5,0,1,0,1.4,0.1c0.4,0.1,0.8,0.2,1.2,0.4c0.4,0.2,0.9,0.5,1.5,0.9l-7.2,5.7l1.7,1.3V47c-1.8-0.9-3.3-2.2-4.3-4.1
	c-1.4-2.4-2.1-5.7-2.1-9.7C7.7,31,8.2,28.6,9.1,26L9.1,26z M8.5,18.7c0.4,0,1,0.1,1.6,0.2c0.7,0.1,1.3,0.3,1.8,0.4
	C8,21.1,5,24,2.8,28C0.9,31.5,0,35.4,0,39.5c0,5.1,1.8,9.5,5.4,13.2c3.6,3.7,7.9,5.5,13.1,5.5c5,0,9.1-1.9,12.6-5.7
	c3.4-3.8,5.1-8.3,5.1-13.4c-0.5,1.1-1,2-1.6,2.7c-0.6,0.7-1.4,1.5-2.5,2.4c-0.7,0.6-1.3,1.1-1.9,1.4c-0.6,0.3-1.3,0.6-2.2,1V21.4
	c1.1-0.5,2-0.9,2.7-1.4c0.7-0.5,1.4-1.2,2.2-2.1c2.1-2.3,3.2-4.8,3.4-7.6c-1.5,1-2.8,1.7-4,2.2c-1.2,0.5-2.5,0.8-4,0.9
	c-0.2,0-0.6,0-1,0.1c-1.6,0-4.1-0.6-7.3-1.9c-3.2-1.3-5.8-1.9-7.7-1.9c-3.7,0-6.7,1.7-8.9,5.2c-2,3.1-3,6.8-3,11
	c0.3-1.3,1-2.5,2-3.7c0.7-0.8,1.7-1.6,2.7-2.2C6.1,19,7.3,18.7,8.5,18.7L8.5,18.7z M42.6,57.8l6.1-6.8l-3.1-3.2V29.6l1.8-1.2
	l4.9,3.7v24c0,1.4-0.1,2.5-0.2,3.5c-0.2,1-0.5,1.8-1.1,2.5c-0.4,0.5-0.9,1.2-1.7,2.1c-0.8,1-1.7,1.7-2.9,2.3
	c2.3-0.2,4.3-0.8,5.7-1.6c1.5-0.8,3-2.1,4.6-3.9c1.2-1.3,2-2.6,2.6-3.9c0.6-1.3,1-2.7,1.2-4.2V26l-2.1,0.1l-6.6-4.4L47,25.7
	l-1.5-0.8V11.5l-1.4-3l-6.2,6.1v34.6L36,51.4L42.6,57.8L42.6,57.8z M63.5,50.2l11.3,7.1l10.7-11.3l-5.8,4.1l-7.2-5.1v-4.8l12.8-9.5
	l-8.1-10.9l-13,9v19.8L63.5,50.2L63.5,50.2z M101,14.9V28c-0.9,0.1-1.7,0.3-2.3,0.5c-0.6,0.2-1.2,0.6-1.9,1.2
	c-1.9,1.4-2.8,3.3-2.8,5.6c0,0.4,0,0.8,0.1,1.1c0,0.3,0.1,0.7,0.2,1c0.7-0.6,1.3-0.9,1.9-1.1c0.6-0.2,1.4-0.3,2.3-0.3
	c0.5,0,0.8,0.1,1.1,0.1c0.3,0.1,0.7,0.3,1.3,0.6v12.9l9.7,9.7l8.9-9l10.7,9L146,44.2V18.3l-9.7-7.4l-7.2,6.5l-9.7-6.5l-8.7,7.3v-4.3
	c0-1.4-1-3-3-4.8c-0.6-0.4-1.2-0.9-1.7-1.3c-0.5-0.4-0.9-1.1-0.9-1.9c-0.1-0.8-0.1-1.5-0.1-2c0-1.6,0.5-2.9,1.6-3.8
	c-0.6-0.1-1-0.1-1.2-0.1c-2.1,0-4,0.9-5.6,2.6c-1.6,1.8-2.4,3.7-2.4,5.9c0,0.3,0,0.8,0.1,1.3C97.9,12.1,99.1,13.8,101,14.9L101,14.9
	z M147.9,50.5l8.7,6.1l6.3-6l7.5,5.3l6.5-6.9h-2.2l-2.9-2.9V25.5l-1.5,0.3l-7.3-6.1l-13.8,9.5v20.1L147.9,50.5L147.9,50.5z
	 M189.7,21.1c-0.8-0.3-1.6-0.9-2.5-1.6l-11.4,8.1v13.6l1.1,0.8h6.8l-8.8,15.4c1.4-1.2,2.4-1.9,3.2-2.3c1-0.5,2.2-0.8,3.4-0.8
	c1.5,0,2.7,0.2,3.6,0.5c0.9,0.3,1.9,1,2.9,1.9l11.2-8.8V34l-0.8-0.8h-7.5v-0.7l6.7-11.7c-0.7,0.4-1.3,0.7-1.7,0.7
	c-0.4,0.1-1.1,0.1-2,0.1h-1.5C191.3,21.6,190.5,21.4,189.7,21.1L189.7,21.1z M207.5,56.9l6.2-6.9l-3.1-3.2V28.5l1.7-1.2l5,3.8v24
	c0,1.4-0.1,2.6-0.2,3.5c-0.2,0.9-0.5,1.7-1.2,2.5c-0.4,0.5-0.9,1.1-1.5,2c-0.8,1-1.8,1.8-3,2.4c2.1-0.2,4.1-0.7,5.7-1.6
	c1.7-0.9,3.2-2.1,4.7-3.8c1.1-1.3,1.9-2.6,2.5-4c0.6-1.4,1-2.8,1.2-4.2V25l-2,0.2l-6.7-4.4l-4.8,3.9l-1.5-0.8V10.5L209,7.4l-6.3,6.1
	v34.6l-1.9,2.2L207.5,56.9L207.5,56.9z M241.2,15.4l-6.3-5.1l-5.1,5.6l5.3,4.8L241.2,15.4L241.2,15.4z M231.3,31.3v19.1l-1.3,2h2.4
	l5.5,4.6l5.7-5.3l7.4,6l6.4-7.1l-2-2.6V30.1l1.7-0.8l3.7,4.1v17.5l6.5,5.7l6.3-7.2h-2.9l-1.7-2.7V27.6l0.8-1.8l-1.7,0.3l-6.5-5.1
	l-6.3,6.5l-7.4-5.8l-6.1,6.8h2.4l2,2.4v17.5l-4.1,1.4l-2.6-2V28.2l0.8-1.2l-7.3-5.4l-6,6.3l2,0.6L231.3,31.3L231.3,31.3z
	 M357.3,49.7l-2-2.6V29.2l1.7-0.8l3.7,4.1v17.6l6.5,5.6l6.3-7.2h-2.9l-1.7-2.7V26.7l0.8-1.7l-1.7,0.3l-6.4-5.1l-6.3,6.5l-7.4-5.8
	l-6.1,6.8h2.4l2,2.4v17.6l-2.5,3.4l7.8,5.1L357.3,49.7L357.3,49.7z M274.9,49.8c0.9,0,1.8,0.1,2.6,0.3c0.8,0.2,1.5,0.6,2.3,1.2
	c0.7,0.6,1.3,1.1,1.6,1.7c0.3,0.5,0.6,1.3,0.9,2.2l-3.6,4.7l-3.9,5.2c1-0.6,1.8-0.9,2.5-1c0.7-0.1,1.7-0.2,3.1-0.2
	c1.6,0.1,2.9,0.5,4.1,1.1c1.1,0.6,2.1,1.5,3.1,2.7c2.2-0.8,4.8-2.7,7.8-5.6c3-2.9,4.5-5.3,4.5-7.1c0-0.3-0.3-1.3-1-3
	c-0.7-1.7-1-3.5-1-5.3V25l-9.7-6.1l-12.3,8.7v20.8L274.9,49.8L274.9,49.8z M299.1,25.9h4.1v24.3l-1,1.9h2.4l5.1,3.9l6.6-7.5h-2.9
	l-1.9-2V26.4l4.1-5.1h-4.1V7.9l-8.3,7.8V21L299.1,25.9L299.1,25.9z M316.8,49.8l8.7,6.2l15.1-10.6V24.8l-1.5,0.4l-7.3-6.2L318,28.5
	v20.1L316.8,49.8L316.8,49.8z M388,15.1v6.5c-1.2,0-2.2,0.1-3.1,0.4c-0.8,0.3-1.6,0.8-2.4,1.5c-0.8,0.7-1.2,1.6-1.4,2.6
	c-0.1,1-0.2,2.3-0.2,3.9c0,0.7,0,1.1-0.1,1.3c1-1.6,2.5-2.3,4.3-2c1.2,0.2,2.2,0.7,2.9,1.5v10.9c-2.2,1.1-4,2.6-5.6,4.4
	c-1.8,2.1-3,4.3-3.6,6.5c1-0.7,1.8-1.3,2.5-1.6c0.7-0.3,1.7-0.7,2.9-1.1c0.5-0.1,1-0.3,1.6-0.5c0.6-0.2,1.3-0.2,2.1-0.2v21l9.2-7.5
	l3.1,2.2V52.9l3.9,1.3l13.3-9.2V14.2l-8.5-6.8l-8.7,7.3v-3.9l-1.7-1.4v6.2l-1.4,1v-6.5L390,4.7l-8.5,8.3c0.7-0.4,1.4-0.6,2.2-0.6
	c0.6,0,1.2,0.1,1.8,0.3C386.7,13.2,387.6,14,388,15.1L388,15.1z M418.6,50.5l8.7,6.1l15.2-10.6V25.5l-1.5,0.3l-7.4-6.1l-13.8,9.5
	v20.1L418.6,50.5L418.6,50.5z M458.9,20.8c-0.7-0.3-1.6-0.8-2.6-1.5l-11.4,8v13.6l1,0.8h6.8L443.9,57c1-0.8,1.8-1.5,2.5-1.9
	c1.2-0.8,2.6-1.2,4.2-1.2c1.4,0,2.6,0.2,3.6,0.5c0.9,0.3,1.9,1,2.9,1.9l11.2-8.8V33.7l-0.8-0.8h-7.5v-0.7l6.7-11.7
	c-0.7,0.4-1.3,0.7-1.7,0.7c-0.4,0.1-1.1,0.1-2,0.1h-1.5C460.4,21.2,459.6,21.1,458.9,20.8L458.9,20.8z M468.4,26.2h4.1v24.3l-1,1.9
	h2.4l5,3.9l6.7-7.5h-2.9l-1.9-2V26.7l4.1-5.1h-4.1V8.2l-8.3,7.8v5.3L468.4,26.2L468.4,26.2z M157.4,26.9l5.5,4.1v16.3l-1.8,1.9
	l-3.7-3.2V26.9L157.4,26.9z M293.1,55.6c1.1,0.8,1.7,1.8,1.7,3c0,0.6,0,1-0.1,1.3c-0.3,0.4-0.5,0.7-0.6,0.8
	c-0.4,0.4-0.8,0.6-1.4,0.7c-0.6,0.1-1.4-0.2-2.4-0.9c-1-0.7-2.5-1-4.4-1c-1.3,0-2.4,0.1-3.4,0.3c-1,0.2-2.1,0.6-3.2,1.2l10.2-12.6
	v1.6c0,0.9,0.1,1.7,0.2,2.3c0.2,0.6,0.5,1.2,1.1,1.7C291.5,54.6,292.3,55.1,293.1,55.6L293.1,55.6z M284.1,26l5.3,3.9v15.8l-1.5,1.7
	l-3.8-3.8V26L284.1,26z M72.6,38.3V28l5.1,6.4L72.6,38.3L72.6,38.3z M192.7,26.7l-4.8,8.5h-3.6V26c1.4,0.9,2.9,1.3,4.6,1.3
	C190.2,27.3,191.4,27.1,192.7,26.7L192.7,26.7z M326.4,26.1l5.5,4.1v16.3l-1.8,1.9l-3.7-3.3V26.1L326.4,26.1z M185.6,40.3h5.1v9
	c-1-0.3-1.7-0.5-2.2-0.6c-0.5-0.1-1.5-0.1-3-0.1c-1,0-1.9,0.1-2.7,0.3c-0.7,0.2-1.6,0.5-2.7,0.9L185.6,40.3L185.6,40.3z M397.2,21.2
	l1.4-1.2v40l-1.4-0.8V21.2L397.2,21.2z M400.3,19l4.3-2.7l3.1,2.2v26.4c-1.4-0.8-2.2-1.3-2.4-1.3c-0.1,0-0.7-0.2-1.5-0.5
	c-1.2-0.3-2.3-0.6-3.4-0.8V19L400.3,19z M25.7,22.1c0.5,0,0.8,0,1.1-0.1v25.5c-1.8,0.9-3.7,1.3-5.7,1.3c-1.2,0-2.3-0.1-3.5-0.4
	c-1.2-0.3-2.1-0.7-2.7-1.1l8-8V21.7c0.3,0.2,0.7,0.3,1.1,0.3c0.4,0,0.7,0,0.8,0C24.9,22.1,25.2,22.1,25.7,22.1L25.7,22.1z
	 M428.2,26.9l5.5,4.1v16.3l-1.7,1.9l-3.8-3.2V26.9L428.2,26.9z M110.7,20.2l2.6-2l5.4,5.5v25.2l-2.2,2.2l-5.8-5.6V20.2L110.7,20.2z
	 M460,26.9c0.6-0.1,1.2-0.3,1.8-0.5l-4.8,8.5h-3.6v-9.2c1.4,0.9,3,1.3,4.6,1.3C458.7,27,459.4,26.9,460,26.9L460,26.9z M454.7,40
	h5.1v9c-1-0.3-1.7-0.5-2.2-0.6c-0.5-0.1-1.5-0.1-3.1-0.1c-1,0-1.9,0.1-2.7,0.3c-0.8,0.2-1.6,0.5-2.6,0.9L454.7,40L454.7,40z
	 M129.1,20.2l2.5-2l5.5,5.5v25.2l-2.2,2.2l-5.7-5.6V20.2L129.1,20.2z"/>
</svg>
