<?xml version="1.0" encoding="utf-8"?>
<!-- Generator: Adobe Illustrator 19.0.0, SVG Export Plug-In . SVG Version: 6.00 Build 0)  -->
<!DOCTYPE svg PUBLIC "-//W3C//DTD SVG 1.1//EN" "http://www.w3.org/Graphics/SVG/1.1/DTD/svg11.dtd">
<svg version="1.1" id="Layer_1" xmlns="http://www.w3.org/2000/svg" xmlns:xlink="http://www.w3.org/1999/xlink" x="0px" y="0px"
	 viewBox="122 -5.6 500 156.2" style="enable-background:new 122 -5.6 500 156.2;" xml:space="preserve">
<style type="text/css">
	.st0{fill:#231F20;}
</style>
<path class="st0" d="M131.1,2.4h17.1h86.7H252l0.6,26.4h-2.5L249.8,12h-47.2v128.6h1c0.4,0,0.7,0,0.9,0h0.7h0.7h0.4h0.2h0.6
	c0.2,0,0.4,0,0.4,0h0.2c0,0,0.1,0,0.3,0h0.5h0.5l0.4,0.1h0.5h0.3c0.3,0,0.7,0.1,1.2,0.1l1.2,0.1l2.9,0.3v3.2h-0.6h-0.1h-0.5
	c-0.3,0-0.4,0-0.5,0h-0.1h-0.5h-0.5h-0.1h-0.5c-0.3,0-0.4,0-0.6,0h-0.1h-0.1H211h-0.6h-0.7c-0.3,0-0.6,0-0.8,0c-0.4,0-0.7,0-0.8,0
	h-0.7h-0.3h-0.2l-0.7-0.1h-0.3h-0.2H205h-0.6h-0.6h-0.4h-0.3l-0.6-0.1h-0.6h-0.6h-0.8h-0.6h-0.7h-0.6h-1.5l-1.5-0.1h-0.8h-0.7h-0.8
	c-0.1,0-0.4,0-0.7,0c-0.4,0-0.8,0-1.1,0s-0.8,0-1.4,0c-0.5,0-0.9,0-1.1,0h-1.1H187h-0.9h-0.7h-0.8h-0.7h-0.7h-0.6h-0.7h-0.6h-0.6
	l-0.4,0.1H180h-0.6h-0.6h-0.6h-0.5h-0.2H177l-0.4,0.1h-0.2h-0.7c-0.2,0-0.3,0-0.3,0h-0.2h-0.7h-0.3H174c-0.1,0-0.3,0-0.6,0
	c-0.2,0-0.3,0-0.5,0h-0.1h-0.5h-0.5h-0.2h-0.5h-0.5h-0.2h-0.1H170l-0.6,0.1h-0.7h-0.2h-0.3c-0.2,0-0.4,0-0.8,0v-3.2
	c1.1-0.1,1.9-0.2,2.5-0.3c0.5-0.1,0.9-0.1,1.1-0.1c0.6-0.1,0.9-0.1,1.1-0.1h0.3h0.5h0.2h0.3l0.5-0.1h0.3l0.7-0.1h0.4
	c0.1,0,0.3,0,0.6-0.1h0.4h0.2h0.5h0.8l0.8-0.1h1.7V11.9h-47L133,28.8h-2.4L131.1,2.4 M261.1,2.4h3.2h2.4h1.6h1.2h1.9h0.9
	c0.2,0,0.4,0,0.4,0l0,0h0.2h0.7h0.6h0.6l0.7,0.1h0.6h0.8h0.6c0.1,0,0.4,0,0.7,0c0.6,0,1.3,0.1,2.8,0.1h2c1.4,0,2.2,0,2.6,0
	c0.6,0,1.3,0,2.1,0h0.8h1h0.8h0.8h0.8h0.6h0.7h0.7h0.7l0.7-0.1h1.2h1h2.5h3.4h5.6v3.2h-0.4l-1.3,0.1L306,5.9L304.7,6l-1.3,0.1h-0.5
	h-0.3c-0.1,0-0.3,0-0.5,0h-0.3h-0.4H301h-0.4h-0.4h-0.3h-0.5h-0.5h-0.8h-0.8h-0.7c-0.3,0-0.6,0-0.8,0s-0.3,0-0.3,0h-0.1h-0.2v134.1
	l1.8,0.1h0.8h0.8h0.5h0.2h0.5l0.5,0.1h0.3h0.5h0.2h0.3h0.4l0.3,0.1h0.5h0.3h0.5h0.5l0.4,0.1h0.3h0.3h0.2h0.3l0.8,0.1h0.4h0.3
	c0.1,0,0.2,0,0.3,0c0.2,0,0.4,0.1,0.6,0.1h0.5l0.6,0.1v3.2h-0.5h-0.3c0,0-0.2,0-0.6,0h-0.4H307h-0.5H306h-0.1h-0.5H305h-0.3H304
	h-0.9h-0.5h-0.2l0,0h-0.3h-0.6h-0.7h-0.3h-0.2l-0.6-0.1h-0.3h-0.2h-0.6H298h-0.6H297h-0.2l-0.7-0.1h-0.6h-0.6h-0.8h-0.6h-0.7h-0.7
	h-0.8h-0.7l-0.8-0.1H289h-1.5H286c-0.7,0-1.1,0-1.3,0c-0.4,0-0.7,0-1.2,0c-0.6,0-1,0-1.1,0h-1.1h-0.9h-0.9h-0.7h-0.7h-0.7h-0.7h-0.6
	c-0.4,0-1.1,0-1.3,0h-0.6l-1.3,0.1h-1.2h-0.4H271c-0.1,0-0.3,0-0.7,0H270h-0.2h-0.7c-0.3,0-0.3,0-0.3,0h-0.2h-0.7h-0.2h-0.2
	c-0.2,0-0.4,0-0.6,0s-0.3,0-0.3,0h-0.2h-0.6h-0.4h-0.2h-0.5h-0.5H264h-0.1h-0.3L263,144h-0.7H262h-0.2c-0.2,0-0.4,0-0.8,0v-3.2
	l2.8-0.3l1.2-0.1l1.2-0.1c0.2,0,0.4,0,0.6,0h0.3c0.1,0,0.2,0,0.4,0c0.2,0,0.3,0,0.5,0h0.3h0.4h0.4h0.4h0.4h0.3h0.4h0.2h0.6h0.8h0.9
	h0.7h1.1V6.5l-1.1-0.1h-1.1h-0.9h-0.7h-0.5h-0.5c-0.1,0-0.2,0-0.5,0c-0.2,0-0.5,0-0.8-0.1h-0.3h-0.3h-0.4c-0.1,0-0.2,0-0.3,0
	c-0.2,0-0.3,0-0.5,0h-0.3c-0.3,0-0.8,0-1.5-0.1c-0.4,0-0.9-0.1-1.6-0.1c-1.3-0.1-1.5-0.1-2.7-0.3V2.4 M355.3,2.4h9
	c2.4,7.7,3.4,10.5,6.9,20.2c1.8,5,3.4,9.2,4.7,12.7c1.1,2.9,2.8,7.1,5,12.5c2.2,5.5,4,9.7,5.2,12.7l21.7,51.3c0,0.1,0.2,0.4,0.4,0.9
	c0.2,0.4,0.3,0.8,0.7,1.6l0.6-1.2c5.5-11.1,15.4-33.9,23.8-55c1.1-2.8,2.9-7.4,5.5-13.8c5.1-13,6.5-16.7,10.6-27.7
	c2.2-6,2.8-7.7,4.8-14h8.7l1,8.5c2,16.7,3.3,26,5.2,35.7l5.1,27.1l0.2,1.2l11.3,57.7l1.5,7.7c0.7,0,1.2,0,1.5,0
	c0.7,0,1.3,0.1,1.4,0.1l0,0h0.2h0.4h0.3c0.5,0,1.9,0.1,4.2,0.4l2.4,0.2l2.4,0.3l0.9,0.1v3.2l-1.7-0.1h-1.4H497h-0.6h-0.8H495h-0.7
	h-0.6h-0.8h-0.6h-0.7h-0.7h-0.7l-0.7-0.1h-0.6h-0.8h-0.6h-0.8h-0.6l-0.8-0.1h-0.6h-0.8h-1.4l-1.4-0.1h-0.8h-0.6h-0.8h-0.6h-0.7H477
	h-1l-1,0.1h-2c-0.5,0-1.5,0-2.2,0h-0.9H469h-0.7h-0.7h-0.8H466c-0.7,0-1.1,0-1.4,0l-1.4,0.1h-0.7h-0.8h-1.3l-1.3,0.1l-1.3,0.1
	c-0.2,0-0.7,0-1.3,0.1h-0.6h-0.6h-0.4h-0.2H454h-0.6h-0.6l-0.4,0.1h-0.2l0,0c-0.1,0-0.3,0-0.5,0h-0.4h-0.2h-0.7h-0.2v-3.2l2.8-0.3
	l1.2-0.1l1.2-0.1c0.2,0,0.4,0,0.6,0h0.5h0.3c0.2,0,0.4,0,0.5,0h0.3h0.4h0.4h0.4h0.4h0.3h0.4h0.2h0.6h0.7h0.7h0.8h1.1l-0.1-0.9
	l-1.3-9l-1.4-9c-1.2-7.9-4.1-23.8-6.4-35.9c-2.1-10.7-3.6-18-7.4-35.3l-40.6,94.2h-7.6l-40.3-94.2l-0.8,3.6L355,68.9
	c-0.7,3.3-1.7,8-2.9,14.1c-3.4,17.2-6.1,31-8,41.4l-3,16.8H330l0.3-1.5l2.7-13.3l2.6-12.7c1-4.6,1.8-8.7,2.5-12.3
	c1.2-6.4,2-10.5,2.4-12.3c0.1-0.5,0.2-0.9,0.2-1.1l9.3-49.9c0.5-2.6,1.2-6.8,2.1-12.4c0.6-3.5,1-6.1,1.3-7.7
	c0.7-4.5,1.4-9.2,1.5-11.2l0.2-1.7c0-0.6,0.1-1.1,0.1-1.4V3V2.7V2.5L355.3,2.4 M507.3,2.4h3.9h1.7h1.8h1h1.7h1.1h0.4h0.2h0.7h0.6
	h0.6h0.8h0.6h0.8h0.6c0.1,0,0.4,0,0.7,0c0.6,0.1,0.9,0.1,2.8,0.1h2h3.9h2.3h1.9l4-0.1h3.9h2.6h2.5c0.7,0,1.5,0,2.4,0
	c1.2,0,2,0,2.4,0h4.4l4.5-0.1h2.1h2.2c1.1,0,1.5,0,1.9,0h0.1h0.7h1.7h42.5v0.4V3v0.7c0,1,0,1.8,0,2.4v2.8v2.5v2.5l-0.1,2.6v2.4v1.2
	v1.1v0.7v0.7v0.7V24v0.6v0.6v0.5V26v0.4v0.4l-0.1,0.3v0.6v0.5v0.1h-2.2c0-0.3-0.1-0.5-0.1-0.6v-0.1v-0.3V27v-0.3c0-0.1,0-0.2,0-0.4
	c0-0.1,0-0.3,0-0.4v-0.1v-0.3v-0.3v0.2V25c0-0.2,0-0.3,0-0.4v-0.1v-0.3l-0.1-0.3v-0.3v-0.4v-0.4v-0.4c0-0.3,0-0.4-0.1-0.7
	c0-0.2,0-0.3,0-0.3v-0.5c0-0.3,0-0.4,0-0.6v-0.4c0-0.2,0-0.4,0-0.6V19v-0.5v-0.2l-0.1-0.3v-0.4c0-0.4,0-0.9-0.1-1.1l-0.1-0.5
	c0-0.3-0.1-1-0.3-3.1h-1.3h-0.5h-1.8h-2.1h-2h-2.1h-1.9l-5.3-0.1h-1.7h-1h-0.7l-2.3-0.1h-46.1v56.2h0.3h0.2h0.4l1,0.1h0.9h1.1h1.1h1
	h1.1c0.5,0,1.3,0,2.2,0c1,0,1.7,0,2.2,0l1.2,0.1h1.2h1.2h1.2h1.3h1.3h1.4h1.5h1.7h1.8h2.4h2.6h1.6h1.6h1.7L580,69h2.1h2.2h1.2h1.3
	h1.2l1.3-0.1h0.9h1h0.7h0.9h0.7h0.9h0.7h0.9h0.6h0.6c0.4,0,0.4,0,0.5,0h0.2l0,0h0.5h0.4h0.2h0.6c0.3,0,0.3,0,0.4,0h0.2h0.6
	c0.2,0,0.3,0,0.3,0h0.1h0.1l0.8-5.7l0.4-2.9c0.2-1.3,0.3-2.3,0.3-2.9v-0.5v-0.5v-0.1h2.8l-0.1,0.8V58v0.4l0,0v0.7v0.6v0.7l-0.1,2
	l-0.1,2v0.7v0.7c0,0.2,0,0.4,0,0.8c0,0.3,0,0.6,0,0.7l-0.1,1.7l-0.1,1.7v1.7v0.9v0.9V75v0.8c0,0.9,0.1,1.5,0.1,1.7v1.6l0.1,1.7
	l0.1,1.7v0.8V84v0.4v0.3l0.1,0.7V86v0.6c0,0.5,0,1,0.1,1.3c0,0.8,0.1,1.2,0.1,1.3v0.6l0.1,1H602v-0.1l-0.1-0.4v-0.2v-0.2v-0.3v-0.4
	v-0.3v-0.4v-0.3l-0.1-1.3l-0.1-1.2l-0.1-1.2c-0.1-0.6-0.1-1.1-0.3-2.4l-0.5-3.7h-0.3h-0.2h-0.4h-0.5H599h-0.5h-0.4h-0.2h-0.1h-0.5
	h-0.5h-0.2H596c-0.5,0-1-0.1-1.4-0.1h-1.3c-0.2,0-0.5,0-0.8,0c-0.4,0-0.7,0-0.9,0h-0.8H590h-1l-1-0.1h-1.1h-1.2h-1.5h-1.5h-1.8h-1.8
	h-1.8h-1.8h-1.7h-1.7h-1.7h-1.7h-1.8h-1.8h-1.3h-1.3c-0.3,0-1.2,0-2.7,0.1c-0.8,0-1.7,0-2.7,0.1h-1.3c-0.2,0-0.7,0-1.3,0h-1.2h-1
	h-1.2h-1H549h-1l-1.1,0.1h-1.1h-1h-1h-0.7h-0.3h-0.4v57.8h43.5l1.4-0.1h0.5h0.7h1.2h3.7h2.5h2.6h2.4h2.2h2.2h2.1
	c1.3,0,3.3,0,4.1-0.1h0.4h0.1h0.2c0-0.3,0-0.5,0.1-0.7c0-0.6,0.1-0.9,0.1-1.1c0-0.3,0.1-0.5,0.1-0.6v-0.3v-0.3v-0.2v-0.3l0.1-0.6
	l0.1-0.9l0.1-0.9l0.1-0.9l0.1-0.9l0.1-0.8l0.1-0.8l0.1-0.8v-0.8l0.1-0.6v-0.5v-0.3v-0.3l0.1-0.4V123l0,0v-0.4v-0.3v-0.4l0.1-0.3
	v-0.5v-0.5v-0.3v-0.5v-0.4V119v-0.4v-0.4v-0.3v-0.5v-0.1h2.2v0.6v0.1v0.5v0.4v0.2v0.6v1.1v1.1v1v1.8v1.4v1.4v1.2v1.3v0.8v0.8v0.9
	v0.7c0,0.3,0,0.8,0,1.4c0,0.6,0,1-0.1,1.3v0.4v0.2v0.6v0.9l-0.1,0.8v0.6v0.4v0.1v0.2v0.2c0,0.1,0,0.3,0,0.6c0,0.4-0.1,0.8-0.1,0.9
	v0.2v0.5v0.3v0.2v0.4v0.3v0.3v0.5v0.5v0.1v0.2l-78.6-0.9h-3.5h-1.7H530l-1.1,0.1h-1H527h-0.8l-1.5,0.1l-1.4,0.1h-0.8h-0.6l-1.3,0.1
	h-1.2H519l0,0h-0.2h-0.7c-0.5,0-1.1,0.1-1.7,0.1c-0.9,0-1.5,0.1-1.8,0.1s-0.4,0-0.6,0h-0.1h-0.5l-0.5,0.1h-0.1h-0.2h-0.2h-0.6h-0.7
	h-0.3h-0.2c0,0-0.3,0-0.7,0h-0.4h-0.1h-0.5h-0.4H508c-0.2,0-0.4,0-0.7,0v-3.2c0.3,0,0.6-0.1,0.8-0.1c0.4-0.1,0.7-0.1,0.8-0.1h0.3
	h0.3h0.7l0.8-0.1l0.8-0.1l0.8-0.1h0.6h0.5h0.3c0.2,0,0.4-0.1,0.5-0.1h0.3h0.4c0.2,0,0.5,0,0.7,0h0.5h0.3h0.4h0.2h0.5h0.9h0.8h0.8
	h1.1V6.5c-1-0.1-1.4-0.1-2.2-0.1h-1l-1-0.1h-0.5h-0.5h-0.3h-0.3h-0.4h-0.3c-0.3,0-0.4-0.1-0.5-0.1h-0.3h-0.5H513h-0.5l-1.3-0.1
	c-0.2,0-0.6-0.1-1.3-0.1c-0.5-0.1-1.4-0.1-2.4-0.2V2.4 M351.2,141.5v3.2h-0.4l-18.5-0.6l-16.7,0.5l-0.6,0.1h-0.3l0,0
	c-0.2,0-0.4,0-0.8,0v-3.2l3.6-0.4l1.7-0.1c1.2-0.1,1.9-0.2,2.4-0.2h0.4h0.3h0.4h0.3c0.1,0,0.3,0,0.6,0h0.5h0.2h0.4l0.8-0.1h13.1
	l0.9,0.1h0.3h0.2c0.1,0,0.4,0,0.8,0.1h0.5h0.2h0.4h0.3h0.2h0.4h0.6h0.4h0.5h0.3c0.3,0,0.5,0.1,0.6,0.1h0.3h0.4l1.4,0.1l1.5,0.1
	l1.3,0.1L351.2,141.5"/>
</svg>
