<?xml version="1.0" encoding="utf-8"?>
<!-- Generator: Adobe Illustrator 19.0.0, SVG Export Plug-In . SVG Version: 6.00 Build 0)  -->
<!DOCTYPE svg PUBLIC "-//W3C//DTD SVG 1.1//EN" "http://www.w3.org/Graphics/SVG/1.1/DTD/svg11.dtd">
<svg version="1.1" id="Layer_1" xmlns="http://www.w3.org/2000/svg" xmlns:xlink="http://www.w3.org/1999/xlink" x="0px" y="0px"
	 viewBox="0 0 174.7 43.3" style="enable-background:new 0 0 174.7 43.3;" xml:space="preserve">
<style type="text/css">
	.st0{fill-rule:evenodd;clip-rule:evenodd;}
</style>
<g>
	<polygon class="st0" points="152.8,43.3 152.8,0 146.5,0 146.5,43.3 152.8,43.3 	"/>
	<polygon class="st0" points="127.5,0 127.5,2.3 119.5,2.3 119.5,20.1 126.7,20.1 126.7,22.5 119.5,22.5 119.5,43.3 113.2,43.3 
		113.2,0 127.5,0 	"/>
	<polygon class="st0" points="65.3,0 65.3,2.3 70.9,2.3 70.9,43.3 77.1,43.3 77.1,2.3 82.7,2.3 82.7,0 65.3,0 	"/>
	<polygon class="st0" points="64,43.3 64,0 57.7,0 57.7,43.3 64,43.3 	"/>
	<polygon class="st0" points="83.4,0 89.8,0 95.2,22.2 100.4,0 102.5,0 96.2,26.5 96.2,43.3 89.9,43.3 89.9,26 83.4,0 	"/>
	<polygon class="st0" points="0,0 6.6,0 11.1,31.6 16.6,0 18.7,0 11.2,43.3 6.3,43.3 0,0 	"/>
	<path class="st0" d="M20.7,28.2h6.1L24.1,8.4L20.7,28.2L20.7,28.2z M18,43.3h-2.1L23.3,0h5.8l6.5,43.3H29l-1.8-12.8h-7L18,43.3
		L18,43.3z"/>
	<polygon class="st0" points="37.3,0 37.3,43.3 39.2,43.3 39.2,10.8 46.5,43.3 53,43.3 53,0 51,0 51,34 43.5,0 37.3,0 	"/>
	<path class="st0" d="M129,28.2h6.2l-2.7-19.8L129,28.2L129,28.2z M126.4,43.3h-2.1L131.7,0h5.8l6.5,43.3h-6.6l-1.8-12.8h-7
		L126.4,43.3L126.4,43.3z"/>
	<path class="st0" d="M163.9,1.5h1.4c1.9,0,2.9,1.2,2.9,3.1v12.6c0,1.3-0.1,3.4-2.2,3.4h-2.2V1.5L163.9,1.5z M163.9,22.5h2.5
		c1.7,0,3.1,0.6,3.1,3.1v17.8h6.3V25.4c0.1-2.8-2.4-3.9-4.7-4c1.2-0.1,3.6-1.6,3.6-4.7V4c0-1.6-1.8-4.3-6.4-4.3h-10.7v43.6h6.3V22.5
		L163.9,22.5z"/>
</g>
</svg>
