<?xml version="1.0" encoding="utf-8"?>
<!-- Generator: Adobe Illustrator 19.1.0, SVG Export Plug-In . SVG Version: 6.00 Build 0)  -->
<svg version="1.1" id="Layer_1" xmlns="http://www.w3.org/2000/svg" xmlns:xlink="http://www.w3.org/1999/xlink" x="0px" y="0px"
	 viewBox="0 0 425.6 128.8" enable-background="new 0 0 425.6 128.8" xml:space="preserve">
<path fill-rule="evenodd" clip-rule="evenodd" fill="#232222" d="M342.1,11.6c-36.1,14.7-126.8,15.7-219-4.2L28.8,97.6l53.4-88
	c-16.2,5.2-34.6,8.9-46.6,10c-2.1,5.2-4.7,11-7.9,15.7c5.2-3.7,17.8-9.4,24.1-10.5L8.4,118h8.4L139.3,17.4
	c22.5,6.3,162.9,33,272.4,7.3l-1-2.1C395,23.7,366.2,25.8,342.1,11.6"/>
<polygon fill-rule="evenodd" clip-rule="evenodd" fill="#232222" points="248.3,47.8 228.9,112.7 228.9,113.3 235.2,113.3 
	233.6,118 204.8,118 206.4,113.3 212.7,113.3 212.7,112.7 232.1,47.8 225.8,47.8 227.3,43.1 256.2,43.1 254.6,47.8 "/>
<path fill-rule="evenodd" clip-rule="evenodd" fill="#232222" d="M276.1,118l2.1,3.1l13.1-22H286l-9.4,10.5h-17.8l10-32.5h8.9
	c-0.5,2.6-0.5,5.2-0.5,7.9h4.2c2.1-4.2,6.8-18.3,6.8-23.1h-4.2c-1,2.1-2.6,4.7-4.2,8.4h-8.9l5.8-18.9h15.2l5.2,11h3.7l-2.6-22
	l-4.2,2.6h-36.7l-1,4.7h6.3l-19.4,65v0.5h-6.3l-1.6,4.7H276.1z"/>
<polygon fill-rule="evenodd" clip-rule="evenodd" fill="#232222" points="321.6,50.4 315.4,50.4 307.5,61.9 301.7,61.9 312.2,39.4 
	314.8,42.5 346.8,42 350.5,39.4 353.1,61.9 349.4,61.9 344.2,50.4 336.8,50.4 318.5,112.7 325.3,112.7 323.7,118 293.9,118 
	295.5,112.7 303.3,112.7 303.3,113.3 303.3,112.7 "/>
<path fill-rule="evenodd" clip-rule="evenodd" fill="#232222" d="M165,47.3L165,47.3l-19.4,65.5v0.5h-6.3l-1.6,4.7h28.8l1.6-4.7
	h-7.3v-0.5l18.9-65.5c6.3,0,13.6,5.2,16.2,11c0.5,1,1,2.6,1,4.2c0,5.2-4.7,9.4-10,9.4c-4.7,0-8.9-2.1-12-5.8
	c-2.6,5.8-2.6,52.9,21,52.9c11.5,0,10.5-10.5,10.5-11.5c0-1.1,0-6.3-2.1-7.3c-7.9,16.8-22.5-3.1-22.5-22C221.1,93.4,231.5,42,176,42
	c-30.9,0-30.4,11.5-30.4,14.1c0,2.6,1,6.8,6.8,6.8c5.8,0,6.8-2.1,7.9-5.2C151.4,59.3,151.9,49.9,165,47.3"/>
<polygon fill-rule="evenodd" clip-rule="evenodd" fill="#232222" points="359.4,47.3 352.6,47.3 354.1,42.5 382.4,42.5 380.9,47.3 
	375.6,47.3 382.4,67.2 397.6,47.3 397.1,47.3 389.8,47.3 391.3,42.5 417,42.5 415.4,47.3 409.1,47.3 384,78.7 371.4,112.7 
	379.8,112.7 378.2,117.5 346.3,117.5 347.8,112.7 355.2,112.7 368.8,76.1 "/>
<path fill-rule="evenodd" clip-rule="evenodd" fill="#232222" d="M72.3,112.7H77l-1.6,5.2H55l1.6-5.2h5.2l74.9-90.6l-4.2,90.6h5.2
	l-1.6,5.2H110l1.6-5.2h5.2l0.5-13.1H83.3L72.3,112.7z M90.1,91.8h27.8l1.6-36.2L89.6,91.8H90.1z"/>
<path fill-rule="evenodd" clip-rule="evenodd" fill="#232222" d="M384,114.3c0-1.6,1-2.6,2.6-2.6c1.6,0,2.6,1.1,2.6,2.6
	c0,1.6-1,2.6-2.6,2.6C385,116.9,384,115.9,384,114.3 M386.6,117.5c2.1,0,3.7-1.1,3.7-3.1c0-2.1-1.6-3.7-3.7-3.7
	c-2.1,0-3.7,1.6-3.7,3.7C382.9,116.4,384.5,117.5,386.6,117.5 M386.1,114.3h0.5l1,2.1h0.5l-1-2.1c0.5,0,1,0,1-1.1c0-0.5-0.5-1-1.6-1
	h-1v4.2h0.5V114.3z M386.1,113.8v-1h0.5c0.5,0,1,0,1,0.5c0,0.5-0.5,0.5-1,0.5H386.1z"/>
</svg>
