<?xml version="1.0" encoding="utf-8"?>
<!-- Generator: Adobe Illustrator 19.0.0, SVG Export Plug-In . SVG Version: 6.00 Build 0)  -->
<!DOCTYPE svg PUBLIC "-//W3C//DTD SVG 1.1//EN" "http://www.w3.org/Graphics/SVG/1.1/DTD/svg11.dtd">
<svg version="1.1" id="Layer_1" xmlns="http://www.w3.org/2000/svg" xmlns:xlink="http://www.w3.org/1999/xlink" x="0px" y="0px"
	 viewBox="-85 333.9 439.7 127.1" style="enable-background:new -85 333.9 439.7 127.1;" xml:space="preserve">
<g id="lYL5dm.tif">
	<g id="XMLID_1_">
		<path id="XMLID_55_" d="M190.6,355.9c3.4,0,6.9,0.2,10.3-0.1c2.8-0.2,3,0.9,2.3,3.1c-0.3,0.9-1.6,2-0.5,2.7
			c1.2,0.7,1.8-0.9,2.6-1.6c5.7-5.2,12.4-6.7,19.8-5c5.9,1.4,9.5,6,9.6,12.1c0.1,8.9-1.9,17.5-3.2,26.2c-2.3,15.2-4.8,30.4-7.1,45.7
			c-0.4,2.4-1.2,3-3.4,2.9c-7-0.1-14-0.1-21,0c-1.9,0-2.3-0.4-2-2.4c3.3-21,6.5-42,9.8-63.1c0.1-0.9,0.2-1.8,0.2-2.7
			c0.1-1.6,0.3-3.4-2-3.7s-4,0.7-4.7,3c-1.3,4.3-1.9,8.7-2.5,13.1c-2.8,17.7-5.6,35.4-8.2,53.2c-0.3,2.2-1.1,2.8-3.3,2.8
			c-6.9-0.2-13.8-0.1-20.7,0c-2.2,0-2.8-0.5-2.5-2.7c2.4-15,4.7-30,7-45c1.9-12,3.8-24,5.6-36c0.3-1.8,0.8-2.4,2.6-2.4
			C183.1,356,186.8,355.9,190.6,355.9z"/>
		<path id="XMLID_54_" d="M263.1,409.1c1.5-6.5,2.9-12.9,4.4-19.4c2.4-10.6,4.9-21.1,7.2-31.7c0.4-1.8,1.1-2.3,2.8-2.3
			c6.4,0.1,12.8,0.1,19.2,0c2.2,0,2.2,0.8,1.8,2.5c-7.7,27.8-15.3,55.6-23.1,83.4c-3.9,13.8-11.1,18.9-26.5,19.2
			c-7.7,0.1-15.4,0-23.1,0.1c-2,0-2.6-0.3-2.2-2.5c0.9-4.5,1.5-9,2-13.5c0.2-1.8,0.8-2.4,2.6-2.4c2.5,0.1,5.1-0.1,7.6-0.1
			c5-0.1,6.4-1.5,6.4-6.6c0-11.1-0.7-22.3-1.2-33.4c-0.6-14.6-1.2-29.1-1.9-43.7c-0.1-2.3,0.4-3,2.8-2.9c6.1,0.2,12.2,0.2,18.2,0
			c2.3-0.1,2.9,0.5,2.9,2.8c-0.2,15.7-0.3,31.4-0.4,47.1c0,1.1,0,2.2,0,3.3C262.6,409.1,262.8,409.1,263.1,409.1z"/>
		<path id="XMLID_53_" d="M-8.1,337.6c17.8-0.2,35.5-0.3,53.3,0.1c-0.9,6.1-2,12.2-2.8,18.3c-0.2,1.9-0.9,2.3-2.7,2.3
			c-6.9-0.1-13.8,0.1-20.7-0.1c-2.3,0-3.4,0.4-3.7,3c-0.4,4.4-1.3,8.8-2.1,13.2c-0.5,2.6-0.1,3.8,3,3.6c6.1-0.3,12.2,0,18.2-0.1
			c2.6-0.1,3.4,0.6,2.8,3.2c-0.9,4.7-1.6,9.4-2.2,14.1c-0.3,2-1,2.7-3.1,2.7c-6.6-0.1-13.2,0-19.8-0.1c-2.1,0-2.8,0.6-3,2.7
			c-0.8,5.7-1.7,11.4-2.7,17.1c-0.4,2.2-0.1,3.3,2.6,3.2c7.3-0.2,14.6,0,21.9-0.1c2.2,0,2.6,0.6,1.8,2.6c-2.1,5.5-4.1,11-6,16.6
			c-0.5,1.4-1.2,1.9-2.6,1.9c-15.4,0-30.8-0.1-46.2,0c-2.3,0-2.1-1-1.9-2.6c3.1-19.7,6.2-39.4,9.2-59.2
			C-12.5,365.9-10.3,351.7-8.1,337.6z"/>
		<path id="XMLID_50_" d="M66,337.4c9.7,0,19.4,0,29.1,0.1c1.2,0,2.4,0.1,3.6,0.2c1.5,28.4,2.9,56.9,4.4,85.3
			c0.3,5.6,0.5,11.1,0.8,16.7c0.1,1.6-0.4,2.1-2,2.1c-9-0.1-18,0-27.2,0c0-1.4,1.2-1.9,1.8-2.7c2.9-3.9,3.4-8.7,1-12.2
			c-2.5-3.7-7.1-5-11.9-3.5c-7.9,2.5-11.2,10-7.6,17.3c0.1,0.2,0.1,0.6,0.2,1.2c-6.7,0-13.2,0-19.8,0c-2.5,0-6,1.1-7.3-0.5
			c-1.3-1.7,1-4.6,1.8-7c10.6-31.6,21.4-63.1,32.1-94.7C65.3,338.8,65.7,338.1,66,337.4z M65.1,404.4c0.1,1.5,0,3,0.2,4.5
			c0.3,2.4-1.1,5.6,0.8,6.9c1.7,1.1,4.7,0.2,7.1,0.4c1.7,0.1,2.4-0.6,3-2.1c6.9-17.5,9.2-36,12.4-54.3c0.3-2-0.5-2.2-2.1-2.2
			c-3.8,0.1-7.7,0-11.5,0c-5.4,0-5.6,0-6.1,5.2C67.5,376.6,64.3,390.3,65.1,404.4z"/>
		<path id="XMLID_49_" d="M-69.7,337.4c16.5,0,33.1,0.1,49.6,0.1c1.9,0,3.9,0,5.8,0.1c-1,6.7-2,13.4-3,20.1c-0.2,1-0.8,1.9-1.3,2.7
			c-11.1,19.1-22.1,38.2-33.2,57.3c-0.5,0.8-0.9,1.6-1.3,2.4c0.7,1,1.7,0.6,2.5,0.6c7.7,0,15.4,0.1,23.1,0c1.9,0,2.5,0.5,2.2,2.4
			c-1,5.5-1.8,11-2.6,16.5c-0.2,1.6-0.9,2.2-2.6,2.2c-17.4-0.1-34.9-0.1-52.3,0c-1.8,0-2.5-0.4-2.2-2.4c1-5.9,1.7-11.9,2.5-17.8
			c0.2-1.3,0.9-2.3,1.5-3.3c11-19.1,21.9-38.1,32.9-57.2c1.6-2.8,1.6-2.8-1.6-2.8c-7,0-14,0-21,0c-1.9,0-2.7-0.2-2.2-2.5
			C-71.7,349.7-71.5,343.4-69.7,337.4z"/>
		<path id="XMLID_48_" d="M341.3,388.6c-3.2,0-6.5-0.1-9.7,0c-2.2,0.1-2.8-0.5-2.3-2.7c0.8-3.9,1.5-7.7,1.7-11.7
			c0.1-1.9,0.1-3.9-2.3-4.2c-2.5-0.3-3.9,1.2-4.3,3.4c-1.1,5.9-2.1,11.7-3.1,17.6c-1.4,8.8-2.7,17.6-4.1,26.4
			c-0.3,2.2-0.6,4.4-0.4,6.7c0.1,1.7,0.6,3.3,2.6,3.7c1.9,0.4,3.3-0.5,4.3-2.2c1-1.8,1.4-3.8,1.8-5.8c0.7-3.9,1.3-7.8,1.9-11.7
			c0.2-1.4,0.7-1.9,2.1-1.9c6.6,0.1,13.2,0,19.8,0c0.9,0,2-0.2,1.7,1.3c-1.3,6.8-1.8,13.9-5.5,20.1c-6.8,11.3-17,16-29.9,15.7
			c-3.5-0.1-6.9-0.3-10.2-1.3c-8.4-2.3-13.2-8-14-16.7c-0.3-3.7-0.3-7.3,0.3-10.9c1.7-11.4,3.3-22.9,5.4-34.2
			c3-16,14.2-25.2,30.5-25.8c3.3-0.1,6.7,0,10,0.7c11.6,2.4,17.5,9.6,17.4,21.3c0,3.4-0.6,6.9-0.8,10.3c-0.1,1.4-0.7,1.9-2.1,1.9
			C348.4,388.5,344.8,388.6,341.3,388.6z"/>
		<path id="XMLID_47_" d="M121.5,337.5c8.9,0,17.8,0,26.8,0c-0.7,7.9-2.2,15.6-3.4,23.4c-2.9,19-5.9,38-8.9,57
			c-0.4,2.5,0.2,2.9,2.5,2.9c7.3-0.1,14.6,0,21.9-0.1c2.1,0,2.9,0.3,2.5,2.7c-1,5.3-1.8,10.6-2.5,15.9c-0.3,2-1.2,2.5-3.2,2.5
			c-16.4-0.1-32.8-0.1-49.2,0c-2.3,0-2.8-0.5-2.4-2.9c5.2-33,10.3-66,15.5-99C121.1,339.1,121.3,338.3,121.5,337.5z"/>
	</g>
</g>
</svg>
