<?xml version="1.0" encoding="utf-8"?>
<!-- Generator: Adobe Illustrator 19.0.0, SVG Export Plug-In . SVG Version: 6.00 Build 0)  -->
<!DOCTYPE svg PUBLIC "-//W3C//DTD SVG 1.1//EN" "http://www.w3.org/Graphics/SVG/1.1/DTD/svg11.dtd">
<svg version="1.1" id="Layer_1" xmlns="http://www.w3.org/2000/svg" xmlns:xlink="http://www.w3.org/1999/xlink" x="0px" y="0px"
	 viewBox="0 0 399.4 93" style="enable-background:new 0 0 399.4 93;" xml:space="preserve">
<style type="text/css">
	.st0{clip-path:url(#SVGID_2_);fill:#EE3224;}
	.st1{clip-path:url(#SVGID_2_);}
	.st2{clip-path:url(#SVGID_4_);}
	.st3{clip-path:url(#SVGID_6_);}
	.st4{fill:url(#SVGID_7_);}
	.st5{display:none;clip-path:url(#SVGID_2_);}
	.st6{display:inline;}
	.st7{display:inline;clip-path:url(#SVGID_9_);}
	.st8{clip-path:url(#SVGID_11_);}
	.st9{fill:url(#SVGID_12_);}
	.st10{clip-path:url(#SVGID_14_);}
	.st11{fill:url(#SVGID_15_);}
	.st12{display:inline;clip-path:url(#SVGID_17_);}
	.st13{clip-path:url(#SVGID_19_);}
	.st14{fill:url(#SVGID_20_);}
	.st15{clip-path:url(#SVGID_22_);}
	.st16{fill:url(#SVGID_23_);}
</style>
<g>
	<defs>
		<rect id="SVGID_1_" y="4.5" width="392.5" height="82.1"/>
	</defs>
	<clipPath id="SVGID_2_">
		<use xlink:href="#SVGID_1_"  style="overflow:visible;"/>
	</clipPath>
	<path class="st0" d="M380.6,13.3c-0.6,1.2-1.9,1.6-3.2,1.6c-1.7,0-3.3-0.7-3.7-2.4c-0.1-0.4-0.1-0.8-0.2-1.2h1.9
		c0,0.3,0.1,0.5,0.2,0.8c0.3,0.8,1.1,1.1,1.9,1.1c0.6,0,1.6-0.3,1.6-1.1c0-0.2-0.1-0.3-0.1-0.4c-0.2-0.4-1-0.7-1.4-0.9
		c-0.9-0.4-1.9-0.7-2.6-1.3c-0.7-0.5-1-1.3-1-2.1c0-1.9,1.7-2.9,3.4-2.9c1.3,0,2.6,0.5,3.1,1.8c0.2,0.5,0.3,0.9,0.3,1.4h-1.9
		c0-0.9-0.8-1.5-1.6-1.5c-0.6,0-1.5,0.3-1.5,1.1c0,0.7,0.9,1,1.4,1.2c0.9,0.3,2,0.7,2.8,1.2c0.7,0.5,1,1.3,1,2.2
		C381,12.3,380.9,12.8,380.6,13.3"/>
	<polygon class="st0" points="390.7,14.7 390.7,6.9 388.6,14.7 386.6,14.7 384.5,6.9 384.5,14.7 382.8,14.7 382.8,4.7 385.4,4.7 
		387.6,12.6 389.8,4.7 392.5,4.7 392.5,14.7 	"/>
	<g class="st1">
		<defs>
			<path id="SVGID_3_" d="M70.6,5L50,55.2c7.8-0.5,16.3-2.4,22.1-2.9L89.8,5H70.6z"/>
		</defs>
		<clipPath id="SVGID_4_">
			<use xlink:href="#SVGID_3_"  style="overflow:visible;"/>
		</clipPath>
		<g class="st2">
			<defs>
				<rect id="SVGID_5_" x="50" y="5" width="39.7" height="50.2"/>
			</defs>
			<clipPath id="SVGID_6_">
				<use xlink:href="#SVGID_5_"  style="overflow:visible;"/>
			</clipPath>
			<g class="st3">
				
					<linearGradient id="SVGID_7_" gradientUnits="userSpaceOnUse" x1="-17.584" y1="154" x2="-16.584" y2="154" gradientTransform="matrix(31.6829 -54.8766 -54.8766 -31.6829 9062.3076 3971.2314)">
					<stop  offset="0" style="stop-color:#EE3224"/>
					<stop  offset="0.5135" style="stop-color:#EE3224"/>
					<stop  offset="1" style="stop-color:#EE3224"/>
				</linearGradient>
				<polygon class="st4" points="28,41.9 123,-122.8 287.6,-27.7 192.6,136.9 				"/>
			</g>
		</g>
	</g>
	<g class="st5">
		<defs>
			<path id="SVGID_8_" d="M70.6,5L50,55.2c7.8-0.5,16.3-2.4,22.1-2.9L89.7,5H70.6z"/>
		</defs>
		<clipPath id="SVGID_9_" class="st6">
			<use xlink:href="#SVGID_8_"  style="overflow:visible;"/>
		</clipPath>
		<g class="st7">
			<defs>
				<rect id="SVGID_10_" x="50" y="5" width="39.7" height="50.2"/>
			</defs>
			<clipPath id="SVGID_11_">
				<use xlink:href="#SVGID_10_"  style="overflow:visible;"/>
			</clipPath>
			<g class="st8">
				
					<linearGradient id="SVGID_12_" gradientUnits="userSpaceOnUse" x1="-17.584" y1="154" x2="-16.584" y2="154" gradientTransform="matrix(-1.8561 -38.1642 -38.1642 1.8561 5914.5728 -904.1877)">
					<stop  offset="0" style="stop-color:#BFC1C3"/>
					<stop  offset="0.1053" style="stop-color:#D2D3D5"/>
					<stop  offset="0.2588" style="stop-color:#E6E7E7"/>
					<stop  offset="0.4335" style="stop-color:#F4F4F5"/>
					<stop  offset="0.6457" style="stop-color:#FCFDFD"/>
					<stop  offset="1" style="stop-color:#FFFFFF"/>
				</linearGradient>
				<polygon class="st9" points="49.1,57.4 43.5,-57.1 158,-62.7 163.6,51.8 				"/>
			</g>
		</g>
		<g class="st7">
			<defs>
				<rect id="SVGID_13_" x="50" y="5" width="39.7" height="50.2"/>
			</defs>
			<clipPath id="SVGID_14_">
				<use xlink:href="#SVGID_13_"  style="overflow:visible;"/>
			</clipPath>
			<g class="st10">
				
					<linearGradient id="SVGID_15_" gradientUnits="userSpaceOnUse" x1="-17.584" y1="154" x2="-16.584" y2="154" gradientTransform="matrix(-1.8561 -38.1642 -38.1642 1.8561 5914.5728 -904.1877)">
					<stop  offset="0" style="stop-color:#FFFFFF"/>
					<stop  offset="3.090501e-03" style="stop-color:#FFFDFC"/>
					<stop  offset="6.386149e-02" style="stop-color:#FBD2CF"/>
					<stop  offset="0.1284" style="stop-color:#F8ADA7"/>
					<stop  offset="0.1993" style="stop-color:#F58C84"/>
					<stop  offset="0.2758" style="stop-color:#F37066"/>
					<stop  offset="0.3599" style="stop-color:#F1594E"/>
					<stop  offset="0.4545" style="stop-color:#F0483B"/>
					<stop  offset="0.5656" style="stop-color:#EF3B2E"/>
					<stop  offset="0.709" style="stop-color:#EE3426"/>
					<stop  offset="1" style="stop-color:#EE3224"/>
				</linearGradient>
				<polygon class="st11" points="49.1,57.4 43.5,-57.1 158,-62.7 163.6,51.8 				"/>
			</g>
		</g>
	</g>
	<path class="st0" d="M42.6,73.3c8.9,0.4,18.9-1.5,22.6-2.2l-5.7,15.4H37.2L42.6,73.3z"/>
	<g class="st5">
		<defs>
			<path id="SVGID_16_" d="M42.6,73.3c8.9,0.4,18.9-1.5,22.6-2.2l-5.7,15.4H37.2L42.6,73.3z"/>
		</defs>
		<clipPath id="SVGID_17_" class="st6">
			<use xlink:href="#SVGID_16_"  style="overflow:visible;"/>
		</clipPath>
		<g class="st12">
			<defs>
				<rect id="SVGID_18_" x="37.2" y="71.1" width="28" height="15.4"/>
			</defs>
			<clipPath id="SVGID_19_">
				<use xlink:href="#SVGID_18_"  style="overflow:visible;"/>
			</clipPath>
			<g class="st13">
				
					<linearGradient id="SVGID_20_" gradientUnits="userSpaceOnUse" x1="-17.584" y1="154" x2="-16.584" y2="154" gradientTransform="matrix(2.7717 15.7191 15.7191 -2.7717 -2321.8291 775.673)">
					<stop  offset="0" style="stop-color:#BFC1C3"/>
					<stop  offset="0.2917" style="stop-color:#CDCFD1"/>
					<stop  offset="0.8455" style="stop-color:#F3F4F4"/>
					<stop  offset="1" style="stop-color:#FFFFFF"/>
				</linearGradient>
				<polygon class="st14" points="64.5,66.7 72.8,113.9 25.7,122.2 17.4,75 				"/>
			</g>
		</g>
		<g class="st12">
			<defs>
				<rect id="SVGID_21_" x="37.2" y="71.1" width="28" height="15.4"/>
			</defs>
			<clipPath id="SVGID_22_">
				<use xlink:href="#SVGID_21_"  style="overflow:visible;"/>
			</clipPath>
			<g class="st15">
				
					<linearGradient id="SVGID_23_" gradientUnits="userSpaceOnUse" x1="-17.584" y1="154" x2="-16.584" y2="154" gradientTransform="matrix(2.7717 15.7191 15.7191 -2.7717 -2321.8291 775.673)">
					<stop  offset="0" style="stop-color:#FFFFFF"/>
					<stop  offset="1" style="stop-color:#EE3224"/>
				</linearGradient>
				<polygon class="st16" points="64.5,66.7 72.8,113.9 25.7,122.2 17.4,75 				"/>
			</g>
		</g>
	</g>
	<path class="st0" d="M114,79.4c-2.8-1.7-8.5-4.7-16-6.6l4.9,13.7h30.4l6.7-18.1c0.4-0.1,7.3-1.3,15.2-1.3c7.9,0,14.5,1.2,14.9,1.3
		l6.5,18h59.6V53.7l24.9,32.8h61.7V62.3h13.7c22.7,0,36.5-11.2,36.5-28.7c0-16.6-12.6-28.7-36.5-28.7h-43.3v78.2L270,57.9
		c3.6-1.6,16.4-7.9,16.4-24.3c0-16.3-13.2-28.7-40.2-28.7h-39.7v75.3L177.6,5h-33.2l-20.9,51.1L103.8,5H73.5l17.2,47.3
		c-0.6-0.1-5.9-1.2-13.2-1.2c-16.5,0-21.8,2.9-35.1,2.9C24,54.1,8,43.8,6.4,42.7L0,58.3c0.9,0.6,17.4,12.3,41.4,12.3
		c14.8,0,23.8-3.5,38.1-3.5c18.4,0,31.2,6.5,35.8,9.2L114,79.4z M155.2,27.5l9.1,24.3c-0.4-0.1-5-0.6-9.1-0.6
		c-3.8,0-8.8,0.6-9.2,0.6L155.2,27.5z M236.2,48.9V18.4h4.4c11.3,0,15.4,7.1,15.4,15.2c0,9.4-5.2,15.2-15.4,15.2H236.2z M322.9,48.9
		V18.4h6c9,0,13.7,6.4,13.7,15.2c0,9.5-5.2,15.2-13.7,15.2H322.9z"/>
</g>
</svg>
