<?xml version="1.0" encoding="utf-8"?>
<!-- Generator: Adobe Illustrator 19.0.0, SVG Export Plug-In . SVG Version: 6.00 Build 0)  -->
<!DOCTYPE svg PUBLIC "-//W3C//DTD SVG 1.1//EN" "http://www.w3.org/Graphics/SVG/1.1/DTD/svg11.dtd">
<svg version="1.1" id="Layer_1" xmlns="http://www.w3.org/2000/svg" xmlns:xlink="http://www.w3.org/1999/xlink" x="0px" y="0px"
	 viewBox="-35.8 304.3 417 175.9" style="enable-background:new -35.8 304.3 417 175.9;" xml:space="preserve">
<g id="XLDXML.tif">
	<g id="XMLID_1_">
		<path id="XMLID_124_" d="M267.7,408.1c-8.3,22.5-45.9,24.9-59.1-1.7c-12.6,24.5-47,26.6-60.8-1c-6.2,12.6-15.9,20-30.2,20
			c-14.7,0-24.6-7.7-30.8-21.3C80.6,416.6,71.5,425,57,425.4c-14.4,0.4-24.5-6.6-31.7-20.1c0,6.2-0.2,11.2,0.1,16.3
			c0.1,2.7-0.8,3.6-3.4,3.4c-1.8-0.1-3.7,0-5.5,0c-7.1,0-7.1,0-8.1-6.8c-0.4,0.1-1,0-1.3,0.3c-8.9,8.4-19.2,8.4-29.7,4.2
			c-9.3-3.7-13.8-11.6-13.1-21.3c0.6-8.1,6.6-14.7,15.9-17.1c7.7-2,15.4-2.1,23.2-0.4c1.2,0.3,2.8,1.4,3.6,0c0.9-1.5,0.2-3.2-1-4.5
			c-5.3-5.7-12.1-4.5-18.7-3.9c-1,0.1-1.9,0.6-2.9,0.8c-2.7,0.5-5.8,3.8-7.7,2.2c-2.7-2.3-4.1-6.3-6-9.7c-1-1.8,0.5-2.3,1.7-2.8
			c12-5.6,24.4-6.7,37-2.7c9.4,2.9,14.2,9.9,15,20.1c6-13.7,15.9-22.1,30.9-22.4c15.1-0.3,25.4,7.6,31.5,21.5
			c10.7-26.3,46.6-30.4,61.4-1.8c1.9-2.8,3.6-5.7,5.7-8.2c8.9-10.8,23.6-14.4,36.7-9.3c12.8,5,21.1,18.1,20.5,31.9
			c-0.2,3.2-1.4,4.2-4.5,4.1c-14-0.2-28-0.1-42-0.1c2.7,9.9,15.7,13.4,24.2,6.5c2.3-1.9,4.4-2.5,7.2-2.4c6,0.1,12,0.1,18,0
			c5.8-0.1,11.2-0.3,16,4.5c4,3.9,9.9,3.4,15.2,2.1c2.3-0.5,4.6-1.5,4.7-4.4c0-2.9-2.2-3.9-4.6-4.4c-5.8-1.2-11.7-2.3-17.6-3.6
			c-2.6-0.6-5.1-1.5-7.5-2.7c-9.2-4.6-12-14.6-6.3-23.1c6-8.8,15.3-10.9,25.1-10.6c10.3,0.3,19.3,3.7,24.5,13.5
			c2.7,5.2,2.3,5.7-3.4,5.7c-2.8,0-5.7,0-8.5,0c-1.7,0-3-0.3-4.4-1.6c-3.8-3.8-11.9-4.6-16.8-2.1c-1.5,0.8-3,1.6-2.8,3.7
			c0.1,1.8,1.5,2.5,2.9,3.1c4.7,1.8,9.8,2,14.6,3c4.7,1,9.5,1.9,13.8,4.3c3.8,2.1,6.9,5,7.6,9.4c0.5,2.8,1.7,3.6,4.3,3.3
			c1.7-0.2,3.3,0.1,5,0c4.1-0.3,7.5,0.3,10.7,3.5c4.3,4.3,10.2,4.5,16,3.3c2.6-0.5,5.6-1.4,5.7-4.7c0.1-3.4-3-4.2-5.5-4.7
			c-5.8-1.3-11.7-2.2-17.6-3.4c-1.8-0.4-3.5-1-5.2-1.7c-13.3-5.5-15.3-19.4-4.2-28.5c10.8-8.9,32.2-8,42.1,1.8
			c0.9,0.9,1.9,1.9,2.6,3c1.6,2.4,4,5.1,2.9,7.6c-1,2.1-4.5,0.7-6.9,0.7c-4.7,0-9,0.4-13.4-3.2c-4.2-3.5-10.1-2.3-15.3-0.2
			c-1.6,0.7-2.6,2-2.3,4c0.3,1.7,1.2,2.3,3,2.6c6.5,1.2,13,2.5,19.5,3.9c1.9,0.4,3.9,1,5.7,1.7c6.4,2.3,11.2,6.1,11.8,13.3
			c0.7,7.8-2.3,13.6-8.9,18.1c-13.9,9.4-37.7,6.2-47.2-10.1C268.8,409.4,268.3,408.8,267.7,408.1z M75.9,403c3.1,0,4.9-0.2,6.7,0
			c3.2,0.3,4.3-0.6,3.2-3.8c-1-2.7-0.5-5.6-0.4-8.4c0.1-6.2,0.2-6.2-6.3-6.2c-4.9,0-9.2,0.1-13.4-4.2c-5.8-6-15.7-4.7-21.5,1.4
			c-5.6,5.8-6,14.7-1.1,20.9c5.3,6.7,14.7,8.8,21.3,3.8C68.5,403.3,72.5,402.6,75.9,403z M137.6,403c1.8,0,2.6-0.1,3.4,0
			c5,0.8,7.3-0.4,5.5-6.1c-0.7-2.3-0.5-5,0-7.4c0.8-4.4-1-5.4-5-5c-5.2,0.4-9.9,0.1-14.4-4.4c-5.6-5.7-16.8-4.3-21.7,1.6
			c-5.5,6.6-6.1,14.7,1.3,23.7c3.5,4.2,14.1,5.2,19.4,1.1C130,403.4,133.9,402.5,137.6,403z M-7.7,411c6.4,0.2,12.8-4,14.6-9.3
			c0.8-2.4,0.8-4.1-2.2-4.8c-4.4-1-8.8-1.9-13.3-1.3c-5.9,0.7-8.8,3.6-8.6,7.8C-17,407.9-13.3,410.9-7.7,411z M192.3,384.9
			c-5.8-11.2-23.3-10.1-27.2,0C174,384.9,182.9,384.9,192.3,384.9z"/>
		<path id="XMLID_123_" d="M312.3,324.3c-3.2,8.6-6.1,15.9-8.7,23.2c-1.2,3.3-3.1,4.6-6.7,4.6c-23.3-0.2-46.6-0.1-70-0.1
			c-1,0-2,0-3,0c-2.2,0-3.4-1.1-3.5-3.3c-0.1-2.3,1.2-3.4,3.4-3.4c2.8-0.1,5.7,0,8.5,0c19.5,0,39-0.1,58.5,0c3,0,4.7-0.7,5.9-3.9
			c3.7-10.5,7.8-20.9,11.8-31.2c1-2.6,1.4-5.8,5.2-5.9c3.9-0.1,4.3,3.1,5.2,5.7c2.4,7.2,6,14,7.6,21.5c0.7,3.3,2.8,6.3,4.4,9.3
			c1.1,2.1,3.2,1.4,5,1.4c12.8,0,25.7,0,38.5,0c2.4,0,5.1-0.6,6.4,2.5c1.3,3.3-0.9,5-2.9,6.8c-7.4,6.6-14,13.9-22.1,19.9
			c-4.1,3.1-7.1,8.2-11,12c-1.8,1.8-0.2,3.5,0.4,5c2.9,6.5,6,13,9.1,19.4c1.7,3.6,2.2,7-2,8.9c-3.9,1.8-6-0.6-7.8-3.9
			c-5.1-9.2-8.7-19-13.2-28.5c-1.4-2.9,0.1-4.8,1.9-6.6c6.8-7.1,13.7-14.1,20.5-21.1c1-1,2.9-1.9,2.4-3.5c-0.6-1.7-2.6-0.8-4-0.9
			c-7.8-0.1-15.7-0.3-23.5,0.1c-4.5,0.2-6.6-1.6-7.9-5.7C318.1,339.3,315.4,332.4,312.3,324.3z"/>
		<path id="XMLID_122_" d="M231.2,451.5c0,1.7,0,3.3,0,5c0,9.7-8.3,14.9-16.8,10.4c-1.8-0.9-2.8-1.2-4.7-0.1
			c-7.4,4.1-15.1,0.4-16.7-7.9c-0.9-4.6-0.5-9.3-0.1-13.9c0.1-1.9,0.4-3.9,3.4-3.9c3.2,0.1,2.8,2.1,2.8,4.1c0,4.2,0.1,8.3,0.1,12.5
			c0,3.3,1.7,5.1,4.8,5.2c3.1,0.1,5-1.9,5.2-4.9c0.3-4.3,0.2-8.7,0.2-13c0-2.2,0-3.9,3.1-3.9c2.8,0.1,2.7,1.8,2.7,3.7
			c0,4.2,0.1,8.3,0,12.5c-0.1,3.5,1.5,5.6,4.9,5.5c3.2-0.1,5.2-2.1,5.2-5.5c0-4,0-8,0.1-12c0-1.9-0.6-4.1,2.7-4.2
			c3.5-0.1,3,2.2,3,4.4C231.2,447.5,231.2,449.5,231.2,451.5L231.2,451.5z"/>
		<path id="XMLID_119_" d="M324.4,444c0,3.7,0.1,7.3,0,11c-0.2,8.8-6.7,14.1-16.2,13.2c-7.1-0.7-13-8.7-11.7-15.9
			c1.5-8.1,9.5-13.2,17.5-11c0.8,0.2,1.6,0.5,2.3,0.9c2.2,1.2,3,0.4,2.9-1.9c-0.1-2-0.3-4.1,0.1-6c0.4-2.2-2.1-6.2,2.5-6
			c4.4,0.2,2,4.1,2.3,6.3C324.7,437.6,324.4,440.8,324.4,444L324.4,444z M310.6,445.9c-4.9,0.1-8.3,3.4-8.2,8c0,4.9,3.7,9,8,9.1
			c4.5,0.1,8.6-4,8.7-8.5C319.2,450.1,315,445.9,310.6,445.9z"/>
		<path id="XMLID_118_" d="M108.2,457.9c0,2.3-0.1,4.7,0,7c0.1,2.5-1.2,3.1-3.4,3.2c-2.4,0.1-2.7-1.3-2.6-3.2c0.1-4,0.2-8,0.1-12
			c-0.1-3.8-1.3-7-5.9-7.1c-4-0.1-6.1,2.3-6.2,7.2c-0.1,3.8-0.1,7.7,0.1,11.5c0.1,2.7-1.1,3.5-3.6,3.5s-2.4-1.6-2.4-3.4
			c0.1-11.1,0.1-22.3,0.1-33.4c0-2.2,0.5-3.4,3.1-3.3c2.3,0.1,2.8,1.3,2.7,3.2c0,1.3,0.1,2.7,0,4c-0.3,4.3-0.9,7.8,5.9,5.5
			c5.8-1.9,11.3,3.4,12,10.2c0.2,2.3,0,4.7,0,7C108.2,457.9,108.2,457.9,108.2,457.9z"/>
		<path id="XMLID_117_" d="M188.4,457.5c0,3.8,0.1,7.6,0,11.5c-0.2,6.8-5.3,11.5-11.9,11.2c-1.9-0.1-3.2-0.3-3.2-2.7
			c0-1.9,0.4-3.2,2.7-3.2c1.1,0,2.4-0.1,3.4-0.5c1.8-0.8,3-2.4,2.7-4.3c-0.3-2.3-2.4-1.2-3.7-1.2c-7-0.3-10.1-3.2-10.2-10.1
			c0-4.3,0-8.6,0.1-13c0-1.7-0.6-3.9,2.4-3.9c3.3-0.1,2.6,2.3,2.6,4.2c0.1,3.8-0.1,7.7,0.2,11.5c0.2,2.9,1.1,5.9,4.7,6
			c3.9,0,4.2-3.1,4.2-6.1c0-4,0.1-8,0.1-12c0-1.9-0.1-3.6,2.7-3.7c3-0.1,3.1,1.7,3.1,3.9C188.2,449.3,188.3,453.4,188.4,457.5
			C188.3,457.5,188.3,457.5,188.4,457.5z"/>
		<path id="XMLID_114_" d="M140.4,454.5c0.1,8-5.7,13.8-13.8,13.8c-8.2,0-14.1-5.6-14.2-13.5c0-7.9,6.5-14.5,14.2-14.4
			C134.1,440.5,140.3,446.8,140.4,454.5z M134.5,454.6c0.1-5.1-3.3-8.7-8.1-8.7c-4.7,0-7.9,3.4-8,8.3c-0.1,5,3.3,8.7,8.1,8.7
			C130.9,463,134.4,459.3,134.5,454.6z"/>
		<path id="XMLID_111_" d="M262.5,454.5c0,8.4-5.2,13.7-13.7,13.7c-8.1,0-14.2-5.7-14.3-13.5c-0.1-7.9,6.2-14.5,14.3-14.3
			C256.7,440.6,263.5,447.6,262.5,454.5z M249,446c-4.5-0.1-8.6,3.8-8.6,8.4c0,4.2,3.9,8.4,8.1,8.6c4.3,0.2,8.8-4.2,8.7-8.5
			C257.1,450.2,253.2,446.1,249,446z"/>
		<path id="XMLID_108_" d="M293.5,454.8c0,8.2-5.5,13.4-14,13.4c-8,0-14.1-6-14-13.7c0.1-7.3,6.7-14.1,14.1-14
			C287.5,440.5,294.5,447.2,293.5,454.8z M280.1,463c4.2-0.1,8.3-4.5,8.1-8.7c-0.2-4.6-4.4-8.5-8.8-8.4c-4.9,0.2-8.3,4-8,9
			C271.6,459.1,275.9,463.1,280.1,463z"/>
		<path id="XMLID_107_" d="M157.4,448.1c0-5.5,0-11,0-16.4c0-2,0.1-3.6,2.8-3.6c2.6,0,3,1.4,3,3.5c0,11,0,21.9,0.1,32.9
			c0,2.5-0.7,3.7-3.3,3.8c-2.8,0.1-2.7-1.7-2.7-3.6c0-5.5,0-11,0-16.4C157.3,448.1,157.4,448.1,157.4,448.1z"/>
		<path id="XMLID_106_" d="M150.7,449.1c0,5.2-0.2,10.3,0.1,15.5c0.1,2.5-0.5,3.4-2.9,3.4c-2.3,0-3-0.9-2.9-3.4
			c0.3-10.8,0.3-21.6,0.4-32.4c0-1.6-0.8-3.9,2.2-4.1c3.2-0.2,2.8,2.1,2.8,4.1c0,5.7,0,11.3,0,17
			C150.5,449.1,150.6,449.1,150.7,449.1z"/>
	</g>
</g>
</svg>
