<?xml version="1.0" encoding="utf-8"?>
<!-- Generator: Adobe Illustrator 19.1.0, SVG Export Plug-In . SVG Version: 6.00 Build 0)  -->
<svg version="1.1" id="Layer_1" xmlns="http://www.w3.org/2000/svg" xmlns:xlink="http://www.w3.org/1999/xlink" x="0px" y="0px"
	 viewBox="0 0 441 102" enable-background="new 0 0 441 102" xml:space="preserve">
<polygon points="6.7,6.2 38.7,6.2 38.7,20.9 22.6,20.9 22.6,39.5 35.4,39.5 35.4,54.2 22.6,54.2 22.6,81.4 38.7,81.4 38.7,96 
	6.7,96 "/>
<path d="M41.1,27.8h14.5v3.6c1.9-2.6,5.3-4.3,9.9-4.3c9.2,0,10.3,4,10.3,15.6V96H61.4v-51c0-3.4-0.7-4-2.6-4c-2,0-3.2,0.4-3.2,4v51
	H41.1V27.8z"/>
<path d="M78.2,27.8H82V11.3h14.4v16.5h5v13.6h-5v35.9c0,4.3,1.1,5,4.3,5h0.7V96h-5.2C86.3,96,82,92,82,80.7V41.5h-3.9V27.8z"/>
<path d="M120.9,96.3c13.3,0,15.9-6.6,16.2-21l-13.5-0.7c0,7.7-1,8.8-3.3,8.8c-2.3,0-3.3-1.4-3.3-7.6v-8.2h20.2V47.8
	c0-14.8-3.9-20.7-16.4-20.7c-12.8,0-17.7,4.7-17.7,20.8v27.9C103.2,90.1,107.3,96.3,120.9,96.3 M117,47.8c0-5.9,1-7.2,3.5-7.2
	c2.6,0,3.3,1.3,3.3,7v7.5H117V47.8z"/>
<path d="M140.6,27.8h14.5v4c1.6-2.4,4-3.9,5.9-4v13.8c-3.9,0.3-5.9,1.3-5.9,10.8V96h-14.5V27.8z"/>
<path d="M162.2,27.8h3.3V11.3h14.4v16.5h5v13.9h-5v35.6c0,4.3,1.2,5,4.3,5h0.7V96h-5.2c-9.9,0-14.2-4-14.2-15.4V41.8h-3.3V27.8z"/>
<path d="M196.8,96.2c6.2,0,8.5-0.9,9.9-3.6V96h13.4V43c0-12.1-2.6-15.9-15.8-15.9c-12.3,0-17.4,5.6-18.2,17.2l13.8,1.4
	c0.3-3.6,0.6-5.2,3.7-5.2c2.4,0,2.9,0.9,2.9,4.9v2.4c-16.8,4.5-20.2,11.1-20.2,28.7C186.2,90.7,187.3,96.2,196.8,96.2 M202.8,83.8
	c-2.4,0-2.9-2.2-2.9-8.2c0-10,1.4-12.1,6.5-13.9v15.9C206.4,82.8,205.6,83.8,202.8,83.8"/>
<path d="M224.2,11.3h14.2v14.4h-14.2V11.3z M224.2,27.8h14.2V96h-14.2V27.8z"/>
<path d="M242.7,27.8h14.5v3.6c1.9-2.6,5.3-4.3,9.9-4.3c9.2,0,10.3,4,10.3,15.6V96H263v-51c0-3.4-0.7-4-2.6-4c-2,0-3.2,0.4-3.2,4v51
	h-14.5V27.8z"/>
<path d="M436.4,41.5V27.8h-5V11.3H417v16.5h-3.9v13.6h3.9v39.2C417,92,421.3,96,431.2,96h5.2V82.4h-0.7c-3.2,0-4.3-0.7-4.3-5V41.5
	H436.4z M425.8,85.8v5.5h-2.4V86l-2.9-9h2.4l1.7,5.9l1.7-5.9h2.3L425.8,85.8z"/>
<path d="M400.5,27.1c-4.6,0-8,1.7-9.9,4.3v-3.6h-14.5V96h14.5v-51c0-3.6,1.1-4,3.2-4c1.9,0,2.6,0.6,2.6,4v51h14.5V42.8
	C410.8,31.1,409.7,27.1,400.5,27.1z M385.1,91.3l-2.2-6.9l-0.6,0.9v6h-2.4V76.9h2.4v4.7l2.6-4.7h2.4l-2.7,4.7l2.9,9.6H385.1z
	 M406.9,91.3h-6.3V76.9h2.5v12.2h3.9V91.3z"/>
<path d="M372.8,67.6V47.8c0-14.8-3.9-20.7-16.4-20.7c-12.8,0-17.7,4.7-17.7,20.8v27.9c0,14.4,4,20.5,17.7,20.5
	c13.3,0,15.9-6.6,16.2-21l-13.5-0.7c0,7.7-1,8.8-3.3,8.8c-2.3,0-3.3-1.4-3.3-7.6v-8.2H372.8z M352.5,47.8c0-5.9,1-7.2,3.4-7.2
	c2.6,0,3.3,1.3,3.3,7v7.5h-6.7V47.8z M361.7,76.9h6.5v2.1h-4v3.3h3.3v2h-3.3v4.7h4v2.2h-6.5V76.9z M350.7,79.1h-4v3.3h3.3v2h-3.3
	v4.7h4v2.2h-6.4V76.9h6.4V79.1z"/>
<path d="M324.8,27.1c-5.3,0-8.2,2.4-10.2,5.7c-1.2-4.2-3.5-5.7-9.2-5.7c-4.6,0-7.8,1.7-9.6,4.3v-3.6h-14.2V96h14.2v-51
	c0-3.6,1-4,3-4c1.9,0,2.4,0.6,2.4,4v51h14.2v-51c0-3,0.6-4,3-4c1.9,0,2.4,0.6,2.4,4v51h14.2V42.8C335.2,30.6,334,27.1,324.8,27.1z
	 M332.1,91.3h-2.4l-1.4-9.1l-1.4,9.1h-2.4l-2.2-14.4h2.3l0.9,6.2l0.4,2.9l0.4-2.9l1-6.2h2.2l1,6.2l0.4,2.9l0.4-2.9l0.9-6.2h2.3
	L332.1,91.3z"/>
</svg>
