<?xml version="1.0" encoding="utf-8"?>
<!-- Generator: Adobe Illustrator 19.0.0, SVG Export Plug-In . SVG Version: 6.00 Build 0)  -->
<!DOCTYPE svg PUBLIC "-//W3C//DTD SVG 1.1//EN" "http://www.w3.org/Graphics/SVG/1.1/DTD/svg11.dtd">
<svg version="1.1"
	 id="svg9219" xmlns:rdf="http://www.w3.org/1999/02/22-rdf-syntax-ns#" xmlns:dc="http://purl.org/dc/elements/1.1/" xmlns:inkscape="http://www.inkscape.org/namespaces/inkscape" xmlns:cc="http://creativecommons.org/ns#" xmlns:svg="http://www.w3.org/2000/svg" xmlns:sodipodi="http://sodipodi.sourceforge.net/DTD/sodipodi-0.dtd" inkscape:version="0.48.2 r9819" inkscape:export-xdpi="1751.5576" sodipodi:docname="1.svg" inkscape:export-ydpi="1751.5576" inkscape:export-filename="C:\Users\Klemen\Downloads\1.png"
	 xmlns="http://www.w3.org/2000/svg" xmlns:xlink="http://www.w3.org/1999/xlink" x="0px" y="0px" viewBox="-155 368.4 300 57.6"
	 style="enable-background:new -155 368.4 300 57.6;" xml:space="preserve">
<sodipodi:namedview  pagecolor="#ffffff" fit-margin-top="0" fit-margin-left="0" id="base" inkscape:cy="60.956557" inkscape:zoom="2.6539335" inkscape:cx="266.68602" showgrid="false" bordercolor="#666666" borderopacity="1.0" inkscape:window-width="1280" inkscape:window-y="-8" inkscape:window-x="1016" inkscape:window-maximized="1" inkscape:window-height="972" fit-margin-bottom="0" inkscape:document-units="px" fit-margin-right="0" inkscape:pageopacity="0.0" inkscape:pageshadow="2" inkscape:current-layer="layer1">
	</sodipodi:namedview>
<g id="layer1" transform="translate(-165.05468,-446.523)" inkscape:label="Layer 1" inkscape:groupmode="layer">
	<g id="g4425" transform="matrix(4.0432231,0,0,-4.0432231,-825.58754,1221.621)">
		<g>
			<g id="g4427">
				<g id="g4433" transform="translate(299.2887,187.6097)">
					<path id="path4435" inkscape:connector-curvature="0" d="M-38.3-91.1l-2.6-7.9l-2.7,8h-1.2l-2.7-8l-2.6,7.9h-1.6l0.1-0.4
						c0.2-0.2,0.3-0.3,0.5-0.5c0.4-0.5,0.8-1.2,1-1.9c0.2-0.7,0.3-1.5,0.3-2.2v-0.4l0-0.2l1.6-4.5h1.3l2.7,7.8l2.7-7.8h1.3l3.5,10
						H-38.3z"/>
				</g>
				<path id="path4437" inkscape:connector-curvature="0" d="M263.2,96.5h1.5v-9.9h-1.5V96.5z M263.2,100.3h1.7v-1.6h-1.7V100.3z"/>
				<g id="g4439" transform="translate(303.86971,187.5722)">
					<path id="path4441" inkscape:connector-curvature="0" d="M-38.3-91.1h1.5v-2.6c0.2,0.4,0.4,0.8,0.7,1.1
						c0.3,0.3,0.6,0.6,0.9,0.9c0.3,0.2,0.7,0.4,1.1,0.6c0.4,0.1,0.8,0.2,1.3,0.2v-1.6h-0.1c-0.5,0-1-0.1-1.5-0.3
						c-0.5-0.2-0.9-0.5-1.3-0.9c-0.4-0.4-0.6-0.9-0.8-1.4c-0.2-0.6-0.3-1.2-0.3-2v-3.9h-1.5V-91.1z"/>
				</g>
				<g id="g4443" transform="translate(316.48669,183.2606)">
					<path id="path4445" inkscape:connector-curvature="0" d="M-38.3-91.1c0,0.4-0.1,0.9-0.3,1.3c-0.2,0.4-0.4,0.8-0.6,1.1
						c-0.3,0.3-0.6,0.5-1,0.7c-0.4,0.2-0.8,0.3-1.3,0.3c-0.4,0-0.8-0.1-1.2-0.2c-0.4-0.2-0.7-0.4-1-0.7c-0.3-0.3-0.5-0.7-0.7-1.1
						c-0.2-0.4-0.3-0.8-0.4-1.3H-38.3z M-44.7-92.3c0.1-0.5,0.2-1,0.4-1.4c0.2-0.4,0.5-0.8,0.8-1c0.3-0.3,0.7-0.5,1.1-0.6
						c0.4-0.1,0.8-0.2,1.2-0.2c0.7,0,1.3,0.1,1.8,0.4c0.5,0.3,0.9,0.6,1.4,1l0.9-0.8c-0.5-0.6-1.1-1-1.7-1.3
						c-0.6-0.3-1.4-0.5-2.4-0.5c-0.7,0-1.3,0.1-1.9,0.4c-0.6,0.2-1.1,0.6-1.6,1.1c-0.4,0.5-0.8,1-1.1,1.6c-0.3,0.6-0.4,1.3-0.4,2.1
						c0,0.7,0.1,1.4,0.4,2c0.2,0.6,0.6,1.2,1,1.6c0.4,0.5,0.9,0.8,1.5,1.1c0.6,0.3,1.2,0.4,1.9,0.4c0.7,0,1.4-0.1,2-0.4
						c0.6-0.3,1.1-0.6,1.5-1.1c0.4-0.5,0.7-1,0.9-1.7c0.2-0.6,0.3-1.3,0.3-2.1V-92c0-0.1,0-0.2,0-0.3
						C-36.9-92.3-44.7-92.3-44.7-92.3z"/>
				</g>
				<path id="path4447" inkscape:connector-curvature="0" d="M206.7,100.6h3.8v-14h-3.8V100.6z"/>
				<g id="g4449" transform="translate(249.629,188.06799)">
					<path id="path4451" inkscape:connector-curvature="0" d="M-38.3-91.1h3.7v-1.5c0.2,0.2,0.3,0.4,0.5,0.6
						c0.2,0.2,0.4,0.4,0.7,0.5c0.3,0.2,0.5,0.3,0.8,0.4c0.3,0.1,0.6,0.1,1,0.1c1.1,0,2-0.3,2.6-1c0.6-0.7,0.9-1.6,0.9-2.8v-6.8h-3.7
						v5.6c0,0.6-0.1,1-0.4,1.3c-0.3,0.3-0.6,0.4-1,0.4c-0.4,0-0.8-0.1-1.1-0.4c-0.3-0.3-0.4-0.7-0.4-1.3v-5.6h-3.7V-91.1z"/>
				</g>
				<g id="g4453" transform="translate(266.19389,180.52161)">
					<path id="path4455" inkscape:connector-curvature="0" d="M-38.3-91.1c0.3,0,0.6,0.1,0.8,0.2c0.3,0.1,0.5,0.3,0.7,0.5
						c0.2,0.2,0.3,0.5,0.4,0.7c0.1,0.3,0.2,0.6,0.2,0.9v0c0,0.3-0.1,0.7-0.2,0.9c-0.1,0.3-0.3,0.5-0.4,0.7c-0.2,0.2-0.4,0.4-0.7,0.5
						c-0.3,0.1-0.5,0.2-0.8,0.2s-0.6-0.1-0.8-0.2c-0.3-0.1-0.5-0.3-0.7-0.5c-0.2-0.2-0.3-0.5-0.5-0.7c-0.1-0.3-0.2-0.6-0.2-0.9v0
						c0-0.3,0.1-0.7,0.2-0.9c0.1-0.3,0.3-0.5,0.5-0.7c0.2-0.2,0.4-0.4,0.7-0.5C-38.9-91.1-38.6-91.1-38.3-91.1 M-39.4-94.2
						c-0.6,0-1.2,0.1-1.8,0.4c-0.6,0.2-1,0.6-1.5,1.1c-0.4,0.5-0.7,1-1,1.7c-0.2,0.7-0.4,1.4-0.4,2.2v0c0,0.8,0.1,1.6,0.4,2.3
						c0.2,0.7,0.6,1.2,1,1.7c0.4,0.5,0.9,0.8,1.5,1.1s1.1,0.4,1.7,0.4c0.8,0,1.4-0.2,1.9-0.5c0.5-0.3,0.9-0.6,1.3-1v4.9h3.7v-14
						h-3.7l0,1.4c-0.4-0.4-0.8-0.8-1.3-1.1S-38.7-94.2-39.4-94.2"/>
				</g>
				<path id="path4457" inkscape:connector-curvature="0" d="M234.3,97h3.7V86.6h-3.7V97z M234.3,100.6h3.8v-2.7h-3.8V100.6z"/>
				<g id="g4459" transform="translate(299.2887,187.6097)">
					<path id="path4461" inkscape:connector-curvature="0" d="M-38.3-91.1l-2.6-7.9l-2.7,8h-1.2l-2.7-8l-2.6,7.9h-1.6l0.1-0.4
						c0.2-0.2,0.3-0.3,0.5-0.5c0.4-0.5,0.8-1.2,1-1.9c0.2-0.7,0.3-1.5,0.3-2.2v-0.4l0-0.2l1.6-4.5h1.3l2.7,7.8l2.7-7.8h1.3l3.5,10
						H-38.3z"/>
				</g>
				<path id="path4463" inkscape:connector-curvature="0" d="M263.2,96.5h1.5v-9.9h-1.5V96.5z M263.2,100.3h1.7v-1.6h-1.7V100.3z"/>
				<g id="g4465" transform="translate(303.86971,187.5722)">
					<path id="path4467" inkscape:connector-curvature="0" d="M-38.3-91.1h1.5v-2.6c0.2,0.4,0.4,0.8,0.7,1.1
						c0.3,0.3,0.6,0.6,0.9,0.9c0.3,0.2,0.7,0.4,1.1,0.6c0.4,0.1,0.8,0.2,1.3,0.2v-1.6h-0.1c-0.5,0-1-0.1-1.5-0.3
						c-0.5-0.2-0.9-0.5-1.3-0.9c-0.4-0.4-0.6-0.9-0.8-1.4c-0.2-0.6-0.3-1.2-0.3-2v-3.9h-1.5V-91.1z"/>
				</g>
				<g id="g4469" transform="translate(316.48669,183.2606)">
					<path id="path4471" inkscape:connector-curvature="0" d="M-38.3-91.1c0,0.4-0.1,0.9-0.3,1.3c-0.2,0.4-0.4,0.8-0.6,1.1
						c-0.3,0.3-0.6,0.5-1,0.7c-0.4,0.2-0.8,0.3-1.3,0.3c-0.4,0-0.8-0.1-1.2-0.2c-0.4-0.2-0.7-0.4-1-0.7c-0.3-0.3-0.5-0.7-0.7-1.1
						c-0.2-0.4-0.3-0.8-0.4-1.3H-38.3z M-44.7-92.3c0.1-0.5,0.2-1,0.4-1.4c0.2-0.4,0.5-0.8,0.8-1c0.3-0.3,0.7-0.5,1.1-0.6
						c0.4-0.1,0.8-0.2,1.2-0.2c0.7,0,1.3,0.1,1.8,0.4c0.5,0.3,0.9,0.6,1.4,1l0.9-0.8c-0.5-0.6-1.1-1-1.7-1.3
						c-0.6-0.3-1.4-0.5-2.4-0.5c-0.7,0-1.3,0.1-1.9,0.4c-0.6,0.2-1.1,0.6-1.6,1.1c-0.4,0.5-0.8,1-1.1,1.6c-0.3,0.6-0.4,1.3-0.4,2.1
						c0,0.7,0.1,1.4,0.4,2c0.2,0.6,0.6,1.2,1,1.6c0.4,0.5,0.9,0.8,1.5,1.1c0.6,0.3,1.2,0.4,1.9,0.4c0.7,0,1.4-0.1,2-0.4
						c0.6-0.3,1.1-0.6,1.5-1.1c0.4-0.5,0.7-1,0.9-1.7c0.2-0.6,0.3-1.3,0.3-2.1V-92c0-0.1,0-0.2,0-0.3
						C-36.9-92.3-44.7-92.3-44.7-92.3z"/>
				</g>
				<path id="path4473" inkscape:connector-curvature="0" d="M206.7,100.6h3.8v-14h-3.8V100.6z"/>
				<g id="g4475" transform="translate(249.629,188.06799)">
					<path id="path4477" inkscape:connector-curvature="0" d="M-38.3-91.1h3.7v-1.5c0.2,0.2,0.3,0.4,0.5,0.6
						c0.2,0.2,0.4,0.4,0.7,0.5c0.3,0.2,0.5,0.3,0.8,0.4c0.3,0.1,0.6,0.1,1,0.1c1.1,0,2-0.3,2.6-1c0.6-0.7,0.9-1.6,0.9-2.8v-6.8h-3.7
						v5.6c0,0.6-0.1,1-0.4,1.3c-0.3,0.3-0.6,0.4-1,0.4c-0.4,0-0.8-0.1-1.1-0.4c-0.3-0.3-0.4-0.7-0.4-1.3v-5.6h-3.7V-91.1z"/>
				</g>
				<g id="g4479" transform="translate(266.19389,180.52161)">
					<path id="path4481" inkscape:connector-curvature="0" d="M-38.3-91.1c0.3,0,0.6,0.1,0.8,0.2c0.3,0.1,0.5,0.3,0.7,0.5
						c0.2,0.2,0.3,0.5,0.4,0.7c0.1,0.3,0.2,0.6,0.2,0.9v0c0,0.3-0.1,0.7-0.2,0.9c-0.1,0.3-0.3,0.5-0.4,0.7c-0.2,0.2-0.4,0.4-0.7,0.5
						c-0.3,0.1-0.5,0.2-0.8,0.2s-0.6-0.1-0.8-0.2c-0.3-0.1-0.5-0.3-0.7-0.5c-0.2-0.2-0.3-0.5-0.5-0.7c-0.1-0.3-0.2-0.6-0.2-0.9v0
						c0-0.3,0.1-0.7,0.2-0.9c0.1-0.3,0.3-0.5,0.5-0.7c0.2-0.2,0.4-0.4,0.7-0.5C-38.9-91.1-38.6-91.1-38.3-91.1 M-39.4-94.2
						c-0.6,0-1.2,0.1-1.8,0.4c-0.6,0.2-1,0.6-1.5,1.1c-0.4,0.5-0.7,1-1,1.7c-0.2,0.7-0.4,1.4-0.4,2.2v0c0,0.8,0.1,1.6,0.4,2.3
						c0.2,0.7,0.6,1.2,1,1.7c0.4,0.5,0.9,0.8,1.5,1.1s1.1,0.4,1.7,0.4c0.8,0,1.4-0.2,1.9-0.5c0.5-0.3,0.9-0.6,1.3-1v4.9h3.7v-14
						h-3.7l0,1.4c-0.4-0.4-0.8-0.8-1.3-1.1S-38.7-94.2-39.4-94.2"/>
				</g>
				<path id="path4483" inkscape:connector-curvature="0" d="M234.3,97h3.7V86.6h-3.7V97z M234.3,100.6h3.8v-2.7h-3.8V100.6z"/>
				<g id="g4485" transform="translate(284.0025,183.7399)">
					<path id="path4487" inkscape:connector-curvature="0" d="M-38.3-91.1c-0.1,0.6-0.3,1-0.6,1.4c-0.3,0.3-0.7,0.5-1.2,0.5
						c-0.5,0-0.9-0.2-1.2-0.5c-0.3-0.3-0.5-0.8-0.6-1.4H-38.3z M-39.8-97.4c-0.8,0-1.6,0.1-2.2,0.4c-0.7,0.3-1.3,0.6-1.8,1.1
						c-0.5,0.5-0.9,1-1.1,1.7c-0.3,0.7-0.4,1.4-0.4,2.2v0c0,0.8,0.1,1.5,0.4,2.1c0.3,0.7,0.6,1.2,1.1,1.7c0.5,0.5,1,0.9,1.7,1.2
						c0.6,0.3,1.3,0.4,2.1,0.4c0.9,0,1.7-0.2,2.3-0.5c0.7-0.3,1.2-0.7,1.6-1.2c0.4-0.5,0.7-1.1,1-1.8c0.2-0.7,0.3-1.4,0.3-2.2v-0.4
						c0-0.1,0-0.3,0-0.4h-6.9c0.1-0.6,0.4-1,0.8-1.3s0.9-0.4,1.4-0.4c0.4,0,0.8,0.1,1.2,0.2c0.4,0.2,0.7,0.4,1.1,0.8l2-1.7
						c-0.5-0.6-1.1-1.2-1.8-1.5C-37.9-97.2-38.8-97.4-39.8-97.4"/>
				</g>
			</g>
		</g>
	</g>
	<g id="text4489">
		<path id="path3050" d="M303.6,827.5h0.6c0.3,0,0.6,0.1,0.8,0.2s0.3,0.3,0.3,0.6c0.1,0.3,0.2,0.6,0.2,0.8c0.1,0.2,0.1,0.4,0.2,0.5
			h1.3c0-0.1-0.1-0.2-0.2-0.4c-0.1-0.2-0.1-0.5-0.2-0.9c-0.1-0.4-0.2-0.7-0.3-0.9c-0.1-0.2-0.4-0.4-0.6-0.5V827
			c0.3-0.1,0.6-0.3,0.8-0.5c0.2-0.2,0.3-0.5,0.3-0.8c0-0.3-0.1-0.5-0.2-0.7c-0.1-0.2-0.2-0.4-0.4-0.5c-0.2-0.1-0.4-0.2-0.7-0.3
			c-0.3-0.1-0.7-0.1-1.2-0.1c-0.4,0-0.8,0-1.2,0.1c-0.3,0-0.6,0.1-0.9,0.1v5.4h1.3L303.6,827.5z M303.7,825.1c0.1,0,0.4-0.1,0.7-0.1
			c0.4,0,0.7,0.1,0.9,0.2c0.2,0.1,0.3,0.3,0.3,0.6c0,0.3-0.1,0.5-0.4,0.6s-0.5,0.2-0.9,0.2h-0.6L303.7,825.1z M304.5,821.4
			c-1.6,0-2.9,0.6-4,1.6c-1.1,1-1.6,2.3-1.6,3.9c0,1.6,0.6,2.9,1.6,3.9s2.4,1.6,4,1.6c1.6,0,2.9-0.6,3.9-1.6c1-1,1.6-2.3,1.6-3.9
			c0-1.6-0.6-2.8-1.6-3.9C307.4,822,306.1,821.5,304.5,821.4z M304.5,822.5c1.2,0,2.2,0.5,3,1.3c0.8,0.8,1.2,1.9,1.2,3.1
			c0,1.2-0.4,2.2-1.2,3.1c-0.8,0.8-1.7,1.2-2.9,1.2c-1.2,0-2.2-0.5-3-1.3c-0.8-0.8-1.2-1.8-1.2-3.1c0-1.2,0.4-2.2,1.2-3.1
			C302.3,823,303.3,822.6,304.5,822.5L304.5,822.5z"/>
	</g>
</g>
</svg>
