<?xml version="1.0" encoding="utf-8"?>
<!-- Generator: Adobe Illustrator 19.0.0, SVG Export Plug-In . SVG Version: 6.00 Build 0)  -->
<!DOCTYPE svg PUBLIC "-//W3C//DTD SVG 1.1//EN" "http://www.w3.org/Graphics/SVG/1.1/DTD/svg11.dtd">
<svg version="1.1" id="Layer_1" xmlns="http://www.w3.org/2000/svg" xmlns:xlink="http://www.w3.org/1999/xlink" x="0px" y="0px"
	 viewBox="0 0 178.8 43.4" style="enable-background:new 0 0 178.8 43.4;" xml:space="preserve">
<g>
	<path d="M71,27.1v-0.3c0-5.5,2.4-9.2,6.1-9.2c3.7,0,5.9,3.6,5.9,9.5c0,5.5-2.3,9-5.9,9C73.4,36.2,71.1,32.8,71,27.1 M62,27
		c0.3,10.6,6,16.8,15,16.8c8.9,0,15.1-6.9,15.1-17C92.1,16.7,86,9.9,77,9.9c-8.9,0-15,6.9-15,16.9V27"/>
	<polyline points="109.7,1.7 110.4,4.4 111.5,1.7 113.6,1.7 114.6,4.4 115.4,1.7 117.4,1.7 115.9,6.6 113.8,6.6 112.5,3.5 
		111.3,6.6 109.2,6.6 107.6,1.7 109.7,1.7 	"/>
	<polyline points="129,1.7 129,2.7 125.4,2.7 125.4,3.5 128.7,3.5 128.7,4.5 125.4,4.5 125.4,5.5 129.1,5.5 129.1,6.6 123.2,6.6 
		123.2,1.7 129,1.7 	"/>
	<polyline points="141.1,1.7 141.1,2.7 137.5,2.7 137.5,3.5 140.9,3.5 140.9,4.5 137.5,4.5 137.5,5.5 141.2,5.5 141.2,6.6 
		135.3,6.6 135.3,1.7 141.1,1.7 	"/>
	<polyline points="149.6,1.7 149.6,3.5 151.9,1.7 154.8,1.7 152.2,3.5 154.9,6.6 152.2,6.6 150.7,4.6 149.6,5.4 149.6,6.6 
		147.4,6.6 147.4,1.7 149.6,1.7 	"/>
	<polyline points="162.8,1.7 162.8,5.4 166.2,5.4 166.2,6.6 160.6,6.6 160.6,1.7 162.8,1.7 	"/>
	<polyline points="173.6,1.7 175,3.3 176.4,1.7 178.8,1.7 176.1,4.5 176.1,6.6 173.9,6.6 173.9,4.5 171.2,1.7 173.6,1.7 	"/>
	<polyline points="11.2,11.3 18.5,11.3 28.8,27.7 28.8,11.3 37.1,11.3 37.1,42.8 29.8,42.8 19.8,27.4 19.8,42.8 11.2,42.8 
		11.2,11.3 	"/>
	<polyline points="50.9,9.9 40.5,9.9 39.3,1.3 72.3,1.3 71.1,9.9 60.7,9.9 60.7,42.8 50.9,42.8 50.9,9.9 	"/>
	<path d="M151.6,31.9c-1.8,7.8-6.4,11.5-14,11.5c-5.5,0-9-1.4-11.6-4.9c-2.3-3-3.4-6.7-3.4-11.4c0-10.4,5.4-16.5,14.6-16.5
		c7.8,0,12.2,3.4,14.1,11.1l-8.6,1.4c-0.7-3.1-2.6-4.9-5.2-4.9c-3.7,0-5.9,3.3-5.9,9c0,5.6,2.1,8.8,5.8,8.8c2.9,0,4.6-1.7,5.5-5.4
		L151.6,31.9"/>
	<polyline points="152.8,11.2 161.2,11.2 161.2,22.9 169.1,22.9 169.1,11.2 177.6,11.2 177.6,42.8 169.1,42.8 169.1,29.5 
		161.3,29.5 161.3,42.8 152.8,42.8 152.8,11.2 	"/>
	<path d="M9.9,42.8H0V12.2c1.3,1.5,3.1,2.4,5,2.4c1.8,0,3.5-0.8,4.9-2.2V42.8"/>
	<path d="M9.9,10.4c-1.3,1.6-3,2.5-4.9,2.5c-2,0-3.7-1-5-2.7V1.4h9.9V10.4"/>
	<path d="M115.2,11.3L115.2,11.3l-3.3,0v19.7c0,2.6-2.1,4.6-4.6,4.6c-2.6,0-4.6-2.1-4.6-4.6V11.3h-3v0h-6v20c0,3.1,0.3,5.3,1.2,7.2
		c1.3,3,4.3,4.8,7.7,4.8c4.1,0,7.3-1.7,9.9-5.4v4.9h8.3V11.3H115.2"/>
</g>
</svg>
