<?xml version="1.0" encoding="utf-8"?>
<!-- Generator: Adobe Illustrator 19.1.0, SVG Export Plug-In . SVG Version: 6.00 Build 0)  -->
<svg version="1.1" id="Layer_1" xmlns="http://www.w3.org/2000/svg" xmlns:xlink="http://www.w3.org/1999/xlink" x="0px" y="0px"
	 viewBox="0 0 500 211.9" enable-background="new 0 0 500 211.9" xml:space="preserve">
<g>
	<g>
		<path fill-rule="evenodd" clip-rule="evenodd" fill="#031014" d="M360.2,15.9c5.1-0.2,5.9-1.7,8.9-3.7c0.3-6.5-1.8-8.5-6.7-9.6
			c-0.9,0.6-1.2,0.6-3,0.7c-4.1,4.3-4,6.7-0.7,11.8C360,15.6,359.5,15.3,360.2,15.9z M70.9,64V44c-4.8-0.1-9,0-11.8,1.5v8.9
			l-0.7,0.7c-4.9,0.1-15.1,1.4-18.5-0.7h-1.5c-0.1-7.5-2.1-34.7,0.7-39.2c1.2-2,3.5-1.7,6.7-1.5c0.2-0.2,0.5-0.5,0.7-0.7
			c0-3-0.1-6.2-0.7-8.1c-5-1-19.7-1.7-22.2,0c-2.3,0-3.8,0.3-5.2,0.7c-0.1,2.4-0.2,5.3,0.7,6.7c1.6,1.2,3.7,1.1,4.4,1.5H25v41.4
			c-2.6,0-5,0.2-6.7,0.7c-0.1,2.4-0.2,5.3,0.7,6.7V64H70.9z M290,13.7c1.3,6.9-1.6,29.1,1.5,34c0.3,6.2-0.4,7.7-6.7,7.4
			c-0.5,2.4-0.8,5.5-0.7,8.9h25.2v-8.9h-4.4c-0.1-5.4-0.7-12.8,0.7-17c13.6-0.2,11.6,8.3,18.5,14.1v3h-3.7c-0.5,1.3-0.1,0.7-0.7,1.5
			c0,2.8,0.1,5.6,0.7,7.4h25.2v-8.9c-2.2,0-4,0-5.2-0.7c-6.5-3.2-8.2-13.6-14.1-17.8c-0.2-9.2,8.3-14.7,11.1-22.9h5.9
			c0-3.4,0.1-7.3-0.7-9.6c-4.9,0.1-15.3,1.4-17.8,0c-2.3,0-3.8,0.3-5.2,0.7v8.1c1.2,0.2,2.5,0.5,3.7,0.7c-1.1,6.7-5.8,9.3-7.4,15.5
			c-2.4,0.5-7.4,1.5-9.6,0h-1.5V13.7h4.4c0.7-3.8,0.3-4.8,0.7-8.1c-0.5-0.5-1-1-1.5-1.5C301,4,290.1,2.7,284,4.8
			c-0.1,2.7-0.3,6.5,0.7,8.1C285.9,13.7,287.8,13.7,290,13.7z M82.8,63.2c8.9,1.4,19.1,3.9,24.4-3.7c1.7,1,1.6,2.6,2.2,4.4h14.8
			v-8.1c-1.7-0.2-3.5-0.5-5.2-0.7c0.1-12.3,0.1-23.5-3.7-31.1c-16.7-4.6-22.1-6-34.8,4.4c0,4.1-0.2,5.1,0,8.1
			c7.3,0.5,10.6,0.7,11.1-5.9c1.7-0.5,2-0.5,3-1.5c5.7-0.1,8.8,0.3,11.8,2.2c0.3,3.8,1.2,5.7-0.7,8.1c-3.4,1.6-12.2-2.4-18.5-0.7
			c-4.3,1.2-5.9,3.7-8.9,5.9c-0.1,5.3-0.3,8.5,0,13.3C79.8,59.4,81.9,61.3,82.8,63.2z M90.2,49.2c0.5-1.7,0.8-1.7,1.5-3
			c5.7-0.1,8.6,0,14.8,0v8.1l-0.7,0.7c-2.8,0.8-7.3,3.5-10.4,1.5c-3-0.3-2.9-0.8-5.2-1.5C89.7,53.1,88.9,51,90.2,49.2z M384.7,32.2
			v21.5c-1,1.7-3.2,1.6-5.2,2.2V64c6.9,0.1,16.7,1.1,22.2-0.7c0.3-6.3,0.1-7.3-4.4-8.9c-0.1-9.4-0.3-18.2,3-23.7
			c6.9-0.1,9.7,0.5,13.3,3v21.5c-1.9,0.1-2.5,0.3-3.7,0.7c-0.1,2.3-0.4,3,0,3.7V64c1.3,0.5,0.7,0.1,1.5,0.7h20
			c0.4-3.3,0.2-5.4,0-9.6h-3.7c-1.3-12.8,1-22.9-5.2-32.6c-9.1-2.3-18.2-3.9-25.2,2.2c-1.8-1.1-1.2-0.3-1.5-3H378v8.9
			c2,0.2,3.9,0.5,5.9,0.7C384.2,31.7,384.4,31.9,384.7,32.2z M479.4,60.3c-2.9-0.9-8.1-3.2-10.4-5.2c-7.1,0.1-17.2,1.2-22.9-0.7
			c-0.2-1.2-0.5-2.5-0.7-3.7c12.7,0.1,18.2,0.1,25.9-4.4c0.7-2.7,1.6-8.9,2.2-10.4c0.5-4.2,3.4-4.1,6.7-5.2c0-3.2,0-6.7-0.7-8.9
			c-4.3,0.1-5.7,1.1-7.4,3.7c-8.3-2.8-23.2-9.9-31.8-0.7c-7.1,8.5,2,20.5-3.7,26.6c-0.2,6.2,0.6,8.4,3.7,11.1
			c-1.1,2.8-3.2,3.1-4.4,5.9c-1,1.4-1,4.5,0,5.9c1.1,10.7,35.2,9,40.7,5.2c2.6-1.8,3.2-4.2,5.2-6.7C481.5,66.9,480,64.7,479.4,60.3z
			 M450.5,28.5h8.9l1.5,1.5c0.2,3.1,1.5,6.5,0,8.9c-0.5,4.8-6.4,5.8-9.6,3h-1.5C449.2,37.1,448.9,32.3,450.5,28.5z M468.3,72.1
			c-3.1,5.2-14.7,2.4-20,1.5l-0.7-0.7c0.1-2.3,0.2-3.9,0-4.4c1.5-2.8,4.8-2.1,7.4-3.7c2.3,0.7,5.3-0.5,7.4,0.7
			c5,0.1,4.3,1.3,6.7,3.7C468.9,70.9,468.9,71.3,468.3,72.1z M154.5,61c0-2.3-0.3-3.8-0.7-5.2c-1.8-0.3-3.9-0.5-4.4-0.7h-1.5
			c-0.1-5.2-1.6-16.4,0.7-20c0.9-2.6,2.2-2.6,3.7-4.4h10.4v-8.9c-7.2-1.6-12.8,0.2-16.3,4.4c-0.6-0.9-1.1-3.4-1.5-4.4h-15.5v8.9h5.9
			c1.3,6.7,0.8,16.5,0.7,24.4c-2.6,0-5,0.2-6.7,0.7V64h24.4C154,62.3,153.9,61.9,154.5,61z M174.5,30.7v24.4c-0.8,1-4.1,0.7-5.9,0.7
			c-0.5,3-0.1,4.2,0,8.1c7.7,0.1,18.9,1.4,25.2-0.7v-7.4c-3.8,0.2-5.6,0.5-6.7-2.2c-1.2-2.4-0.1-13.4,0-18.5
			c1.2-1.1,1.7-1.9,2.2-3.7c3.4-0.4,7.5-0.8,11.8-0.7l0.7-0.7v-8.1c-7.8-0.2-12.6-0.1-15.5,4.4c-1.5-0.9-2.2-2.9-3-4.4
			c-5-0.1-11.7-0.5-15.5,0.7c0,3,0.1,6.2,0.7,8.1H174.5z M211.5,30.7c1.1,6.3,11.9,31.6,16.3,34c-0.3,3-0.7,3.7-2.2,5.2
			c-1.7,3.2-6.7,3.2-11.8,3c-0.4,3.3-0.4,4.8,0,8.1c3.5,0.1,9.6,0.7,11.8-0.7c8.4-0.4,8.6-7,11.1-13.3c4.8-11.8,10.8-25.3,17-36.3
			h3.7v-8.9h-19.2c-0.3,4.7-0.4,4.1,0,8.1c1.2,0.5,2.5,1,3.7,1.5c-0.3,4.8-6.2,18.4-8.9,20.7v0.7c-2.4-2.3-9.6-18.4-8.9-20.7
			c1-1.7,1.9-1.6,3.7-2.2c0-3-0.1-6.2-0.7-8.1c-6.4-0.1-15.6-1-20.7,0.7c0,3,0.1,6.2,0.7,8.1H211.5z M356.5,55.1
			c-0.2,0.2-0.5,0.5-0.7,0.7h-5.2V64h22.9v-8.1c-1.7-0.2-3.5-0.5-5.2-0.7c0.1-6.3,3.1-26.9,0-31.8v-1.5h-18.5v8.1
			c1.9,0.4,3.3,0.7,5.9,0.7C356.7,38.2,357.4,48.3,356.5,55.1z M277.4,118.7c-12.2-20.8-35-27.1-68.8-26.6c-5.2,3.3-14.2,0.7-20,3.7
			c-14.9,7.7-26.2,15.7-32.6,31.8c-3.1,8-3.5,29.9-0.7,38.5c0.2,2.7,0.5,5.4,0.7,8.1c10.9,28.2,32.8,35.1,72.5,34.8
			c8.1-0.1,16.7-1.1,22.9-3.7c22.5-9.2,40.3-38.4,30.3-72.5C280.2,127.2,280,123.2,277.4,118.7z M232.2,172.8
			c-1.2,2.1-4.4,3.3-5.9,5.2c-5.7,0.2-9.8,0.2-15.5,0c-2.6-2.7-5.9-5.1-7.4-8.9c-1.8-4.6-1.8-31.6,0-36.3c2-5.1,5.9-6.4,9.6-9.6
			h11.8c2,2.3,5.9,3.2,7.4,5.9C236.4,136.5,236.4,165.3,232.2,172.8z M139.7,123.2c0.1-5.3,1-26.5-1.5-28.1
			c-5.9-2.7-26.9,3.6-34-0.7c-1.9,0.1-2.7,0.1-3.7,0.7c-1.5,2-2.2,7.2-1.5,11.1c1.4,7.5-1.9,18.2,0,26.6c0.8,3.7,2.1,15,0,18.5v0.7
			c-2.7-3.2-3.4-8.5-5.2-12.6c-4.1-9.3-9.7-19-14.8-27.4c-3.3-5.4-4.2-11.7-8.1-16.3c-0.6-0.5-1.6-1-2.2-1.5
			c-11.8-0.1-40-2.7-48.1,1.5v111.7c11.1,0.1,31.6,2.3,40.7-0.7v-34c0-3.9,0.9-10.7-0.7-13.3v-9.6H62c4,12.8,11.1,24.5,17.8,34.8
			c1.9,2.9,1.1,5.8,3,8.9h1.5c2.6,3.7,4.8,9.5,5.9,14.1h49.6c0.2-20.2-0.2-36.2,0-57C139.8,144.2,143.3,128.9,139.7,123.2z
			 M421.7,121c-1.7,6-0.5,10.1-2.2,16.3c-1.5,5.5-3.7,12.3-3.7,19.2c-3.9-2.3-2.5-10.5-3.7-15.5c-2.1-8.9-2.6-18.8-5.2-28.1
			c-1.4-5.2-3.8-12.1-4.4-17.8c-1.5-0.3-1.4-0.2-2.2-0.7h-37c-2.2,1.1-2.7,10.9-3.7,14.1c-3.7,11.1-5.7,24.7-9.6,35.5
			c-1.4,3.8,0.3,7.5-1.5,10.4c-0.5,1.3-0.1,0.7-0.7,1.5c-1.8-5-0.5-10.5-2.2-16.3c-4.1-13.8-4.4-30.2-8.9-44.4
			c-1.3-0.5-0.7-0.1-1.5-0.7c-12.1-0.1-39.4-2.4-48.8,0.7c0.9,14.5,7.7,31.8,11.8,44.4c3.6,10.7,4.6,21.2,8.1,31.1
			c0.2,2.2,0.5,4.4,0.7,6.7c3,7.6,7.9,21.3,8.1,30.3h51.1c0.5-12.4,6.1-31.7,9.6-42.9c1.9-6,0.1-12.3,3-17v-0.7
			c3.9,2.5,2.2,10.5,3.7,15.5c3.4,11.9,10.2,31.2,10.4,44.4l0.7,0.7h50.3c0.9-10.1,5.2-19.6,8.1-28.1c2.5-7.4,3.8-14.9,5.9-21.5
			c0.2-2.2,0.5-4.4,0.7-6.7c4-9.8,5.9-20.9,9.6-31.8c2.5-7.4,6.5-16.6,7.4-25.2c-16.1,0-33.1,0.6-48.1,0.7
			C426.4,103.6,423.9,113.1,421.7,121z"/>
	</g>
</g>
</svg>
