<?xml version="1.0" encoding="utf-8"?>
<!-- Generator: Adobe Illustrator 19.0.0, SVG Export Plug-In . SVG Version: 6.00 Build 0)  -->
<!DOCTYPE svg PUBLIC "-//W3C//DTD SVG 1.1//EN" "http://www.w3.org/Graphics/SVG/1.1/DTD/svg11.dtd">
<svg version="1.1" id="Layer_1" xmlns="http://www.w3.org/2000/svg" xmlns:xlink="http://www.w3.org/1999/xlink" x="0px" y="0px"
	 viewBox="0 0 359.6 31.4" style="enable-background:new 0 0 359.6 31.4;" xml:space="preserve">
<path d="M352.9,2.6l2.5-2.7h1.9l0.2,10.6h-2.4c-1.2-3-3-5.3-5.3-6.8c-2.3-1.5-4.9-2.3-7.6-2.3c-2.4,0-4.3,0.5-5.8,1.5
	c-1.5,1-2.2,2.2-2.2,3.6c0,0.8,0.3,1.6,0.9,2.3c0.6,0.7,1.5,1.3,2.8,1.8c1.3,0.5,3.6,1,6.9,1.5c3.8,0.6,6.5,1.2,8,1.7
	c2.3,0.8,4.1,1.8,5.2,3.2c1.2,1.3,1.7,2.9,1.7,4.8c0,2.8-1.3,5.1-3.8,6.7c-3,2-6.8,3-11.3,3c-4.1,0-7.9-1.1-11.3-3.3l-3.1,3h-2V19.8
	h2.3c2.3,6.5,7.1,9.7,14.2,9.7c2.9,0,5.2-0.5,6.8-1.6c1.6-1,2.4-2.3,2.4-3.9c0-1.1-0.4-2-1.1-2.7c-0.7-0.7-1.8-1.3-3.3-1.8
	c-0.8-0.2-2.8-0.6-6.1-1.2c-4.4-0.7-7.5-1.5-9.3-2.3c-1.9-0.8-3.2-1.8-4.1-2.9c-0.9-1.1-1.3-2.5-1.3-4.2c0-2.8,1.2-5,3.6-6.8
	c2.4-1.8,5.7-2.6,9.7-2.6C346-0.5,349.6,0.6,352.9,2.6z"/>
<path d="M0,0h22c4,0,7.5,0.7,10.5,2c3,1.3,5.4,3.2,7.1,5.6c1.7,2.4,2.6,5.1,2.6,8.1c0,3.1-0.8,5.8-2.3,8.2c-1.6,2.3-3.9,4.2-7,5.5
	c-3.1,1.4-6.5,2.1-10,2.1H0v-2h3.4c0.8,0,1.5-0.2,1.9-0.5c0.4-0.3,0.6-0.8,0.6-1.5V3.8c0-0.6-0.2-1.1-0.7-1.4C4.8,2.1,4.1,2,3,2H0V0
	z M20.1,29.4c2.5,0,4.8-0.5,6.7-1.5c2-1,3.4-2.3,4.2-4c0.9-1.7,1.3-4.3,1.3-7.9c0-3.7-0.5-6.6-1.5-8.6c-1-2-2.4-3.4-4.2-4.2
	C24.9,2.4,22.3,2,18.9,2c-1.9,0-3,0.1-3.5,0.4C15,2.6,14.7,3,14.7,3.7v23.7c0,0.7,0.2,1.2,0.6,1.5c0.4,0.3,1,0.5,1.8,0.5H20.1z"/>
<path d="M60.2-0.2l15,27.6c0.4,0.8,0.9,1.3,1.4,1.6c0.5,0.3,1.1,0.4,1.8,0.4c0,0.2,0,2,0,2H61.3v-2H63c1.4,0,2.3-0.1,2.9-0.4
	c0.5-0.2,0.8-0.6,0.8-0.9c0-0.3-0.1-0.7-0.3-1.1l-3.1-5.7h-15L46.8,24c-0.6,1.1-0.9,1.9-0.9,2.4c0,0.9,0.4,1.6,1.3,2.2
	c0.9,0.6,2.1,0.8,3.6,0.8h1.3v2H36.8v-2h0.9c1,0,1.8-0.2,2.6-0.7c1.1-0.7,1.9-1.5,2.4-2.6L57.1-0.2H60.2z M55.8,7.6l-6.4,11.7h12.8
	L55.8,7.6z"/>
<path d="M77.6,0h20.9v2h-3.8c-0.8,0-1.4,0.1-1.8,0.4c-0.4,0.2-0.6,0.6-0.6,1.1v24.3c0,0.6,0.2,1,0.6,1.2c0.5,0.3,1.2,0.5,2.2,0.5
	h3.4v2H79.9l0-2h0.9c1.1,0,1.9-0.1,2.3-0.4c0.5-0.3,0.7-0.7,0.7-1.3v-24c0-0.6-0.2-1-0.6-1.3C82.8,2.1,82.1,2,81.2,2h-3.6V0z"/>
<path d="M100.5,2V0h21v2h-3.5c-1,0-1.7,0.1-2.1,0.4c-0.4,0.3-0.6,0.8-0.6,1.4v23.3c0,0.9,0.2,1.6,0.6,1.8c0.4,0.3,1.3,0.4,2.7,0.4
	h5.9c2.2,0,4.2-0.8,6.1-2.4c1.9-1.6,3.4-4.1,4.4-7.7h2.5l-0.9,12h-35.9v-2h3.6c0.8,0,1.4-0.2,1.8-0.5c0.4-0.3,0.6-0.7,0.6-1.3v-24
	c0-0.6-0.2-1-0.6-1.3c-0.4-0.3-1.1-0.4-2.1-0.4H100.5z"/>
<path d="M128.6,0H149v2h-2.8c-1,0-1.7,0.1-2.1,0.3c-0.4,0.2-0.6,0.4-0.6,0.8c0,0.4,0.2,0.8,0.5,1.2l8.5,11.2l6-9.1
	c0.5-0.7,0.8-1.4,0.8-2.1c0-0.7-0.3-1.3-1-1.7c-0.6-0.4-1.6-0.6-2.9-0.6h-1.2V0h15.8v2c-1.8,0-3.3,0.3-4.4,0.8s-2,1.4-2.8,2.6
	l-8.2,12.4v9.9c0,0.6,0.2,1,0.6,1.3c0.4,0.3,1.1,0.4,1.9,0.4h4.2v2h-22.4v-2h4.2c1,0,1.6-0.1,2-0.4c0.4-0.3,0.6-0.7,0.6-1.3v-8.8
	l-11-14.5c-0.7-0.9-1.4-1.6-2.2-1.9c-0.8-0.3-1.8-0.5-2.9-0.5h-0.9V0z"/>
<path d="M189.7,0h12.7l22.1,21.5V6.9c0-1.4-0.5-2.6-1.6-3.5c-1.1-0.9-2.6-1.4-4.6-1.5V0h14.9v2c-2.1,0.2-3.6,0.6-4.5,1.4
	c-0.9,0.8-1.4,1.9-1.4,3.5v24.5h-3.2L199,6.6v17.2c0,2,0.6,3.4,1.8,4.3c1.2,0.9,2.6,1.3,4.4,1.3h0.7v2h-16.5v-2h1.1
	c1.6,0,3-0.5,4.1-1.5c1.1-1,1.7-2.3,1.7-3.8V3.8C195,2.6,193.4,2,191.5,2h-1.8V0z"/>
<path d="M234.8,0h35.6l0.8,11h-2.4c-0.6-2.6-1.3-4.4-2.1-5.6c-0.9-1.1-2-2-3.4-2.6C261.9,2.3,260,2,257.8,2h-5.6
	c-0.9,0-1.5,0.1-1.9,0.4c-0.4,0.3-0.6,0.6-0.6,1.1v10.9h1.9c2.2,0,3.9-0.5,5.1-1.4c1.2-1,1.9-2.5,2.1-4.7h2.5v14.6h-2.5
	c-0.2-2.4-0.9-4.1-2.1-5.1c-1.2-1-3.1-1.5-5.5-1.5h-1.6v11.6c0,0.5,0.2,0.9,0.6,1.1c0.6,0.3,1.4,0.5,2.5,0.5h4.9
	c3.4,0,6.1-0.8,8.3-2.5c2.1-1.7,3.5-4.2,4-7.5h2.5l-0.6,12h-37.1v-2h3.7c0.8,0,1.5-0.2,1.9-0.5c0.4-0.3,0.6-0.8,0.6-1.3V3.5
	c0-0.5-0.2-0.9-0.6-1.1C239.9,2.1,239.2,2,238,2h-3.2V0z"/>
<path d="M272-0.2h16.2v2h-1.5c-1,0-1.6,0.1-2,0.3c-0.3,0.2-0.5,0.4-0.5,0.8c0,0.3,0.1,0.5,0.2,0.9l8,18.3l7-16l-1.2-2.7
	c-0.3-0.6-0.6-0.9-1.1-1.2c-0.6-0.3-1.4-0.4-2.4-0.4h-2v-2h18.7v2h-1.7c-1.3,0-2.1,0.1-2.6,0.3c-0.4,0.2-0.7,0.5-0.7,1
	c0,0.2,0,0.4,0.1,0.6l8,18.3l6.7-16.1c0.2-0.5,0.3-1,0.3-1.4c0-0.9-0.3-1.5-0.9-2c-0.6-0.5-1.4-0.7-2.3-0.7h-1.1v-2h13.2v2
	c-1.5,0-2.6,0.3-3.5,0.8c-0.9,0.5-1.5,1.2-1.9,2.2L314,31.4h-3.4l-9.5-21.8l-9.5,21.8h-3.4l-12.3-28c-0.3-0.6-0.6-1-1-1.2
	c-0.4-0.2-0.9-0.3-1.6-0.3H272V-0.2z"/>
<path d="M169.7,24.5c0.2-0.4,0.1-1,0.4-1c0.2,0,0.2,0.6,0.3,0.9V25h-0.7V24.5z M185.9,24.3c0.1,0.1,0.1,0.4,0.1,0.5c0,0,0,0-0.1,0.1
	h-14.2l-0.1-0.1v-0.6c0.9-0.1,0.2-1.2,1.1-1.2c0.5,0,0.6,0.4,0.9,0.7h10.5c0.4,0,0.2-0.7,0.9-0.7c0.2,0,0.4,0.1,0.5,0.3
	C185.6,23.7,185.6,24.1,185.9,24.3 M186.7,18.3v-6c0-0.4,0-0.4-0.7-0.4v6.9C186.6,18.8,186.7,18.7,186.7,18.3 M177.8,15.5
	c0,0.6,0.5,1.1,1.1,1.1c0.6,0,1.1-0.5,1.1-1.1c0-0.6-0.5-1.1-1.1-1.1C178.3,14.4,177.8,14.9,177.8,15.5 M178.9,18
	c-1.3,0-2.4-0.9-2.5-2.2h-0.9v2.5c0,0.3,0.3,0.6,0.6,0.6h5.6c0.3,0,0.6-0.3,0.6-0.6v-5.8c0-0.3-0.3-0.6-0.6-0.6h-5.6
	c-0.3,0-0.6,0.3-0.6,0.6v2.6h0.9c0.2-1.2,1.2-2.2,2.5-2.2c1.4,0,2.5,1.1,2.5,2.5C181.4,16.9,180.3,18,178.9,18 M184.7,20.1v-9.2
	c0-0.7-0.6-1.2-1.2-1.2h-9.2c-0.7,0-1.2,0.6-1.2,1.2v4.3h1.1v-3.5c0-0.6,0.5-1.1,1.1-1.1h7.3c0.6,0,1.1,0.5,1.1,1.1v7.5
	c0,0.6-0.5,1.1-1.1,1.1h-7.3c-0.6,0-1.1-0.5-1.1-1.1v-3.3h-0.7c-0.1,0-0.2,0-0.3,0v4.2c0,0.7,0.6,1.2,1.2,1.2h9.2
	C184.2,21.3,184.7,20.7,184.7,20.1 M186.8,11.3c0.4,0,0.8,0.4,0.8,0.8v6.6c0,0.4-0.4,0.8-0.8,0.8H186V20c0,1.4-1.2,2.6-2.6,2.6h-9.1
	c-1.4,0-2.6-1.2-2.6-2.6v-3.7c-0.8,0.5-1.3,1.4-1.3,2.5v3.9c0,0.2,0.3,0.2,0.3,0.4c0,0.3-0.5,0.3-0.7,0.3c-0.2,0-0.5-0.1-0.5-0.3
	c0-0.2,0.3-0.3,0.3-0.5v-4.3c0-1.3,0.8-2.4,1.9-2.9V11c0-1.4,1.2-2.6,2.6-2.6h9.1c1.4,0,2.6,1.2,2.6,2.6v0.3H186.8z"/>
</svg>
