<?xml version="1.0" encoding="utf-8"?>
<!-- Generator: Adobe Illustrator 19.1.0, SVG Export Plug-In . SVG Version: 6.00 Build 0)  -->
<svg version="1.1" id="Layer_1" xmlns="http://www.w3.org/2000/svg" xmlns:xlink="http://www.w3.org/1999/xlink" x="0px" y="0px"
	 viewBox="0 0 500 122.8" enable-background="new 0 0 500 122.8" xml:space="preserve">
<polyline fill="#010101" points="283.4,103.6 289.4,103.6 291.4,113.1 293.6,103.6 299.4,103.6 299.4,120.9 295.3,120.9 
	295.5,107.9 292.2,120.9 289.5,120.9 286.7,108.1 286.7,120.9 283.4,120.9 "/>
<path fill="#010101" d="M313.8,103.6h5.7l3.8,17.3h-4.5l-0.7-3.5h-4l-0.7,3.5h-3.7 M317.5,114.3l-1.3-7l-1.4,7H317.5z"/>
<path fill="#010101" d="M339.8,121.2c-3.9,0-6.2-2.9-6.2-8.4c0-6.3,2.3-9.6,6.7-9.6c3.7,0,6.1,2.4,6.1,6.3c0,0.1,0,0.2,0,0.2h-4.2
	c0-2.2-0.6-3.2-1.9-3.2c-1.7,0-2,2-2,6.3c0,3.5,0.4,5.2,2.1,5.2c1.2,0,2-1,2-2.7c0,0,0,0,0-0.1h-2.1v-2.9h6v8.7h-1.9l-0.8-1.4
	C342.6,120.7,341.4,121.2,339.8,121.2"/>
<path fill="#010101" d="M360.8,103.6h5.7l3.8,17.3h-4.5l-0.6-3.5h-4l-0.7,3.5h-3.7 M364.5,114.3l-1.3-7l-1.4,7H364.5z"/>
<polyline fill="#010101" points="380.6,118.5 386.9,106.9 381.4,106.9 381.4,103.6 392.3,103.6 392.3,105.9 386.1,117.6 
	392.3,117.6 392.3,120.9 380.6,120.9 "/>
<rect x="402.7" y="103.6" fill="#010101" width="4.5" height="17.3"/>
<polyline fill="#010101" points="417.5,103.6 421.2,103.6 426.1,113.1 426.1,103.6 429.6,103.6 429.6,120.9 426.1,120.9 
	421.1,111.2 421.1,120.9 417.5,120.9 "/>
<polyline fill="#010101" points="440,103.6 450.8,103.6 450.8,106.9 444.4,106.9 444.4,110.3 448.7,110.3 448.7,113.6 444.4,113.6 
	444.4,117.6 450.8,117.6 450.8,120.9 440,120.9 "/>
<path fill="#010101" d="M355.9,34c-3.5-4.7-8.6-7.2-14.5-7.3c-14.4-0.3-29.8,13.8-34.3,31.4c-2.5,9.9-1.2,19.2,3.6,25.5
	c3.5,4.7,8.5,7.2,14.5,7.3c14.4,0.3,29.8-13.8,34.3-31.4C361.9,49.6,360.6,40.3,355.9,34 M325.8,87.8c-2,0-3.6-1-5-2.7
	c-3.7-4.8-4.2-15.2-1.3-26.4c4.1-16,13.6-28.9,21.2-28.7c2,0,3.6,1,5,2.7c3.7,4.8,4.2,15.2,1.3,26.4
	C342.9,75.1,333.4,87.9,325.8,87.8z"/>
<path fill="#010101" d="M493.1,87.1c-1.2-1.2-3.1-1.8-4.8-1.7c-1.4,0.1-2.6,0.7-3.4,1.7c-0.7,1-1,2.3-0.8,3.5c0.2,1,0.7,1.9,1.4,2.3
	c0.9,0.6,1.9,1.8,2.3,3.2c0.1,0.4,0.2,0.8,0.1,1.2c-0.1,0.7-0.4,2.9-2.4,4.6c-1.8,1.5-4.5,2.1-7.9,1.7c-8.9-0.9-19-9.4-24.5-17.2
	c-8.3-12-13.6-23.9-16.2-29.6l-0.4-0.9c-1.9-4.2-1.6-4.5,1.1-6.8l0.9-0.8c2.1-1.8,15.9-13.5,19.1-15.7c1.5-1,3.3-2.1,6.2-3.2
	l1.7-0.5c1.3-0.4,2.4-0.7,2.3-1.9c-0.1-0.9-1.5-0.9-3-0.8l-2.1,0.2l-3.3,0.2c-2.2,0-10.3,0-12.7-0.2l-0.1,0
	c-2.2-0.2-3.7-0.4-3.9,0.9c-0.1,0.9,0.8,1.1,1.8,1.3l1.8,0.5c0.5,0.2,0.8,0.6,1,1.1c0.2,0.7,0.4,3.2-3.6,7.7
	c-3.8,4.2-8,8.1-11.4,11.3l-2.1,1.9c-3,2.8-3.8,2.9-3.9,2.9c0,0,0-0.1,0.1-0.4c0.9-4.4,5.2-21,5.2-21.2c0.3-1,1.2-3.4,4.2-3.6h0.5
	c0.9,0,2.9,0,2.9-1.4c0-0.3-0.1-0.6-0.3-0.8c-0.5-0.5-1.5-0.5-2.5-0.4l-0.5,0c0,0-3.9,0-3.9,0L418,26l-2.2-0.1
	c-1.3-0.1-2.1-0.2-2.4,0.6l0,0c-0.1,0.4-0.1,0.7,0.1,1c0.4,0.6,1.5,0.8,3.7,1.1c0.6,0.1,1.2,0.4,1.6,0.9c0.9,1.2,1.1,3.5,0.6,5.8
	c0,0.1-1.6,9.4-4.1,20C412.1,68.9,408,80,408,80.1c0,0-0.3,0.9-0.3,0.9c-1.2,3.4-2.2,6.3-4.7,6.3c-0.4-0.1-1.6-0.4-2.1-1.5
	c-0.8-1.8-10.7-21.4-12.7-25.3c-0.2-0.5-0.2-0.7-0.1-0.7c0.1-0.2,0.5-0.2,0.8-0.2l0.2,0l0.2,0c4.7-0.3,15.8-2.6,17.2-16.9
	c0.5-4.7-0.6-8.4-3.2-11.2c-4.8-5.1-13.4-5.3-16.9-5.2c0,0-4.4,0-4.4,0c-0.1,0-13.6-0.1-14.2-0.1l-1.1-0.1c-1.8-0.2-3.3-0.3-3.5,0.6
	c-0.1,0.4,0,0.6,0.1,0.8c0.4,0.6,1.6,0.7,3.7,1l0.2,0c0.6,0.1,1,0.4,1.4,0.9c0.9,1.2,1.1,3.7,0.6,6.1c0,0.1-1.6,9.3-4.1,19.9
	c-3.1,13.4-6.7,24.4-6.7,24.5c-0.9,3.1-2.5,6.8-5.1,7.1l-2.4,0.3c-1.1,0.1-1.7,0.2-2,0.6c-0.2,0.2-0.2,0.5-0.2,0.8
	c0.1,1,1.4,0.9,3.6,0.8l1,0c0,0,5.9,0,5.9,0l8.8,0c0,0,5.4,0,5.4,0c0.7,0,1,0,1.3,0c0,0,0,0,0,0c0.7,0,2.2-0.1,2.2-1.3
	c0-0.9-1.1-1-1.9-1l-0.1,0c-2.3-0.2-3.7-0.7-4.5-1.8c-0.8-1.1-0.9-2.6-0.5-4.8l4.2-18.4c0,0,0.4-1.6,1.4-1.7
	c0.5-0.1,1.3,0.3,1.7,1.2c3,5.9,11.1,21.8,11.9,23.5c2,4.1,3.1,4.8,6.2,5c2.3,0.1,4.9,0.1,6.5,0.1l1.1,0l1.6,0l5.1-0.1l8.8,0
	c0,0,5.4,0,5.4,0c0.7,0,1,0,1.2,0c0,0,0,0,0,0c1.1,0,2.3-0.1,2.3-1.3c0-0.8-0.7-0.9-1.4-1l-0.3,0l0,0c-0.1,0-0.1,0-0.2,0l-0.1,0
	c-1.8-0.3-3.7-0.7-4.6-2.1c-0.4-0.6-0.7-1.5-0.7-2.5c0-0.6,0.1-1.3,0.2-2.1l4.2-18.6c0-0.1,0.1-0.3,0.1-0.5l0.1,0l0.1-0.4l-0.1,0
	c0.3-0.8,0.7-1.8,1.5-1.9c0.7-0.1,1.5,1,2.3,3.1c6.9,17.3,18.1,29.7,25.6,35.1c7.3,5.2,15.5,9.9,26.2,9.2c11-0.7,14.3-7.1,15.2-9.8
	C496.1,93.7,495.3,89.2,493.1,87.1 M376.3,53.3L376.3,53.3c0.9-4.4,5.2-20.9,5.2-21c0.5-1.8,1.6-2.5,4-2.6c1.6-0.1,5.3,0.5,7.7,3.3
	c2.2,2.4,3,6,2.4,10.7c-1.2,8.6-6.8,13-16.3,12.9l-0.9,0c-1.1,0-1.9,0-2.2-0.4C376,55.8,376,54.9,376.3,53.3z"/>
<path fill="#010101" d="M311.3,7.4c-1.6-2.9-4.6-4-8-2.9c-4,1.3-5.4,4.6-5.4,8c0,1.3,0.2,2.7,0.6,3.9c0.7,2.6,2.2,4.9,3.1,6.5
	l0.7,1.3c0.4,0.8,1,2.6,1,6.3c0,3.6-0.6,9.1-2.5,17.3c-3,13-8.4,24.8-17.8,39.1c0.1-1.8,0.2-5.1,0.2-9.6c0-6.1-0.2-14.5-0.9-24.7
	c-1.4-20.7-7.3-45.9-27.5-48.3c-6.3-0.8-11.4,0.4-15.1,3.6c-5.3,4.5-6,11.6-6.1,13.7c0,1.1,0,1.6,0.6,1.7c0.4,0.1,1.1,0,1.5-1.4
	c1.8-6,5.2-9.1,10.1-9.3c10-0.5,21.7,10.3,24.7,41.8c1.1,12,1.5,21.7,1.5,29c0,9.2-0.6,14.9-1.2,17.4
	c-10.1,10.1-22.1,16.1-32.9,16.5c-5.6,0.2-9.9-1.4-12.9-4.7c-3.5-4-4.1-9.6-3.5-13.2c0.3-1.9,2.4-11.5,13.4-12.9
	c6.3-0.8,11.6,0.4,16.3,3.7c1.2,0.8,1.9,1,2.3,0.6c0.4-0.4,0.2-1.1-0.6-2.3c-1.9-2.8-5.7-6.4-13.2-8.2c-6.1-1.4-13-0.8-17.9,1.8
	c-6.7,3.5-10.4,8.4-11.2,15.1c-0.6,5.2,1.1,10.8,4.5,15c4,4.9,10.2,7.8,17.9,8.4c18.4,1.5,30.3-8.4,36-13.1
	c6.6-5.5,24-24.8,32.1-45.2c10.3-25.7,11.5-42.6,11.8-45.1C313,16.7,313.5,11.3,311.3,7.4"/>
<path fill="#010101" d="M187.5,96c-3.1-1.2-6.9,0.2-8,2.9c-1.1,2.8-0.3,4.8,0.2,6.4l0.4,1.4c0.3,1.5,0.3,2.9-0.2,4
	c-0.7,1.7-2.3,3-4.8,4.1c-14.9,6.1-33.2-1.3-55.9-22.7c-1.3-1.2-2.6-2.5-3.8-3.8c1.2,0,9.4,0,13.8,0c7-0.1,22.5,0.2,24.2,0.2
	c3.8,0.1,7.3,0.3,7.9,0.3l0.2,0c0.8,0.1,2.7,0.2,3.5-2.7c0.6-2,1.3-5.2,1.9-7.8l0.6-2.7l0.2-0.8c0.7-2.8,1.1-4.9,0.7-5.6l-0.5-0.4
	c-0.9-0.2-1.5,0.8-2.3,2.3l-1.2,2.1l-0.4,0.6c-1.7,2.7-4.9,7.7-10.7,9.8c-5.8,2.1-11.3,2.3-14.1,2.1c-3.4-0.2-5.9-0.4-6.9-1.8
	c-0.7-0.9-0.8-2.2-0.4-4.1l4.6-20.8c0.5-1.3,0.5-1.3,3.3-1.3l2.2,0c6.2,0,6.9,8.1,7,9.8l0.1,2c0,1.7,0.1,2.7,1.2,2.7
	c1.3,0,1.7-2.2,2.2-5.1c0.3-1.8,1.6-7.4,2.8-12.3l1.2-5.2c0.9-3.7,1.1-4.8,0.6-5.4c-0.3-0.4-0.7-0.4-0.9-0.4c-0.7,0-1,0.7-1.5,1.8
	c-0.6,1.4-1.7,3.7-4.4,6.4c-3.3,3.3-8.2,3.2-10.6,3.1l-0.5,0c-0.6,0-1-0.2-1.2-0.4c-0.3-0.3-0.3-0.9-0.2-1.7l0.2-0.8h0
	c0.9-3.9,5-21.1,5-21.1c0.7-2.6,4.5-2.5,8.6-2.3l0.8,0c4.9,0.2,9.5,5.1,11,8.4l0.5,1c0.8,1.8,1.1,2.3,1.9,2.1
	c0.8-0.2,0.8-1.5,0.5-4.4l0-0.5l-0.4-4l-0.3-2.5c-0.3-2.7-2.3-2.7-3.8-2.6l-0.6,0l-1.4,0l-5.7,0l-10.7,0c-0.1,0-13.5-0.1-14.2-0.1
	l-1.1-0.1c-2.1-0.2-3.3-0.2-3.5,0.6c-0.1,0.3,0,0.6,0.1,0.7c0.4,0.6,1.6,0.7,3.7,1l0.2,0c0.6,0.1,1.1,0.4,1.4,0.9
	c0.9,1.2,1.1,3.6,0.5,6c0,0.1-1.4,9.1-3.9,19.5c-2.9,11.7-6.2,23.8-6.2,23.9c-0.6,3.3-2.7,7-5.2,7.2l-1,0.1c-0.3,0-0.5,0-0.7,0.1
	c-3.1-3.4-6-7.2-8.9-11.3c1-5.1,5.8-29.2,12.1-44.5c5.5-13.2,10.9-19.7,16.3-19.4c1.9,0.1,2.7,1.1,3.2,2.1l0.3,0.6
	c0.4,0.8,0.7,1.7,1.7,2.2c1,0.6,2.5,0.5,3.8-0.1c1-0.5,2.8-1.9,3.2-5.3c0.1-0.9,0.2-3.1-1.3-5c-1-1.3-3-2.9-7.1-3
	c-15.2-0.3-22.2,16.9-27.4,33c-4.4,13.4-7.7,28.9-8.6,33.6c-16.9-26.6-25-57-26.4-62.8c0,0,0,0,0,0c0-0.1-0.2-0.7-0.2-0.7
	c-0.5-1.1-1.6-1.2-4.8-1.5l-2.9-0.4c-7.5-1-19-1.2-26.8,1.3C32,7.6,27.7,11.4,26.2,17c-0.9,3.7-0.4,7.3,1.4,10
	c1.5,2.3,3.9,3.8,6.8,4.3c6.7,1.1,10-2.9,10.9-5.2c0.4-1,0.6-2.6-0.1-4.1c-0.5-1.1-1.4-1.9-2.6-2.3c-3.2-1.1-5.9,1.1-6.7,3l-0.4,0.9
	c-0.6,1.5-1,2.4-2.1,2.4c-0.8,0-1.8-0.6-2.6-1.5c-0.6-0.8-1.6-2.6-1-5.5c1-4.6,6.5-9.5,16.1-9c10.2,0.4,14.3,2.1,16.6,3.6
	c-0.5,7.6-1.9,17-3.1,25.3L58.8,43C57,55.7,47.7,92.5,29.2,94.5c-7.6,0.8-10.7-2.2-12.3-4.5c-1.2-1.7-1.3-3.3-1.2-3.8
	c0.1-0.6,0.4-0.9,0.8-1.3c0.5-0.5,1.1-1.2,1.5-2.7c0.3-1.3,0-3.4-1.2-5c-0.9-1.3-2.3-2-4-2.1c-1.9-0.1-3.5,0.5-4.8,1.7
	c-1.8,1.8-2.6,4.6-2.5,6.5c0.1,1.3,1.1,12.8,17.4,15c29.3,3.9,41.2-44.9,44.9-66c0.1-0.3,0.2-0.4,0.2-0.4c0,0,0.2,0.1,0.4,0.5
	c1.7,4.4,11,27.6,28.5,49.2c19.8,24.6,42.2,37.7,66.4,39c14,0.8,21.1-4.2,24.7-8.5c2.5-3,3.2-5.2,3.5-7.8
	C191.9,101,190.8,97.2,187.5,96"/>
<path fill="#010101" d="M229.8,55.1c9.6-14.1,15.5-21.2,19.6-23.7c1.9-1.2,4.6-1.7,6.7-2c2.5-0.4,4.3-0.8,4.1-2
	c-0.1-1.2-1.7-1-4.2-0.8c-1.1,0.1-2.4,0.2-3.7,0.2c-1.9,0-12.5,0-16.4-0.2l-4.8-0.3c-3.1-0.3-4.6-0.4-5,0.9l0.1,0.7
	c0.4,0.6,1.6,0.9,3.2,1.2l0.7,0.1c2.3,0.5,4.5,1.2,4.9,2.6c0.7,2.8-1.7,10.9-8.7,22.1c-0.1,0.2-11.3,17.6-12.2,18.8l-0.3,0.4
	c-0.4,0.5-1.3,1.8-1.7,1.7c0,0-0.6-0.2-0.7-3.2c-0.3-6.6-1-29.9-0.5-36.3l0-0.1c0.2-2.8,0.4-5.9,3.5-6.2c3.1-0.4,3.6-0.7,3.6-1.5
	c0-0.1-0.2-0.7-0.2-0.7c-0.4-0.4-1.2-0.5-2.7-0.5c-2.2,0.1-6.8,0.1-8.3,0.1c-4.2,0-8.3-0.1-8.7-0.1l-0.5,0c-1.9-0.1-3.3-0.1-3.8,0.3
	l-0.2,0.5c0,0,0,0,0,0.1c0,1.1,1.3,1.3,3.6,1.7l0.5,0.1c1.5,0.3,1.9,3.1,2.2,6.7c0,0,0.9,16,1,17.6c-0.1,0.1-0.2,0.3-0.2,0.3
	c-8.1,11.5-12.9,18.3-13.6,19.2l-0.3,0.4c-0.4,0.5-1.3,1.8-1.7,1.7c0,0-0.6-0.2-0.7-3.2c-0.3-6.6-1-29.9-0.5-36.3l0-0.7
	c0.2-2.6,0.3-5.3,3.5-5.7c3.1-0.3,3.6-0.7,3.6-1.5c0-0.1-0.2-0.7-0.2-0.7c-0.4-0.4-1.2-0.5-2.7-0.5c-2.2,0.1-6.8,0.1-8.3,0.1
	c0,0-8.9-0.1-8.9-0.1l-0.5,0l-2,0c-0.8,0-1.7,0.2-1.9,0.7c-0.1,0.4,0,0.7,0.1,0.9c0.3,0.4,0.9,0.6,2,0.7l1.8,0.1
	c1.9,0.1,2.3,4.3,2.3,6.8c0,0.3,2.1,25.3,2.4,42.4l0,4.2c0,6.4,0.1,9.3,1.6,9.5c1.4,0.2,3-2.1,5.9-6.3l2.4-3.4l3.8-5.4
	c4.1-5.8,9.5-13.5,12.5-17.6c0.4,7.1,0.7,19.9,0.9,27.2l0,1.1c0.1,3.7,0.1,4.7,1.1,4.7c1.5,0.1,2.9-1.9,6.6-7.3l1.9-2.7
	C214.5,78.1,229.6,55.3,229.8,55.1"/>
</svg>
