<?xml version="1.0" encoding="utf-8"?>
<!-- Generator: Adobe Illustrator 19.1.0, SVG Export Plug-In . SVG Version: 6.00 Build 0)  -->
<svg version="1.1" id="Layer_1" xmlns="http://www.w3.org/2000/svg" xmlns:xlink="http://www.w3.org/1999/xlink" x="0px" y="0px"
	 viewBox="0 0 500 107.5" enable-background="new 0 0 500 107.5" xml:space="preserve">
<g>
	<g>
		<path fill-rule="evenodd" clip-rule="evenodd" fill="#020202" d="M29.6,3.5c-2.3,1.5-6.8,1.4-8.9,3c-22.9,7.6-23.7,90,1,96.4
			c6.5,4.8,22.5,1.4,27.6-2c10.8-7.3,11.8-28.1,11.8-46.2C61.1,25.9,59,3.2,29.6,3.5z M44.3,94.1c-2.9,4.5-12.6,8.8-18.7,3.9
			c-10.1-6.8-12.5-55.5-7.9-73.8c1.4-5.4,4.4-9.7,6.9-13.8c2.1-0.5,3.6-0.9,4.9-2c4.1,0,6.7,0.2,8.9,2
			C50.7,14.7,52.5,81.3,44.3,94.1z M157.5,43.9c-4.7-4.1-19.1-14.9-13.8-24.6c0.4-4.4,1.5-4.9,3-7.9c2.6-0.6,5.1-1.5,6.9-3
			c12.8-0.2,14.7,5.2,17.7,14.8h3.9V6.5c-20.4-4.6-25.6-2.5-39.4,6.9c-8.2,34.9,14.6,34.8,28.5,54.1c2.1,3,2.6,7,4.9,9.8
			c0.1,10.5-2.2,13-5.9,18.7c-5,1.5-12.5,5.3-17.7,1c-6.4-2.1-6.8-7.3-8.9-13.8h-3.9c-0.1,5.1-1.2,14.4,1,17.7
			c4.8,3.8,22.1,4.7,29.5,2c4.9-1.8,8.8-6.1,12.8-8.9C182.8,67.6,173.8,58.4,157.5,43.9z M121.1,16.3C116.3,2.4,87,5,67.9,5.5v3.9
			c2,0.4,1.9,0.2,3,1h2c0.6,1.7,0.2,1,1,2v61c0,13.2,2.7,19.9-4.9,26.6c-0.7,1.1-0.6,0.9-1,3c27.4,0.5,48.1,4.7,55.1-16.7
			c1.6-4.8,1.8-15.7,0-20.7c-2-5.5-6.6-8.7-9.8-12.8c-1.7-0.6-1-0.2-2-1C120.6,49.3,131.5,27.1,121.1,16.3z M103.4,98
			c-5.1,0.6-11.3,1.1-17.7,1V54.7h15.7C115.5,68.9,114.6,81.8,103.4,98z M85.7,49.8V10.4c14.2-0.2,15.7,0.6,23.6,5.9
			C115.1,39.3,111.6,50.7,85.7,49.8z M189,11.4c3.4,4.5,2,16.1,2,23.6c0,20.6,1.4,44-1,63c-1.2,0.5-3,1.2-3.9,2
			c-0.7,1.1-0.6,0.9-1,3h49.2V86.2c-5.5,0.7-6.9,6-8.9,9.8c-6.4,1.7-13,3.1-22.6,3V54.7c3.8-0.1,9.5-0.5,11.8,1
			c4.9,0.9,5.4,2.9,6.9,6.9h3.9V42.9h-4.9c-0.4,2-0.2,1.9-1,3c-0.7,2.3-1,2.2-2,3.9h-14.8V10.4c6.6-0.2,15.9-1,19.7,2
			c4.6,1.5,6.9,5.7,7.9,10.8h3.9V5.5H185C185.7,10.3,186.5,9,189,11.4z M297.2,91.1c-4.7-10.7-7.3-26-14.8-34.4
			c4.3-3.9,9.7-5.7,12.8-10.8c1-3.6,2-7.2,3-10.8c2.2-32.8-25.4-30.3-56.1-29.5c0.6,4.8,2.6,5.2,5.9,6.9v61
			c0,13.2,2.7,19.9-4.9,26.6c-0.7,1.1-0.6,0.9-1,3h23.6v-3c-2.1-0.9-4.1-2-5.9-3V56.7h9.8c2.8,1.5,3.4,8.8,4.9,11.8
			c5,10.3,12.4,22.5,14.8,34.4H307C305.6,98.3,299.6,96.6,297.2,91.1z M259.8,52.7V10.4c12.3-0.5,20.9-0.4,23.6,8.9
			c7.3,9.9-1.1,26-4.9,31.5C273.3,52,267.3,52.9,259.8,52.7z M348.4,6.5c-0.7,1.1-0.6,0.9-1,3c2,0.4,1.9,0.2,3,1
			c2.3,0.7,2.2,1,3.9,2c-1.6,18.2-7.2,37.5-11.8,54.1c-2.2,7.8-0.9,17.4-4.9,23.6v1c-2.6-3.8-1.6-9.6-3-14.8
			c-3.1-11.6-5.6-25.9-8.9-37.4c-1.9-6.7-0.6-14.5-3.9-19.7v-8.9c1.6-0.3,3.3-0.7,4.9-1v-3l-1-1c-6.5-0.1-20.1-1.9-24.6,1
			c-0.7,1.1-0.6,0.9-1,3c3.4,0.5,3.9,1.2,6.9,2c5.2,19.6,9.2,42.3,14.8,62c2.5,8.9,1.3,20.4,5.9,27.6v2h13.8
			c1.7-19.6,7.8-40.2,12.8-58.1c3.5-12.3,3.6-24.8,8.9-34.4c1.6-0.3,3.3-0.7,4.9-1V5.5C362.6,5.4,352,4.1,348.4,6.5z M376.9,13.4
			c2.2,3.4,1,12.5,1,17.7v45.3c0,5.6,1.4,15.9-1,19.7c-1.2,3-1.8,2.1-3.9,3.9c-0.7,1.1-0.6,0.9-1,3h49.2V86.2
			c-5.2,0.7-7.8,7.2-9.8,10.8c-5.9,1.4-13.3,2.1-21.6,2V54.7h12.8c2.6,2.8,4.2,3.8,5.9,7.9h3.9V42.9c-5.2,0.6-6,3.5-7.9,6.9h-14.8
			V10.4c15-0.5,25.9-0.1,27.6,12.8h3.9V5.5H372C372.9,11,375.1,9.2,376.9,13.4z M470.4,55.7c13.2-6.1,15.7-16.7,14.8-34.4
			c-3.3-3.6-4.7-9.1-8.9-11.8c-9.7-6.3-31.9-4.2-47.2-3.9v3.9c2,0.4,1.9,0.2,3,1c1,0.3,2,0.7,3,1v62c0,6.5,1.8,19.1-1,23.6
			c-1.3,2.4-2,2.3-4.9,3v3h24.6c-1.1-4.2-2.2-2.8-4.9-4.9c-0.7-0.8-1.3-2.2-2-3c-0.1-11.6-2.3-28.7,1-38.4h9.8
			c6.6,15.4,13.1,30.8,19.7,46.2H494v-3C485.7,96.6,472.5,66.1,470.4,55.7z M464.5,51.8c-2.3,0.2-2.8,0.2-3.9,1
			c-4.8,0.1-10.5,0.2-13.8-1V10.4h15.7c9.7,3.1,14,21.6,8.9,33.5C470.1,46.9,466.4,49.2,464.5,51.8z"/>
	</g>
</g>
</svg>
