<?xml version="1.0" encoding="utf-8"?>
<!-- Generator: Adobe Illustrator 19.0.0, SVG Export Plug-In . SVG Version: 6.00 Build 0)  -->
<!DOCTYPE svg PUBLIC "-//W3C//DTD SVG 1.1//EN" "http://www.w3.org/Graphics/SVG/1.1/DTD/svg11.dtd">
<svg version="1.1" id="Layer_1" xmlns="http://www.w3.org/2000/svg" xmlns:xlink="http://www.w3.org/1999/xlink" x="0px" y="0px"
	 viewBox="16 14.3 288 119.3" style="enable-background:new 16 14.3 288 119.3;" xml:space="preserve">
<g>
	<g>
		<path d="M50.3,34.4h5.5c4.3,0,6.7,3.6,6.7,10.5c0,7.6-1.7,10.6-6.7,10.7h-5.5V34.4z M53,52.9h2.8c3.1-0.1,3.8-3.2,3.8-7.8
			c0-0.5,0.3-7.9-3.8-7.9H53V52.9z M197.6,84.7c0,5.7,1.4,10,5.4,10c4.4,0,7.1-6,7.1-20.2c0-15.5-2.4-20.9-6.6-21.1
			c-4-0.2-6.1,3.3-5.9,10.3V84.7z M200.4,66c0-4.8,0.6-9.3,2.8-9.3c2.9,0,4,6.9,4,17.8c0,9.9-1.3,17-4.4,17c-2,0-2.4-4.9-2.4-8.9
			C200.4,82.5,200.4,66,200.4,66z M274.9,54c4.4,0,6.2,4.9,6.5,10.5c0.1,1.9,0.1,2,0,3.4h-12.9c-0.1-1.4-0.1-1.5,0-3.4
			C268.7,58.9,270.5,54,274.9,54 M271.2,63.4c-0.1,1-0.1,1,0,1.7h7.3c0.1-0.7,0.1-0.7,0-1.7c-0.1-2.9-1.4-6.7-3.7-6.7
			C272.5,56.7,271.3,60.5,271.2,63.4 M104,53.6c4.4,0,6.1,5.3,6.3,10.9c0.1,1.9,0.1,2,0,3.4H97.4c-0.1-1.4-0.1-1.5,0-3.4
			C97.7,58.9,99.7,53.6,104,53.6 M100.1,63.3c0,1-0.1,1.1,0,1.8h7.4c0.1-0.7,0.1-0.8,0-1.8c-0.1-2.9-1.4-6.6-3.7-6.5
			C101.5,56.7,100.3,60.4,100.1,63.3 M153,57.1c2.5,0,4.5,7.8,4.5,17.3c0,9.6-2,17.3-4.5,17.3c-2.5,0-4.5-7.7-4.5-17.3
			C148.5,64.9,150.5,57.1,153,57.1 M145.9,74.4c0,11.3,2,20.4,7.1,20.4c5.2,0.1,7.1-9.1,7.1-20.4c0-11.3-2-20.3-7.1-20.4
			C148,54,145.9,63.2,145.9,74.4 M104.1,94.7c3.5,0,5.4-3.3,6.2-7.6l17,0c-0.9-4.3-1-5.1-1.1-8.5l-28.7,0c-0.1,1.3,0,3.4,0.1,5.4
			C97.9,89.7,99.8,94.7,104.1,94.7 M123.7,81.5c0.1,1.5,0.1,1.5,0.3,2.9h-16.1c0,0.2,0,0.5,0,1c-0.1,2.9-1.4,6.7-3.7,6.7
			c-2.3,0-3.5-3.7-3.7-6.7c0-1-0.2-3.1-0.2-3.9L123.7,81.5C123.7,81.5,123.7,81.5,123.7,81.5z M275,94.7c3.6,0,5.4-3.4,6.1-7.6h19.4
			c-2.4,29.6-43.3,29.8-46.9,6.4v15.3h-28.2V93.3c-2.5,15.1-11.1,17.2-14.9,17.2c-3.2,0-11-2.6-13.8-10.6l0.3,8.7
			c0.1,5.4,3.5,8.8,7.1,9.3v12.5l-32.9,0v-12.5c2.8-0.1,7.2-2.8,7.2-8.8V86.4c-1,5.7-5.2,24.1-25.5,24.1
			c-20.1,0-24.6-19.5-25.5-22.3c-3.7,21.2-17.8,22.4-24,22.3c-11.1-0.1-17.8-7.8-17.9-8c-6.7-6.8-8-17.1-7.7-28.2
			c0-2.2,0.6-6.6,0.8-8.7c-7.2,7.7-13.9,6.8-21.8,7.1l-6.6,0v12.7c0,5.1,1.9,8.2,7.6,8.2v15.2H18.7V93.8c5.7,0,7.6-3.4,7.6-8.5V40.2
			c0-1.1-0.3-8.1-7.6-8.1V17h42.2c7.9,0,13.6,2.4,17.4,5.4c7,5.5,8.4,15.1,9,22.1c10.7-9.3,36.2-11.4,40.5,16.5
			c4.6-21.3,20.3-22.9,24-22.9c6.6,0,17.9,4,21.5,14.7V39.6h23.1v8.6c1.7-6.5,7.4-10,13.2-10c5.6,0,17,6.2,19.9,29.7V36.5
			c0-4.5-2.8-6.9-7.3-6.8l0-12.5H249v50.7c2.5-22.5,15-29.7,25.5-29.7c10.7,0,18.3,6,22.2,13.6c5,9.8,4.6,20.1,4.3,26.8l-32.7,0
			c-0.1,1.3,0,3.4,0.1,5.4C268.8,89.7,270.6,94.7,275,94.7 M278.7,84.4c0,0.2,0,0.5,0,1c-0.1,2.9-1.4,6.7-3.7,6.7
			c-2.3,0-3.5-3.7-3.7-6.7c-0.1-1-0.2-3.2-0.2-3.9h32.5c0.4-5.1,1.7-19.1-4.2-30.6c-4.7-9.1-12.5-15.4-24.7-15.4
			c-10.8,0-18.4,5.5-22.8,12.3l0-33.3h-32.4v18.4c4.5,0,7.3,0.4,7.3,4.9v10.2c-3.1-6.8-10-12.9-18.5-12.5c-3.6,0.2-6.2,1.7-9.1,3.8
			v-2.4h-28.6v5.9c-4.9-5-10.8-7.3-18.4-7.3c-12.2,0-20.4,7.7-24.2,16.5c-2.2-6.3-9.5-16.5-23.6-16.5c-5.8,0-11.2,2.1-15.2,4.5
			c-0.6-7.3-3.9-15.5-9.2-19.7c-4.3-3.4-10.8-5.9-19.4-5.9H16v20.6c5.8,0,7.6,1.4,7.6,7.1v42c0,5.5-1.4,7-7.6,7.1v21l44.5,0v-21
			c-6.1,0-7.5-1.6-7.5-7.1v-8.3l7.1,0c9.1,0.2,12.3-1.1,15.2-3.4c-0.6,3.6-0.3,10.4,0.1,13c1.6,13.1,5.5,16.6,9.4,20.5
			c5.2,5.3,12.4,7.6,19,7.6c18.3,0.1,23.1-14.2,24.1-16.6c6.1,14.4,18.3,16.6,25.3,16.6c13.9-0.1,19.5-6.6,22.6-12.4v7.1
			c0,5-1.2,7.3-7.2,7.4l0,18.1h38.3v-18.1c-5.8-0.1-7-4.3-7.2-6.9c3.5,4.7,10.1,4.9,10.9,4.8c2.8,0.3,9-0.5,12.1-6.2v4.8h33.7v-6.4
			c4.9,5.2,12,7.8,18.6,7.8c11.1,0,26.9-6.1,28.3-28.9L278.7,84.4L278.7,84.4L278.7,84.4z"/>
	</g>
</g>
</svg>
