<?xml version="1.0" encoding="utf-8"?>
<!-- Generator: Adobe Illustrator 19.0.0, SVG Export Plug-In . SVG Version: 6.00 Build 0)  -->
<!DOCTYPE svg PUBLIC "-//W3C//DTD SVG 1.1//EN" "http://www.w3.org/Graphics/SVG/1.1/DTD/svg11.dtd">
<svg version="1.1" id="Layer_1" xmlns="http://www.w3.org/2000/svg" xmlns:xlink="http://www.w3.org/1999/xlink" x="0px" y="0px"
	 viewBox="-126 0 315.5 147.6" style="enable-background:new -126 0 315.5 147.6;" xml:space="preserve">
<style type="text/css">
	.st0{fill:#2CACE3;}
</style>
<g id="Kxhkv6.tif">
	<g id="XMLID_1_">
		<g id="XMLID_2_">
			<path id="XMLID_3_" class="st0" d="M11.2,54.2C11,53.1,10.9,52,10.3,51c-0.9-1.5-2.4-1.5-3.3,0c-0.3,0.6-0.5,1.2-0.6,1.8
				c-0.6,2.8-0.5,5.6-0.2,8.4c0.1,1.1,0.3,2.2,1,3.1c0.8,1.1,2.3,1.1,3.1,0c0.4-0.5,0.6-1.1,0.7-1.7c0.4-1.6,0.5-3.3,0.4-4.8
				C11.4,56.5,11.4,55.3,11.2,54.2z"/>
			<path id="XMLID_11_" class="st0" d="M29.9,55.4c-0.1-1.5-0.2-3.1-0.9-4.5c-0.4-0.7-1-1.1-1.8-1s-1.3,0.5-1.6,1.2
				c-0.3,0.7-0.4,1.4-0.4,2.1c0,2.8,0,5.7,0,8.5c0,0.9,0.1,1.9,0.6,2.7c0.7,1.2,2,1.3,2.9,0.3c0.5-0.6,0.7-1.3,0.9-2
				c0.4-1.7,0.5-3.4,0.4-5.1C29.9,56.9,30,56.2,29.9,55.4z"/>
			<path id="XMLID_12_" class="st0" d="M-1.3,59.8c0-0.5-0.2-0.6-0.6-0.6c-1.8,0-3.5,0-5.3,0s-3.5,0-5.3,0c0,0,0,0-0.1,0
				c-0.2,0-0.6-0.1-0.6,0.3c0,1.8,0.1,3.5,1.2,4.9c1.3,1.7,3.2,1.4,3.9-0.6c0.1-0.2,0.2-0.4,0.2-0.7c0.1-0.4,0.3-0.6,0.7-0.6
				c1.8,0,3.6,0,5.4,0c0.4,0,0.6-0.1,0.5-0.6C-1.2,61.3-1.3,60.5-1.3,59.8z"/>
			<path id="XMLID_13_" class="st0" d="M-27.1,42.2c-0.6,0-1.3,0-1.9,0c-0.4,0-0.5,0.1-0.5,0.5c0,1.1,0,2.2,0,3.3s0,2.2,0,3.2
				c0,0.6,0.2,0.7,0.7,0.7c0.7,0,1.3,0,2,0c1,0,1.7-0.4,2-1.4c0.5-1.6,0.5-3.2-0.1-4.8C-25.3,42.7-26.1,42.2-27.1,42.2z"/>
			<path id="XMLID_14_" class="st0" d="M56.3,51.4c-0.4-0.9-1.1-1.6-2.1-1.5c-1,0-1.6,0.7-2,1.6c-0.5,1.1-0.6,2.2-0.7,3.3
				c0,0.4,0.2,0.5,0.5,0.5c0.7,0,1.4,0,2.2,0c0.7,0,1.4,0,2.2,0c0.3,0,0.5-0.1,0.5-0.4C56.8,53.7,56.8,52.5,56.3,51.4z"/>
			<path id="XMLID_15_" class="st0" d="M-12.6,55.3c0.7,0,1.4,0,2.2,0c0.7,0,1.4,0,2.2,0c0.3,0,0.5,0,0.5-0.4c0-1.3-0.1-2.5-0.7-3.7
				c-0.4-0.8-1-1.3-1.9-1.3s-1.5,0.6-1.9,1.3c-0.6,1.1-0.7,2.4-0.8,3.6C-13.1,55.2-12.9,55.3-12.6,55.3z"/>
			<path id="XMLID_16_" class="st0" d="M-7.4,88.1c-3.7-0.8-6.8,0.2-9.3,3.1c-0.2,0.2-0.2,0.5-0.2,0.8c0,2.1,0,4.2,0,6.3
				c0,2.1,0,4.2,0,6.3c0,0.5,0.1,0.8,0.5,1.1c1.6,1.4,3.5,1.9,5.6,2.1c3.6,0.3,6.7-1.4,8.1-4.7c1.3-3.1,1.3-6.3,0.5-9.5
				C-3,90.8-4.5,88.7-7.4,88.1z"/>
		</g>
		<path id="XMLID_9_" class="st0" d="M112.5,113.4c-4.2-5.3-8.5-10.6-12.8-15.9c-0.4-0.4-0.3-0.7,0-1.1c4.5-5.3,9-10.7,13.6-16
			c0.9-1.1,1.3-2.3,0.6-3.6c-0.6-1.3-1.8-1.9-3.2-1.8c-2.8,0-5.6,0-8.4,0c-0.6,0-0.7-0.2-0.7-0.7C101,57,94.9,41.8,83.3,28.9
			C73.8,18.2,62,11.1,48.1,7.5C41.4,5.8,34.6,5,27.6,5.4c-19.8,1-36.4,8.7-49.9,23.1c-1.3,1.4-2.5,2.8-3.6,4.2
			c-0.3,0.4-0.6,0.5-1.1,0.5c-4.8,0-9.6,0-14.3,0c-1,0-1.6,0.3-2,1.2c0,3,0,6,0,9c0.4,0.8,1.1,1.2,2,1.1c0.4,0,0.6,0.3,0.8,0.6
			c0.3,0.7,0.4,1.5,0.4,2.3c0,4.8,0,9.7,0,14.5c0,1-0.2,1.2-1.2,1.4c-1.3,0.2-1.7,0.7-1.7,2c0,2,0,3.9,0,5.9c0,1.4,0.5,1.9,1.8,2
			c0.5,0,0.4,0.3,0.4,0.6c-0.1,1.7-0.1,3.3,0,5c0.3,10,2.7,19.5,7,28.5c0.2,0.5,0.3,0.9,0.3,1.5c0,9.3,0,18.6,0,27.8
			c0,2.2,1.4,3.7,3.4,3.6c4.4-0.1,8.8,0,13.1,0c2,0,3.2-1.3,3.2-3.3c0-1.2,0-2.5,0-3.7c0-0.2,0-0.4,0-0.6c0.3,0,0.4,0.2,0.6,0.3
			c9.1,7,19.2,11.5,30.5,13.6c2.9,0.5,5.7,0.9,8.6,1c0.2,0,0.4,0,0.5,0.1c2.4,0,4.8,0,7.2,0c0.9-0.3,1.8-0.2,2.6-0.2
			c12.9-1.1,24.6-5.4,35.1-12.8c7.2-5.1,13.3-11.3,18.2-18.7c0.5-0.7,0.5-0.7,1,0c0.8,1.1,1.6,2.1,2.3,3.2c0.8,1.1,1.8,1.6,3.1,1.6
			c5.1,0,10.1,0,15.2,0c1.7,0,2.8-0.7,3.3-2.3c0-0.1,0.1-0.1,0.1-0.2c0-0.5,0-0.9,0-1.4C114.4,115.4,113.3,114.5,112.5,113.4z
			 M8.4,109.2c-3.2,5.1-7.7,8.1-13.7,8.8c-3.8,0.5-7.5,0-11-1.7c-0.6-0.3-0.6-0.1-0.6,0.4c0,6.5,0,13,0,19.5c0,0.6-0.1,0.9-0.8,0.9
			c-4,0-7.9,0-11.9,0c-0.5,0-0.8-0.1-0.8-0.7c0-19.2,0-38.3,0-57.5c0-0.6,0.2-0.7,0.8-0.7c3.8,0,7.7,0,11.5,0c0.7,0,0.8,0.2,0.8,0.8
			c0,0.8,0,1.7,0,2.6c0.4-0.1,0.6-0.4,0.9-0.6c5.9-4.8,15.4-4.7,21.1,0.1C8,83.8,10,87.3,11,91.5C12.5,97.7,11.9,103.7,8.4,109.2z
			 M25.1,72.4c0.3,1,0.9,1.8,2,2.2c0.3,0.1,0.4,0.3,0.4,0.6c0,0.8,0,1.6,0,2.4c0,0.2,0,0.5,0.2,0.5c0.8,0,0.6,0.6,0.6,1
			c0,12.5,0,25,0,37.5c0,0.7-0.2,0.9-0.9,0.9c-4,0-7.9,0-11.9,0c-0.6,0-0.8-0.2-0.8-0.8c0-12.6,0-25.2,0-37.8c0-0.4-0.1-0.8,0.5-0.8
			c0.3,0,0.2-0.3,0.2-0.5c0-0.8,0-1.6,0-2.4c0-0.2,0-0.5,0.3-0.5c1.4-0.4,2-1.5,2.1-2.9c0.1-2.5,0-5.1,0-7.6
			c-0.1,0.4-0.2,0.8-0.3,1.1c-1,3.4-3.7,5.6-7.4,5.8c-1.4,0.1-2.7,0.1-4.1-0.2c-3.5-0.8-5.6-3-6.7-6.4c-0.1-0.3-0.2-0.5-0.2-0.8
			c0,0,0,0-0.1-0.1c-0.2,0.6-0.3,1.2-0.5,1.8c-1.2,3.4-4,5.6-7.6,5.7c-1.9,0.1-3.7,0-5.4-0.8c-3-1.4-4.5-3.9-5.3-7
			c-0.7-2.6-0.7-5.2-0.5-7.9c0-0.1,0-0.3,0-0.4c-0.1,0-0.1-0.1-0.1-0.1c-2.3,1.1-4.8,1.3-7.3,1.2c-1.7,0-1.7,0-1.7,1.7
			c0,1.3,0,2.7,0,4c0,1.7,0.9,3.3,2.5,3.7c0.3,0.1,0.4,0.3,0.4,0.6c0,1.3,0,2.6,0,3.9c0,0.4-0.1,0.5-0.5,0.5c-4.3,0-8.5,0-12.8,0
			c-0.4,0-0.5-0.2-0.5-0.5c0-1.3,0-2.6,0-3.9c0-0.3,0-0.5,0.3-0.5c1.9-0.5,2.6-2,2.6-3.8c0-5.1,0.1-10.2-0.1-15.3
			c-0.1-1.2-0.4-2.3-1.1-3.3c-0.4-0.6-0.9-1-1.6-1.2c-0.3-0.1-0.4-0.3-0.4-0.6c0-1.7,0-3.4,0-5.1c0-0.4,0.2-0.5,0.5-0.5
			c5.4,0.1,10.7-0.1,16.1,0.1c3.9,0.2,6.5,2.6,7.4,6.8c0.2,1.1,0.4,2.2,0.5,3.4c3.1-2.2,6.4-2.6,9.8-1.3c3.5,1.4,5,4.5,5.7,8.2
			c0.2-1.2,0.4-2.1,0.8-3.1c1.7-4.6,5.4-6.1,9.7-5.7c1,0.1,2.1,0.3,3.1,0.7c1.7,0.7,2.9,1.9,3.4,3.8c0-1.1,0-2.3,0-3.4
			c0-0.5,0.1-0.7,0.7-0.7c2.4,0,4.7,0,7.1,0c0.5,0,0.7,0.2,0.7,0.7c0,0.7,0,1.4,0,2.2c0.1-0.1,0.2-0.1,0.2-0.2
			c1.6-3.8,6.9-4.1,9.5-1.1c1.5,1.8,2.2,3.9,2.6,6.1c0.1,0.7,0.2,1.3,0.3,2c0.1-0.2,0.1-0.5,0.1-0.7c0-2.9,0-5.9,0-8.8
			c0-0.6-0.1-1.3-0.4-1.8c-0.3-0.7-0.9-1.3-1.6-1.3c-0.9-0.1-1-0.6-1-1.3c0.1-1.2,0-2.5,0-3.7c0-0.6,0.1-0.8,0.8-0.8
			c2.8,0,5.7,0,8.5,0c0.6,0,0.7,0.2,0.7,0.7c0,5.6,0,11.2,0,16.8c0,0.3,0,0.6,0,0.9c0.3-1.4,0.6-2.8,1.1-4.2c2.3-6.1,8.1-7,12.6-5.4
			c2.3,0.8,3.7,2.6,4.6,4.8c1.2,2.9,1.3,5.9,1.2,8.9c0,0.6-0.3,0.7-0.8,0.7c-3.6,0-7.3,0-10.9,0c-0.6,0-0.8,0.2-0.8,0.8
			c0,1.1,0.2,2.2,0.6,3.3c0.2,0.6,0.6,1.2,1.1,1.6c1.2,1,2.6,0.8,3.3-0.6c0.1-0.2,0.2-0.3,0.2-0.5c0.4-1.2,0.4-1.2,1.7-1.2
			c1.5,0,3.1,0,4.6,0c0.4,0,0.6,0.1,0.5,0.6c-0.6,2.8-1.8,5.3-4.4,6.9c-4,2.4-10,1.1-12.7-2.7c-0.3-0.5-0.6-1-0.9-1.5
			c0,1.3,0,2.7,0,4c0,0.5-0.1,0.7-0.7,0.7c-2.6,0-5.2,0-7.9,0c-0.6,0-0.7-0.2-0.7-0.7c0-1.4,0-2.8-0.1-4.2C36.1,65.8,36,66,36,66.2
			c-0.3,0.8-0.6,1.6-1,2.3c-2.3,3.7-7.6,3.6-9.7-0.3c-0.1-0.2-0.2-0.3-0.3-0.5C24.9,69.3,24.6,70.9,25.1,72.4z M66.7,114.6
			c-4.5,2.5-9.2,3.8-14.4,3.5c-3.9-0.3-7.7-1-11.2-2.9c-5.7-3.1-8.9-7.9-9.8-14.2c-0.7-5.4,0.3-10.5,3.4-14.9
			c3-4.3,7.3-6.7,12.4-7.9c2.2-0.5,4.4-0.8,6.1-0.7c5.2-0.1,9.4,1.2,13.4,3.5c0.4,0.2,0.6,0.4,0.3,0.9c-1.2,2.6-2.3,5.2-3.4,7.8
			c-0.2,0.5-0.4,0.5-0.8,0.3c-2.9-1.4-5.9-2.1-9.1-2c-4.3,0.2-7.7,2.5-8.8,6.3c-1,3.4-0.7,6.7,1.6,9.7c1.6,2,3.8,3,6.3,3.4
			c3.7,0.6,7.1-0.1,10.4-1.7c0.5-0.2,0.7-0.3,0.9,0.3c1,2.6,2,5.2,3,7.7C67.2,114.2,67.1,114.4,66.7,114.6z M111.5,117.4
			c-0.2,0.1-0.5,0.1-0.7,0.1c-4.7,0-9.5,0-14.2,0c-0.6,0-0.9-0.2-1.2-0.6c-4-5.5-8.1-11.1-12.2-16.6c-0.1-0.2-0.2-0.3-0.4-0.5
			c-0.2,0.3-0.1,0.5-0.1,0.8c0,5.4,0,10.8,0,16.2c0,0.7-0.2,0.8-0.8,0.8c-4,0-7.9,0-11.9,0c-0.6,0-0.8-0.2-0.8-0.8
			c0-21.7,0-43.3,0-65c0-0.6,0.2-0.8,0.8-0.8c3.9,0,7.9,0,11.8,0c0.7,0,0.9,0.1,0.9,0.9c0,13.9,0,27.8,0,41.7c0,0.3,0,0.5,0,0.8
			l0.1,0.1c1-1.3,1.9-2.6,2.9-3.8c3-4,6-8,9-12c0.2-0.3,0.4-0.5,0.9-0.5c4.9,0,9.8,0,14.8,0c0.1,0,0.2,0,0.4,0
			c-0.3,0.6-0.8,1.1-1.2,1.6c-4.7,5.6-9.4,11.2-14.2,16.7c-0.4,0.5-0.1,0.7,0.1,1c4.1,5.1,8.1,10.1,12.2,15.2
			c1.2,1.5,2.3,2.9,3.5,4.4C111.4,117.1,111.6,117.2,111.5,117.4z"/>
	</g>
</g>
</svg>
