<?xml version="1.0" encoding="utf-8"?>
<!-- Generator: Adobe Illustrator 19.0.0, SVG Export Plug-In . SVG Version: 6.00 Build 0)  -->
<!DOCTYPE svg PUBLIC "-//W3C//DTD SVG 1.1//EN" "http://www.w3.org/Graphics/SVG/1.1/DTD/svg11.dtd">
<svg version="1.1" id="Layer_1" xmlns="http://www.w3.org/2000/svg" xmlns:xlink="http://www.w3.org/1999/xlink" x="0px" y="0px"
	 viewBox="0 0 296.4 74.9" style="enable-background:new 0 0 296.4 74.9;" xml:space="preserve">
<g id="layer1" transform="translate(-132.30464,-516.37198)">
	<g id="g9884" transform="matrix(4.6146484,0,0,4.6146484,-2062.5975,-4065.3743)">
		<g id="g5621" transform="matrix(1.25,0,0,-1.25,513.47987,1006.707)">
			<path id="path5623" d="M0.1,0l0.2,0.5H-1L-0.8,1h1.6L1,1.5h-2.3l-0.8-2.7h2.3l0.2,0.5h-1.6L-1-0.2h1.1V0z"/>
		</g>
		<g id="g5633" transform="matrix(1.25,0,0,-1.25,509.3815,1004.7133)">
			<path id="path5635" d="M0.1,0h-1.4l-0.8-2.7h0.8L-1-1.8h0.5l0.4-0.9h0.8l-0.5,1C0.7-1.6,0.9-1.4,1-1v0.1C1.2-0.4,0.9,0,0.1,0
				 M0.3-0.9L0.3-0.9C0.2-1.2,0-1.3-0.3-1.3h-0.6l0.2,0.7H0C0.3-0.5,0.4-0.6,0.3-0.9"/>
		</g>
		<g id="g5637" transform="matrix(1.25,0,0,-1.25,524.55087,1004.7133)">
			<path id="path5639" d="M0.1,0h-1.4l-0.8-2.7h0.8L-1-1.8h0.5l0.4-0.9h0.8l-0.5,1C0.7-1.6,0.9-1.4,1-1v0.1C1.2-0.4,0.9,0,0.1,0
				 M0.3-0.9L0.3-0.9C0.2-1.2,0-1.3-0.3-1.3h-0.6l0.2,0.7H0C0.3-0.5,0.4-0.6,0.3-0.9"/>
		</g>
		<g id="g5641" transform="matrix(1.25,0,0,-1.25,532.01611,1006.707)">
			<path id="path5643" d="M0.1,0l0.2,0.5H-1L-0.8,1h1.6L1,1.5h-2.3l-0.8-2.7h2.3l0.2,0.5h-1.6L-1-0.2h1.1V0z"/>
		</g>
		<g id="g5645" transform="matrix(1.25,0,0,-1.25,516.78938,1004.7133)">
			<path id="path5647" d="M0.1,0h-1.3L-2-2.7h0.8l0.3,0.8h0.8c0.7,0,1.1,0.2,1.3,0.8V-1C1.2-0.4,1,0,0.1,0 M0.3-0.9L0.3-0.9
				C0.2-1.2,0-1.3-0.3-1.3h-0.5l0.3,0.8h0.6C0.3-0.5,0.4-0.6,0.3-0.9"/>
		</g>
		<g id="g5649" transform="matrix(1.25,0,0,-1.25,529.34225,1005.3993)">
			<path id="path5651" d="M0.1,0l0.2,0.5h-2.6L-2.5,0h0.9l-0.6-2.1h0.8L-0.8,0H0.1z"/>
		</g>
		<g id="g5653" transform="matrix(1.25,0,0,-1.25,535.42224,1004.7133)">
			<path id="path5655" d="M0.1,0h-1.4l-0.8-2.7h0.8L-1-1.8h0.5l0.4-0.9h0.8l-0.5,1C0.7-1.6,0.9-1.4,1-1v0.1C1.2-0.4,0.9,0,0.1,0
				 M0.3-0.9L0.3-0.9C0.2-1.2,0-1.3-0.3-1.3h-0.6l0.2,0.7H0C0.3-0.5,0.4-0.6,0.3-0.9"/>
		</g>
		<g id="g5657" transform="matrix(1.25,0,0,-1.25,520.36,1004.6418)">
			<path id="path5659" d="M0.1,0c-0.9,0-1.4-0.3-1.6-1.1l-0.1-0.2c-0.3-0.9,0.2-1.4,1.1-1.4c0.9,0,1.4,0.3,1.6,1.1l0.1,0.2
				C1.5-0.5,1,0,0.1,0 M0.5-1.2L0.4-1.6C0.3-2,0.1-2.2-0.4-2.2S-1-1.9-0.9-1.5l0.1,0.4C-0.7-0.7-0.5-0.5,0-0.5
				C0.5-0.6,0.6-0.8,0.5-1.2"/>
		</g>
		<g id="g5661" transform="matrix(1.25,0,0,-1.25,510.28537,993.47195)">
			<path id="path5663" d="M0.1,0l0.2,0.4h-1.6l-0.6-2.1h1.6l0.1,0.4h-1.1l0.1,0.4h0.8l0.1,0.4h-0.8L-1-0.1L0.1,0L0.1,0z"/>
		</g>
		<g id="g5665" transform="matrix(1.25,0,0,-1.25,505.004,993.47195)">
			<path id="path5667" d="M0.1,0l0.2,0.4h-1.9L-1.7,0H-1l-0.5-1.6h0.6L-0.4,0H0.1z"/>
		</g>
		<g id="g5669" transform="matrix(1.25,0,0,-1.25,507.13387,992.91632)">
			<path id="path5671" d="M0.1,0l-0.2-0.8h-0.7L-0.6,0h-0.6l-0.6-2.1h0.6l0.3,0.8h0.7l-0.3-0.8h0.6L0.7,0L0.1,0L0.1,0z"/>
		</g>
		<g id="g5673" transform="matrix(1.25,0,0,-1.25,522.23437,996.23719)">
			<path id="path5675" d="M0.1,0c-1.8,0-3.3-1.8-3.3-3.7c0-1.4,1-2.4,2-2.4c1.8,0,3.3,1.8,3.3,3.7C2.2-1,1.2,0,0.1,0 M-0.3-5.5
				c-0.2-0.2-0.5-0.4-0.9-0.4c-0.5,0-0.9,0.3-0.9,1.3c0,1.1,0.6,3.3,1.5,4.1c0.2,0.2,0.5,0.4,0.9,0.4c0.5,0,0.9-0.3,0.9-1.3
				C1.1-2.5,0.5-4.7-0.3-5.5"/>
		</g>
		<g id="g5677" transform="matrix(1.25,0,0,-1.25,490.42474,996.23719)">
			<path id="path5679" d="M0.1,0c-1.8,0-3.3-1.8-3.3-3.7c0-1.4,1-2.4,2-2.4c1.8,0,3.3,1.8,3.3,3.7C2.2-1,1.2,0,0.1,0 M-0.3-5.5
				c-0.2-0.2-0.5-0.4-0.9-0.4c-0.5,0-0.9,0.3-0.9,1.3c0,1.1,0.6,3.3,1.5,4.1c0.2,0.2,0.5,0.4,0.9,0.4c0.5,0,0.9-0.3,0.9-1.3
				C1.1-2.5,0.5-4.7-0.3-5.5"/>
		</g>
		<g id="g5681" transform="matrix(1.25,0,0,-1.25,529.25437,996.23719)">
			<path id="path5683" d="M0.1,0c-1.8,0-3.3-1.8-3.3-3.7c0-1.4,1-2.4,2-2.4c1.8,0,3.3,1.8,3.3,3.7C2.2-1,1.2,0,0.1,0 M-0.3-5.5
				c-0.2-0.2-0.5-0.4-0.9-0.4c-0.5,0-0.9,0.3-0.9,1.3c0,1.1,0.6,3.3,1.5,4.1c0.2,0.2,0.5,0.4,0.9,0.4c0.5,0,0.9-0.3,0.9-1.3
				C1.1-2.5,0.5-4.7-0.3-5.5"/>
		</g>
		<g id="g5685" transform="matrix(1.25,0,0,-1.25,517.00087,996.27858)">
			<path id="path5687" d="M0.1,0c-0.4,0-0.7-0.3-0.7-0.7c0-0.4,0.3-0.6,0.7-0.6c0.3,0,0.5,0.2,0.6,0.4c0-0.1,0-0.3,0-0.4
				c0-2-1.7-4.5-2.9-4.5c-0.4,0-0.7,0.3-0.3,1.4l1.3,4.3h-1.2l-0.9-2.8c-0.6-2-1.6-2.9-2.1-2.9c-0.4,0-0.6,0.3-0.3,1.2l1.4,4.5l0,0
				c-0.2,0-0.7,0-1.3,0h-0.7l-0.1-0.1l0,0h0.9l-1.1-3.7C-7-5.3-6.4-6-5.4-6C-4.7-6-4-5.2-3.5-4.1C-3.7-5.3-3.2-6-2.3-6
				C-0.5-6,1-3.1,1-1.2C0.9-0.3,0.6,0,0.1,0"/>
		</g>
		<g id="g5689" transform="matrix(1.25,0,0,-1.25,485.91175,1003.4923)">
			<path id="path5691" d="M0.1,0H-1l2.5,8.3h1l0.1,0.1l0,0h-3.4l-0.1-0.1l0,0h1l-1.2-4.1h-3.4l1.2,4.1h1l0.1,0.1l0,0h-3.4l-0.1-0.1
				l0,0h1.1L-7.1,0h-1l-0.1-0.1l0,0h3.4L-4.7,0l0,0h-1l1.3,4.1H-1L-2.3,0h-1l-0.1-0.1l0,0L0.1,0L0.1,0L0.1,0z"/>
		</g>
		<g id="g5693" transform="matrix(1.25,0,0,-1.25,496.55837,1001.0877)">
			<path id="path5695" d="M0.1,0L0.1,0c-0.8-1.7-1.2-1.9-1.4-1.9c-0.3,0-0.4,0.2-0.1,1l2.3,7.4l0,0c-0.2,0-0.7,0-1.3,0h-0.7
				l-0.1-0.1l0,0h0.9l-2.1-6.8c-0.3-1.2,0.1-1.8,0.9-1.8C-1.1-2.2-0.5-1.9,0.1,0L0.1,0z"/>
		</g>
		<g id="g5697" transform="matrix(1.25,0,0,-1.25,500.42487,1001.0877)">
			<path id="path5699" d="M0.1,0L0.1,0c-0.8-1.7-1.2-1.9-1.4-1.9c-0.3,0-0.4,0.2-0.1,1l2.3,7.4l0,0c-0.2,0-0.7,0-1.3,0h-0.7
				l-0.1-0.1l0,0h0.9l-2.1-6.8c-0.3-1.2,0.1-1.8,0.9-1.8C-1.1-2.2-0.5-1.9,0.1,0L0.1,0z"/>
		</g>
		<g id="g5701" transform="matrix(1.25,0,0,-1.25,505.60975,999.53545)">
			<path id="path5703" d="M0.1,0c-0.7-2.4-1.7-3.2-2.2-3.2c-0.4,0-0.6,0.3-0.4,1.1l1.4,4.6l0,0c-0.2,0-0.7,0-1.3,0h-0.7l-0.1-0.1
				l0,0h0.9l-1.1-3.7c-0.4-1.4,0.2-2.1,1.2-2.1c0.7,0,1.4,0.6,1.9,1.8l-0.9-3c-0.5-1.7-1.1-2.1-1.7-2.1c-0.7,0-1.2,0.2-1.4,0.6
				C-4.2-6.2-4-6.3-3.9-6.3c0.4,0,0.7,0.3,0.7,0.7c0,0.4-0.3,0.7-0.7,0.7s-0.7-0.3-0.7-0.8c0-0.7,0.7-1.2,1.6-1.2
				c1.2,0,2.5,0.6,3.1,2.7l2,6.6H0.9L0.1,0z"/>
		</g>
		<g id="g5705" transform="matrix(1.25,0,0,-1.25,540.64837,992.91632)">
			<path id="path5707" d="M0.1,0L0.1,0c-0.3,0-0.8,0-1.4,0H-2l-0.1-0.1l0,0h0.9l-1.1-3.7c0,0.7-0.5,1.2-1.1,1.2
				c-1.6,0-3.3-2-3.3-3.9c0-1.5,0.8-2.2,1.6-2.2c0.7,0,1.4,0.5,1.9,1.6c-0.2-1.1,0.3-1.6,1-1.6c0.5,0,1,0.3,1.7,2.1l-0.1,0.1h-0.1
				c-0.7-1.6-1.1-1.9-1.4-1.9c-0.3,0-0.4,0.2-0.1,1L0.1,0z M-2.5-4.6l-0.4-1.3C-3.6-8.1-4.5-8.6-5-8.6s-0.6,0.3-0.6,1.1
				c0,2.1,1.4,4.7,2.4,4.7C-2.7-2.8-2.2-3.5-2.5-4.6"/>
		</g>
	</g>
</g>
</svg>
