<?xml version="1.0" encoding="utf-8"?>
<!-- Generator: Adobe Illustrator 18.1.1, SVG Export Plug-In . SVG Version: 6.00 Build 0)  -->
<!DOCTYPE svg PUBLIC "-//W3C//DTD SVG 1.1//EN" "http://www.w3.org/Graphics/SVG/1.1/DTD/svg11.dtd">
<svg version="1.1" id="Layer_1" xmlns="http://www.w3.org/2000/svg" xmlns:xlink="http://www.w3.org/1999/xlink" x="0px" y="0px"
	 viewBox="0 0 490.1 86.7" enable-background="new 0 0 490.1 86.7" xml:space="preserve">
<g>
	<g>
		<g>
			<polyline fill="#020202" points="364.7,21.9 364.7,26 369.8,28.4 369.8,59.3 364.9,61.6 364.9,65.8 389.8,65.8 389.8,61.6 
				385,59.3 385,18.8 383.7,18.8 364.7,21.9 			"/>
			<path fill="#020202" d="M416.3,56.9V44.6l-3.5,0.3c-3.5,0.3-6.4,2.7-6.4,7.1c0,5,2.8,6.7,5.7,6.7
				C413.8,58.7,415.5,57.8,416.3,56.9 M405.6,25l-3.2,9.3h-7.9v-12c4.3-1.3,9.4-3.5,17.5-3.5c12.2,0,19.5,3.6,19.5,13.9v26.6
				l4.8,2.2V65c-1.5,0.8-4.9,1.8-8.5,1.8c-4.8,0-9-1.5-9.7-6.5h-0.4c-2,4.1-7.4,6.5-13.1,6.5c-8.1,0-13.2-5.2-13.2-12.8
				c0-9.3,6.2-10.9,16.2-12.9l8.8-1.5v-6.1c0-5.9-1.8-8.8-7.6-8.8C407.9,24.8,406.5,24.9,405.6,25"/>
			<path fill="#020202" d="M437.6,61.6l4.8-2.2v-31l-5.1-2.4v-4.2l18.8-3h1.3v6.1h0.5c4.1-3.7,9.6-6,15.8-6
				c7.7,0,11.5,3.8,11.5,12.2v28.2l4.9,2.2v4.2h-24.9v-4.2l4.9-2.2V34.5c0-4.6-2-6.4-6.2-6.4c-2.3,0-4.4,0.4-6.3,1.2v30l4.9,2.2v4.2
				h-24.9V61.6"/>
			<path fill="#020202" d="M343.5,9.6l-5.1-2.3V3.1l19-3h1.3v57.8l4.8,2.7v4l-18.1,2l-1.3,0v-4.8h-0.5c-1.9,2.4-5.8,5-11.5,5
				c-8.4,0-18.3-5.3-18.3-22.8c0-18.4,10.2-25.1,22.3-25.1c2.5,0,5.5,0.6,7.3,1.9V9.6 M343.5,57.7V26.8c-1.2-0.9-2.4-1.6-5.2-1.6
				c-4.8,0-8.4,4.3-8.4,17.2c0,11.3,2.9,16.2,8.9,16.2C341.2,58.6,342.5,58.1,343.5,57.7"/>
			<path fill="#020202" d="M155,81c-8.3,0-11.1-2.9-11.1-6.1c0-2.2,0.6-3.7,1.8-5.1h16.1c3.8,0,5.5,1.1,5.5,3.5
				C167.1,78,164.5,81,155,81 M155.1,24.2c3.3,0,5.4,1.4,5.4,10.6c0,9.1-2.2,10.1-5.4,10.1c-3.3,0-5.4-0.8-5.4-10.1
				C149.7,25.4,151.8,24.2,155.1,24.2z M165.1,55.9h-16.3c-1.8,0-3.2-1.3-3.2-2.9c0-1.2,0.9-2.5,2-3.4c2.5,0.7,4.5,1,7.5,1
				c11.8,0,19.8-5.4,19.8-15.3c0-4.5-1.9-7-4.8-9.6v-0.4l7.6,2.8l1,0v-9.2h-0.9l-11.6,2.3h-0.7c-2.8-1.1-6.8-2.2-10.5-2.2
				c-11.8,0-19.9,5.8-19.9,15.8c0,6,3,10.5,7.6,13v0.5c-2.6,1.8-7.7,5.6-7.7,10.5c0,3.6,2.3,7.1,7.2,8.1v0.5
				c-5.1,1.1-10.9,2.8-10.9,8.7c0,6.1,8.8,10.6,23.2,10.6c17.9,0,25.6-6.8,25.6-17.7C180.2,60,175.2,55.9,165.1,55.9z"/>
			<path fill="#020202" d="M7,53V27.7H0v-6.9l7-0.9v-8.6l15.1-2.1v10.7h10v7.9h-10v24c0,4.5,1.3,6.8,5.7,6.8c1.6,0,3.7-0.2,4.8-0.4
				V64c-2.5,1.4-7.6,2.6-12.4,2.6C11.2,66.7,7,62.7,7,53"/>
			<path fill="#020202" d="M107.8,23.9c3.8,0,5.8,0.7,5.8,14.1L101,38.7C101.1,26.6,103,23.9,107.8,23.9 M101.1,44.2h27.2
				c0-19.2-6.6-25.3-20.3-25.3c-13.6,0-22.5,8.8-22.5,23.8c0,15.5,8.1,24.1,23.8,24.1c8.4,0,15.3-3.7,17.4-6.6v-4.5
				c-3.2,1-6.4,1.6-12.3,1.6C106.1,57.3,101.9,53.1,101.1,44.2"/>
			<path fill="#020202" d="M279.5,21.9V26l5.1,2.4v31l-4.9,2.2v4.2H306v-4.2l-6.2-2.2l0-25.4c2.6-1.2,6-1.7,10.1-1.7
				c1.3,0,2.9,0.2,3.8,0.4V19.4c-0.5-0.2-1.5-0.3-2.3-0.3c-5,0-9.1,3.2-11.8,9.3h-0.5v-9.7h-1.3L279.5,21.9"/>
			<path fill="#020202" d="M258.5,56.9V44.6l-3.5,0.3c-3.5,0.3-6.4,2.7-6.4,7.1c0,5,2.8,6.7,5.7,6.7C256,58.7,257.7,57.8,258.5,56.9
				 M247.8,25l-3.2,9.3h-7.9v-12c4.3-1.3,9.4-3.5,17.4-3.5c12.2,0,19.5,3.6,19.5,13.9v26.6l4.8,2.2V65c-1.5,0.8-4.9,1.8-8.5,1.8
				c-4.8,0-9-1.5-9.7-6.5h-0.4c-2,4.1-7.4,6.5-13.1,6.5c-8.1,0-13.2-5.2-13.2-12.8c0-9.3,6.2-10.9,16.2-12.9l8.8-1.5v-6.1
				c0-5.9-1.8-8.8-7.6-8.8C250.1,24.8,248.7,24.9,247.8,25"/>
			<path fill="#020202" d="M185.1,28.4L180,26v-4.2l19-3h1.3v32.2c0,5.2,2.5,6.1,6.4,6.1c2.8,0,4-0.5,5.5-1.1V28.4L207,26v-4.2l19-3
				h1.3v39.1l5.1,2.7v4l-18.5,2l-1.3,0l0-6.1h-0.5c-2.9,3.6-7.7,6.3-13.9,6.3c-9.2,0-13.1-6.5-13.1-14.5V28.4"/>
			<path fill="#020202" d="M33.9,61.6l4.8-2.2V9.6l-5.1-2.3V3.1l18.8-3h1.3v24.9h0.5c4.1-3.7,9.6-6,15.8-6c7.7,0,11.5,3.8,11.5,12.2
				v28.2l4.9,2.2v4.2H61.6v-4.2l4.9-2.2V34.5c0-4.6-2-6.4-6.2-6.4c-2.3,0-4.4,0.4-6.3,1.2v30l4.9,2.2v4.2H33.9V61.6"/>
			<path fill="#020202" d="M377.1,0c4.5,0,8.1,3.6,8.1,8.1c0,4.5-3.6,8.1-8.1,8.1c-4.5,0-8.1-3.6-8.1-8.1C368.9,3.6,372.6,0,377.1,0
				"/>
		</g>
	</g>
</g>
</svg>
