<?xml version="1.0" encoding="utf-8"?>
<!-- Generator: Adobe Illustrator 19.1.0, SVG Export Plug-In . SVG Version: 6.00 Build 0)  -->
<svg version="1.1" id="Layer_1" xmlns="http://www.w3.org/2000/svg" xmlns:xlink="http://www.w3.org/1999/xlink" x="0px" y="0px"
	 viewBox="0 0 500 49.6" enable-background="new 0 0 500 49.6" xml:space="preserve">
<polyline fill="#231F20" points="262.7,2.7 258.4,2.7 245.2,35.2 236.7,15 234.5,9.8 231.7,16.7 224.2,35.2 210.5,2.7 204.5,2.7 
	223.9,46.9 234,21.9 244.9,46.9 "/>
<path fill="#231F20" d="M34.8,5.7h-8.5L26.4,46L21,45.9L21.1,6h-8.4C8.9,6,7.3,8.2,7.3,8.2V2.5h33v5.7C40.4,8.2,37.7,5.7,34.8,5.7"
	/>
<polyline fill="#231F20" points="75.9,45.9 75.9,22.8 50.9,23.7 50.9,45.9 45.3,45.9 45.3,2.5 50.9,2.5 50.9,20.2 75.9,19.3 
	75.9,2.5 81.3,2.5 81.3,45.9 "/>
<path fill="#231F20" d="M105.4,46.8c-2.4,0-5.5-1.2-9.9-1.2c-2.9,0-3.9,0.3-6,0.6c-2.1,0.3-1.8-0.3-1.8-1.9c0-1.3,0-41.5,0-41.5
	c4.3-0.1,9,0.1,10.1,0.1c1.2,0,7.5,0.3,8.8,0.3c1.3,0,3.1-0.6,3.1,2.8c0,3.1-1,3-2.7,2.1c-4.9-2.5-13.9-1.6-13.9-1.6v15.3
	c3.1,0,6.4,0,8,0c1.7,0,5.8-1,6.4-1c0.6,0,0.8,0.6,0.8,2.1c0,1.5-0.6,2.7-1.7,2.7c-1.1,0-1.1-0.8-5.2-0.8c-3.8,0-8.4,0-8.4,0v17.6
	c0,0,3.1-0.3,4.9-0.3c3.9,0,4.8,0.7,7.4,0.7c2,0,5.1-1.2,6.4-1.2c1.3,0,0.7,1.2,0.7,1.8C112.7,44.1,110.7,46.8,105.4,46.8"/>
<polyline fill="#231F20" points="139.8,11.2 139.8,45.9 136,45.9 136.1,2.5 139.4,2.5 169.5,34.6 169.5,2.5 172.8,2.5 172.8,46.6 
	"/>
<path fill="#231F20" d="M196.3,46.8c-2.4,0-5.5-1.2-9.9-1.2c-2.9,0-3.9,0.3-6,0.6c-2.1,0.3-1.8-0.3-1.8-1.9c0-1.3,0-41.5,0-41.5
	c4.3-0.1,9,0.1,10.1,0.1c1.2,0,7.5,0.3,8.8,0.3c1.3,0,3.1-0.6,3.1,2.8c0,3.1-1,3-2.7,2.1c-4.9-2.5-13.9-1.6-13.9-1.6v15.3
	c3.1,0,6.4,0,8,0c1.7,0,5.8-1,6.4-1c0.6,0,0.8,0.6,0.8,2.1c0,1.5-0.6,2.7-1.7,2.7c-1.1,0-1.1-0.8-5.2-0.8c-3.8,0-8.4,0-8.4,0v17.6
	c0,0,3.1-0.3,4.9-0.3c3.9,0,4.9,0.7,7.4,0.7c2,0,5.1-1.2,6.4-1.2c1.3,0,0.7,1.2,0.7,1.8C203.6,44.1,201.5,46.8,196.3,46.8"/>
<polyline fill="#231F20" points="306.5,24.1 306.5,46 300.9,45.9 300.9,25.4 282.5,2.5 289.4,2.5 303.8,20.6 318.7,2.5 323.5,2.5 
	"/>
<path fill="#231F20" d="M344.4,46.2c-13.4,0-23.6-7.9-23.6-21.6c0-12.5,9.8-22.3,23.2-22.3c12.8,0,23.4,6.6,23.4,22.2
	C367.5,37.2,356.7,46.2,344.4,46.2 M343.9,4.6c-10.6,0-16.6,11.2-16.6,19.6c0,10.1,5.2,19.6,16.9,19.6c9.6,0,17-9.4,17-20.5
	C361.2,12.8,353.8,4.6,343.9,4.6z"/>
<path fill="#231F20" d="M399,46.3c-7.3-0.8-7.3-10.8-7.3-14.3c0-14.7-11.2-11.1-11.2-12.8c0-1.3,10.8-0.4,10.8-8
	c0-6.3-12.1-5.2-12.1-5.2v40h-5.5V6.5c0-0.7,0-3.6,0-3.6l10.2-0.3c5.9-0.2,12.7,1.5,12.7,8.4c0,5.2-7.9,7.9-7.9,7.9s8.1-0.4,8.1,15
	c0,3.3-0.3,6.9,2,9.1C399.8,44,400.9,46.5,399,46.3"/>
<path fill="#231F20" d="M493.5,46.3c-7.3-0.8-7.3-10.8-7.3-14.3c0-14.7-11.2-11.1-11.2-12.8c0-1.3,10.8-0.4,10.8-8
	c0-6.3-12.1-5.2-12.1-5.2v40h-5.5V6.5c0-0.7,0-3.6,0-3.6l10.2-0.3C484.2,2.4,491,4.1,491,11c0,5.2-7.9,7.9-7.9,7.9s8.1-0.4,8.1,15
	c0,3.3-0.3,6.9,2,9.1C494.3,44,495.4,46.5,493.5,46.3"/>
<path fill="#231F20" d="M428.5,43.3c-2.3-2.2-2.9-7.2-2.9-11.4c0-3.2,0.4-16.3-9.3-15.8l12.5-13.5h-5.2l-11.1,12.2V2.5h-5.5v43.4
	h5.5v-28c4.1,0.4,8.7-1.9,9.1,14.3l0,0c-0.2,4.8,0,13.6,7.4,14.5C430.7,46.9,429.6,44.4,428.5,43.3"/>
<path fill="#231F20" d="M454.7,46.8c-2.4,0-5.5-1.2-9.9-1.2c-2.9,0-3.9,0.3-6,0.6c-2.1,0.3-1.8-0.3-1.8-1.9c0-1.3,0-41.5,0-41.5
	c4.3-0.1,9,0.1,10.1,0.1c1.2,0,7.5,0.3,8.8,0.3c1.3,0,3.1-0.6,3.1,2.8c0,3.1-1,3-2.7,2.1c-4.9-2.5-13.9-1.6-13.9-1.6v15.3
	c3.1,0,6.4,0,8.1,0c1.7,0,5.8-1,6.4-1c0.6,0,0.8,0.6,0.8,2.1c0,1.5-0.6,2.7-1.7,2.7c-1.1,0-1.1-0.8-5.2-0.8c-3.8,0-8.4,0-8.4,0v17.6
	c0,0,3.1-0.3,4.9-0.3c3.9,0,4.9,0.7,7.4,0.7c2,0,5.1-1.2,6.4-1.2c1.3,0,0.7,1.2,0.7,1.8C462,44.1,459.9,46.8,454.7,46.8"/>
<rect x="5.5" y="0" fill="none" width="489" height="46.9"/>
</svg>
