<?xml version="1.0" encoding="utf-8"?>
<!-- Generator: Adobe Illustrator 19.1.0, SVG Export Plug-In . SVG Version: 6.00 Build 0)  -->
<svg version="1.1" id="Layer_1" xmlns="http://www.w3.org/2000/svg" xmlns:xlink="http://www.w3.org/1999/xlink" x="0px" y="0px"
	 viewBox="0 0 500 78.9" enable-background="new 0 0 500 78.9" xml:space="preserve">
<polyline fill="#231F20" points="140,47 123.6,55.2 123.6,60.1 122.8,59.6 122.8,54.5 139.5,46.3 140,47 "/>
<path fill="#231F20" d="M84.8,7.1C84,8,83.4,9.5,83.4,12.6v17.6l-0.8,1.1V12.4c0-3.1,0.7-4.5,1.7-6L84.8,7.1"/>
<polyline fill="#231F20" points="137.7,63.2 125.9,75.2 125.1,74.6 137,62.6 137.7,63.2 "/>
<polyline fill="#231F20" points="103.9,38.3 102.5,39.7 102.5,63.3 101.7,62.9 101.7,39.4 103.3,37.8 103.9,38.3 "/>
<path fill="#231F20" d="M106.4,64.8l-8.7,8.8l-7.9-5.4V40.6l-4.9-3.5l-1.5,1.6v25.4l-0.8-0.5V38.3l1.7-1.8l-1.4-1l-1.9,2.1v27.1
	l3,1.9v0.2l-6.7,6.8l-8.6-5.8v-0.2l2-1.8V13.2c0-2.4-0.3-4.2-1-5.6l0.5-0.3c1.5,0.8,3,2.2,3.5,4.9h0.2c1.8-4.4,4.4-6.6,9.2-7.1
	l0.2,0.3c-1.5,1.8-2.2,3.7-2.2,7.1v23.2l7.2-7.3l13.6,8.2v0.2l-1.7,1.8v25.7l3.1,1.8l2.2-2.2L106.4,64.8"/>
<path fill="#231F20" d="M68.2,13.7c0,5.6-3.1,11.2-11.7,11.2c-0.5,0-1.2,0-1.8,0L54,24c1.2,0.1,1.8,0.1,2.5,0.1
	c8.4,0,10.7-6,10.7-10.9c0-2.2-0.6-3.8-1.3-5.4l0.8,0.7C67.3,9.2,68.2,11.1,68.2,13.7"/>
<polyline fill="#231F20" points="108.2,66.6 99.9,75.2 99.1,74.6 107.6,65.9 108.2,66.6 "/>
<polyline fill="#231F20" points="86.1,68.2 79.3,75.2 78.6,74.6 85.4,67.6 86.1,68.2 "/>
<polyline fill="#231F20" points="54.9,64.7 54,64.9 54,24 54.9,24.3 54.9,64.7 "/>
<path fill="#231F20" d="M49.9,24.8l-1.3-0.1v21.7c0,5.6-2.5,8.7-8.5,11.9l-6.7,3.6l-0.7-0.5l7-3.7c5.9-3.1,8.1-6.2,8.1-11.4V23.7
	l2.2,0.2V24.8"/>
<path fill="#231F20" d="M29.4,16.2c-8.8,1.5-14.8,3.5-17,12.7l-0.8-0.7c2-9.2,8.8-11.5,15.8-12.1L29.4,16.2"/>
<path fill="#231F20" d="M45.8,45.3c0,5.4-2.2,8.5-6.8,11l-7.4,4l-0.8-1c3.1-1.9,4.5-3.9,4.5-6.7V28.4l-2.6,1.1L32,28.1l13.8-7V45.3"
	/>
<path fill="#231F20" d="M66.5,61.3c-2.7,5.9-10.4,15.2-26,15.2c-18.9,0-29.8-12.1-29.8-27.3c0-14.9,11.5-25.3,20.4-27.8l0.7,0.4
	c-5.7,4.1-9.9,11.4-9.9,23c0,12.9,7.9,22.7,21.7,22.7c1.5,0,5.8-0.1,7.7-0.3V22.5c-11.8-0.4-21.2-6.2-26.8-6.2
	c-7.7,0-12,1.6-14.3,10.9l-0.9-0.4C9.3,15.5,13.2,5.4,26.7,5.4c9.3,0,21.9,6.9,28.6,6.9c4.2,0,5.5-1.3,5.5-3.5c0-2-1.2-3-3.2-3
	c-0.9,0-1.7,0.3-2.3,0.5l0.7-1.4c0.4-0.1,1.5-0.3,2.3-0.3c3.7,0,7.5,2.6,7.5,8.2c0,5.9-4.1,9.7-9.6,9.7c-0.9,0-2.7,0-3.6-0.1V67
	c4.9-0.8,10.4-3.6,13.3-6.5L66.5,61.3"/>
<path fill="#231F20" d="M33.3,23.2C25.7,28.8,24.5,38,24.5,44c0,4.8,1,11.3,3.4,14.5L26.9,58c-1.7-2.5-3.4-6.7-3.4-13.6
	c0-6.3,1.2-15.6,9.2-21.8L33.3,23.2"/>
<path fill="#231F20" d="M68.1,63.3c-3.6,9.2-15,15.6-27.6,15.6c-7.3,0-12-1.8-13.6-2.7l-0.7-0.7c3,1.1,7.8,2.5,14.3,2.5
	c11.8,0,22.9-5.5,27-15.4L68.1,63.3"/>
<path fill="#231F20" d="M138.6,44.9l-17.4,8.6v7.3l8.3,5.3l5.4-5.5l0.9,0.8l-12.1,12.2L109,64v-0.2l1.9-1.4V37.9
	c5.9-2.4,13.8-6.4,17.9-9.4 M128.7,48.4c-1.9-3.1-3.5-5.9-5.1-8.9V49l-0.8,0.4V37.9c-0.5-0.9-0.9-1.9-1.4-2.9l-0.2,0.1V52
	L128.7,48.4"/>
<polyline fill="#231F20" points="140,47 123.6,55.2 123.6,60.1 122.8,59.6 122.8,54.5 139.5,46.3 140,47 "/>
<path fill="#231F20" d="M84.8,7.1C84,8,83.4,9.5,83.4,12.6v17.6l-0.8,1.1V12.4c0-3.1,0.7-4.5,1.7-6L84.8,7.1"/>
<polyline fill="#231F20" points="137.7,63.2 125.9,75.2 125.1,74.6 137,62.6 137.7,63.2 "/>
<polyline fill="#231F20" points="103.9,38.3 102.5,39.7 102.5,63.3 101.7,62.9 101.7,39.4 103.3,37.8 103.9,38.3 "/>
<path fill="#231F20" d="M106.4,64.8l-8.7,8.8l-7.9-5.4V40.6l-4.9-3.5l-1.5,1.6v25.4l-0.8-0.5V38.3l1.7-1.8l-1.4-1l-1.9,2.1v27.1
	l3,1.9v0.2l-6.7,6.8l-8.6-5.8v-0.2l2-1.8V13.2c0-2.4-0.3-4.2-1-5.6l0.5-0.3c1.5,0.8,3,2.2,3.5,4.9h0.2c1.8-4.4,4.4-6.6,9.2-7.1
	l0.2,0.3c-1.5,1.8-2.2,3.7-2.2,7.1v23.2l7.2-7.3l13.6,8.2v0.2l-1.7,1.8v25.7l3.1,1.8l2.2-2.2L106.4,64.8"/>
<path fill="#231F20" d="M68.2,13.7c0,5.6-3.1,11.2-11.7,11.2c-0.5,0-1.2,0-1.8,0L54,24c1.2,0.1,1.8,0.1,2.5,0.1
	c8.4,0,10.7-6,10.7-10.9c0-2.2-0.6-3.8-1.3-5.4l0.8,0.7C67.3,9.2,68.2,11.1,68.2,13.7"/>
<polyline fill="#231F20" points="108.2,66.6 99.9,75.2 99.1,74.6 107.6,65.9 108.2,66.6 "/>
<polyline fill="#231F20" points="86.1,68.2 79.3,75.2 78.6,74.6 85.4,67.6 86.1,68.2 "/>
<polyline fill="#231F20" points="54.9,64.7 54,64.9 54,24 54.9,24.3 54.9,64.7 "/>
<path fill="#231F20" d="M49.9,24.8l-1.3-0.1v21.7c0,5.6-2.5,8.7-8.5,11.9l-6.7,3.6l-0.7-0.5l7-3.7c5.9-3.1,8.1-6.2,8.1-11.4V23.7
	l2.2,0.2V24.8"/>
<path fill="#231F20" d="M29.4,16.2c-8.8,1.5-14.8,3.5-17,12.7l-0.8-0.7c2-9.2,8.8-11.5,15.8-12.1L29.4,16.2"/>
<path fill="#231F20" d="M45.8,45.3c0,5.4-2.2,8.5-6.8,11l-7.4,4l-0.8-1c3.1-1.9,4.5-3.9,4.5-6.7V28.4l-2.6,1.1L32,28.1l13.8-7V45.3"
	/>
<path fill="#231F20" d="M66.5,61.3c-2.7,5.9-10.4,15.2-26,15.2c-18.9,0-29.8-12.1-29.8-27.3c0-14.9,11.5-25.3,20.4-27.8l0.7,0.4
	c-5.7,4.1-9.9,11.4-9.9,23c0,12.9,7.9,22.7,21.7,22.7c1.5,0,5.8-0.1,7.7-0.3V22.5c-11.8-0.4-21.2-6.2-26.8-6.2
	c-7.7,0-12,1.6-14.3,10.9l-0.9-0.4C9.3,15.5,13.2,5.4,26.7,5.4c9.3,0,21.9,6.9,28.6,6.9c4.2,0,5.5-1.3,5.5-3.5c0-2-1.2-3-3.2-3
	c-0.9,0-1.7,0.3-2.3,0.5l0.7-1.4c0.4-0.1,1.5-0.3,2.3-0.3c3.7,0,7.5,2.6,7.5,8.2c0,5.9-4.1,9.7-9.6,9.7c-0.9,0-2.7,0-3.6-0.1V67
	c4.9-0.8,10.4-3.6,13.3-6.5L66.5,61.3"/>
<path fill="#231F20" d="M33.3,23.2C25.7,28.8,24.5,38,24.5,44c0,4.8,1,11.3,3.4,14.5L26.9,58c-1.7-2.5-3.4-6.7-3.4-13.6
	c0-6.3,1.2-15.6,9.2-21.8L33.3,23.2"/>
<path fill="#231F20" d="M68.1,63.3c-3.6,9.2-15,15.6-27.6,15.6c-7.3,0-12-1.8-13.6-2.7l-0.7-0.7c3,1.1,7.8,2.5,14.3,2.5
	c11.8,0,22.9-5.5,27-15.4L68.1,63.3"/>
<path fill="#231F20" d="M138.6,44.9l-17.4,8.6v7.3l8.3,5.3l5.4-5.5l0.9,0.8l-12.1,12.2L109,64v-0.2l1.9-1.4V37.9
	c5.9-2.4,13.8-6.4,17.9-9.4 M128.7,48.4c-1.9-3.1-3.5-5.9-5.1-8.9V49l-0.8,0.4V37.9c-0.5-0.9-0.9-1.9-1.4-2.9l-0.2,0.1V52
	L128.7,48.4"/>
<path fill="#231F20" d="M477.6,32.2c-0.6,4.7-3.4,8.9-9.7,9l-1-0.5c7.2-0.6,9.5-4.4,10.1-9.1L477.6,32.2"/>
<polyline fill="#231F20" points="491.8,67.8 485,75.6 484.4,74.9 491.1,67.2 491.8,67.8 "/>
<polyline fill="#231F20" points="489.9,66 483.2,73.6 475.3,66.8 482.1,59 489.9,66 "/>
<path fill="#231F20" d="M475.6,30.7c-0.6,4.7-3.2,8.3-8.6,8.3c-1.3,0-2.4-0.3-3.5-0.8v24.1l-0.8-0.4V37.7c-0.4-0.3-0.8-0.7-1.2-1.1
	L461,37v26.3l4.7,2.9l2.4-2.4l0.9,0.9l-8.8,8.9L448.8,66v-0.2l2-1.9V39.7l-2-2l-2.5,2.5l-0.7-0.7l2.5-2.5l-1.1-1.2l-2.6,2.4
	l-0.9-0.9l9.1-9l8.1,7.3l7-7.3c0.8,1.5,2,3,4.2,3c1.6,0,2.5-0.3,3.5-0.8L475.6,30.7"/>
<polyline fill="#231F20" points="471,66.5 462.3,75.2 461.6,74.6 470.3,65.8 471,66.5 "/>
<polyline fill="#231F20" points="445.6,47 429.2,55.2 429.2,60.1 428.3,59.6 428.3,54.5 445.1,46.3 445.6,47 "/>
<polyline fill="#231F20" points="443.2,63.2 431.4,75.2 430.7,74.6 442.6,62.6 443.2,63.2 "/>
<polyline fill="#231F20" points="409,38.3 407.6,39.7 407.6,63.3 406.8,62.9 406.8,39.4 408.3,37.8 409,38.3 "/>
<polyline fill="#231F20" points="366.3,15.8 359.6,23.5 358.9,22.9 365.7,15.1 366.3,15.8 "/>
<polyline fill="#231F20" points="364.5,14 357.7,21.6 349.8,14.7 356.7,7 364.5,14 "/>
<polyline fill="#231F20" points="411.4,64.8 402.7,73.6 394.9,68.2 394.9,40.6 390,37.1 388.5,38.7 388.5,64.1 387.6,63.6 
	387.6,38.3 389.3,36.5 387.9,35.5 386,37.6 386,64.7 389,66.6 389,66.8 382.4,73.6 373.8,67.8 373.8,67.6 375.7,65.8 375.7,39.4 
	373.8,37.7 371.3,40.3 370.6,39.6 373.1,37 371.9,35.9 369.3,38.4 368.4,37.5 377.5,28.4 385.9,35.8 393.3,28.4 406.8,36.6 
	406.8,36.8 405.2,38.6 405.2,64.3 408.3,66.1 410.5,63.9 411.4,64.8 "/>
<polyline fill="#231F20" points="413.3,66.6 405,75.2 404.2,74.6 412.7,65.9 413.3,66.6 "/>
<polyline fill="#231F20" points="391.2,68.2 384.3,75.2 383.7,74.6 390.5,67.6 391.2,68.2 "/>
<polyline fill="#231F20" points="366.2,38.4 364.8,39.7 364.8,63.4 364,62.9 364,39.4 365.5,37.9 366.2,38.4 "/>
<polyline fill="#231F20" points="368.7,64.6 360,73.6 350.5,67.1 350.5,66.9 352.1,65.2 352.1,39.6 350.1,37.8 347.6,40.3 
	346.9,39.6 349.5,37.1 348.3,35.9 345.7,38.4 344.8,37.5 354,28.4 364,36.7 364,36.9 362.4,38.4 362.4,64.3 365.4,66.2 367.8,63.8 
	368.7,64.6 "/>
<polyline fill="#231F20" points="370.6,66.5 362,75.2 361.4,74.6 369.9,65.8 370.6,66.5 "/>
<polyline fill="#231F20" points="342.5,38.5 341.5,39.6 341.5,63.3 340.7,62.8 340.7,39.4 341.9,38 342.5,38.5 "/>
<polyline fill="#231F20" points="347.4,66.3 338.8,75.2 338,74.6 346.7,65.7 347.4,66.3 "/>
<polyline fill="#231F20" points="345.4,64.6 336.6,73.6 328.7,68.2 328.7,40.3 323.8,37.2 322.3,38.8 322.3,64 321.4,63.6 
	321.4,38.4 323.1,36.6 321.7,35.6 319.8,37.6 319.8,64.8 322.9,66.6 322.9,66.7 316.3,73.6 307.6,67.8 307.6,67.7 309.5,65.7 
	309.5,40.1 304.8,37.1 303.2,38.9 303.2,63.7 302.3,63.2 302.3,38.5 304.2,36.6 302.8,35.7 300.7,37.8 300.7,64.5 303.7,66.4 
	303.7,66.5 296.7,73.8 288.5,67.8 288.5,67.7 290.4,65.8 290.4,39.8 288.4,37.8 286,40.3 285.3,39.6 287.8,37.1 286.6,35.9 
	284.1,38.4 283.2,37.5 292.3,28.4 300.7,36 308.2,28.4 319.9,35.7 327.2,28.4 340.8,36.7 340.8,36.8 339.1,38.6 339.1,64.3 
	342.2,66.2 344.5,63.8 345.4,64.6 "/>
<polyline fill="#231F20" points="325,68.3 318.3,75.2 317.6,74.5 324.3,67.7 325,68.3 "/>
<polyline fill="#231F20" points="306,68 298.7,75.5 298,74.9 305.2,67.4 306,68 "/>
<polyline fill="#231F20" points="281.5,38.4 280.1,39.6 280.1,63.2 279.3,62.8 279.3,39.3 280.9,37.9 281.5,38.4 "/>
<polyline fill="#231F20" points="286.2,66.6 277.7,75.2 277,74.6 285.5,65.9 286.2,66.6 "/>
<path fill="#231F20" d="M250.6,31.8c-0.1,6.1-5.3,9.6-10.1,9.6l-3.6,5.9c1.6,2.9,5.9,10.8,5.9,10.8c0.8,1.5,1.5,2.5,2.1,3.4
	l-0.3,0.3c-0.6-0.4-1.2-1.2-2.4-3.3l-6.3-11.1l4-6.7c5.8,0.3,9.9-4.2,9.9-9.5L250.6,31.8"/>
<path fill="#231F20" d="M233.8,42.3l-0.5,0.8l-4.1-8.2c-1-2.1-2.1-3.3-3-4.1l1.2,0.6c0.7,0.6,1.4,1,2.6,3.5L233.8,42.3"/>
<path fill="#231F20" d="M214.7,10c-0.8,4.6-4.6,9.1-10.3,9.5v10.9h-0.8V18.7c5.4,0,9.7-4.2,10.5-9.4L214.7,10"/>
<path fill="#231F20" d="M248.3,29.9c-0.4,5.2-2.6,9-7.8,9c-0.5,0-1.1,0-1.6-0.1l-5.1,8.4l5.8,10.6c2.4,4.3,3.7,6.2,5.9,6.4l1.3-2.2
	l1.1,0.7L241.2,74c-2.4-0.4-5.5-2.9-7.4-6.3l-5-8.8l-2.3,3.8l-0.8-0.3l2.7-4.4l-0.9-1.8l-4.5,7.5c2.3,0.3,3.7,1.1,5,1.9l-4.8,7.9
	c-1.6-1.2-3.3-1.9-5.8-1.9c-2.5,0-4,0.8-5.3,1.9l-0.4-0.4c0.4-4,3.6-9.5,9.2-9.5c0.3,0,0.6,0,0.8,0l5.1-8.5l-7.8-14
	c-0.6-1-1-1.5-1.6-2l-2.1,3.3l-0.8-0.5l2.1-3.3c-0.5-0.2-1-0.4-1.7-0.5l-1.8,2.9l-1.2-0.7l6.9-11.5c3.6,0,5.4,0.8,8.7,6.8l5.6,10.3
	l4.5-7.5c-1.7-0.5-3-1.4-3.8-2.2l4.6-7.4c1.1,1,2.8,2.1,5,2.1c2.2,0,3.4-0.5,4.5-1.3L248.3,29.9"/>
<polyline fill="#231F20" points="249,66 243.6,75.2 242.9,74.7 248.7,64.9 249,66 "/>
<polyline fill="#231F20" points="210.1,34.1 207.4,43 204.4,43 204.4,60.7 203.6,60.4 203.6,42.3 206.9,42.3 209.5,33.5 210.1,34.1 
	"/>
<polyline fill="#231F20" points="229.9,67.1 225.2,74.9 224.5,74.5 229.2,66.6 229.9,67.1 "/>
<path fill="#231F20" d="M193.3,8.1c-7.4,5.9-13.6,10.8-13.6,17.1v21.5c0,6.7-5.7,10.8-11.8,14l-0.5-0.5c1.3-1.3,3-3.6,3-8.6v-8.4
	h-2.1c-2,0-3.1,0.5-3.8,1.9l-0.8-0.4c1-1.9,2.2-2.4,4.6-2.4h2.1v-1.7h-1.9c-3.2,0-5.1,1-6.3,3.4l-0.7-0.3c0-6.5,1.7-11.2,8.3-11.2
	h0.6v-2.9c0-5.7,2.9-8.8,9-12.7c-2.4,0.1-6.7-1-9.3-1c-2.4,0-4,1.2-5.2,3.8l-0.8-0.6c1.3-2.5,2.8-4.2,6-4.2c4.2,0,6.3,1.3,10.7,1.1
	c0.9-0.6,1.9-1.2,2.9-1.8l-0.1-0.2c-1,0.4-2.3,0.6-3.2,0.6c-3.3,0-6.8-1.3-9.7-1.3c-4.3,0-6.3,1.6-7.8,5.1l-1.4-0.7
	c1-5.6,3.5-12.3,11.4-12.3c4.5,0,12.3,3,16.3,3c1.7,0,2.7-0.3,3.7-0.8L193.3,8.1"/>
<polyline fill="#231F20" points="213.9,62.5 205,77.4 204.2,76.7 213.2,61.9 213.9,62.5 "/>
<path fill="#231F20" d="M444.2,44.9l-17.4,8.6v7.3l8.2,5.3l5.4-5.5l0.9,0.8l-12.1,12.2L414.5,64v-0.2l1.9-1.4V37.9
	c5.9-2.4,13.9-6.4,18-9.4 M434.2,48.4c-1.9-3.1-3.5-5.9-5.1-8.9V49l-0.8,0.4V37.9c-0.5-0.9-0.9-1.9-1.4-2.9l-0.2,0.1V52L434.2,48.4"
	/>
<path fill="#231F20" d="M284.3,64.7l-8.7,8.9l-6.4-4.9l-10.1,6.8l-0.8-0.5l10.1-6.9l-1.3-1l-10,6.6c-2.9-1.6-7.5-5.9-7.5-13
	c0-7.2,4.3-11,9.7-13c-1.2-4-3.5-7.5-7-10.1v-0.1l4.9-6.6c1,1.1,2.6,1.7,4.2,1.7c2.1,0,4.2-1.4,6.9-4.2l11.3,8.1v0.2l-2,2v25.3
	l3.5,2.2l2.2-2.2 M267.3,46.3v-8l-2.9-1.9c-1.3,1.8-3.3,3.2-5.8,3.6l-0.5-0.7c2.6-0.4,4.2-1.9,5.5-3.6l-1.4-0.9
	c-1.4,1.9-3.4,3-5.6,3c-0.7,0-1.6-0.1-2.3-0.3v0.1c3,2.5,4.6,5.5,6,9.5C262.6,46.6,265,46.3,267.3,46.3z M267.3,65.4V50.2
	c-4,0-5.9,3.3-5.9,7.3c0,4,2.3,6.3,3.4,7.4l-0.7,0.4c-1.4-1-3.7-3.8-3.7-7.7c0-4.5,2-8.2,6.8-8.2v-1.7c-5,0-8.5,3.5-8.5,10.2
	c0,4.6,2.7,7.8,5.2,9.5L267.3,65.4"/>
<path fill="#231F20" d="M212.4,8.2c-0.4,4.5-3.8,8.8-9.4,8.8c-0.3,0-0.6,0-0.9,0v15.5h5.7l-2.4,8.1h-3.3v21.3
	c1.5,0.5,4.3,1.7,5.7,2.5l2.7-4.6l1.4,0.8l-9.1,15c-3.8-2.7-12.5-6.8-22.4-6.8c-1.6,0-3.6,0.2-5.1,0.4c-6.5,2-9.3,4.7-11,8.7
	l-0.8-0.6c1.5-3.7,3.6-5.7,8.3-7.7v-0.1c-5.2,0.4-8.3,2.7-9.7,6.7l-1.2-0.6c0.8-8.3,7.7-13.5,15-15.6c3-2.4,6.8-6.6,6.8-13.1V25.1
	c0-6.6,8.2-12.1,17.6-20.2c2,2.2,5,4.1,6.9,4.1c2.1,0,3.6-0.5,4.7-1 M200.7,32.5V16.8c-1.8-0.3-3.3-1-4.6-2v15.8h-0.8V14.2
	c-0.5-0.4-0.9-0.8-1.3-1.3l-0.3,0.1v19.6H200.7z M200.7,61.4V40.6h-4.6v4.1c0,4.8-2.1,9.7-6.8,12.5l-1.2-0.1c5.2-2.9,7.2-8,7.2-12.6
	v-3.9h-1.6v2.8c0,7.7-4.3,11.8-12.8,15.7v0.1c0.9-0.1,2.5-0.3,3.4-0.3C190.4,58.9,195.9,59.7,200.7,61.4"/>
<path fill="#231F20" d="M477.6,32.2c-0.6,4.7-3.4,8.9-9.7,9l-1-0.5c7.2-0.6,9.5-4.4,10.1-9.1L477.6,32.2"/>
<polyline fill="#231F20" points="491.8,67.8 485,75.6 484.4,74.9 491.1,67.2 491.8,67.8 "/>
<polyline fill="#231F20" points="489.9,66 483.2,73.6 475.3,66.8 482.1,59 489.9,66 "/>
<path fill="#231F20" d="M475.6,30.7c-0.6,4.7-3.2,8.3-8.6,8.3c-1.3,0-2.4-0.3-3.5-0.8v24.1l-0.8-0.4V37.7c-0.4-0.3-0.8-0.7-1.2-1.1
	L461,37v26.3l4.7,2.9l2.4-2.4l0.9,0.9l-8.8,8.9L448.8,66v-0.2l2-1.9V39.7l-2-2l-2.5,2.5l-0.7-0.7l2.5-2.5l-1.1-1.2l-2.6,2.4
	l-0.9-0.9l9.1-9l8.1,7.3l7-7.3c0.8,1.5,2,3,4.2,3c1.6,0,2.5-0.3,3.5-0.8L475.6,30.7"/>
<polyline fill="#231F20" points="471,66.5 462.3,75.2 461.6,74.6 470.3,65.8 471,66.5 "/>
<polyline fill="#231F20" points="445.6,47 429.2,55.2 429.2,60.1 428.3,59.6 428.3,54.5 445.1,46.3 445.6,47 "/>
<polyline fill="#231F20" points="443.2,63.2 431.4,75.2 430.7,74.6 442.6,62.6 443.2,63.2 "/>
<polyline fill="#231F20" points="409,38.3 407.6,39.7 407.6,63.3 406.8,62.9 406.8,39.4 408.3,37.8 409,38.3 "/>
<polyline fill="#231F20" points="366.3,15.8 359.6,23.5 358.9,22.9 365.7,15.1 366.3,15.8 "/>
<polyline fill="#231F20" points="364.5,14 357.7,21.6 349.8,14.7 356.7,7 364.5,14 "/>
<polyline fill="#231F20" points="411.4,64.8 402.7,73.6 394.9,68.2 394.9,40.6 390,37.1 388.5,38.7 388.5,64.1 387.6,63.6 
	387.6,38.3 389.3,36.5 387.9,35.5 386,37.6 386,64.7 389,66.6 389,66.8 382.4,73.6 373.8,67.8 373.8,67.6 375.7,65.8 375.7,39.4 
	373.8,37.7 371.3,40.3 370.6,39.6 373.1,37 371.9,35.9 369.3,38.4 368.4,37.5 377.5,28.4 385.9,35.8 393.3,28.4 406.8,36.6 
	406.8,36.8 405.2,38.6 405.2,64.3 408.3,66.1 410.5,63.9 411.4,64.8 "/>
<polyline fill="#231F20" points="413.3,66.6 405,75.2 404.2,74.6 412.7,65.9 413.3,66.6 "/>
<polyline fill="#231F20" points="391.2,68.2 384.3,75.2 383.7,74.6 390.5,67.6 391.2,68.2 "/>
<polyline fill="#231F20" points="366.2,38.4 364.8,39.7 364.8,63.4 364,62.9 364,39.4 365.5,37.9 366.2,38.4 "/>
<polyline fill="#231F20" points="368.7,64.6 360,73.6 350.5,67.1 350.5,66.9 352.1,65.2 352.1,39.6 350.1,37.8 347.6,40.3 
	346.9,39.6 349.5,37.1 348.3,35.9 345.7,38.4 344.8,37.5 354,28.4 364,36.7 364,36.9 362.4,38.4 362.4,64.3 365.4,66.2 367.8,63.8 
	368.7,64.6 "/>
<polyline fill="#231F20" points="370.6,66.5 362,75.2 361.4,74.6 369.9,65.8 370.6,66.5 "/>
<polyline fill="#231F20" points="342.5,38.5 341.5,39.6 341.5,63.3 340.7,62.8 340.7,39.4 341.9,38 342.5,38.5 "/>
<polyline fill="#231F20" points="347.4,66.3 338.8,75.2 338,74.6 346.7,65.7 347.4,66.3 "/>
<polyline fill="#231F20" points="345.4,64.6 336.6,73.6 328.7,68.2 328.7,40.3 323.8,37.2 322.3,38.8 322.3,64 321.4,63.6 
	321.4,38.4 323.1,36.6 321.7,35.6 319.8,37.6 319.8,64.8 322.9,66.6 322.9,66.7 316.3,73.6 307.6,67.8 307.6,67.7 309.5,65.7 
	309.5,40.1 304.8,37.1 303.2,38.9 303.2,63.7 302.3,63.2 302.3,38.5 304.2,36.6 302.8,35.7 300.7,37.8 300.7,64.5 303.7,66.4 
	303.7,66.5 296.7,73.8 288.5,67.8 288.5,67.7 290.4,65.8 290.4,39.8 288.4,37.8 286,40.3 285.3,39.6 287.8,37.1 286.6,35.9 
	284.1,38.4 283.2,37.5 292.3,28.4 300.7,36 308.2,28.4 319.9,35.7 327.2,28.4 340.8,36.7 340.8,36.8 339.1,38.6 339.1,64.3 
	342.2,66.2 344.5,63.8 345.4,64.6 "/>
<polyline fill="#231F20" points="325,68.3 318.3,75.2 317.6,74.5 324.3,67.7 325,68.3 "/>
<polyline fill="#231F20" points="306,68 298.7,75.5 298,74.9 305.2,67.4 306,68 "/>
<polyline fill="#231F20" points="281.5,38.4 280.1,39.6 280.1,63.2 279.3,62.8 279.3,39.3 280.9,37.9 281.5,38.4 "/>
<polyline fill="#231F20" points="286.2,66.6 277.7,75.2 277,74.6 285.5,65.9 286.2,66.6 "/>
<path fill="#231F20" d="M250.6,31.8c-0.1,6.1-5.3,9.6-10.1,9.6l-3.6,5.9c1.6,2.9,5.9,10.8,5.9,10.8c0.8,1.5,1.5,2.5,2.1,3.4
	l-0.3,0.3c-0.6-0.4-1.2-1.2-2.4-3.3l-6.3-11.1l4-6.7c5.8,0.3,9.9-4.2,9.9-9.5L250.6,31.8"/>
<path fill="#231F20" d="M233.8,42.3l-0.5,0.8l-4.1-8.2c-1-2.1-2.1-3.3-3-4.1l1.2,0.6c0.7,0.6,1.4,1,2.6,3.5L233.8,42.3"/>
<path fill="#231F20" d="M214.7,10c-0.8,4.6-4.6,9.1-10.3,9.5v10.9h-0.8V18.7c5.4,0,9.7-4.2,10.5-9.4L214.7,10"/>
<path fill="#231F20" d="M248.3,29.9c-0.4,5.2-2.6,9-7.8,9c-0.5,0-1.1,0-1.6-0.1l-5.1,8.4l5.8,10.6c2.4,4.3,3.7,6.2,5.9,6.4l1.3-2.2
	l1.1,0.7L241.2,74c-2.4-0.4-5.5-2.9-7.4-6.3l-5-8.8l-2.3,3.8l-0.8-0.3l2.7-4.4l-0.9-1.8l-4.5,7.5c2.3,0.3,3.7,1.1,5,1.9l-4.8,7.9
	c-1.6-1.2-3.3-1.9-5.8-1.9c-2.5,0-4,0.8-5.3,1.9l-0.4-0.4c0.4-4,3.6-9.5,9.2-9.5c0.3,0,0.6,0,0.8,0l5.1-8.5l-7.8-14
	c-0.6-1-1-1.5-1.6-2l-2.1,3.3l-0.8-0.5l2.1-3.3c-0.5-0.2-1-0.4-1.7-0.5l-1.8,2.9l-1.2-0.7l6.9-11.5c3.6,0,5.4,0.8,8.7,6.8l5.6,10.3
	l4.5-7.5c-1.7-0.5-3-1.4-3.8-2.2l4.6-7.4c1.1,1,2.8,2.1,5,2.1c2.2,0,3.4-0.5,4.5-1.3L248.3,29.9"/>
<polyline fill="#231F20" points="249,66 243.6,75.2 242.9,74.7 248.7,64.9 249,66 "/>
<polyline fill="#231F20" points="210.1,34.1 207.4,43 204.4,43 204.4,60.7 203.6,60.4 203.6,42.3 206.9,42.3 209.5,33.5 210.1,34.1 
	"/>
<polyline fill="#231F20" points="229.9,67.1 225.2,74.9 224.5,74.5 229.2,66.6 229.9,67.1 "/>
<path fill="#231F20" d="M193.3,8.1c-7.4,5.9-13.6,10.8-13.6,17.1v21.5c0,6.7-5.7,10.8-11.8,14l-0.5-0.5c1.3-1.3,3-3.6,3-8.6v-8.4
	h-2.1c-2,0-3.1,0.5-3.8,1.9l-0.8-0.4c1-1.9,2.2-2.4,4.6-2.4h2.1v-1.7h-1.9c-3.2,0-5.1,1-6.3,3.4l-0.7-0.3c0-6.5,1.7-11.2,8.3-11.2
	h0.6v-2.9c0-5.7,2.9-8.8,9-12.7c-2.4,0.1-6.7-1-9.3-1c-2.4,0-4,1.2-5.2,3.8l-0.8-0.6c1.3-2.5,2.8-4.2,6-4.2c4.2,0,6.3,1.3,10.7,1.1
	c0.9-0.6,1.9-1.2,2.9-1.8l-0.1-0.2c-1,0.4-2.3,0.6-3.2,0.6c-3.3,0-6.8-1.3-9.7-1.3c-4.3,0-6.3,1.6-7.8,5.1l-1.4-0.7
	c1-5.6,3.5-12.3,11.4-12.3c4.5,0,12.3,3,16.3,3c1.7,0,2.7-0.3,3.7-0.8L193.3,8.1"/>
<polyline fill="#231F20" points="213.9,62.5 205,77.4 204.2,76.7 213.2,61.9 213.9,62.5 "/>
<path fill="#231F20" d="M444.2,44.9l-17.4,8.6v7.3l8.2,5.3l5.4-5.5l0.9,0.8l-12.1,12.2L414.5,64v-0.2l1.9-1.4V37.9
	c5.9-2.4,13.9-6.4,18-9.4 M434.2,48.4c-1.9-3.1-3.5-5.9-5.1-8.9V49l-0.8,0.4V37.9c-0.5-0.9-0.9-1.9-1.4-2.9l-0.2,0.1V52L434.2,48.4"
	/>
<path fill="#231F20" d="M284.3,64.7l-8.7,8.9l-6.4-4.9l-10.1,6.8l-0.8-0.5l10.1-6.9l-1.3-1l-10,6.6c-2.9-1.6-7.5-5.9-7.5-13
	c0-7.2,4.3-11,9.7-13c-1.2-4-3.5-7.5-7-10.1v-0.1l4.9-6.6c1,1.1,2.6,1.7,4.2,1.7c2.1,0,4.2-1.4,6.9-4.2l11.3,8.1v0.2l-2,2v25.3
	l3.5,2.2l2.2-2.2 M267.3,46.3v-8l-2.9-1.9c-1.3,1.8-3.3,3.2-5.8,3.6l-0.5-0.7c2.6-0.4,4.2-1.9,5.5-3.6l-1.4-0.9
	c-1.4,1.9-3.4,3-5.6,3c-0.7,0-1.6-0.1-2.3-0.3v0.1c3,2.5,4.6,5.5,6,9.5C262.6,46.6,265,46.3,267.3,46.3z M267.3,65.4V50.2
	c-4,0-5.9,3.3-5.9,7.3c0,4,2.3,6.3,3.4,7.4l-0.7,0.4c-1.4-1-3.7-3.8-3.7-7.7c0-4.5,2-8.2,6.8-8.2v-1.7c-5,0-8.5,3.5-8.5,10.2
	c0,4.6,2.7,7.8,5.2,9.5L267.3,65.4"/>
<path fill="#231F20" d="M212.4,8.2c-0.4,4.5-3.8,8.8-9.4,8.8c-0.3,0-0.6,0-0.9,0v15.5h5.7l-2.4,8.1h-3.3v21.3
	c1.5,0.5,4.3,1.7,5.7,2.5l2.7-4.6l1.4,0.8l-9.1,15c-3.8-2.7-12.5-6.8-22.4-6.8c-1.6,0-3.6,0.2-5.1,0.4c-6.5,2-9.3,4.7-11,8.7
	l-0.8-0.6c1.5-3.7,3.6-5.7,8.3-7.7v-0.1c-5.2,0.4-8.3,2.7-9.7,6.7l-1.2-0.6c0.8-8.3,7.7-13.5,15-15.6c3-2.4,6.8-6.6,6.8-13.1V25.1
	c0-6.6,8.2-12.1,17.6-20.2c2,2.2,5,4.1,6.9,4.1c2.1,0,3.6-0.5,4.7-1 M200.7,32.5V16.8c-1.8-0.3-3.3-1-4.6-2v15.8h-0.8V14.2
	c-0.5-0.4-0.9-0.8-1.3-1.3l-0.3,0.1v19.6H200.7z M200.7,61.4V40.6h-4.6v4.1c0,4.8-2.1,9.7-6.8,12.5l-1.2-0.1c5.2-2.9,7.2-8,7.2-12.6
	v-3.9h-1.6v2.8c0,7.7-4.3,11.8-12.8,15.7v0.1c0.9-0.1,2.5-0.3,3.4-0.3C190.4,58.9,195.9,59.7,200.7,61.4"/>
<polyline fill="#FFFFFF" points="139.4,46.4 123,54.6 123,59.5 122.2,59 122.2,53.9 139,45.7 139.4,46.4 "/>
<path fill="#FFFFFF" d="M84.2,6.5c-0.8,0.9-1.4,2.4-1.4,5.5v17.6L82,30.7V11.8c0-3.1,0.7-4.5,1.7-6L84.2,6.5"/>
<polyline fill="#FFFFFF" points="137.1,62.6 125.3,74.6 124.5,74.1 136.4,62 137.1,62.6 "/>
<polyline fill="#FFFFFF" points="103.3,37.7 101.9,39.2 101.9,62.7 101.1,62.4 101.1,38.8 102.7,37.2 103.3,37.7 "/>
<path fill="#FFFFFF" d="M67.6,13.1c0,5.6-3.1,11.2-11.7,11.2c-0.5,0-1.2,0-1.8,0l-0.7-0.9c1.2,0.1,1.8,0.1,2.5,0.1
	c8.4,0,10.7-6,10.7-10.9c0-2.2-0.6-3.8-1.3-5.4l0.8,0.7C66.7,8.7,67.6,10.5,67.6,13.1"/>
<polyline fill="#FFFFFF" points="107.6,66 99.3,74.6 98.6,74.1 107,65.3 107.6,66 "/>
<polyline fill="#FFFFFF" points="85.5,67.6 78.7,74.6 78,74.1 84.9,67 85.5,67.6 "/>
<polyline fill="#FFFFFF" points="54.3,64.1 53.5,64.3 53.5,23.4 54.3,23.7 54.3,64.1 "/>
<path fill="#FFFFFF" d="M49.3,24.2L48,24.1v21.7c0,5.6-2.5,8.7-8.5,11.9l-6.7,3.6l-0.7-0.5l7-3.7c5.9-3.1,8.1-6.2,8.1-11.4V23.1
	l2.2,0.2V24.2"/>
<path fill="#FFFFFF" d="M28.8,15.6C20,17.1,14,19,11.8,28.3L11,27.5c2-9.2,8.8-11.5,15.8-12.1L28.8,15.6"/>
<path fill="#FFFFFF" d="M32.7,22.6c-7.6,5.6-8.8,14.8-8.8,20.9c0,4.8,1,11.3,3.4,14.5l-0.9-0.6c-1.7-2.5-3.4-6.7-3.4-13.6
	c0-6.3,1.2-15.6,9.2-21.8L32.7,22.6"/>
<path fill="#FFFFFF" d="M67.5,62.7c-3.6,9.2-15,15.6-27.6,15.6c-7.3,0-12-1.8-13.6-2.7L25.7,75c3,1.1,7.8,2.5,14.3,2.5
	c11.8,0,22.9-5.5,27-15.4L67.5,62.7"/>
<polyline fill="#FFFFFF" points="139.4,46.4 123,54.6 123,59.5 122.2,59 122.2,53.9 139,45.7 139.4,46.4 "/>
<path fill="#FFFFFF" d="M84.2,6.5c-0.8,0.9-1.4,2.4-1.4,5.5v17.6L82,30.7V11.8c0-3.1,0.7-4.5,1.7-6L84.2,6.5"/>
<polyline fill="#FFFFFF" points="137.1,62.6 125.3,74.6 124.5,74.1 136.4,62 137.1,62.6 "/>
<polyline fill="#FFFFFF" points="103.3,37.7 101.9,39.2 101.9,62.7 101.1,62.4 101.1,38.8 102.7,37.2 103.3,37.7 "/>
<path fill="#FFFFFF" d="M67.6,13.1c0,5.6-3.1,11.2-11.7,11.2c-0.5,0-1.2,0-1.8,0l-0.7-0.9c1.2,0.1,1.8,0.1,2.5,0.1
	c8.4,0,10.7-6,10.7-10.9c0-2.2-0.6-3.8-1.3-5.4l0.8,0.7C66.7,8.7,67.6,10.5,67.6,13.1"/>
<polyline fill="#FFFFFF" points="107.6,66 99.3,74.6 98.6,74.1 107,65.3 107.6,66 "/>
<polyline fill="#FFFFFF" points="85.5,67.6 78.7,74.6 78,74.1 84.9,67 85.5,67.6 "/>
<polyline fill="#FFFFFF" points="54.3,64.1 53.5,64.3 53.5,23.4 54.3,23.7 54.3,64.1 "/>
<path fill="#FFFFFF" d="M49.3,24.2L48,24.1v21.7c0,5.6-2.5,8.7-8.5,11.9l-6.7,3.6l-0.7-0.5l7-3.7c5.9-3.1,8.1-6.2,8.1-11.4V23.1
	l2.2,0.2V24.2"/>
<path fill="#FFFFFF" d="M28.8,15.6C20,17.1,14,19,11.8,28.3L11,27.5c2-9.2,8.8-11.5,15.8-12.1L28.8,15.6"/>
<path fill="#FFFFFF" d="M32.7,22.6c-7.6,5.6-8.8,14.8-8.8,20.9c0,4.8,1,11.3,3.4,14.5l-0.9-0.6c-1.7-2.5-3.4-6.7-3.4-13.6
	c0-6.3,1.2-15.6,9.2-21.8L32.7,22.6"/>
<path fill="#FFFFFF" d="M67.5,62.7c-3.6,9.2-15,15.6-27.6,15.6c-7.3,0-12-1.8-13.6-2.7L25.7,75c3,1.1,7.8,2.5,14.3,2.5
	c11.8,0,22.9-5.5,27-15.4L67.5,62.7"/>
<path fill="#FFFFFF" d="M477,31.7c-0.6,4.7-3.4,8.9-9.8,9l-1-0.5c7.2-0.6,9.5-4.4,10.1-9.1L477,31.7"/>
<polyline fill="#FFFFFF" points="491.2,67.2 484.4,75 483.8,74.3 490.6,66.6 491.2,67.2 "/>
<polyline fill="#FFFFFF" points="470.4,65.9 461.8,74.6 461,74.1 469.7,65.3 470.4,65.9 "/>
<polyline fill="#FFFFFF" points="445,46.4 428.6,54.6 428.6,59.5 427.7,59 427.7,53.9 444.5,45.7 445,46.4 "/>
<polyline fill="#FFFFFF" points="442.6,62.6 430.8,74.6 430.1,74.1 442,62 442.6,62.6 "/>
<polyline fill="#FFFFFF" points="408.4,37.7 407,39.2 407,62.7 406.2,62.4 406.2,38.8 407.8,37.2 408.4,37.7 "/>
<polyline fill="#FFFFFF" points="365.8,15.2 359,23 358.4,22.3 365.1,14.5 365.8,15.2 "/>
<polyline fill="#FFFFFF" points="412.7,66 404.4,74.6 403.6,74.1 412.1,65.3 412.7,66 "/>
<polyline fill="#FFFFFF" points="390.6,67.6 383.8,74.6 383.1,74.1 390,67 390.6,67.6 "/>
<polyline fill="#FFFFFF" points="365.6,37.8 364.3,39.2 364.3,62.8 363.4,62.4 363.4,38.8 364.9,37.3 365.6,37.8 "/>
<polyline fill="#FFFFFF" points="370,65.9 361.5,74.6 360.8,74.1 369.3,65.3 370,65.9 "/>
<polyline fill="#FFFFFF" points="342,37.9 340.9,39.1 340.9,62.7 340.1,62.3 340.1,38.8 341.3,37.4 342,37.9 "/>
<polyline fill="#FFFFFF" points="346.8,65.7 338.2,74.6 337.4,74.1 346.1,65.1 346.8,65.7 "/>
<polyline fill="#FFFFFF" points="324.4,67.7 317.8,74.6 317,74 323.8,67.1 324.4,67.7 "/>
<polyline fill="#FFFFFF" points="305.4,67.4 298.1,74.9 297.4,74.3 304.6,66.9 305.4,67.4 "/>
<polyline fill="#FFFFFF" points="280.9,37.8 279.5,39.1 279.5,62.6 278.7,62.2 278.7,38.7 280.4,37.3 280.9,37.8 "/>
<polyline fill="#FFFFFF" points="285.6,66 277.1,74.6 276.4,74.1 284.9,65.3 285.6,66 "/>
<path fill="#FFFFFF" d="M250,31.2c-0.1,6.1-5.3,9.6-10.1,9.6l-3.6,5.9c1.6,2.9,5.9,10.8,5.9,10.8c0.8,1.5,1.5,2.5,2.1,3.4l-0.3,0.3
	c-0.6-0.4-1.3-1.2-2.4-3.3l-6.3-11.1l4-6.7c5.8,0.3,9.9-4.2,9.9-9.5L250,31.2"/>
<path fill="#FFFFFF" d="M233.2,41.8l-0.5,0.8l-4.1-8.2c-1.1-2.1-2.1-3.3-3-4.1l1.2,0.6c0.7,0.6,1.4,1,2.6,3.5L233.2,41.8"/>
<path fill="#FFFFFF" d="M214.2,9.4c-0.8,4.6-4.6,9.1-10.3,9.5v10.9H203V18.1c5.4,0,9.7-4.2,10.5-9.4L214.2,9.4"/>
<polyline fill="#FFFFFF" points="248.4,65.4 243,74.6 242.3,74.1 248.1,64.3 248.4,65.4 "/>
<polyline fill="#FFFFFF" points="209.5,33.5 206.9,42.4 203.9,42.4 203.9,60.1 203,59.8 203,41.7 206.3,41.7 208.9,32.9 209.5,33.5 
	"/>
<polyline fill="#FFFFFF" points="229.4,66.5 224.7,74.3 223.9,73.9 228.6,66 229.4,66.5 "/>
<polyline fill="#FFFFFF" points="213.3,61.9 204.4,76.8 203.6,76.1 212.6,61.3 213.3,61.9 "/>
<path fill="#FFFFFF" d="M477,31.7c-0.6,4.7-3.4,8.9-9.8,9l-1-0.5c7.2-0.6,9.5-4.4,10.1-9.1L477,31.7"/>
<polyline fill="#FFFFFF" points="491.2,67.2 484.4,75 483.8,74.3 490.6,66.6 491.2,67.2 "/>
<polyline fill="#FFFFFF" points="470.4,65.9 461.8,74.6 461,74.1 469.7,65.3 470.4,65.9 "/>
<polyline fill="#FFFFFF" points="445,46.4 428.6,54.6 428.6,59.5 427.7,59 427.7,53.9 444.5,45.7 445,46.4 "/>
<polyline fill="#FFFFFF" points="442.6,62.6 430.8,74.6 430.1,74.1 442,62 442.6,62.6 "/>
<polyline fill="#FFFFFF" points="408.4,37.7 407,39.2 407,62.7 406.2,62.4 406.2,38.8 407.8,37.2 408.4,37.7 "/>
<polyline fill="#FFFFFF" points="365.8,15.2 359,23 358.4,22.3 365.1,14.5 365.8,15.2 "/>
<polyline fill="#FFFFFF" points="412.7,66 404.4,74.6 403.6,74.1 412.1,65.3 412.7,66 "/>
<polyline fill="#FFFFFF" points="390.6,67.6 383.8,74.6 383.1,74.1 390,67 390.6,67.6 "/>
<polyline fill="#FFFFFF" points="365.6,37.8 364.3,39.2 364.3,62.8 363.4,62.4 363.4,38.8 364.9,37.3 365.6,37.8 "/>
<polyline fill="#FFFFFF" points="370,65.9 361.5,74.6 360.8,74.1 369.3,65.3 370,65.9 "/>
<polyline fill="#FFFFFF" points="342,37.9 340.9,39.1 340.9,62.7 340.1,62.3 340.1,38.8 341.3,37.4 342,37.9 "/>
<polyline fill="#FFFFFF" points="346.8,65.7 338.2,74.6 337.4,74.1 346.1,65.1 346.8,65.7 "/>
<polyline fill="#FFFFFF" points="324.4,67.7 317.8,74.6 317,74 323.8,67.1 324.4,67.7 "/>
<polyline fill="#FFFFFF" points="305.4,67.4 298.1,74.9 297.4,74.3 304.6,66.9 305.4,67.4 "/>
<polyline fill="#FFFFFF" points="280.9,37.8 279.5,39.1 279.5,62.6 278.7,62.2 278.7,38.7 280.4,37.3 280.9,37.8 "/>
<polyline fill="#FFFFFF" points="285.6,66 277.1,74.6 276.4,74.1 284.9,65.3 285.6,66 "/>
<path fill="#FFFFFF" d="M250,31.2c-0.1,6.1-5.3,9.6-10.1,9.6l-3.6,5.9c1.6,2.9,5.9,10.8,5.9,10.8c0.8,1.5,1.5,2.5,2.1,3.4l-0.3,0.3
	c-0.6-0.4-1.3-1.2-2.4-3.3l-6.3-11.1l4-6.7c5.8,0.3,9.9-4.2,9.9-9.5L250,31.2"/>
<path fill="#FFFFFF" d="M233.2,41.8l-0.5,0.8l-4.1-8.2c-1.1-2.1-2.1-3.3-3-4.1l1.2,0.6c0.7,0.6,1.4,1,2.6,3.5L233.2,41.8"/>
<path fill="#FFFFFF" d="M214.2,9.4c-0.8,4.6-4.6,9.1-10.3,9.5v10.9H203V18.1c5.4,0,9.7-4.2,10.5-9.4L214.2,9.4"/>
<polyline fill="#FFFFFF" points="248.4,65.4 243,74.6 242.3,74.1 248.1,64.3 248.4,65.4 "/>
<polyline fill="#FFFFFF" points="209.5,33.5 206.9,42.4 203.9,42.4 203.9,60.1 203,59.8 203,41.7 206.3,41.7 208.9,32.9 209.5,33.5 
	"/>
<polyline fill="#FFFFFF" points="229.4,66.5 224.7,74.3 223.9,73.9 228.6,66 229.4,66.5 "/>
<polyline fill="#FFFFFF" points="213.3,61.9 204.4,76.8 203.6,76.1 212.6,61.3 213.3,61.9 "/>
<rect x="8.6" y="4.1" fill="none" width="483.2" height="74.9"/>
</svg>
