<?xml version="1.0" encoding="utf-8"?>
<!-- Generator: Adobe Illustrator 19.1.0, SVG Export Plug-In . SVG Version: 6.00 Build 0)  -->
<svg version="1.1" id="Layer_1" xmlns="http://www.w3.org/2000/svg" xmlns:xlink="http://www.w3.org/1999/xlink" x="0px" y="0px"
	 viewBox="0 0 983.9 118.1" enable-background="new 0 0 983.9 118.1" xml:space="preserve">
<g>
	<g>
		<path fill-rule="evenodd" clip-rule="evenodd" d="M378.2,0h-2c1,0.8,0.2,0.4,2,1V0z M90.2,3h-3c0.4,2.1,0.2,1.9,1,3
			c-1.3,1.9-1.3,0.8-2,4c-2.4-1.4-2.7-3.6-1-6c-1.1-0.8-0.9-0.6-3-1v3c-4.9-1.1-1.9-1.8-4-3c-4.4-2.5-12.6,1.5-16,1
			c-7.9-1.2-21.4-1.9-31,0c-5.1,1-8.2-2.3-12,0c-4.7,0.6-3.7,1.6-7,3v2c2.9-0.9,2.6-1.5,6-2v4c2.2-1,2.8-1.6,6-2
			c0.3,1.7,0.7,3.3,1,5c-1-1-2-2-3-3l-2,2c0.3,1.7,0.7,3.3,1,5c-1,0.3-2,0.7-3,1c-1.5-2.4-2.4-2.3-3-6c-3.4,2-2.7,5.1-4,7v4
			c13,2.5,32.9,1.1,50,1c-0.4-2.1-0.2-1.9-1-3c1.5-2.5-0.2-1.2,3-2v4c7.4,0.7,22.4,3,27,0h2c-0.6-3.5-1.3-16,0-17
			C91.4,4.7,91.1,4.8,90.2,3z M27.2,23c-2.7-0.7-1.6,0.6-2-2c0.7,0.3,1.3,0.7,2,1V23z M31.2,23h-1v-2h1V23z M41.2,22h-1v-2h1V22z
			 M58.2,10c-1.7-0.6-1-0.2-2-1C57.9,9.6,57.1,9.2,58.2,10z M48.2,23c-2.7-0.7-1.6,0.6-2-2h2V23z M57.2,17h-2v-1
			c2.3-1.1,1.8-0.9,3-3h2C59.1,15.7,58.7,15.2,57.2,17z M70.2,11l-1,1h-2v-2h3V11z M75.2,20h-1c-0.3-1-0.7-2-1-3
			c0.7,0.3,1.3,0.7,2,1V20z M75.2,10c-3.3-1.4-2-0.3-2-3h2V10z M82.2,15c-0.6,0.7-2.5-0.7-4-2l-1-1h1v-2h3v3c1-0.3,2-0.7,3-1
			C83.3,14.4,83.8,13.7,82.2,15z M123.2,21c0-4.7,1-13-1-16V3h-12v3h-3c0,2.9,0,5.5,1,7v1c-2.3-0.7-4.7-1.3-7-2c-0.6-1.7-0.2-1-1-2
			c1.7-1.7,4.1-2.5,6-4h1c-1.2-2.2-1.4-1.5-3-3c-2.8,0.1-4.3,0.4-6,1c0,9.9,3.6,9.4,5,16h-3c-0.8,2.7,0,5.1-2,8c0.4,2.1,0.2,1.9,1,3
			v1h2v-2c3.4,1.7,2.2,1.7,5,3l-1,1c-2.2,1.3-4.2,1.3-5,0h-2c0.9,2.7,1,2.6,3,4c-4.8,11-4.2,42.8-1,57c0.5,2.2-3.8,6.9,0,12
			c1,2.3,1.7,2.2,3,4h2c-0.9-3.2,0.5-1.5-2-3c0.8-3.4,0.5-2.5,3-4c-0.6-3.1-0.2-2.4-2-4c1.6-1.3,3.2-1.7,6-2c-1.1,0.8-0.9,0.6-3,1
			c1,1,2,2,3,3c0.9,1.1,2-0.6,5-1c0.3,2.3,0.5,2.5,1,4c-2.2,1-2.8,1.6-6,2v3c4.7,0.2,6.1,0.1,8,2c3.2-0.6,2.9-0.9,5-2
			c-0.1-13,0.1-32.6,0-51c-3.6,0.3-3.3,0.1-5,2h-1c0.2-2.3,0.2-2.8,1-4l1-1v1C125.4,53.6,123.1,27.7,123.2,21z M115.2,12l1-1
			c0.8,1,0.4,0.2,1,2C117.2,13,113.2,12.8,115.2,12z M113.2,24h4c-1.5,2.5-0.4,1.6-4,2V24z M111.2,29v1c-3.1-0.6-2.4-0.2-4-2
			C108.7,28.5,108.8,28.7,111.2,29z M105.2,25l1-1c0.8,1,0.4,0.2,1,2C107.2,26,103.2,25.8,105.2,25z M108.2,35h2l1,1v4
			c-2.1,0.4-1.9,0.2-3,1h-2C107,38.1,107.6,38.4,108.2,35z M105.2,65c-0.8-1.1-0.6-0.9-1-3h2c-0.6,1.7-0.2,1-1,2V65z M107.2,69h-1
			v-2h1V69z M105.2,58l1-1c0.8,1,0.4,0.2,1,2C107.2,59,103.2,58.8,105.2,58z M107.2,52h-1v-2h1V52z M107.2,48c-2.3-0.7-2.2-1-4-2
			c1.2-2.2,1.4-1.5,3-3h1V48z M108.2,42c1.7,0.6,1,0.2,2,1C108.4,42.4,109.2,42.8,108.2,42z M114.2,65c-1.3-1-2.7-2-4-3v-3
			c2,1.4,2.1,1.3,3,4h1V65z M117.2,101h-1v-2h1V101z M120.2,98h-1c-0.3-1-0.7-2-1-3h2V98z M118.2,73h3v2h-3V73z M118.2,80v2h-1v-2
			H118.2z M115.2,46h-1c0.9-2.2,0.9-1.5,2-3c1.7,0.6,1,0.2,2,1C116.9,44.7,116.1,45.1,115.2,46z M120.2,7h1v2h-1V7z M194.2,69
			c-0.3-2.4,2-11.3,2-16V13c0-3.8-0.2-7.6-1-10h-24v52c0,8.1,2.2,17,0,21v3c1-0.7,2-1.3,3-2c0.7,1.2,1.1,2.1,2,3v2
			c-1.7-0.3-3.3-0.7-5-1c0,13.8,0,18.5,0,31c11.1,0,13.6,0,25,0c-0.6-4.2,0.7-2.9-3-3c0.8-2.4,2.4-2.5,3-4c1.9-4.4-1.4-9-2-11
			C199.2,87.9,194.7,73.8,194.2,69z M173.2,85l1-1c0.8,1,0.4,0.2,1,2C175.2,86,171.2,85.8,173.2,85z M180.2,67h1v2h-1V67z M176.2,65
			h-2v-2h2V65z M179.2,75c-1.9-1.1,0.1-1.7,0-3h2C181,72.2,179.2,76.1,179.2,75z M183.2,85h-2v-2h2V85z M187.2,57h-3v-2
			c1,0.3,2,0.7,3,1V57z M187.2,15c-2.4-0.9-1.7-0.4-3-2h3V15z M190.2,67l-1,1v-2c1.7,0.6,1,0.2,2,1H190.2z M191.2,65v-3h2l1,1
			C192.7,65.5,194.4,64.2,191.2,65z M221.2,57c4.9-2.9,3.2-43.8,3-54h-13v3c-4-1.3-5.4-2.9-11-3c-0.4,6.6-1,11.3,4,13
			c-0.5,3.8-2,6.5-4,9c0,2.7,0,4.6,1,6v1l2-2c2.6,2.6,0.3,2.4,4,2c-0.6,1.7-0.2,1-1,2c-1.4,1-3.6,1.2-5-1h-1c0.5,4.1,0.3,3.4,3,5
			c-1.5,2.5,0.2,1.2-3,2c0,23.2-0.2,48.9,1,68c1.7,1,3.3,2,5,3l1-1c-1.1-2.3-0.9-1.8-3-3c1.4-3,3.6-2.7,2-6c1.3-2.4,2-2.4,5-3
			c-1,0.8-0.2,0.4-2,1c1.2,2.8,0.1,1.9,3,3c1.2,0.4,3.7-0.5,5-3h2c-2.2,3.5-2.1,4.3-4,8h-3v3c4,0.2,5.5-0.2,7,2c2.6-0.2,3.4-0.4,5-1
			V59c-3.7,0.4-2.9,0.6-5,2v-1c-0.8-1.3-0.1-1,0-4C220.9,56.6,220.1,56.2,221.2,57z M223.2,7c-0.9,1.8-0.3,1.1-2,0H223.2z M221.2,97
			v1c-0.8-1.1-0.6-0.9-1-3h2C221.5,96.7,222,96,221.2,97z M220.2,73h3v2h-3V73z M219.2,80h1v2h-1V80z M217.2,11c0.7,0.3,1.3,0.7,2,1
			v1h-2V11z M218.2,24l1,1v1c-4.5-0.2-3.7,0.6-4-2H218.2z M213.2,29v1c-3.1-0.6-2.4-0.2-4-2C210.7,28.5,210.8,28.7,213.2,29z
			 M207.2,26v-2c0.7,0.3,1.3,0.7,2,1v1H207.2z M204.2,26c1.7,0.6,1,0.2,2,1C204.4,26.4,205.2,26.8,204.2,26z M203.2,10h-2
			c1.8-1.6,4.3-2.3,6-4c0.7,0.3,1.3,0.7,2,1c0,2.7,0,4.6,1,6v1C206,13.6,204.5,13.4,203.2,10z M207.2,68c1.7,0.6,1,0.2,2,1
			C207.4,68.4,208.2,68.8,207.2,68z M206.2,61c0.8,1.2,0.8,1.7,1,4C206.3,63.8,206.4,63.3,206.2,61z M209.2,59h-2v-2
			c0.7,0.3,1.3,0.7,2,1V59z M209.2,52h-2v-2c0.7,0.3,1.3,0.7,2,1V52z M208.2,47c-1,1.3-2.7-0.7-4-2c1.2-0.7,2.1-1.1,3-2h2
			C208.9,45.3,209,45.8,208.2,47z M208.2,40c-1.1-0.6,1.5-3,2-6c1,0.7,2,1.3,3,2v4C210,40.3,210,40.9,208.2,40z M213.2,53
			c-1.7-0.6-1-0.2-2-1C212.9,52.6,212.1,52.2,213.2,53z M216.2,65h-1c-1.4-2-1.3-2.1-4-3c0.3-1,0.7-2,1-3c1.9,1.5,1.7,2.8,4,4V65z
			 M217.2,46c-2.5-1.6-1-0.2,0-3h3v1C218.9,44.7,218.1,45.1,217.2,46z M280.2,23c0.1-7.3,0.4-15.5-2-20c-18,0-30.6,0.1-48,0
			c-1.7,4.8-1.1,13.6-1,20H280.2z M262.2,10h1v2h-1V10z M332.2,3c0.2,7.9,2.2,33.9,0,40v23c1-0.3,2-0.7,3-1c-6.6,8-2.7,36.6-3,47
			c9.8,0,15.9-0.2,24,0V68c-1.2,0.7-2.1,1.1-3,2h-1c0.7-3.2,2-5.1,4-7c0.1-16.1,3.2-49.8-3-60H332.2z M335.2,105h-2v-2
			c0.7,0.3,1.3,0.7,2,1V105z M337.2,30h2C338.2,31.8,338.8,31.1,337.2,30z M340.2,75h-1v-2h1V75z M350.2,102h-2v-2h2V102z M350.2,86
			h2C351.2,87.8,351.8,87.1,350.2,86z M410.2,15c-8.3-12.4-28.7-12.4-50-12c-0.1,6.5-0.7,15.1,1,20c5.8-0.1,14.7-1.8,19,1
			c7.1,0.7,6.9,4.6,11,8c0.3,3.6,1.2,4.9,0,7c-0.3,11-6.4,10-11,16c-2.3-0.2-2.8-0.2-4-1c-5.4-0.1-12.1-0.3-16,1
			c0.1,3.3,0.2,7.4,0,8c-0.1,4.3,0,9.1,1,12c27.4,0.6,43.7-3.2,52-22c2-4.6,5.1-14.6,3-23C414.2,25,412.2,20,410.2,15z M363.2,60
			c-0.3-1-0.7-2-1-3c1.7,0.6,1,0.2,2,1h1L363.2,60z M370.2,58h-1v-2h1V58z M377.2,59c1.7,0.6,1,0.2,2,1
			C377.4,59.4,378.2,59.8,377.2,59z M442.2,69c-0.3-3.1,1-9.4,1-14V3c-7.6-0.1-18.1-1-24,1v52c0,7.8,2.1,16,0,20
			c0.7,3.3,3.1,3.5,7,5v1c-3.4-0.3-4.4-1-5-1h-2c0.1,11.1,2.9,23.3,0,29v2c10.6,0,13.4,0,24,0c-0.6-4.2,0.7-2.9-3-3
			C445.2,100.7,443.2,80.3,442.2,69z M425.2,76v-3h4c-0.6,1.7-0.2,1-1,2C427.1,75.8,427.2,75.6,425.2,76z M430.2,85h-1v-2h1V85z
			 M436.2,16c-1-0.3-2-0.7-3-1c1.5-2.5-0.2-1.2,3-2V16z M437.2,66h2C438.2,67.8,438.8,67.1,437.2,66z M439.2,62c1.7,0.6,1,0.2,2,1h1
			v2h-2C439.8,64,439.5,63,439.2,62z M538.2,3c-3,2.2-2.4,10.2-4,14c-3.9,9.1-8,20.8-12,30c-0.3,2.7-0.7,5.3-1,8
			c-1.2,2.9-4.5,7.8-3,11c-1.5,2.5,0.2,1.2-3,2c-0.9,10.1-6.9,17.4-9,26c-0.9,3.7-0.1,11.9,0,18h23c1.8-25.9,18.8-51.9,22-80h2
			c3.3,12.3,6.7,24.7,10,37c-5.1-0.1-14.7-1.2-18,1c-3.2,4.4-2.5,12.8-6,17v2c9.5-0.1,23.3-1.6,31,1c1.3,6.1,2.7,15.2,6,20v2h28
			c-12.7-36.3-25.3-72.7-38-109H538.2z M516.2,105c1.7,0.6,1,0.2,2,1C516.4,105.4,517.2,105.8,516.2,105z M523.2,107
			c-0.8-0.2-0.7,0.3-2-2c1.2,0.7,2.1,1.1,3,2H523.2z M628.2,51c4.9-10,9.9-20.3,14-31c-3.8-3.7-6-11.7-8-17h-27
			c4.4,16.8,17.3,30.8,20,48H628.2z M624.2,12c0.3-1,0.7-2,1-3h2c-0.9,2.2-0.9,1.5-2,3H624.2z M645.2,23c-7.7,15.9-14.2,32.5-21,48
			c-5.6,12.7-8.7,28.6-17,39v2h27c3-1.7,10.8-26,13-31c7.2-16.3,13.1-30.2,21-48c4-8.9,11.7-19.2,13-30h-27
			C652.8,10.5,648.1,17,645.2,23z M627.2,106h-3c0.3-1,0.7-2,1-3c0.7,0.3,1.3,0.7,2,1V106z M644.2,46c2.2-0.6,2.6-0.7,4-2h1
			c-0.3,1-0.7,2-1,3h-4V46z M648.2,75c-0.8-1.1-0.6-0.9-1-3h1V75z M644.2,70v-3c1.3,0.3,2.7,0.7,4,1C646.7,70.5,647.7,69.6,644.2,70
			z M648.2,59h3C649.4,59.9,649.9,59.9,648.2,59z M651.2,56c-2.7-0.7-1.6,0.6-2-2c0.7,0.3,1.3,0.7,2,1V56z M660.2,11
			c-1.7-0.6-1-0.2-2-1C659.9,10.6,659.1,10.2,660.2,11z M659.2,37c-1.6-1.4-1.2-0.6-2-3C658.1,34.9,658.5,35.7,659.2,37z M686.2,3
			c-2.9,15.6-1,36.6-1,54c0,9,2.4,16.5,0,20c1.3,2.3,2.7,2.7,7,3v2c-3.7-0.4-2.9-0.6-5-2c-0.7,0.7-1.3,1.3-2,2
			c0.2,11.2,2.9,24.1,0,29v1c11.3,0,13.7,0,25,0v-3h-3c5.3-9.4,0.6-21.7,2-34c0.8-7.3,1-22.3,1-36c0-7.2-1.7-22.4,0-26
			c0-3.8-0.2-7.6-1-10H686.2z M688.2,85c1.7,0.6,1,0.2,2,1C688.4,85.4,689.2,85.8,688.2,85z M688.2,69c1.7,0.6,1,0.2,2,1
			C688.4,69.4,689.2,69.8,688.2,69z M691.2,76v-3h4c-0.6,1.7-0.2,1-1,2C693.1,75.8,693.2,75.6,691.2,76z M697.2,85h-2v-2h2V85z
			 M698.2,69c1.7,0.6,1,0.2,2,1C698.4,69.4,699.2,69.8,698.2,69z M702.2,15v1c-2.5-1.5-1.2,0.2-2-3c1.7,0.6,1,0.2,2,1h1
			C702.8,14.3,702.5,14.7,702.2,15z M705.2,68h-1v-2h1V68z M708.2,65h-2c-0.3-1-0.7-2-1-3c1.7,0.6,1,0.2,2,1h1V65z M797.2,3h-24v72
			c0.4,4.5,1.5,4.3,6,5v2c-3.2-0.6-2.9-0.9-5-2c-2.6,7.7-1.1,23.4-1,32c10.6,0,13.2-0.1,24,0c-0.6-4.2,0.7-2.9-3-3
			c5.5-9.1,0.6-21.2,2-33C798.1,59.4,797.4,24.4,797.2,3z M775.2,85c1.7,0.6,1,0.2,2,1C775.4,85.4,776.2,85.8,775.2,85z M784.2,85
			h-1v-2h1V85z M781.2,76c-1.7-0.6-1-0.2-2-1c-0.3-0.3-0.7-0.7-1-1c1.3-0.5,3.9-1.2,5-2h1C783.2,73.3,782.2,74.7,781.2,76z
			 M785.2,69c1.7,0.6,1,0.2,2,1C785.4,69.4,786.2,69.8,785.2,69z M790.2,16h-3c-0.6-1.7-0.2-1-1-2v-1h4V16z M791.2,66
			c1.7,0.6,1,0.2,2,1C791.4,66.4,792.2,66.8,791.2,66z M795.2,65c-2.5-1.5-1.2,0.2-2-3c0.7,0.3,1.3,0.7,2,1V65z M887.2,65h-4
			c0.9-3.2-0.5-1.5,2-3c-6.6-16.1-39.3-16-54-24c-1.8-9.2,3.8-11.4,4-16c2.1,0.4,1.9,0.2,3,1h7c0.6-1.7,0.2-1,1-2
			c0.1-5.9,0.5-13.6-1-18c-9.6,0.8-20.3,2.7-27,7c-10,6.5-17,27.5-8,41c2.9,4.3,29.1,21.3,34,12h2c-1.1,2.3-0.9,1.8-3,3v1
			c4.5-0.4,5.5-2.2,8-1h6c-0.6,1.7-0.2,1-1,2v2c3.8,0.4,7.2,1.9,10,0c2.3,0.3,2.5,0.5,4,1c-1.4,2.7-1.4,2.5-5,3v2
			c1.6,0.6,2.4,0.8,5,1c-1,2.4-3.2,2.9-4,5c-2.4,6.1,2,5.2-2,9c-0.9,1.1-2.5,0.1-4-1h-1c0.4,2.1,0.2,1.9,1,3v2c-2.3-0.5-1.1-0.9-3,0
			h-3c1.4-1.6,0.6-1.2,3-2v-2c-2.2,0.9-5.3,1.6-7,3c-1.1,1.1,1.6,4.2,0,7v3c1-0.3,2-0.7,3-1c0.3,0.3,0.7,0.7,1,1c-1.4,2-1.3,2.1-4,3
			c-0.3,2.3-0.5,2.5-1,4c0.3,0.3,0.7,0.7,1,1c13.3-0.1,20.1-3.8,29-8c-0.8-3.8-1.1-2.8-3-5c1.7-0.6,1-0.2,2-1c2.5,1.5,1.2-0.2,2,3h2
			c4.1-6.1,8.2-10.2,8-21h-4c1.3-1.3,2.7-2.7,4-4C889.9,69.9,888.4,69.4,887.2,65z M874.2,63c-0.8-1.1-0.6-0.9-1-3h3
			C875.2,62.2,875.3,61.5,874.2,63z M876.2,90c-1.7-0.6-1-0.2-2-1C875.9,89.6,875.1,89.2,876.2,90z M872.2,57h1v2h-1V57z M867.2,94
			c0.7-2.3,1-2.2,2-4l2,2c-0.6,1.7-0.2,1-1,2c-1,0.8-0.2,0.4-2,1v-1H867.2z M876.2,97c-1.8,1.4-3.1,1.1-4,1h-2c1.2-2.2,1.4-1.5,3-3
			h4C876.5,96.7,877,96,876.2,97z M877.2,75c1.7,0.6,1,0.2,2,1C877.4,75.4,878.2,75.8,877.2,75z M882.2,92h-2v-2
			c0.7,0.3,1.3,0.7,2,1V92z M854.2,24c5,0.5,5.8,2.1,9,4c1,3.7,2.5,5.6,3,10c6.1-0.1,18.1,0,22-3c1-2.1-0.9-7-2-10
			c-4.3-11.6-13.2-17.1-25-21c-2.6-0.9-5.3,0-7-1h-4c-0.6,6.1,0,12,0,20C852.5,23.2,853,23.2,854.2,24z M975.2,7
			c-0.3-2.3-0.5-2.5-1-4c-2.3,0.3-2.5,0.5-4,1l2,2c-1.1,0.8-0.9,0.6-3,1v3h-2c0.1-2.5,0.1-3.7,1-5V3c-3.5,0.9-1.8-0.6-2,3
			c-5.8-0.9-2.2-1.7-5-3c-4.9-2.2-12.2,1.6-16,1c-13-1.9-33.3-1-47,0c-1,1.9-1.4,2.7-3,4c0.3,0.3,0.7,0.7,1,1c1.6,2.6,1.8-3,5-2
			c4.5,1.4-0.3,2.2,6,2c0.9,3.2-0.5,1.5,2,3v2c-2.3-1-2.2-1.7-4-3c-1.3,2.7-0.6,4.6-2,7v1c-3.8-1.4-3.6-3.4-6-6
			c-1.4,4.1-1.1,5.1-3,9c0.9,0.9,1.3,1.7,2,3h48c-0.4-2.1-0.2-1.9-1-3v-2h4c-0.5,1.5-0.7,1.7-1,4c7.4,0.7,22.5,2.8,27,0h2
			C975.1,18.9,974.2,9,975.2,7z M942.2,9c-1.7,0.9-1.3,0.9-3,0H942.2z M910.2,23h-2v-2h2V23z M914.2,23h-1v-2h1V23z M924.2,21
			c-0.3,0.3-0.7,0.7-1,1v-2c1.7,0.6,1,0.2,2,1H924.2z M932.2,23h-3v-2c1,0.3,2,0.7,3,1V23z M937.2,12h-1v-2h1V12z M940.2,17h-1
			c1-1.3,2-2.7,3-4c0.8,1.1,0.6,0.9,1,3C941.1,16.4,941.2,16.2,940.2,17z M953.2,11c-2-0.8-0.9,1.4-3-1
			C951.1,10.2,953.8,9.2,953.2,11z M959.2,20h-2c-0.3-1-0.7-2-1-3c1,0.7,2,1.3,3,2V20z M956.2,11h-1c0.5-1.5,0.7-1.7,1-4
			c1.7,0.6,1,0.2,2,1h1C958,10.2,957.7,9.5,956.2,11z M968.2,13c-1.6,1.4-1.2,0.6-2,3h-1l-3-3c-0.9-1.9-0.4-0.7,0-3
			c4,1.7,1.6,1.9,6,2V13z M61.2,33c1.9-0.9,0.7-0.4,3,0v-4c-8.1,0.1-17.9,2.5-22,0h-2v30h5v1c-3.4,0.9-2.4,1.1-5,1v51h24
			c0.2-18.7-0.6-39.2,0-50C64.6,53.3,65.4,36.1,61.2,33z M44.2,56c-2.3-1.1-1.8-0.9-3-3c1,0.7,2,1.3,3,2V56z M42.2,69
			c1.7,0.6,1,0.2,2,1C42.4,69.4,43.2,69.8,42.2,69z M49.2,67c-1,1.3-2.7-0.7-4-2c2.1,0.4,1.9,0.2,3,1c1.7,0.6,1,0.2,2,1H49.2z
			 M51.2,58h-1v-2h1V58z M54.2,71h-2v-2h2V71z M59.2,75h-2c0.3-1,0.7-2,1-3h2c-0.6,1.7-0.2,1-1,2V75z M62.2,78h-2v-2h2V78z
			 M944.2,33c1.9-0.9,0.7-0.4,3,0v-4c-7.8,0.1-18,2.4-22,0h-2c0,11.8,0,16.7,0,30h6c-2.4,2.2-3.3,2.5-6,2v51h24V55
			C947.2,47.7,949.1,35.7,944.2,33z M925.2,54h2C926.2,55.8,926.8,55.1,925.2,54z M933.2,67c-3.1-0.6-2.4-0.2-4-2h3
			c0.3,0.3,0.7,0.7,1,1V67z M933.2,56c1.7,0.6,1,0.2,2,1C933.4,56.4,934.2,56.8,933.2,56z M937.2,71h-1v-2h1V71z M940.2,73
			c1.7-0.6,1-0.2,2-1c0.8,1.1,0.6,0.9,1,3h-3V73z M946.2,77c-0.3,0.3-0.7,0.7-1,1h-2v-2h3V77z M165.2,45c-6.8,0.1-35.1,0.8-36,0h-2
			c0.5,2.7,1.4,3.8,0,6c-0.1,4.6-0.1,9.9,1,13c12.4-1.1,25.8,0.7,38,0c0.1-4.9,1.1-13.8-1-17V45z M130.2,62h-2v-2h2V62z M161.2,53
			h-1c-0.3-1-0.7-2-1-3h2V53z M275.2,64l1-1V46c-3.4-0.7-14.4-2-16-1c-7.3-0.2-25.4-1.5-26,2c-2.4-0.9-1.7-0.4-3-2h-2
			c0.8,4.8,0,11.8,0,19C244.6,63.6,260.5,64.9,275.2,64z M269.2,50l1,1v2h-3c-0.3-1-0.7-2-1-3H269.2z M262.2,47c-1.7-0.6-1-0.2-2-1
			C261.9,46.6,261.1,46.2,262.2,47z M240.2,57c0.7,0.3,1.3,0.7,2,1v1h-2V57z M233.2,62h-3v-2h3V62z M831.2,88c-3.5-2.6-3.1-8.8-6-12
			c-2.7-1.5-18.1,0.1-22,0c0.3,19.3,10.8,30,24,34c8.4,2.5,11.4-3.2,16,2c5.5-3.4-0.9-9.4,3-16C844.6,90,835.5,91.2,831.2,88z
			 M804.2,79c1.7,0.6,1,0.2,2,1C804.4,79.4,805.2,79.8,804.2,79z M280.2,92c-14.1,0.5-28.2,0-46,0c-1.9,7.7-3.8,9-5,18
			c0.8,1,0.4,0.2,1,2h7c-2.1-5.3-3.2-8-3-13c4.3,1.2,0.9,2.4,5,5c-0.9,2.4-0.4,1.7-2,3c0.9,2.7,1.7,2.9,3,5h3v-3
			c0.9,0.6,1.5,2.7,2,3c3.3,2,10.5-0.7,12,0c7.6,0.1,18.1,1,24-1c-0.5-7-1-12.1,0-18L280.2,92z M254.2,108c1.7,0.6,1,0.2,2,1
			C254.4,108.4,255.2,108.8,254.2,108z M259.2,107c-2.5-1.5-1.2,0.2-2-3h2V107z M277.2,101c1.7,0.6,1,0.2,2,1
			C277.4,101.4,278.2,101.8,277.2,101z M501.2,103c-1.3-1-2.7-2-4-3c2.1-4.1-1-3.9-2-8c-17.8,0-31.9,0.5-46,0v20
			c9.4,0.3,34.1,1.4,36-3c0.8,1.1,0.6,0.9,1,3c3.4-0.6,3.1-1.2,6-2c-0.4-6,0.1-5.8,1-11h2c0,5-0.3,9.7-3,12v1c3.3,0,6-0.3,8-1
			c-0.3-1.7-0.7-3.3-1-5C499.2,105.7,501.5,103.8,501.2,103z M452.2,102h-1v-2h1V102z M473.2,108c1.7,0.6,1,0.2,2,1
			C473.4,108.4,474.2,108.8,473.2,108z M761.2,95v-3c-17.8,0-31.9,0.5-46,0c0.3,6,0,11.9,0,20c11.2,0.3,34.2,1.2,36-3
			c2.6,1.7,1.4,0.1,1,3c3.4-0.6,3.1-1.2,6-2c-0.4-6.7,0.9-6.4,1-11h2c0,4.2-0.2,8.5-2,11v2c4.1,0,5.2,0.1,7-2c2.6-4.3-1.6-8.6-2-15
			H761.2z M718.2,102h-1v-2h1V102z M229.2,98h1c-0.6-1.7-0.2-1-1-2V98z M501.2,96h-2v2h2V96z M765.2,98h2v-2h-2V98z M107.2,106h1
			c-0.6-1.7-0.2-1-1-2V106z M210.2,104h-2C209.7,105.2,209,105.6,210.2,104z M100.2,112v-1h-2C99.2,111.8,98.4,111.4,100.2,112z"/>
	</g>
</g>
</svg>
