<?xml version="1.0" encoding="utf-8"?>
<!-- Generator: Adobe Illustrator 18.1.1, SVG Export Plug-In . SVG Version: 6.00 Build 0)  -->
<!DOCTYPE svg PUBLIC "-//W3C//DTD SVG 1.1//EN" "http://www.w3.org/Graphics/SVG/1.1/DTD/svg11.dtd">
<svg version="1.1" id="Layer_1" xmlns="http://www.w3.org/2000/svg" xmlns:xlink="http://www.w3.org/1999/xlink" x="0px" y="0px"
	 viewBox="0 0 525.3 70.6" enable-background="new 0 0 525.3 70.6" xml:space="preserve">
<g>
	<path d="M139.6,1.9h-18.6V44c0,1.9-2,10.3-10.8,10.3c-9,0-11.6-8.1-11.6-10.2V1.9H83.4c0,0,0,0,0,0H48.1c-0.4-0.4-1-0.7-1.6-0.7
		h-21c-1,0-1.8,0.6-2.1,1.5l-0.3,0c0,0-2.4,0.7-2.9,2c-0.3,0.7,0.9,1.7,0.9,1.7l-3.2,1.9H15c-0.9,0-1.7,0.7-1.7,1.7
		c0,0.1,0,0.3,0.1,0.4l-0.3,0.3v1.9L12,14.1H9c-1.3,0-2.3,1-2.3,2.3c0,1.3,1,2.3,2.3,2.3h0.7l-0.5,1.8H4.9c-1.3,0-2.3,1-2.3,2.3
		c0,1.3,1,2.3,2.3,2.3h5.9l-0.9,1.8H3c-1.3,0-2.3,1-2.3,2.3c0,1.3,1,2.3,2.3,2.3h9.6l0,0.1l1.4,1.8H2.3c-1.3,0-2.3,1-2.3,2.3
		c0,1.3,1,2.3,2.3,2.3h15.5l0.3,0.6l3.3,1.2h-19c-1.3,0-2.3,1-2.3,2.3c0,1.3,1,2.3,2.3,2.3h22.6l0.1,1.8H5.3c-1.3,0-2.3,1-2.3,2.3
		c0,1.3,1,2.3,2.3,2.3h19l0.4,1.8H8.6c-1.3,0-2.3,1-2.3,2.3c0,1.3,1,2.3,2.3,2.3h19.1l1.1,1.8H14.7c-1.3,0-2.3,1-2.3,2.3
		c0,1.3,1,2.3,2.3,2.3h17.1l1,1.8h-7.9c-1.3,0-2.3,1-2.3,2.3c0,1.3,1,2.3,2.3,2.3h22.3c0.6,0,1.2-0.3,1.6-0.6h53.4
		c2.4,0.5,5,0.8,8,0.7c27.1-0.4,29.5-22.4,29.5-23.5V1.9z M83.6,56.9c0.6,1,1.3,2.1,2.1,3.2H58.9c-0.4-0.4-1-0.7-1.6-0.7H41l0.7-1.3
		v-0.5h21.7c0.6,0,1.2-0.3,1.6-0.7H83.6z M82.1,53.6H65c-0.4-0.4-1-0.7-1.6-0.7H42.9l0.9-1.8h22.8c0.6,0,1.2-0.2,1.6-0.6H81
		C81.2,51.3,81.6,52.4,82.1,53.6z M80.4,34.2h-9.1c-0.4-0.4-1-0.7-1.6-0.7H35.1L35,32.2l0.2-0.5h33.7c0.6,0,1.2-0.3,1.6-0.7h9.8
		L80.4,34.2z M80.3,27.7h-9.8c-0.4-0.4-1-0.7-1.6-0.7H40.5l1-0.6l0.2-1.3h25.3c0.6,0,1.2-0.3,1.6-0.7h11.6L80.3,27.7z M80.3,21.3
		H68.7c-0.4-0.4-1-0.7-1.6-0.7H44.4l0.6-0.9l0.4-1H63c0.6,0,1.2-0.3,1.6-0.7h15.7L80.3,21.3z M80.3,14.8H64.6
		c-0.4-0.4-1-0.7-1.6-0.7H39.9v-1.9h17.4c0.6,0,1.1-0.2,1.6-0.6h21.5L80.3,14.8z M46.5,5.8c0.6,0,1.2-0.2,1.6-0.7h32.2l0,3.2H58.9
		c-0.4-0.4-1-0.7-1.6-0.7H36.9l-0.1-1.8H46.5z M33.3,12.3h3.2l0.6,1.9h-3.4l-0.6-1.7L33.3,12.3z M32.2,5.8l0.2,1.8H31l-0.4-1.8H32.2
		z M24.8,33.5l-0.7-0.8l-0.3-1h6l0.4,0.5l0.7,1.4H24.8z M29,40l-2-1.6l-0.2-0.2h42.8c0.6,0,1.2-0.3,1.6-0.7h9.1l0,3.2h-9.3
		c-0.4-0.4-1-0.7-1.6-0.7H29z M34.1,44.6h35.4c0.6,0,1.2-0.3,1.6-0.7h9.3l0,3.2H68.3c-0.4-0.4-1-0.7-1.6-0.7h-26l-0.5-0.3l-4.9-0.5
		L34.1,44.6z M48.8,66.5c-0.4-0.4-1-0.7-1.6-0.7h-7.6L39.1,64h18.2c0.6,0,1.2-0.2,1.6-0.6h29.8c1.3,1.1,2.7,2.2,4.4,3.2H48.8z"/>
	<path d="M204.6,1.9L188,44.8c0,0-0.4-4.6-3.7-9.6c-2.9-4.4-6.9-6.2-15.5-8.6c-8.6-2.2-9.9-4.5-9.2-7.5c0.7-2.9,3.2-4.4,6.2-4.4
		c6.9,0.1,13.1,4.8,13.1,4.8l6.9-12.9c0,0-7.9-5.9-20.3-6.5c-4.4-0.1-11-0.1-16.6,4c-5.4,4-7.7,10.4-8.1,16
		c-0.3,5.7,0.7,11.6,5.7,15.6c4.9,4,12.2,4.9,16.5,6.2c4.2,1.3,6.6,3.2,5.3,7.9c-1.1,3.8-5.3,5.3-11,4.4c-6.9-1.2-12.2-7-12.2-7
		l-7.8,14.3c0,0,11.4,9,25.5,9c12.5,0,18.2-7.4,18.2-7.4l-2,6.6h18.5l4.4-11.9h22.7l4.4,11.9h19.2L223.3,1.9H204.6z M207.5,43.5
		l6.3-17.2l6.2,17.2H207.5z"/>
	<path d="M439.7,1.9l-15.4,40.4c0.4-2.4,0.6-4.8,0.6-7.6c0-29.1-26-32.8-28.4-32.8h-31v22.6c-4.9-13.9-18.6-23.9-34.7-23.9
		c-11.9,0-22.4,5.4-29.1,13.7V1.9h-44.5v15.6H270v51.8h18.2V17.1h11.5c-3.5,5.4-5.6,11.7-5.6,18.6c0,19.3,16.4,35,36.7,35
		c16.2,0,29.9-10,34.7-23.9v22.5h29.7c1.2,0,15.5-1.2,23.8-13.2l-5,13.2h18.2l4.9-11.9h22.5l4.4,11.9h18.8L457.5,1.9H439.7z
		 M330.6,54.1c-10.5,0-19-8.1-19-18.2c0-10,8.5-18.2,19-18.2c10.5,0,19,8.1,19,18.2C349.5,46,341,54.1,330.6,54.1z M384.2,53.8v-37
		c0,0,22.5-4.6,22.5,18.1C406.7,58.7,384.2,53.8,384.2,53.8z M442.1,43.9l6.6-18.9l6.6,18.9H442.1z"/>
	<polygon points="505.1,1.9 493.6,19.7 481.7,1.9 460.8,1.9 483.9,36.6 483.9,69.3 502.2,69.3 502.2,36.2 525.3,1.9 	"/>
</g>
</svg>
